<?xml version="1.0" encoding="utf-8"?>
<!-- Generator: Adobe Illustrator 22.0.1, SVG Export Plug-In . SVG Version: 6.00 Build 0)  -->
<svg version="1.1" id="a5860ba0-ef67-4914-ac96-07e2ebcccb4f"
	 xmlns="http://www.w3.org/2000/svg" xmlns:xlink="http://www.w3.org/1999/xlink" x="0px" y="0px" viewBox="0 0 1095.7 664"
	 style="enable-background:new 0 0 1095.7 664;" xml:space="preserve">
<style type="text/css">
	.st0{fill:#41A6E0;}
	.st1{fill:#83C8EF;}
	.st2{fill:#8CD5FF;}
	.st3{fill:#63B6E6;}
	.st4{fill:url(#SVGID_1_);}
	.st5{fill:#5A67A3;}
	.st6{fill:url(#SVGID_2_);}
	.st7{fill:#343F73;}
	.st8{fill:url(#SVGID_3_);}
	.st9{fill:#D9D9D9;}
	.st10{fill:url(#SVGID_4_);}
	.st11{fill:#6877BD;}
	.st12{fill:#B5E4FF;}
	.st13{fill:#F2FFF5;}
	.st14{opacity:0.25;fill:#D9D9D9;}
	.st15{opacity:0.25;fill:#484D45;}
	.st16{fill:url(#SVGID_5_);}
	.st17{fill:url(#SVGID_6_);}
	.st18{fill:url(#SVGID_7_);}
	.st19{fill:#46B2F0;}
	.st20{fill:#44AEEB;}
	.st21{fill:#47B5F5;}
	.st22{opacity:0.25;fill:#404040;}
	.st23{fill:#FFFFFF;}
	.st24{fill:url(#SVGID_8_);}
	.st25{fill:#436132;}
	.st26{fill:#262D33;}
	.st27{fill:#4C9422;}
	.st28{fill:#51753C;}
	.st29{fill:#64B535;}
	.st30{fill:#9FC759;}
	.st31{opacity:0.2;fill:#BFBFBF;}
	.st32{opacity:0.2;fill:#1A1A1A;}
	.st33{fill:#BABABA;}
	.st34{fill:#999999;}
	.st35{fill:#EAEAEA;}
	.st36{fill:#EBEBEB;}
	.st37{fill:#C9905B;}
	.st38{fill:#E9BD8C;}
	.st39{fill:#A16C4C;}
	.st40{fill:#BA8554;}
</style>
<g>
	<path class="st0" d="M577,576.6c0,5.6-1.2,11-3.9,16.2c-6.8,15.2-23.6,28.1-46.3,36.5c-17.6,6.5-38.5,10.4-61.1,10.4
		c-12.1,0-23.8-1.1-34.7-3.1c-9.5-1.7-18.3-4.2-26.4-7.3c-22.7-8.4-39.5-21.3-46.5-36.4c-2.5-5.1-3.9-10.4-3.9-16
		c0-28,32.2-51.6,76.8-60c10.9-2,22.5-3.1,34.5-3.1C527.1,513.8,577,541.9,577,576.6z"/>
	<path class="st1" d="M583.3,222.4v342.7c0,5.9-1.3,11.6-4.1,17.1c-7.2,16.1-25,29.8-48.9,38.6c-18.5,6.9-40.7,11-64.5,11
		c-12.9,0-25.1-1.2-36.7-3.3c-10-1.8-19.4-4.4-27.9-7.7c-3.8-1.4-7.6-3-11.1-4.7c-18.3-8.6-31.8-20.4-38-33.8
		c-2.6-5.4-4.1-11-4.1-16.9V222.7c0-26.5,27.3-49.3,67-60.1c4.6-1.3,9.3-2.4,14.2-3.3c2.9-0.5,5.8-1,8.8-1.4c2.9-0.4,6-0.8,9.1-1.1
		c6.1-0.6,12.3-0.8,18.6-0.8c18.2,0,35.4,2.3,50.8,6.5c8.7,2.3,16.8,5.3,24.1,8.7c4.4,2.1,8.5,4.3,12.3,6.6c2.5,1.6,4.9,3.2,7.2,4.9
		s4.4,3.5,6.3,5.3c1,0.9,1.9,1.8,2.8,2.8C578.2,200.2,583.3,210.9,583.3,222.4z"/>
	<path class="st2" d="M583.3,222.4c0,5.9-1.3,11.6-4.1,17.1c-3.6,8-9.9,15.4-18.1,22c-17.8-19.5-53.8-33-95.6-33
		c-11.5,0-22.7,1.1-33.2,3c-14.1,2.7-26.8,6.9-37.6,12.3c-10,5-18.2,11-24.4,17.7c-8.3-6.5-14.6-13.9-18.3-21.9
		c-2.6-5.4-4.1-11-4.1-16.9c0-26.5,27.3-49.3,67-60.1c4.6-1.3,9.3-2.4,14.2-3.3c2.9-0.5,5.8-1,8.8-1.4c2.9-0.4,6-0.7,9.1-1
		c6.1-0.6,12.3-0.8,18.6-0.8c18.2,0,35.5,2.3,50.8,6.5c8.7,2.3,16.8,5.2,24.1,8.6c4.4,2.1,8.5,4.3,12.3,6.6c2.5,1.6,4.9,3.2,7.2,4.9
		s4.4,3.5,6.3,5.3c1,0.9,2,1.8,2.8,2.8C578.2,200.2,583.3,210.9,583.3,222.4z"/>
	<path class="st3" d="M527.3,187.6c0,3.1-0.7,6.1-2.2,9c-3.8,8.4-13.1,15.5-25.7,20.2c-9.7,3.6-21.3,5.7-33.8,5.7
		c-6.7,0-13.2-0.6-19.2-1.7c-5.2-0.9-10.1-2.3-14.6-4c-4.8-1.8-9.2-4-12.9-6.5c-6-3.8-10.4-8.5-12.9-13.7c-1.4-2.8-2.2-5.7-2.2-8.9
		c0-4.1,1.3-8,3.6-11.6h-0.1c3-4.2,5.5-8.7,7.5-13.5c4.8-11.5,7.2-24.5,8.4-36.7l0.2-1.7l28,2.2l14.1,1.1l42.1-3.2l0.2,1.7
		c1.2,12.2,3.5,25.1,8.3,36.6c0.1,0,0.1,0.1,0.1,0.1c2.1,4.8,4.5,9.4,7.5,13.6h-0.1C526,179.7,527.3,183.5,527.3,187.6z"/>
	<g>
		<g>
			
				<linearGradient id="SVGID_1_" gradientUnits="userSpaceOnUse" x1="423.1" y1="533.05" x2="508.2" y2="533.05" gradientTransform="matrix(1 0 0 -1 0 666)">
				<stop  offset="0.1348" style="stop-color:#293466"/>
				<stop  offset="0.1463" style="stop-color:#374273"/>
				<stop  offset="0.4835" style="stop-color:#374273"/>
				<stop  offset="0.4946" style="stop-color:#404D87"/>
				<stop  offset="0.8756" style="stop-color:#404D87"/>
				<stop  offset="0.8788" style="stop-color:#374273"/>
			</linearGradient>
			<path class="st4" d="M508.2,113.1v15.6c0,0.9-0.1,1.8-0.3,2.7c-2.3,12.1-20.4,21.4-42.2,21.4c-4.6,0-9.1-0.4-13.2-1.2
				c-15.5-2.9-27.1-10.6-29-20.1c-0.2-0.9-0.3-1.8-0.3-2.7l-0.1-8v-7.5h10.5l18.9-0.1l45.3-0.1C497.8,113.1,508.2,113.1,508.2,113.1
				z"/>
		</g>
		<path class="st5" d="M508.2,113.1c0,2.1-0.5,4.2-1.5,6.2c-2.6,5.8-9,10.8-17.7,14c-6.7,2.5-14.7,4-23.3,4c-4.6,0-9.1-0.4-13.2-1.2
			c-3.6-0.7-7-1.6-10.1-2.8c-8.7-3.2-15.1-8.1-17.8-13.9c-1-2-1.5-4-1.5-6.1c0-10.7,12.3-19.7,29.4-22.9c4.2-0.8,8.6-1.2,13.2-1.2
			C489.1,89.1,508.2,99.9,508.2,113.1z"/>
	</g>
	<g>
		<g>
			
				<linearGradient id="SVGID_2_" gradientUnits="userSpaceOnUse" x1="426.325" y1="548.05" x2="504.9348" y2="548.05" gradientTransform="matrix(1 0 0 -1 0 666)">
				<stop  offset="0.1348" style="stop-color:#13215C"/>
				<stop  offset="0.1463" style="stop-color:#1E2B69"/>
				<stop  offset="0.4835" style="stop-color:#1E2B69"/>
				<stop  offset="0.4946" style="stop-color:#24347D"/>
				<stop  offset="0.8756" style="stop-color:#24347D"/>
				<stop  offset="0.8788" style="stop-color:#1E2B69"/>
			</linearGradient>
			<path class="st6" d="M504.9,102.9v8c0,0.8-0.1,1.6-0.3,2.5c-2.1,11.1-18.8,19.7-39,19.7c-4.3,0-8.4-0.4-12.2-1.1
				c-14.3-2.6-25-9.8-26.8-18.5c-0.2-0.8-0.3-1.6-0.3-2.5l-0.1-1v-7h9.7l17.4-0.1l41.8-0.1L504.9,102.9L504.9,102.9z"/>
		</g>
		<path class="st7" d="M504.9,102.9c0,2-0.4,3.9-1.4,5.7c-2.4,5.4-8.3,9.9-16.3,12.9c-6.2,2.3-13.6,3.7-21.6,3.7
			c-4.3,0-8.4-0.4-12.2-1.1c-3.3-0.6-6.5-1.5-9.3-2.6c-8-3-13.9-7.5-16.4-12.8c-0.9-1.8-1.4-3.7-1.4-5.6c0-9.9,11.4-18.2,27.1-21.2
			c3.8-0.7,8-1.1,12.2-1.1C487.3,80.7,504.9,90.6,504.9,102.9z"/>
	</g>
	<g>
		<g>
			
				<linearGradient id="SVGID_3_" gradientUnits="userSpaceOnUse" x1="423" y1="572.7" x2="508.2" y2="572.7" gradientTransform="matrix(1 0 0 -1 0 666)">
				<stop  offset="0.1348" style="stop-color:#1E2B63"/>
				<stop  offset="0.1463" style="stop-color:#2B3770"/>
				<stop  offset="0.4835" style="stop-color:#2B3770"/>
				<stop  offset="0.4946" style="stop-color:#324184"/>
				<stop  offset="0.8756" style="stop-color:#324184"/>
				<stop  offset="0.8788" style="stop-color:#2B3770"/>
			</linearGradient>
			<path class="st8" d="M508.2,61.4v39.9c0,0.9-0.1,1.7-0.3,2.6c-2.2,12.1-20.3,21.4-42.2,21.4c-4.6,0-9.1-0.4-13.3-1.2
				c-15.5-2.8-27.1-10.6-29-20.1c-0.2-0.9-0.3-1.8-0.3-2.7L423,73.9V61.5h10.4l18.9-0.1l45.3-0.1L508.2,61.4L508.2,61.4z"/>
		</g>
		<g>
			<path class="st9" d="M508.2,61.4v12.5c-5.9,10.1-22.8,17.3-42.5,17.3c-4.9,0-9.6-0.4-14-1.3c-13.4-2.5-24.1-8.4-28.6-16V61.5
				h10.4l18.9-0.1l45.3-0.1L508.2,61.4L508.2,61.4z"/>
		</g>
		<path class="st7" d="M508.2,61.4c0,2.1-0.5,4.2-1.5,6.2c-2.6,5.8-9,10.8-17.7,14c-6.7,2.5-14.7,4-23.3,4c-4.6,0-9.1-0.4-13.2-1.2
			c-3.6-0.7-7-1.6-10.1-2.8c-8.7-3.2-15.1-8.1-17.8-13.9c-1-2-1.5-4-1.5-6.1c0-10.7,12.3-19.7,29.4-22.9c4.2-0.8,8.6-1.2,13.2-1.2
			C489.1,37.4,508.2,48.1,508.2,61.4z"/>
	</g>
	<g>
		<g>
			
				<linearGradient id="SVGID_4_" gradientUnits="userSpaceOnUse" x1="420.6" y1="597.4" x2="510.6" y2="597.4" gradientTransform="matrix(1 0 0 -1 0 666)">
				<stop  offset="0.1348" style="stop-color:#293466"/>
				<stop  offset="0.1463" style="stop-color:#374273"/>
				<stop  offset="0.4835" style="stop-color:#374273"/>
				<stop  offset="0.4946" style="stop-color:#404D87"/>
				<stop  offset="0.8756" style="stop-color:#404D87"/>
				<stop  offset="0.8788" style="stop-color:#374273"/>
			</linearGradient>
			<path class="st10" d="M510.6,51.4v9.2c0,0.9-0.1,1.9-0.3,2.8C507.9,76.2,488.8,86,465.7,86c-4.9,0-9.6-0.4-14-1.3
				c-16.4-3-28.7-11.2-30.7-21.2c-0.2-0.9-0.3-1.9-0.3-2.9l-0.1-1.2v-8h11.1l20-0.1l47.9-0.1h11V51.4z"/>
		</g>
		<path class="st5" d="M510.6,51.4c0,2.3-0.5,4.5-1.6,6.5c-2.8,6.2-9.5,11.4-18.7,14.8c-7.1,2.6-15.6,4.2-24.7,4.2
			c-4.9,0-9.6-0.4-14-1.3c-3.8-0.7-7.4-1.7-10.7-3c-9.2-3.4-16-8.6-18.8-14.7c-1-2.1-1.6-4.2-1.6-6.5c0-11.3,13-20.9,31-24.2
			c4.4-0.8,9.1-1.3,13.9-1.3C490.5,26,510.6,37.4,510.6,51.4z"/>
		<path class="st11" d="M509.1,54c-2.8,6.2-9.5,11.4-18.7,14.8c-7.1,2.6-15.6,4.2-24.7,4.2c-4.9,0-9.6-0.4-14-1.3
			c-3.8-0.7-7.4-1.7-10.7-3c-9.2-3.4-16-8.6-18.8-14.7c-0.8-1.6-1.2-3.2-1.4-4.9c-0.1,0.8-0.2,1.5-0.2,2.3c0,2.3,0.6,4.4,1.6,6.5
			c2.8,6.1,9.6,11.3,18.8,14.7c3.3,1.3,6.9,2.3,10.7,3c4.4,0.8,9.1,1.3,14,1.3c9.1,0,17.6-1.6,24.7-4.2c9.2-3.4,16-8.6,18.7-14.8
			c1.1-2.1,1.6-4.3,1.6-6.5c0-0.7-0.1-1.5-0.2-2.2C510.2,50.8,509.9,52.5,509.1,54z"/>
	</g>
	<rect x="358.4" y="289.2" class="st3" width="214.4" height="275.9"/>
	<path class="st0" d="M572.8,565.1c0,5.4-1.2,10.6-3.7,15.6c-6.6,14.7-22.7,27.1-44.6,35.2c-16.9,6.3-37.1,10-58.8,10
		c-11.7,0-22.9-1-33.4-3c-9.1-1.6-17.7-4-25.4-7c-21.8-8.1-38-20.5-44.7-35c-2.4-4.9-3.7-10-3.7-15.4c0-26.9,31-49.7,73.9-57.7
		c10.5-1.9,21.7-3,33.2-3C524.8,504.7,572.8,531.7,572.8,565.1z"/>
	<path class="st12" d="M561.1,261.4c-8.4,6.6-18.8,12.2-30.8,16.6c-18.5,6.9-40.7,11-64.5,11c-12.8,0-25.1-1.1-36.6-3.3
		c-10-1.8-19.4-4.4-27.9-7.7c-12-4.4-22.5-10.1-30.8-16.6c12.8-14,35-24.9,62-30c10.5-1.9,21.7-3,33.2-3
		C507.2,228.5,543.3,241.9,561.1,261.4z"/>
	<path class="st2" d="M572.8,288.9c0,5.4-1.2,10.6-3.7,15.6c-6.6,14.7-22.7,27.1-44.6,35.1c-16.9,6.3-37.1,10-58.8,10
		c-11.7,0-22.9-1-33.4-3c-9.1-1.6-17.7-4-25.4-7c-21.8-8.1-38-20.5-44.7-35c-2.4-5-3.8-10-3.8-15.4c0-10,4.3-19.4,11.9-27.7
		c8.4,6.5,18.8,12.2,30.8,16.6c8.5,3.3,17.9,5.9,27.9,7.7c11.5,2.1,23.8,3.3,36.6,3.3c23.8,0,46-4.1,64.5-11
		c12-4.4,22.5-10.1,30.8-16.6C568.6,269.7,572.8,279,572.8,288.9z"/>
	<path id="XMLID_12_" class="st13" d="M583.5,279c-0.1,31.1-44.3,56.3-99.2,56.9v239.5c55-0.5,99.3-25.8,99.2-57V279z"/>
	<path class="st14" d="M448.5,150.8c-0.4,2-0.9,4-1.6,6.1c0,0.1,0,0.1,0,0.1c-0.4,1.5-0.9,3-1.4,4.5c-5.8,17.6-15.3,34.2-26.6,48.9
		c-2.2,3-4.6,5.9-7,8.7c-5.1,5.9-10.4,11.7-14.2,18.4c-1.2,2.1-2.2,4.2-3,6.3c-3.7,9.2-4.8,19.3-5,29.5c-0.1,5.3,0.1,10.6,0.3,15.9
		v327c-18.3-8.6-31.8-20.4-38-33.8c-2.6-5.4-4.1-11-4.1-16.9V222.7c0-26.5,27.3-49.3,67-60.1c4.6-11,7-23.2,8.2-34.8v1.1
		c0,0.9,0.1,1.8,0.3,2.7C425.2,140.2,435,147.4,448.5,150.8z"/>
	<path class="st15" d="M482.8,150.8c0.4,2,0.9,4,1.6,6.1c0,0.1,0,0.1,0,0.1c0.4,1.5,0.9,3,1.4,4.5c5.8,17.6,15.3,34.2,26.6,48.9
		c2.2,3,4.6,5.9,7,8.7c5.1,5.9,10.4,11.7,14.2,18.4c1.2,2.1,2.2,4.2,3,6.3c3.7,9.2,4.8,19.3,5,29.5c0.1,5.3-0.1,10.6-0.3,15.9v327
		c18.3-8.6,31.8-20.4,38-33.8c2.6-5.4,4.1-11,4.1-16.9V222.7c0-26.5-27.3-49.3-67-60.1c-4.6-11-7-23.2-8.2-34.8v1.1
		c0,0.9-0.1,1.8-0.3,2.7C506.1,140.2,496.3,147.4,482.8,150.8z"/>
</g>
<g>
	
		<linearGradient id="SVGID_5_" gradientUnits="userSpaceOnUse" x1="627.7" y1="66.9" x2="727.5001" y2="66.9" gradientTransform="matrix(1 0 0 -1 0 666)">
		<stop  offset="0.1613" style="stop-color:#87BBBA"/>
		<stop  offset="0.1633" style="stop-color:#93CCC9"/>
		<stop  offset="0.5593" style="stop-color:#93CCC9"/>
		<stop  offset="0.5622" style="stop-color:#A1DFDC"/>
		<stop  offset="0.8728" style="stop-color:#A1DFDC"/>
		<stop  offset="0.8739" style="stop-color:#97D1D0"/>
	</linearGradient>
	<path class="st16" d="M723.6,587.6c-1.7-2.3-3.8-4.4-6.5-6.4c-9.4-7.1-23.8-11.1-39.3-11.1c-10.9,0-21.2,2-29.9,5.7
		c-7.2,3.1-12.7,7.2-16.1,11.8h-4.1V599l0,0c0,0.1,0,0.2,0,0.3c0,1.2,0.1,2.5,0.4,3.6v0.2c1.1,5.1,4.6,9.9,10,13.9
		c9.4,7.1,23.8,11.1,39.4,11.1c10.8,0,21.2-2,29.9-5.7c10.9-4.7,18-11.6,19.7-19.5v-0.2c0.3-1.2,0.4-2.4,0.4-3.7v-11.3L723.6,587.6
		L723.6,587.6z"/>
	
		<linearGradient id="SVGID_6_" gradientUnits="userSpaceOnUse" x1="622" y1="89.9001" x2="732.5001" y2="89.9001" gradientTransform="matrix(1 0 0 -1 0 666)">
		<stop  offset="0.1261" style="stop-color:#A7DEDD"/>
		<stop  offset="0.1272" style="stop-color:#B1ECE9"/>
		<stop  offset="0.4378" style="stop-color:#B1ECE9"/>
		<stop  offset="0.4407" style="stop-color:#A3D9D6"/>
		<stop  offset="0.8367" style="stop-color:#A3D9D6"/>
		<stop  offset="0.8387" style="stop-color:#97C8C7"/>
	</linearGradient>
	<path class="st17" d="M622,534.3l5.7,55c0,1.2,0.1,2.5,0.4,3.6v0.2c1.1,5.1,4.6,9.9,10,13.9c9.4,7.1,23.8,11.1,39.4,11.1
		c10.8,0,21.2-2,29.9-5.7c10.9-4.7,18-11.6,19.7-19.5v-0.2c0.3-1.2,0.4-2.4,0.4-3.7l5-54.9L622,534.3z"/>
	
		<linearGradient id="SVGID_7_" gradientUnits="userSpaceOnUse" x1="610.5999" y1="139.2" x2="744.7" y2="139.2" gradientTransform="matrix(1 0 0 -1 0 666)">
		<stop  offset="0.1261" style="stop-color:#C4F1F0"/>
		<stop  offset="0.1272" style="stop-color:#CFFFFD"/>
		<stop  offset="0.4378" style="stop-color:#CFFFFD"/>
		<stop  offset="0.4407" style="stop-color:#BFECEA"/>
		<stop  offset="0.8367" style="stop-color:#BFECEA"/>
		<stop  offset="0.8387" style="stop-color:#B2DBDA"/>
	</linearGradient>
	<path class="st18" d="M744.7,482.3l-9.3,59.3v0.2c-0.9,4.1-3.1,8-6.4,11.6c-4,4.4-9.6,8.2-16.7,11.2c-10.2,4.4-22.3,6.7-34.9,6.7
		c-18.2,0-34.9-4.7-46-13c-1-0.8-2-1.6-2.9-2.4c-4.6-4.1-7.6-8.9-8.7-13.8v-0.2c-0.3-1.4-9.2-59-9.2-59L744.7,482.3z"/>
	<path class="st19" d="M722.5,559.1c-0.3,2.5-0.2,5-0.2,7.4c0,3.8-0.1,7.5-0.3,11.2c-0.2,3.5,0.3,8.2-0.9,11.5
		c-1.1-0.3-2-1.2-3.1-1.2c-1-0.1-2,0-3,0c-2.5,0-5,0-7.4,0c-6.2,0-12.5,0-18.7,0c-3,0-6,0-9.1,0h-4.5c-3,0-6,0-9.1,0
		c-6.2,0-12.5,0-18.7,0c-2.5,0-5,0-7.4,0c-1,0-2-0.1-3,0c-1.2,0-2.1,1-3.1,1.2c-1.2-3.3-0.8-8-0.9-11.5c-0.2-3.7-0.3-7.5-0.3-11.2
		c0-2.5,0-5-0.2-7.4c11,7.8,27.3,12.2,45,12.2c12.7,0,24.8-2.3,34.9-6.7C716.1,563,719.5,561.1,722.5,559.1z"/>
	<path class="st0" d="M721.2,588c0,1.1-0.1,2.1-0.4,3.2l0,0c-1,4.4-4.2,8.6-9.3,12.2c-2.2,1.6-4.9,3.1-7.9,4.3
		c-19.2,8.1-46.3,6.2-61.2-4.2c-0.2-0.2-0.5-0.3-0.7-0.5c-4.8-3.5-7.6-7.6-8.6-11.7l0,0c-0.3-1-0.4-2.1-0.4-3.1
		c0-7.5,6.1-14.9,17.6-19.8c0.5-0.2,0.9-0.4,1.4-0.5c7.8,2.2,16.5,3.4,25.6,3.4c8.9,0,17.5-1.1,25.4-3.3c3.5,1.4,6.7,3.1,9.5,5.2
		C718.3,577.5,721.2,582.8,721.2,588z"/>
	<path class="st20" d="M702.8,567.9c-7.9,2.2-16.5,3.3-25.4,3.3c-9.1,0-17.8-1.2-25.6-3.4c7.7-3.1,16.6-4.5,25.4-4.5
		C686.3,563.4,695.3,564.9,702.8,567.9z"/>
	<path class="st21" d="M736.4,506.6c-0.3,0-1.9,12.3-2,13.1c-0.6,3.9-1.4,7.7-1.8,11.7c-0.7,6.4-1.5,13-5.9,18
		c-0.8,0.9-1.7,1.8-2.4,2.8c-0.7,1.1-1.1,2.3-1.4,3.5c-0.3,1.1-0.4,2.2-0.5,3.3c-2.9,2.1-6.3,3.9-10.1,5.6c-3,1.3-6.2,2.4-9.5,3.3
		c-7.5-3-16.5-4.6-25.6-4.6c-8.8,0-17.7,1.5-25.4,4.5c-7.4-2-14-5.1-19.4-8.9c-0.1-1.1-0.3-2.2-0.5-3.3c-0.3-1.2-0.7-2.5-1.4-3.5
		s-1.5-1.9-2.4-2.8c-4.4-5-5.2-11.7-5.9-18c-0.4-3.9-1.2-7.8-1.8-11.7c-0.1-0.7-1.6-13.1-2-13.1c0.1,0,29.6,0.1,58.9,0.1
		C706.8,506.7,736.4,506.6,736.4,506.6z"/>
	<path class="st2" d="M736.2,502.3c0,1.4-0.2,2.8-0.5,4.3c-1.4,6-5.5,11.7-12.4,16.5c-3,2.2-6.5,4.1-10.6,5.8
		c-25.6,11-61.8,8.4-81.6-5.6c-0.3-0.2-0.6-0.5-0.9-0.7c-6.4-4.8-10.2-10.2-11.4-15.8l0,0c-0.3-1.4-0.5-2.8-0.5-4.2
		c0-2.6,0.5-5.2,1.6-7.7c1.6,1.7,3.4,3.3,5.5,4.9c0.3,0.3,0.7,0.5,1.1,0.8c22,15.6,62.2,18.5,90.6,6.3c4.5-1.9,8.4-4.1,11.7-6.5
		c2.3-1.7,4.3-3.4,6.1-5.2C735.8,497.6,736.2,500,736.2,502.3z"/>
	<path class="st22" d="M727.5,482.4l-9.3,59.3v0.2c-0.7,3.2-2.2,6.3-4.4,9.2c-0.8,8.7-1.6,17.3-2.3,26c-0.3,3.8-0.8,7.6-1,11.4
		c-0.5,7.4-4.3,13.8-9.2,19.3c-2.9,3.3-6.2,6.1-9.3,9.2c0.7,0.4,1.8-0.3,2.6-0.5c1.5-0.4,3-0.7,4.5-1.1c2.8-0.8,5.5-1.7,8.2-2.9
		c10.9-4.7,18-11.6,19.7-19.5v-0.2c0.3-1.2,0.4-2.4,0.4-3.7l3.4-38c2.2-2.9,3.7-6,4.4-9.2v-0.2l9.3-59.3L727.5,482.4z"/>
	<path class="st14" d="M627.7,482.4l9.3,59.3v0.2c0.7,3.2,2.2,6.3,4.4,9.2c0.8,8.7,1.6,17.3,2.3,26c0.3,3.8,0.8,7.6,1,11.4
		c0.5,7.4,4.3,13.8,9.2,19.3c2.9,3.3,6.2,6.1,9.3,9.2c-0.7,0.4-1.8-0.3-2.6-0.5c-1.5-0.4-3-0.7-4.5-1.1c-2.8-0.8-5.5-1.7-8.2-2.9
		c-10.9-4.7-18-11.6-19.7-19.5v-0.2c-0.3-1.2-0.4-2.4-0.4-3.7l-3.4-38c-2.2-2.9-3.7-6-4.4-9.2v-0.2l-9.3-59.3L627.7,482.4z"/>
	<path class="st23" d="M677.4,516.7c-21.1,0-40.5-5.5-53.3-15c-7.3-5.4-12-12-13.5-18.8l-0.1-0.3c-0.4-1.6-0.5-3.3-0.5-4.9
		c0-12.7,10-24.2,27.3-31.7c11.8-5.1,25.8-7.8,40.5-7.8c21.1,0,40.5,5.5,53.3,15c9.2,6.9,14.1,15.2,14.1,24c0,1.7-0.2,3.4-0.5,5
		l-0.1,0.3c-2.4,10.7-11.9,20-26.8,26.4C706.1,514,692.1,516.7,677.4,516.7z"/>
	
		<linearGradient id="SVGID_8_" gradientUnits="userSpaceOnUse" x1="612.2001" y1="198.25" x2="743" y2="198.25" gradientTransform="matrix(1 0 0 -1 0 666)">
		<stop  offset="0.1261" style="stop-color:#C4F1F0"/>
		<stop  offset="0.1272" style="stop-color:#CFFFFD"/>
		<stop  offset="0.4378" style="stop-color:#CFFFFD"/>
		<stop  offset="0.4407" style="stop-color:#BFECEA"/>
		<stop  offset="0.8367" style="stop-color:#BFECEA"/>
		<stop  offset="0.8387" style="stop-color:#B2DBDA"/>
	</linearGradient>
	<path class="st24" d="M743,477.3c0,1.6-0.2,3.1-0.6,4.7l0,0c-1.1,4.6-3.6,9.1-7.6,13.2c-1.7-4.6-5.3-9-10.6-13
		c-11.5-8.6-29.1-13.1-46.8-13.1c-12.5,0-25,2.2-35.7,6.8c-11.4,4.9-18.8,11.7-21.8,19c-3.8-4-6.2-8.3-7.2-12.7l0,0
		c-0.3-1.6-0.5-3.1-0.5-4.7c0-11.2,9-22.3,26-29.6c11.9-5.1,25.8-7.6,39.7-7.6c19.7,0,39.2,5,51.9,14.6
		C738.7,461.7,743,469.5,743,477.3z"/>
	<path class="st12" d="M734.8,495.2c-1.7,1.8-3.8,3.5-6.1,5.2c-3.4,2.4-7.2,4.6-11.7,6.5c-28.4,12.2-68.5,9.3-90.6-6.3
		c-0.4-0.2-0.7-0.5-1.1-0.8c-2.1-1.6-3.9-3.2-5.5-4.9c3-7.3,10.4-14.1,21.8-19c10.7-4.6,23.3-6.8,35.7-6.8
		c17.7,0,35.3,4.5,46.8,13.1C729.6,486.2,733.1,490.7,734.8,495.2z"/>
</g>
<g>
	<path class="st9" d="M837.8,157.5l-9.1-4.1c0.1,0.1,0.1,0.1,0.1,0.2l-9.4-4.2l-2.2-1c0-0.4-0.1-0.7-0.3-1c-0.1-0.2-0.2-0.3-0.4-0.5
		c0,0,0,0-0.1-0.1c-0.2-0.2-0.4-0.3-0.6-0.5l-2.8-1.6c0,0,0.1,0,0.1,0.1c0,0-0.1,0-0.1-0.1l0,0l0,0l0,0c-1.3-0.8-3.6-1-6.6-0.6
		c-0.9,0.1-1.8,0.3-2.7,0.5l-1.4-0.8l-0.1,0.2l0.1-0.2l-2.6,0.7l-1,1.7c-1.9,0.8-3.8,1.7-5.6,2.7c-2.9,1.7-5.3,3.6-6.9,5.6
		c-2.2,2.7-2.2,4.9-0.4,6l0,0l0.1,0.1c0,0-0.1,0-0.1-0.1l0.2,0.1c-0.1,0-0.1-0.1-0.2-0.1l2.9,1.7c0.1,0,0.2,0.1,0.2,0.1l-6,9.9
		l-10.5-4.7c0,0.1,0.1,0.1,0.1,0.2l-9.4-4.2l-2.2-1c0-0.4-0.1-0.7-0.3-1c-0.1-0.2-0.2-0.3-0.4-0.5c0,0,0,0-0.1-0.1
		c-0.2-0.2-0.4-0.3-0.6-0.5l-2.8-1.6c0,0,0.1,0,0.1,0.1c0,0-0.1,0-0.1-0.1l0,0l0,0l0,0c-1.3-0.8-3.6-1-6.6-0.6
		c-4.3,0.6-9.2,2.5-13.3,4.9c-2.9,1.7-5.3,3.6-6.9,5.6c-2.2,2.7-2.2,4.9-0.4,6l0,0l0.1,0.1c0,0-0.1,0-0.1-0.1l0.2,0.1
		c-0.1,0-0.1,0-0.2-0.1l2.9,1.7c0.4,0.2,0.9,0.4,1.5,0.5l0,0c0.1,0,0.1,0,0.2,0.1c0.5,0.1,1.1,0.2,1.8,0.2l8.9,6.7
		c-0.1,0-0.2-0.1-0.4-0.1l21.5,16.2l-5.7,9.3l-10.6-4.7c0,0.1,0.1,0.1,0.1,0.2l-9.4-4.2l-2.2-1c0-0.4-0.1-0.7-0.3-1
		c-0.1-0.2-0.2-0.3-0.4-0.5c0,0,0,0-0.1-0.1c-0.2-0.2-0.4-0.3-0.6-0.5l-2.8-1.6c0,0,0.1,0,0.1,0.1c0,0-0.1,0-0.1-0.1l0,0l0,0l0,0
		c-1.3-0.8-3.6-1-6.5-0.6c-4.3,0.6-9.2,2.5-13.3,4.9c-2.9,1.7-5.3,3.6-6.9,5.6c-2.2,2.7-2.2,4.9-0.4,6l0,0l0.1,0.1
		c0,0-0.1,0-0.1-0.1l0.2,0.1c-0.1,0-0.1,0-0.2-0.1l2.9,1.7c0.4,0.2,0.9,0.4,1.5,0.5l0,0c0.1,0,0.1,0,0.2,0.1
		c0.5,0.1,1.1,0.2,1.8,0.2l8.9,6.7c-0.1,0-0.2-0.1-0.4-0.1l21.6,16.3l-5.7,9.3l-10.8-4.8c0,0.1,0.1,0.1,0.1,0.2l-9.4-4.2l-2.2-1
		c0-0.4-0.1-0.7-0.3-1c-0.1-0.2-0.2-0.3-0.4-0.5c0,0,0,0-0.1-0.1c-0.2-0.2-0.4-0.3-0.6-0.5l-2.8-1.6c0,0,0.1,0,0.1,0.1
		c0,0-0.1,0-0.1-0.1l0,0l0,0l0,0c-1.3-0.8-3.6-1-6.6-0.6c-4.3,0.6-9.2,2.5-13.3,4.9c-2.9,1.7-5.3,3.6-6.9,5.6
		c-2.2,2.7-2.2,4.9-0.4,6l0,0l0.1,0.1c0,0-0.1,0-0.1-0.1l0.2,0.1c-0.1,0-0.1,0-0.2-0.1l2.9,1.7c0.4,0.2,0.9,0.4,1.5,0.5l0,0
		c0.1,0,0.1,0,0.2,0.1c0.5,0.1,1.1,0.2,1.8,0.2l8.9,6.7c-0.1,0-0.2-0.1-0.4-0.1l25.2,19l1.1,0.8c0.2,0.1,0.4,0.2,0.6,0.3l4.7,3.6
		l0,0l0,0c0,0,0,0,0,0.1c-2.5,4.2-2.1,7.5,0.5,9.4l-0.1,0.1l0.3,0.2l0,0l8.8,5.1l-8.1,11.3l64,37l57-11.9l31.8-47.3l40-3.8l-0.3-0.2
		l12-19.8c0.5-0.7,0.8-1.3,1.1-1.9l8.1-13.4l0.3,0.2l24.8-41.1l0,0l-57.7-33.4l0,0L837.8,157.5z"/>
	<g>
		<g>
			<g>
				<g>
					<path class="st25" d="M948.1,214.2v7.4c0,5.1-4.1,10.2-11.8,13.5c-13.1,5.6-31.8,4.2-41.7-3.2c-4.1-3-6-6.6-6-10.1V214
						c0,0.7,0.1,1.4,0.2,2.1l0,0c0.6,2.8,2.5,5.6,5.8,8c9.9,7.4,28.6,8.8,41.7,3.2c6.7-2.9,10.6-7,11.6-11.3l0,0
						C948,215.3,948.1,214.9,948.1,214.2z"/>
					<path class="st26" d="M948.1,214.2c0,0.7-0.1,1.4-0.2,2.2l0,0c-1,4.3-4.9,8.5-11.6,11.3c-13.1,5.6-31.8,4.2-41.7-3.2
						c-3.2-2.4-5.1-5.2-5.8-8l0,0c-0.2-0.7-0.2-1.4-0.2-2.1c0-5.1,4.1-10.2,11.8-13.5c5.4-2.3,11.8-3.5,18.1-3.5
						c9,0,17.8,2.3,23.7,6.6C946.1,207.1,948.1,210.7,948.1,214.2z"/>
				</g>
				<path class="st27" d="M949.2,119.2v98.6l0,0c0,3.5-1.7,7.1-5.3,10.1l0,0c-0.3,0.3-0.7,0.5-1.1,0.8c-0.3,0.2-0.5,0.4-0.8,0.6
					c-0.4,0.3-0.9,0.6-1.3,0.8c-0.3,0.2-0.5,0.3-0.7,0.5l0,0c-1,0.5-2,1.1-3.1,1.5c-0.4,0.2-0.7,0.3-1.1,0.5
					c-0.8,0.3-1.6,0.6-2.4,0.9c-0.8,0.3-1.5,0.5-2.3,0.7c-0.6,0.1-1.2,0.3-1.7,0.4c-0.7,0.2-1.4,0.3-2.1,0.5
					c-0.4,0.1-0.9,0.1-1.3,0.2c-1.2,0.2-2.5,0.3-3.7,0.4c-0.5,0-1.1,0.1-1.6,0.1c-0.7,0-1.3,0.1-2,0.1c-1.1,0-2.1,0-3.2,0
					c-0.3,0-0.6,0-1-0.1c-1.2-0.1-2.3-0.2-3.5-0.4c-0.2,0-0.4-0.1-0.7-0.1c-3.5-0.5-6.8-1.3-9.8-2.5c-1.4-0.6-2.8-1.3-4.1-2
					c-6.2-3.6-9.1-8.4-8.8-13.1h-0.1v-98.6h18.8l0,0H944l0,0h5.2V119.2z"/>
				<rect x="890.1" y="139.9" class="st28" width="56.3" height="77.5"/>
				<path class="st29" d="M941.6,148.5L941.6,148.5c-0.1,0-0.1,0.1-0.1,0.1c-0.8,0.7-1.7,1.3-2.8,2c-0.2,0.2-0.5,0.3-0.6,0.4
					c-6.8,3.9-16.2,5.5-24.9,4.6c-2.2-0.1-4.1-0.4-5.6-0.9c-3.4-0.8-6.5-2-9.3-3.5c-9.6-5.5-10.6-14.2-3.2-20.6
					c0.8,0.6,1.6,1.1,2.5,1.6c2.8,1.6,6.1,2.9,9.6,3.6c1.6,0.5,3.6,0.8,5.8,0.9c9,0.9,18.7-0.7,25.8-4.8l0,0
					c0.2-0.1,0.4-0.2,0.6-0.4c0.8-0.5,1.5-1,2.1-1.5C948,135.6,948.1,142.9,941.6,148.5z"/>
				<path class="st29" d="M949.2,119.3c0,0.5,0,1-0.1,1.5c-0.4,3-2.2,5.9-5.2,8.6c0,0-0.1,0.1-0.2,0.1c-0.3,0.2-0.5,0.4-0.8,0.6
					c-0.3,0.2-0.6,0.4-0.9,0.6c-0.4-0.3-0.8-0.6-1.2-1c-5.6-4.2-14-6.4-22.6-6.4c-6,0-12,1.1-17.2,3.3c-0.2,0.1-0.4,0.2-0.6,0.3
					c-2.5,1.2-4.5,2.7-6.1,4.2c-4.2-3-6.6-6.7-6.9-10.3c-0.1-0.7-0.1-1.4,0-2c0.4-4.3,3.4-8.5,9.1-11.7c0.1,0,0.1-0.1,0.2-0.1
					c3.4-1.9,7.3-3.3,11.5-4.2c7.8-1.6,16.4-1.4,23.8,0.6c2.8,0.8,5.4,1.8,7.7,3.1c0.2,0.1,0.4,0.2,0.6,0.3
					c5.7,3.3,8.6,7.6,8.9,11.9C949.2,119,949.2,119.2,949.2,119.3z"/>
				<g>
					<path class="st25" d="M938.3,205.8c-10.9-6.3-28.7-6.2-39.8,0.2s-11.2,16.7-0.3,23c2.7,1.6,5.9,2.8,9.3,3.5
						c1.5,0.5,3.5,0.8,5.6,0.9c8.7,0.9,18.1-0.7,24.9-4.6l0,0c0.2-0.1,0.4-0.2,0.6-0.4c1-0.6,1.9-1.3,2.8-2l0.1-0.1l0,0
						C949,220,947.9,211.4,938.3,205.8z"/>
				</g>
				<path id="XMLID_5_" class="st9" d="M949.3,127.4c0,10.9-15.6,19.8-34.9,20v76.4c19.3-0.2,34.9-9.1,34.9-20V127.4z"/>
				<path class="st27" d="M939.9,108.8c0,0.1,0,0.2,0,0.3c-0.1,1.6-0.8,3.2-1.8,4.5c-1.2,1.7-2.9,3-4.6,4c-0.7,0.4-1.4,0.7-2.1,1.1
					c-0.1,0.1-0.3,0.1-0.4,0.2c-0.1,0-0.1,0-0.1,0c-2.3,1-4.8,1.7-7.4,2c-3.6,0.6-7.5,0.6-11.1,0c-2.3-0.3-4.6-0.9-6.6-1.7
					c-0.2-0.1-0.4-0.2-0.6-0.3c-0.8-0.3-1.6-0.7-2.4-1.1c-4.2-2.4-6.3-5.7-6.3-8.9l0.2-1.8l7.5-69.2h28.1l0.1,1.3l0.1,1.4L933,45
					l6.6,61.2c0,0.1,0.1,0.3,0.1,0.4c0.1,0.4,0.2,0.9,0.2,1.3C940,108.2,940,108.5,939.9,108.8z"/>
				<path class="st30" d="M942,130.8c-0.4,0.3-0.9,0.6-1.4,0.9c-0.3,0.2-0.5,0.3-0.7,0.4l0,0c-7.5,4.3-17.8,6-27.4,5.1
					c-2.4-0.2-4.5-0.5-6.2-1c-3.7-0.8-7.2-2.1-10.2-3.9c-0.7-0.4-1.2-0.7-1.8-1.2c1.8-1.6,3.9-3.2,6.7-4.4
					c5.1-2.3,11.2-3.3,17.2-3.3c8.5,0,17,2.2,22.6,6.4C941.3,130.1,941.7,130.4,942,130.8z"/>
				<path class="st31" d="M933.1,44.9c-2.4,1.8-5.4,2.6-8.4,3.1c-2.7,0.5-5.6,0.6-8.2,1.5c-2.2,0.7-2,3-2.2,5
					c-0.5,3.7-0.7,7.4-1.2,11.1c-0.7,5.7-1.5,11.5-2.2,17.2c-0.8,6.7-1.7,13.4-2.6,20.1l-2.1,16c0,0-0.1,0.1-0.4,0.3
					c-1.1,0.8-4.3,3.6-5.2,7.9c-0.5,2.2-0.4,4.8,0.9,7.7l-1.1,98.1c-1.5-0.6-2.8-1.2-4.1-2c-6.2-3.6-9.1-8.4-8.8-13.1h-0.1v-98.9
					h0.1c0.4-4.3,3.4-8.5,9.1-11.7c0.1,0,0.1-0.1,0.2-0.1l7.5-69.2h4.6c1.5,1.1,2.7,1.8,4.4,2.3c0.8,0.2,1.7,0.5,2.5,0.6
					c0.1,0,0.1,0,0.2,0c2,0.1,4-0.7,6-1.4c3.4-1.1,7.3-1.7,10.4-0.2l0.1,1.4L933.1,44.9z"/>
				<path class="st32" d="M949.1,120.8L949.1,120.8l0.1,97.2c0,1.3-0.4,2.6-0.9,3.8c-0.9,2.5-2.4,4.5-4.4,6.2
					c-0.3,0.3-0.7,0.5-1.1,0.8c-0.3,0.2-0.5,0.4-0.8,0.6c-0.4,0.3-0.9,0.5-1.3,0.8c-0.3,0.2-0.5,0.3-0.7,0.5
					c0-25.3,0.2-91.5,0.9-100.9c0.3-4.4-0.6-7.2-2-9c-2.2-3.1-5.4-3.3-5.4-3.3l-1.5-14L925.6,46l6.9-5.6l7,65.6
					c0,0.2,0.1,0.3,0.1,0.5c0.2,0.1,0.4,0.2,0.6,0.3c5.7,3.3,8.6,7.6,8.9,11.9c0,0.2,0,0.4,0,0.5
					C949.2,119.8,949.1,120.4,949.1,120.8z"/>
				<g>
					<path class="st33" d="M933.9,39.9L933.9,39.9c0.1-0.4,0.1-0.7,0.1-1.1v-3.9c0,0.2,0,0.4,0,0.5s0,0.1,0,0.3c0,0.1,0,0.2-0.1,0.3
						c-0.5,2.3-2.6,4.5-6.1,6c-6.9,3-16.8,2.2-22-1.7c-1.7-1.3-2.7-2.7-3.1-4.2c-0.1-0.4-0.1-0.8-0.1-1.1v0.8v3.3
						c0,0.6,0.1,1.3,0.4,1.9c0.4,1.2,1.4,2.3,2.8,3.4h0.1c0.1,0.1,0.3,0.2,0.5,0.3c1.2,0.8,2.5,1.4,4,1.9c0.2,0.1,0.3,0.1,0.5,0.2
						c1.4,0.5,3,0.8,4.6,0.9c0.2,0,0.4,0.1,0.6,0.1c1.7,0.2,3.4,0.1,5.1,0l0.7-0.1c1.6-0.2,3.1-0.5,4.5-1c0.2-0.1,0.4-0.1,0.6-0.2
						c0.4-0.1,0.7-0.3,1-0.4c1.1-0.5,2-1,2.8-1.5l0.4-0.3c1.3-1,2.2-2.2,2.7-3.3C933.7,40.4,933.8,40.2,933.9,39.9z"/>
					<path class="st34" d="M933.6,40.7c-0.1-0.1-0.3-0.1-0.4-0.1c-1,0-2,1.2-2.2,2.6c0,0.3-0.1,0.5,0,0.8l-0.4,0.3
						c-0.3-0.6-0.8-1.1-1.5-1.1c-1.1,0-2.2,1.4-2.4,3c-0.2,0.1-0.4,0.1-0.6,0.2c-0.4-1.1-1.2-1.9-2.2-1.9c-1.3,0-2.3,1.3-2.3,2.9
						l-0.7,0.1c-0.2-1.4-1.3-2.5-2.5-2.5c-1.3,0-2.4,1.1-2.5,2.5c-0.2,0-0.4,0-0.6-0.1v-0.2c0-1.7-1-3.1-2.3-3.1c-1.1,0-2,1-2.2,2.3
						c-0.1,0-0.1,0-0.2-0.1c-0.1,0-0.2,0-0.3-0.1l0,0c-0.2-1.7-1.3-3.1-2.4-3.1c-0.7,0-1.2,0.5-1.5,1.2l0,0l-0.5-0.3h-0.1l0,0
						c0-0.3,0-0.5,0-0.9c-0.2-1.5-1.2-2.6-2.2-2.6c-0.2,0-0.3,0-0.5,0.1l-0.4-5.2c0,0.2,0.1,0.4,0.1,0.6c0.3,1.5,1.3,2.9,3.1,4.2
						c5.2,3.9,15.1,4.7,22,1.7c3.5-1.5,5.6-3.7,6.1-6l0,0c0.1-0.2,0.1-0.3,0.1-0.5l0,0v-0.1c0-0.1,0-0.2,0-0.4v0.2V39
						c0,0.2,0,0.3,0,0.5L933.6,40.7z"/>
					<path class="st9" d="M934,34.8v3.9c0,0.6-0.1,1.1-0.3,1.7c-0.1-0.1-0.3-0.1-0.5-0.1c-1,0-2,1.2-2.2,2.6c-0.1,0.4-0.1,0.7,0,1
						c-0.1,0.1-0.2,0.1-0.3,0.2c-0.3-0.7-0.9-1.2-1.5-1.2c-1.2,0-2.2,1.4-2.4,3.1v0.1c-0.2,0.1-0.3,0.1-0.5,0.2
						c-0.3-1.3-1.2-2.1-2.2-2.1c-1.3,0-2.3,1.4-2.3,3.1v0.1c-0.2,0-0.4,0.1-0.6,0.1c-0.1-1.5-1.2-2.8-2.6-2.8
						c-1.4,0-2.5,1.2-2.6,2.8c-0.2,0-0.4,0-0.6-0.1c0-0.1,0-0.3,0-0.4c0-1.7-1-3.1-2.3-3.1c-1.2,0-2.1,1.1-2.3,2.6
						c-0.2,0-0.3-0.1-0.4-0.1c0-0.1,0-0.2,0-0.3c-0.2-1.7-1.3-3.1-2.4-3.1c-0.7,0-1.3,0.6-1.6,1.4c-0.1-0.1-0.3-0.2-0.4-0.3l0,0
						c0-0.4,0-0.7,0-1.1c-0.2-1.5-1.2-2.6-2.2-2.6c-0.2,0-0.4,0.1-0.6,0.2c-0.2-0.6-0.3-1.1-0.3-1.7v-4.1c0,0.4,0,0.8,0.1,1.1
						c0.3,1.5,1.3,2.9,3.1,4.2c5.2,3.9,15.1,4.7,22,1.7c3.5-1.5,5.6-3.7,6.1-6l0,0C933.9,35.5,934,35.2,934,34.8z"/>
					<path class="st35" d="M934,34.9c0,0.4,0,0.8-0.1,1.1l0,0c-0.5,2.3-2.6,4.5-6.1,6c-6.9,3-16.8,2.2-22-1.7
						c-1.7-1.3-2.7-2.7-3-4.2l0,0c-0.1-0.4-0.1-0.7-0.1-1.1c0-2.7,2.2-5.4,6.2-7.1c2.9-1.2,6.2-1.8,9.5-1.8c4.7,0,9.4,1.2,12.5,3.5
						C933,31.1,934,33,934,34.9z"/>
					<path class="st23" d="M933.9,35.6L933.9,35.6c-0.5,2.3-2.6,4.5-6.1,6c-6.9,3-16.8,2.2-22-1.7c-1.7-1.3-2.7-2.7-3-4.2l0,0
						c-0.1-0.3-0.1-0.6-0.1-0.9c0,0.1,0,0.1,0,0.2c0,0.4,0,0.7,0.1,1.1l0,0c0.3,1.5,1.3,2.9,3,4.2c5.2,3.9,15.1,4.7,22,1.7
						c3.5-1.5,5.6-3.7,6.1-6l0,0c0.1-0.4,0.1-0.8,0.1-1.1c0-0.1,0-0.1,0-0.2C934,35,933.9,35.3,933.9,35.6z"/>
				</g>
			</g>
			<path class="st36" d="M939,98.6c0,0.1,0,0.1,0,0.3c-0.1,1.5-0.7,3-1.7,4.3c-1.2,1.6-2.8,2.8-4.4,3.8c-0.7,0.4-1.3,0.7-2.1,1
				c-0.1,0.1-0.2,0.1-0.3,0.2c-0.1,0-0.1,0-0.1,0c-2.2,0.9-4.6,1.6-7.1,1.9c-3.5,0.5-7.2,0.5-10.6,0c-2.2-0.3-4.3-0.9-6.3-1.7
				c-0.2-0.1-0.4-0.2-0.6-0.3c-0.8-0.3-1.5-0.7-2.3-1.1c-4-2.3-6-5.4-6-8.5l0.2-1.7l4.4-40.7c0.4,1.5,1.4,3,3.2,4.3
				c5.4,4.1,15.7,4.9,22.9,1.8c3.6-1.5,5.7-3.7,6.3-6l4.3,39.8c0,0.1,0,0.3,0.1,0.4c0.1,0.4,0.2,0.8,0.2,1.3
				C939,98,939,98.3,939,98.6z"/>
		</g>
		<g>
			<g>
				<g>
					<path class="st25" d="M898,242.8v7.4c0,5.1-4.1,10.2-11.8,13.5c-13.1,5.6-31.8,4.2-41.7-3.2c-4.1-3-6-6.6-6-10.1v-7.7
						c0,0.7,0.1,1.4,0.2,2.1l0,0c0.6,2.8,2.5,5.6,5.8,8c9.9,7.4,28.6,8.8,41.7,3.2c6.7-2.9,10.6-7,11.6-11.3l0,0
						C898,243.9,898,243.5,898,242.8z"/>
					<path class="st26" d="M898,242.8c0,0.7-0.1,1.4-0.2,2.2l0,0c-1,4.3-4.9,8.5-11.6,11.3c-13.1,5.6-31.8,4.2-41.7-3.2
						c-3.2-2.4-5.1-5.2-5.8-8l0,0c-0.2-0.7-0.2-1.4-0.2-2.1c0-5.1,4.1-10.2,11.8-13.5c5.4-2.3,11.8-3.5,18.1-3.5
						c9,0,17.8,2.3,23.7,6.6C896.1,235.7,898,239.2,898,242.8z"/>
				</g>
				<path class="st27" d="M899.1,147.8v98.6l0,0c0,3.5-1.7,7.1-5.3,10.1l0,0c-0.3,0.3-0.7,0.5-1.1,0.8c-0.3,0.2-0.5,0.4-0.8,0.6
					c-0.4,0.3-0.9,0.6-1.3,0.8c-0.3,0.2-0.5,0.3-0.7,0.5l0,0c-1,0.5-2,1.1-3.1,1.5c-0.4,0.2-0.7,0.3-1.1,0.5
					c-0.8,0.3-1.6,0.6-2.4,0.9c-0.8,0.3-1.5,0.5-2.3,0.7c-0.6,0.1-1.2,0.3-1.7,0.4c-0.7,0.2-1.4,0.3-2.1,0.5
					c-0.4,0.1-0.9,0.1-1.3,0.2c-1.2,0.2-2.5,0.3-3.7,0.4c-0.5,0-1.1,0.1-1.6,0.1c-0.7,0-1.3,0.1-2,0.1c-1.1,0-2.1,0-3.2,0
					c-0.3,0-0.6,0-1-0.1c-1.2-0.1-2.3-0.2-3.5-0.4c-0.2,0-0.4-0.1-0.7-0.1c-3.5-0.5-6.8-1.3-9.8-2.5c-1.4-0.6-2.8-1.3-4.1-2
					c-6.2-3.6-9.1-8.4-8.8-13.1h-0.1v-98.6h18.8l0,0h37.7l0,0h5.2V147.8z"/>
				<rect x="840.1" y="168.5" class="st28" width="56.3" height="77.5"/>
				<path class="st29" d="M891.5,177.1L891.5,177.1c-0.1,0-0.1,0.1-0.1,0.1c-0.8,0.7-1.7,1.3-2.8,2c-0.2,0.2-0.5,0.3-0.6,0.4
					c-6.8,3.9-16.2,5.5-24.9,4.6c-2.2-0.1-4.1-0.4-5.6-0.9c-3.4-0.8-6.5-2-9.3-3.5c-9.6-5.5-10.6-14.2-3.2-20.6
					c0.8,0.6,1.6,1.1,2.5,1.6c2.8,1.6,6.1,2.9,9.6,3.6c1.6,0.5,3.6,0.8,5.8,0.9c9,0.9,18.7-0.7,25.8-4.8l0,0
					c0.2-0.1,0.4-0.2,0.6-0.4c0.8-0.5,1.5-1,2.1-1.5C898,164.2,898,171.5,891.5,177.1z"/>
				<path class="st29" d="M899.1,147.9c0,0.5,0,1-0.1,1.5c-0.4,3-2.2,5.9-5.2,8.6c0,0-0.1,0.1-0.2,0.1c-0.3,0.2-0.5,0.4-0.8,0.6
					c-0.3,0.2-0.6,0.4-0.9,0.6c-0.4-0.3-0.8-0.6-1.2-1c-5.6-4.2-14-6.4-22.6-6.4c-6,0-12,1.1-17.2,3.3c-0.2,0.1-0.4,0.2-0.6,0.3
					c-2.5,1.2-4.5,2.7-6.1,4.2c-4.2-3-6.6-6.7-6.9-10.3c-0.1-0.7-0.1-1.4,0-2c0.4-4.3,3.4-8.5,9.1-11.7c0.1,0,0.1-0.1,0.2-0.1
					c3.4-1.9,7.3-3.3,11.5-4.2c7.8-1.6,16.4-1.4,23.8,0.6c2.8,0.8,5.4,1.8,7.7,3.1c0.2,0.1,0.4,0.2,0.6,0.3
					c5.7,3.3,8.6,7.6,8.9,11.9C899.1,147.6,899.1,147.7,899.1,147.9z"/>
				<g>
					<path class="st25" d="M888.3,234.4c-10.9-6.3-28.7-6.2-39.8,0.2s-11.2,16.7-0.3,23c2.7,1.6,5.9,2.8,9.3,3.5
						c1.5,0.5,3.5,0.8,5.6,0.9c8.7,0.9,18.1-0.7,24.9-4.6l0,0c0.2-0.1,0.4-0.2,0.6-0.4c1-0.6,1.9-1.3,2.8-2l0.1-0.1l0,0
						C898.9,248.6,897.9,239.9,888.3,234.4z"/>
				</g>
				<path id="XMLID_4_" class="st9" d="M899.2,156c0,10.9-15.6,19.8-34.9,20v76.4c19.3-0.2,34.9-9.1,34.9-20V156z"/>
				<path class="st27" d="M889.9,137.4c0,0.1,0,0.2,0,0.3c-0.1,1.6-0.8,3.2-1.8,4.5c-1.2,1.7-2.9,3-4.6,4c-0.7,0.4-1.4,0.7-2.1,1.1
					c-0.1,0.1-0.3,0.1-0.4,0.2c-0.1,0-0.1,0-0.1,0c-2.3,1-4.8,1.7-7.4,2c-3.6,0.6-7.5,0.6-11.1,0c-2.3-0.3-4.6-0.9-6.6-1.7
					c-0.2-0.1-0.4-0.2-0.6-0.3c-0.8-0.3-1.6-0.7-2.4-1.1c-4.2-2.4-6.3-5.7-6.3-8.9l0.2-1.8l7.5-69.2h28.1l0.1,1.3l0.1,1.4l0.5,4.4
					l6.6,61.2c0,0.1,0.1,0.3,0.1,0.4c0.1,0.4,0.2,0.9,0.2,1.3C889.9,136.8,889.9,137,889.9,137.4z"/>
				<path class="st30" d="M892,159.4c-0.4,0.3-0.9,0.6-1.4,0.9c-0.3,0.2-0.5,0.3-0.7,0.4l0,0c-7.5,4.3-17.8,6-27.4,5.1
					c-2.4-0.2-4.5-0.5-6.2-1c-3.7-0.8-7.2-2.1-10.2-3.9c-0.7-0.4-1.2-0.7-1.8-1.2c1.8-1.6,3.9-3.2,6.7-4.4
					c5.1-2.2,11.2-3.3,17.2-3.3c8.5,0,17,2.2,22.6,6.4C891.2,158.7,891.6,159,892,159.4z"/>
				<path class="st31" d="M883,73.5c-2.4,1.8-5.4,2.6-8.4,3.1c-2.7,0.5-5.6,0.6-8.2,1.5c-2.2,0.7-2,3-2.2,5
					c-0.5,3.7-0.7,7.4-1.2,11.1c-0.7,5.7-1.5,11.5-2.2,17.2c-0.8,6.7-1.7,13.4-2.6,20.1l-2.1,16c0,0-0.1,0.1-0.4,0.3
					c-1.1,0.8-4.3,3.6-5.2,7.9c-0.5,2.2-0.4,4.8,0.9,7.7l-1.1,98.1c-1.5-0.6-2.8-1.2-4.1-2c-6.2-3.6-9.1-8.4-8.8-13.1h-0.1v-98.9
					h0.1c0.4-4.3,3.4-8.5,9.1-11.7c0.1,0,0.1-0.1,0.2-0.1l7.5-69.2h4.6c1.5,1.1,2.7,1.8,4.4,2.3c0.8,0.2,1.7,0.5,2.5,0.6
					c0.1,0,0.1,0,0.2,0c2,0.1,4-0.7,6-1.4c3.4-1.1,7.3-1.7,10.4-0.2l0.1,1.4L883,73.5z"/>
				<path class="st32" d="M899,149.4L899,149.4l0.1,97.2c0,1.3-0.4,2.6-0.9,3.8c-0.9,2.5-2.4,4.5-4.4,6.2c-0.3,0.3-0.7,0.5-1.1,0.8
					c-0.3,0.2-0.5,0.4-0.8,0.6c-0.4,0.3-0.9,0.5-1.3,0.8c-0.3,0.2-0.5,0.3-0.7,0.5c0-25.3,0.2-91.5,0.9-100.9c0.3-4.4-0.6-7.2-2-9
					c-2.2-3.1-5.4-3.3-5.4-3.3l-1.5-14l-6.3-57.5l6.9-5.6l7,65.7c0,0.2,0.1,0.3,0.1,0.4c0.2,0.1,0.4,0.2,0.6,0.3
					c5.7,3.3,8.6,7.6,8.9,11.9c0,0.2,0,0.4,0,0.5C899.1,148.4,899.1,148.9,899,149.4z"/>
				<g>
					<path class="st33" d="M883.8,68.4L883.8,68.4c0.1-0.4,0.1-0.7,0.1-1.1v-3.9c0,0.2,0,0.4,0,0.5s0,0.1,0,0.3c0,0.1,0,0.2-0.1,0.3
						c-0.5,2.3-2.6,4.5-6.1,6c-6.9,3-16.8,2.2-22-1.7c-1.7-1.3-2.7-2.7-3.1-4.2c-0.1-0.4-0.1-0.8-0.1-1.1v0.8v3.3
						c0,0.6,0.1,1.3,0.4,1.9c0.5,1.2,1.4,2.3,2.8,3.4h0.1c0.1,0.1,0.3,0.2,0.4,0.3c1.2,0.8,2.5,1.4,4,1.9c0.2,0.1,0.3,0.1,0.5,0.2
						c1.4,0.4,3,0.8,4.6,0.9c0.2,0,0.4,0.1,0.6,0.1c1.7,0.2,3.4,0.1,5.1,0l0.7-0.1c1.6-0.2,3.1-0.5,4.5-1c0.2-0.1,0.4-0.1,0.6-0.2
						c0.4-0.1,0.7-0.3,1-0.4c1.1-0.5,2-1,2.8-1.5l0.4-0.3c1.3-1,2.2-2.2,2.7-3.3C883.7,69,883.8,68.7,883.8,68.4z"/>
					<path class="st34" d="M883.6,69.3c-0.1-0.1-0.3-0.1-0.4-0.1c-1,0-2,1.2-2.2,2.6c0,0.3-0.1,0.5,0,0.8l-0.4,0.3
						c-0.3-0.6-0.8-1.1-1.5-1.1c-1.1,0-2.2,1.3-2.4,3c-0.2,0.1-0.4,0.1-0.6,0.2c-0.4-1.1-1.2-1.9-2.2-1.9c-1.3,0-2.3,1.3-2.3,2.9
						l-0.7,0.1c-0.2-1.4-1.3-2.5-2.5-2.5c-1.3,0-2.4,1.1-2.5,2.5c-0.2,0-0.4,0-0.6-0.1v-0.2c0-1.7-1-3.1-2.3-3.1c-1.1,0-2,1-2.2,2.3
						c-0.1,0-0.1,0-0.2-0.1c-0.1,0-0.2,0-0.3-0.1l0,0c-0.2-1.7-1.3-3.1-2.4-3.1c-0.7,0-1.2,0.5-1.5,1.2l0,0l-0.4-0.3h-0.1l0,0
						c0-0.3,0-0.5,0-0.9c-0.2-1.5-1.2-2.6-2.2-2.6c-0.2,0-0.3,0-0.5,0.1l-0.4-5.2c0,0.2,0.1,0.4,0.1,0.6c0.3,1.5,1.3,2.9,3.1,4.2
						c5.2,3.9,15.1,4.7,22,1.7c3.5-1.5,5.6-3.7,6.1-6l0,0c0.1-0.2,0.1-0.3,0.1-0.5l0,0v-0.1c0-0.1,0-0.2,0-0.4v0.2v3.7
						c0,0.2,0,0.3,0,0.5L883.6,69.3z"/>
					<path class="st9" d="M883.9,63.4v3.9c0,0.6-0.1,1.1-0.3,1.7c-0.1-0.1-0.3-0.1-0.5-0.1c-1,0-2,1.2-2.2,2.6c-0.1,0.4-0.1,0.7,0,1
						c-0.1,0.1-0.2,0.1-0.3,0.2c-0.3-0.7-0.9-1.2-1.5-1.2c-1.2,0-2.2,1.4-2.4,3.1v0.1c-0.2,0.1-0.3,0.1-0.5,0.2
						c-0.3-1.3-1.2-2.1-2.2-2.1c-1.3,0-2.3,1.4-2.3,3.1V76c-0.2,0-0.4,0.1-0.6,0.1c-0.1-1.5-1.2-2.8-2.6-2.8c-1.4,0-2.5,1.2-2.6,2.8
						c-0.2,0-0.4,0-0.6-0.1c0-0.1,0-0.3,0-0.4c0-1.7-1-3.1-2.3-3.1c-1.2,0-2.1,1.1-2.3,2.6c-0.2,0-0.3-0.1-0.4-0.1
						c0-0.1,0-0.2,0-0.3c-0.2-1.7-1.3-3.1-2.4-3.1c-0.7,0-1.3,0.6-1.6,1.4c-0.1-0.1-0.3-0.2-0.4-0.3l0,0c0-0.4,0-0.7,0-1.1
						c-0.2-1.5-1.2-2.6-2.2-2.6c-0.2,0-0.4,0.1-0.6,0.2c-0.2-0.6-0.3-1.1-0.3-1.7v-4.1c0,0.4,0,0.8,0.1,1.1c0.3,1.5,1.3,2.9,3.1,4.2
						c5.2,3.9,15.1,4.7,22,1.7c3.5-1.5,5.6-3.7,6.1-6l0,0C883.9,64,883.9,63.8,883.9,63.4z"/>
					<path class="st35" d="M884,63.4c0,0.4,0,0.8-0.1,1.1l0,0c-0.5,2.3-2.6,4.5-6.1,6c-6.9,3-16.8,2.2-22-1.7
						c-1.7-1.3-2.7-2.7-3-4.2l0,0c-0.1-0.4-0.1-0.7-0.1-1.1c0-2.7,2.2-5.4,6.2-7.1c2.9-1.2,6.2-1.8,9.5-1.8c4.7,0,9.4,1.2,12.5,3.5
						C882.9,59.7,884,61.6,884,63.4z"/>
					<path class="st23" d="M883.8,64.2L883.8,64.2c-0.5,2.3-2.6,4.5-6.1,6c-6.9,3-16.8,2.2-22-1.7c-1.7-1.3-2.7-2.7-3-4.2l0,0
						c-0.1-0.3-0.1-0.6-0.1-0.9c0,0.1,0,0.1,0,0.2c0,0.4,0,0.7,0.1,1.1l0,0c0.3,1.5,1.3,2.9,3,4.2c5.2,3.9,15.1,4.7,22,1.7
						c3.5-1.5,5.6-3.7,6.1-6l0,0c0.1-0.4,0.1-0.8,0.1-1.1c0-0.1,0-0.1,0-0.2C883.9,63.6,883.9,63.9,883.8,64.2z"/>
				</g>
			</g>
			<path class="st36" d="M888.9,127.2c0,0.1,0,0.1,0,0.3c-0.1,1.5-0.7,3-1.7,4.3c-1.2,1.6-2.8,2.8-4.4,3.8c-0.7,0.4-1.3,0.7-2.1,1
				c-0.1,0.1-0.2,0.1-0.3,0.2c-0.1,0-0.1,0-0.1,0c-2.2,0.9-4.6,1.6-7.1,1.9c-3.5,0.5-7.2,0.5-10.6,0c-2.2-0.3-4.3-0.9-6.3-1.7
				c-0.2-0.1-0.4-0.2-0.6-0.3c-0.8-0.3-1.5-0.7-2.3-1.1c-4-2.3-6-5.4-6-8.5l0.2-1.7l4.4-40.7c0.4,1.5,1.4,3,3.2,4.3
				c5.4,4.1,15.7,4.9,22.9,1.8c3.6-1.5,5.7-3.7,6.3-6l4.3,39.8c0,0.1,0,0.3,0.1,0.4c0.1,0.4,0.2,0.8,0.2,1.3
				C889,126.6,889,126.8,888.9,127.2z"/>
		</g>
		<g>
			<g>
				<g>
					<path class="st25" d="M848,271.3v7.4c0,5.1-4.1,10.2-11.8,13.5c-13.1,5.6-31.8,4.2-41.7-3.2c-4.1-3-6-6.6-6-10.1v-7.7
						c0,0.7,0.1,1.4,0.2,2.1l0,0c0.6,2.8,2.5,5.6,5.8,8c9.9,7.4,28.6,8.8,41.7,3.2c6.7-2.9,10.6-7,11.6-11.3l0,0
						C847.9,272.5,848,272.1,848,271.3z"/>
					<path class="st26" d="M848,271.3c0,0.7-0.1,1.4-0.2,2.2l0,0c-1,4.3-4.9,8.5-11.6,11.3c-13.1,5.6-31.8,4.2-41.7-3.2
						c-3.2-2.4-5.1-5.2-5.8-8l0,0c-0.2-0.7-0.2-1.4-0.2-2.1c0-5.1,4.1-10.2,11.8-13.5c5.4-2.3,11.8-3.5,18.1-3.5
						c9,0,17.8,2.3,23.7,6.6C846,264.2,848,267.8,848,271.3z"/>
				</g>
				<path class="st27" d="M849.1,176.3v98.6l0,0c0,3.5-1.7,7.1-5.3,10.1l0,0c-0.3,0.3-0.7,0.5-1.1,0.8c-0.3,0.2-0.5,0.4-0.8,0.6
					c-0.4,0.3-0.9,0.6-1.3,0.8c-0.3,0.2-0.5,0.3-0.7,0.5l0,0c-1,0.5-2,1.1-3.1,1.5c-0.4,0.2-0.7,0.3-1.1,0.5
					c-0.8,0.3-1.6,0.6-2.4,0.9c-0.8,0.3-1.5,0.5-2.3,0.7c-0.6,0.1-1.2,0.3-1.7,0.4c-0.7,0.2-1.4,0.3-2.1,0.5
					c-0.4,0.1-0.9,0.1-1.3,0.2c-1.2,0.2-2.5,0.3-3.7,0.4c-0.5,0-1.1,0.1-1.6,0.1c-0.7,0-1.3,0.1-2,0.1c-1.1,0-2.1,0-3.2,0
					c-0.3,0-0.6,0-1-0.1c-1.2-0.1-2.3-0.2-3.5-0.4c-0.2,0-0.4-0.1-0.7-0.1c-3.5-0.5-6.8-1.3-9.8-2.5c-1.4-0.6-2.8-1.3-4.1-2
					c-6.2-3.6-9.1-8.4-8.8-13.1h-0.1v-98.6h18.8l0,0h37.7l0,0h5.2V176.3z"/>
				<rect x="790.1" y="197" class="st28" width="56.3" height="77.5"/>
				<path class="st29" d="M841.5,205.7L841.5,205.7c-0.1,0-0.1,0.1-0.1,0.1c-0.8,0.7-1.8,1.3-2.8,2c-0.2,0.2-0.5,0.3-0.6,0.4
					c-6.8,3.9-16.2,5.5-24.9,4.6c-2.2-0.1-4.1-0.4-5.6-0.9c-3.4-0.8-6.5-2-9.3-3.5c-9.6-5.5-10.6-14.2-3.2-20.6
					c0.8,0.6,1.6,1.1,2.5,1.6c2.8,1.6,6.1,2.9,9.6,3.6c1.6,0.5,3.6,0.8,5.8,0.9c9,0.9,18.7-0.7,25.8-4.8l0,0
					c0.2-0.1,0.4-0.2,0.6-0.4c0.8-0.5,1.5-1,2.1-1.5C848,192.8,848,200.1,841.5,205.7z"/>
				<path class="st29" d="M849.1,176.5c0,0.5,0,1-0.1,1.5c-0.4,3-2.2,5.9-5.2,8.6c0,0-0.1,0.1-0.2,0.1c-0.3,0.2-0.5,0.4-0.8,0.6
					c-0.3,0.2-0.6,0.4-0.9,0.6c-0.4-0.3-0.8-0.6-1.2-1c-5.6-4.2-14-6.4-22.6-6.4c-6,0-12,1.1-17.2,3.3c-0.2,0.1-0.4,0.2-0.6,0.3
					c-2.5,1.2-4.5,2.7-6.1,4.2c-4.2-3-6.6-6.7-6.9-10.3c-0.1-0.7-0.1-1.4,0-2c0.4-4.3,3.4-8.5,9.1-11.7c0.1,0,0.1-0.1,0.2-0.1
					c3.4-1.9,7.3-3.3,11.5-4.2c7.8-1.6,16.4-1.4,23.8,0.6c2.8,0.8,5.4,1.8,7.7,3.1c0.2,0.1,0.4,0.2,0.6,0.3
					c5.7,3.3,8.6,7.6,8.9,11.9C849.1,176.1,849.1,176.3,849.1,176.5z"/>
				<g>
					<path class="st25" d="M838.3,263c-10.9-6.3-28.7-6.2-39.8,0.2c-11.1,6.4-11.2,16.7-0.3,23c2.7,1.6,5.9,2.8,9.3,3.5
						c1.5,0.5,3.5,0.8,5.6,0.9c8.7,0.9,18.1-0.7,24.9-4.6l0,0c0.2-0.1,0.4-0.2,0.6-0.4c1-0.6,1.9-1.3,2.8-2l0.1-0.1l0,0
						C848.9,277.1,847.9,268.5,838.3,263z"/>
				</g>
				<path id="XMLID_3_" class="st9" d="M849.2,184.5c0,10.9-15.6,19.8-34.9,20v76.4c19.3-0.2,34.9-9.1,34.9-20V184.5z"/>
				<path class="st27" d="M839.9,165.9c0,0.1,0,0.2,0,0.3c-0.1,1.6-0.8,3.2-1.8,4.5c-1.2,1.7-2.9,3-4.6,4c-0.7,0.4-1.4,0.7-2.1,1.1
					c-0.1,0.1-0.3,0.1-0.4,0.2c-0.1,0-0.1,0-0.1,0c-2.3,1-4.8,1.7-7.4,2c-3.6,0.6-7.5,0.6-11.1,0c-2.3-0.3-4.6-0.9-6.6-1.7
					c-0.2-0.1-0.4-0.2-0.6-0.3c-0.8-0.3-1.6-0.7-2.4-1.1c-4.2-2.4-6.3-5.7-6.3-8.9l0.2-1.8l7.5-69.2h28.1l0.1,1.3l0.1,1.4l0.5,4.4
					l6.6,61.2c0,0.1,0.1,0.3,0.1,0.4c0.1,0.4,0.2,0.9,0.2,1.3C839.9,165.3,839.9,165.6,839.9,165.9z"/>
				<path class="st30" d="M842,187.9c-0.4,0.3-0.9,0.6-1.4,0.9c-0.3,0.2-0.5,0.3-0.7,0.4l0,0c-7.5,4.3-17.8,6-27.4,5.1
					c-2.4-0.2-4.5-0.5-6.2-1c-3.7-0.8-7.2-2.1-10.2-3.9c-0.7-0.4-1.2-0.7-1.8-1.2c1.8-1.6,3.9-3.2,6.7-4.4
					c5.1-2.2,11.2-3.3,17.2-3.3c8.5,0,17,2.2,22.6,6.4C841.2,187.3,841.6,187.6,842,187.9z"/>
				<path class="st31" d="M833,102c-2.4,1.8-5.4,2.6-8.4,3.1c-2.7,0.5-5.6,0.6-8.2,1.5c-2.2,0.7-2,3-2.2,5
					c-0.5,3.7-0.7,7.4-1.2,11.1c-0.7,5.7-1.5,11.5-2.2,17.2c-0.8,6.7-1.7,13.4-2.6,20.1l-2.1,16c0,0-0.1,0.1-0.4,0.3
					c-1.1,0.8-4.3,3.6-5.2,7.9c-0.5,2.2-0.4,4.8,0.9,7.7l-1.1,98.1c-1.5-0.6-2.8-1.2-4.1-2c-6.2-3.6-9.1-8.4-8.8-13.1h-0.1V176h0.1
					c0.4-4.3,3.4-8.5,9.1-11.7c0.1,0,0.1-0.1,0.2-0.1l7.5-69.2h4.6c1.5,1.1,2.7,1.8,4.4,2.3c0.8,0.2,1.7,0.5,2.5,0.6
					c0.1,0,0.1,0,0.2,0c2,0.1,4-0.7,6-1.4c3.4-1.1,7.3-1.7,10.4-0.2l0.1,1.4L833,102z"/>
				<path class="st32" d="M849,178L849,178l0.1,97.2c0,1.3-0.4,2.6-0.9,3.8c-0.9,2.5-2.4,4.5-4.4,6.2c-0.3,0.3-0.7,0.5-1.1,0.8
					c-0.3,0.2-0.5,0.4-0.8,0.6c-0.4,0.3-0.9,0.5-1.3,0.8c-0.3,0.2-0.5,0.3-0.7,0.5c0-25.3,0.2-91.5,0.9-100.9c0.3-4.4-0.6-7.2-2-9
					c-2.2-3.1-5.4-3.3-5.4-3.3l-1.5-14l-6.3-57.5l6.9-5.6l7,65.7c0,0.2,0.1,0.3,0.1,0.5c0.2,0.1,0.4,0.2,0.6,0.3
					c5.7,3.3,8.6,7.6,8.9,11.9c0,0.2,0,0.4,0,0.5C849.1,177,849.1,177.5,849,178z"/>
				<g>
					<path class="st33" d="M833.8,97L833.8,97c0.1-0.4,0.1-0.7,0.1-1.1V92c0,0.2,0,0.4,0,0.5s0,0.1,0,0.3c0,0.1,0,0.2-0.1,0.3
						c-0.5,2.3-2.6,4.5-6.1,6c-6.9,3-16.8,2.2-22-1.7c-1.7-1.3-2.7-2.7-3.1-4.2c-0.1-0.4-0.1-0.8-0.1-1.1v0.8V96
						c0,0.6,0.1,1.3,0.4,1.9c0.5,1.2,1.4,2.3,2.8,3.4h0.1c0.1,0.1,0.3,0.2,0.5,0.3c1.2,0.8,2.5,1.4,4,1.9c0.2,0.1,0.3,0.1,0.5,0.2
						c1.4,0.4,3,0.8,4.6,0.9c0.2,0,0.4,0.1,0.6,0.1c1.7,0.2,3.4,0.1,5.1,0l0.7-0.1c1.6-0.2,3.1-0.5,4.5-1c0.2-0.1,0.4-0.1,0.6-0.2
						c0.4-0.1,0.7-0.3,1-0.4c1.1-0.5,2-1,2.8-1.5l0.4-0.3c1.3-1,2.2-2.2,2.7-3.3C833.6,97.6,833.7,97.3,833.8,97z"/>
					<path class="st34" d="M833.5,97.9c-0.1-0.1-0.3-0.1-0.4-0.1c-1,0-2,1.2-2.2,2.6c0,0.3-0.1,0.5,0,0.8l-0.4,0.3
						c-0.3-0.6-0.8-1.1-1.5-1.1c-1.1,0-2.2,1.3-2.4,3c-0.2,0.1-0.4,0.1-0.6,0.2c-0.4-1.1-1.2-1.9-2.2-1.9c-1.3,0-2.3,1.3-2.3,2.9
						l-0.7,0.1c-0.2-1.4-1.3-2.5-2.5-2.5c-1.3,0-2.4,1.1-2.5,2.5c-0.2,0-0.4,0-0.6-0.1v-0.2c0-1.7-1-3.1-2.3-3.1c-1.1,0-2,1-2.2,2.3
						c-0.1,0-0.1,0-0.2-0.1c-0.1,0-0.2,0-0.3-0.1l0,0c-0.2-1.7-1.3-3.1-2.4-3.1c-0.7,0-1.2,0.5-1.5,1.2l0,0l-0.5-0.3h-0.1l0,0
						c0-0.3,0-0.5,0-0.9c-0.2-1.5-1.2-2.6-2.2-2.6c-0.2,0-0.3,0-0.5,0.1l-0.4-5.2c0,0.2,0.1,0.4,0.1,0.6c0.3,1.5,1.4,2.9,3.1,4.2
						c5.2,3.9,15.1,4.7,22,1.7c3.5-1.5,5.6-3.7,6.1-6l0,0c0.1-0.2,0.1-0.3,0.1-0.5l0,0v-0.1c0-0.1,0-0.2,0-0.4v0.2V96
						c0,0.2,0,0.3,0,0.5L833.5,97.9z"/>
					<path class="st9" d="M833.9,92v3.9c0,0.6-0.1,1.1-0.3,1.7c-0.1-0.1-0.3-0.1-0.5-0.1c-1,0-2,1.2-2.2,2.6c-0.1,0.4-0.1,0.7,0,1
						c-0.1,0.1-0.2,0.1-0.3,0.2c-0.3-0.7-0.9-1.2-1.5-1.2c-1.2,0-2.2,1.4-2.4,3.1v0.1c-0.2,0.1-0.3,0.1-0.5,0.2
						c-0.3-1.3-1.2-2.1-2.2-2.1c-1.3,0-2.3,1.4-2.3,3.1v0.1c-0.2,0-0.4,0.1-0.6,0.1c-0.1-1.5-1.2-2.8-2.6-2.8
						c-1.4,0-2.5,1.2-2.6,2.8c-0.2,0-0.4,0-0.6-0.1c0-0.1,0-0.3,0-0.4c0-1.7-1-3.1-2.3-3.1c-1.2,0-2.1,1.1-2.3,2.6
						c-0.2,0-0.3-0.1-0.4-0.1c0-0.1,0-0.2,0-0.3c-0.2-1.7-1.3-3.1-2.4-3.1c-0.7,0-1.3,0.6-1.6,1.4c-0.1-0.1-0.3-0.2-0.4-0.3l0,0
						c0-0.4,0-0.7,0-1.1c-0.2-1.5-1.2-2.6-2.2-2.6c-0.2,0-0.4,0.1-0.6,0.2c-0.2-0.6-0.3-1.1-0.3-1.7V92c0,0.4,0,0.8,0.1,1.1
						c0.3,1.5,1.3,2.9,3.1,4.2c5.2,3.9,15.1,4.7,22,1.7c3.5-1.5,5.6-3.7,6.1-6l0,0C833.9,92.6,833.9,92.4,833.9,92z"/>
					<path class="st35" d="M833.9,92c0,0.4,0,0.8-0.1,1.1l0,0c-0.5,2.3-2.6,4.5-6.1,6c-6.9,3-16.8,2.2-22-1.7
						c-1.7-1.3-2.7-2.7-3-4.2l0,0c-0.1-0.4-0.1-0.7-0.1-1.1c0-2.7,2.2-5.4,6.2-7.1c2.9-1.2,6.2-1.8,9.5-1.8c4.7,0,9.4,1.2,12.5,3.5
						C832.9,88.3,833.9,90.1,833.9,92z"/>
					<path class="st23" d="M833.8,92.7L833.8,92.7c-0.5,2.3-2.6,4.5-6.1,6c-6.9,3-16.8,2.2-22-1.7c-1.7-1.3-2.7-2.7-3-4.2l0,0
						c-0.1-0.3-0.1-0.6-0.1-0.9c0,0.1,0,0.1,0,0.2c0,0.4,0,0.7,0.1,1.1l0,0c0.3,1.5,1.3,2.9,3,4.2c5.2,3.9,15.1,4.7,22,1.7
						c3.5-1.5,5.6-3.7,6.1-6l0,0c0.1-0.4,0.1-0.8,0.1-1.1c0-0.1,0-0.1,0-0.2C833.9,92.1,833.9,92.4,833.8,92.7z"/>
				</g>
			</g>
			<path class="st36" d="M838.9,155.7c0,0.1,0,0.1,0,0.3c-0.1,1.5-0.7,3-1.7,4.3c-1.2,1.6-2.8,2.8-4.4,3.8c-0.7,0.4-1.3,0.7-2.1,1
				c-0.1,0.1-0.2,0.1-0.3,0.2c-0.1,0-0.1,0-0.1,0c-2.2,0.9-4.6,1.6-7.1,1.9c-3.5,0.5-7.2,0.5-10.6,0c-2.2-0.3-4.3-0.9-6.3-1.7
				c-0.2-0.1-0.4-0.2-0.6-0.3c-0.8-0.3-1.5-0.7-2.3-1.1c-4-2.3-6-5.4-6-8.5l0.2-1.7l4.4-40.7c0.4,1.5,1.4,3,3.2,4.3
				c5.4,4.1,15.7,4.9,22.9,1.8c3.6-1.5,5.7-3.7,6.3-6l4.3,39.8c0,0.1,0,0.3,0.1,0.4c0.1,0.4,0.2,0.8,0.2,1.3
				C838.9,155.1,838.9,155.4,838.9,155.7z"/>
		</g>
		<g>
			<path class="st37" d="M821.4,135.8l-0.3,0.2v165.3l1.6-0.9l150.8-86.6V48.4L821.4,135.8z M935.6,97.2c0,4.2-2.5,9-5.6,10.8
				l-52,30.4c-3.1,1.8-5.7-0.1-5.7-4.3v-4.7c0-4.2,2.5-9,5.7-10.8l52-30.4c3.1-1.8,5.6,0.1,5.6,4.3V97.2z"/>
			<path class="st37" d="M973.6,49.9l-150.8,86.6v165.4l152.5-87.6V48.9L973.6,49.9z M872.3,129.4c0-4.2,2.5-9,5.7-10.8l52-30.4
				c3.1-1.8,5.6,0.1,5.6,4.3v4.7c0,4.2-2.5,9-5.6,10.8l-52,30.4c-3.1,1.8-5.7-0.1-5.7-4.3V129.4z"/>
			<polygon class="st38" points="975.3,48.9 973.1,47.9 820.6,135.5 822.8,136.5 			"/>
			<polygon class="st39" points="822.8,301.8 822.8,136.5 820.6,135.5 820.6,300.5 			"/>
			<path class="st38" d="M933.1,87.7c0.5,0.8,0.8,2,0.8,3.4v4.7c0,4.2-2.5,9-5.6,10.8l-52,30.4c-1.2,0.7-2.3,0.8-3.2,0.5
				c1,1.6,2.8,2.1,4.8,0.9l52-30.4c3.1-1.8,5.6-6.6,5.6-10.8v-4.7C935.6,89.9,934.6,88.2,933.1,87.7z"/>
		</g>
		<g>
			<polygon class="st39" points="977.5,224.2 1009.4,243.2 1009.4,162.2 977.5,81.7 			"/>
			<polygon class="st40" points="1009.4,162.2 1010.4,161.6 1010.4,242.6 1009.4,243.2 			"/>
			<polygon class="st37" points="1009.4,162.2 1010.4,161.6 978.6,81.1 977.5,81.7 			"/>
		</g>
		<g>
			<g>
				<g>
					<path class="st25" d="M994.6,236.8v7.4c0,5.1-4.1,10.2-11.8,13.5c-13.1,5.6-31.8,4.2-41.7-3.2c-4.1-3-6-6.6-6-10.1v-7.7
						c0,0.7,0.1,1.4,0.2,2.1l0,0c0.6,2.8,2.5,5.6,5.8,8c9.9,7.4,28.6,8.8,41.7,3.2c6.7-2.9,10.6-7,11.6-11.3l0,0
						C994.5,237.9,994.6,237.5,994.6,236.8z"/>
					<path class="st26" d="M994.6,236.8c0,0.7-0.1,1.4-0.2,2.2l0,0c-1,4.3-4.9,8.5-11.6,11.3c-13.1,5.6-31.8,4.2-41.7-3.2
						c-3.2-2.4-5.1-5.2-5.8-8l0,0c-0.2-0.7-0.2-1.4-0.2-2.1c0-5.1,4.1-10.2,11.8-13.5c5.4-2.3,11.8-3.5,18.1-3.5
						c9,0,17.8,2.3,23.7,6.6C992.6,229.7,994.6,233.2,994.6,236.8z"/>
				</g>
				<path class="st27" d="M995.7,141.8v98.6l0,0c0,3.5-1.7,7.1-5.3,10.1l0,0c-0.3,0.3-0.7,0.5-1.1,0.8c-0.3,0.2-0.5,0.4-0.8,0.6
					c-0.4,0.3-0.9,0.6-1.3,0.8c-0.3,0.2-0.5,0.3-0.7,0.5l0,0c-1,0.5-2,1.1-3.1,1.5c-0.4,0.2-0.7,0.3-1.1,0.5
					c-0.8,0.3-1.6,0.6-2.4,0.9c-0.8,0.3-1.5,0.5-2.3,0.7c-0.6,0.1-1.2,0.3-1.7,0.4c-0.7,0.2-1.4,0.3-2.1,0.5
					c-0.4,0.1-0.9,0.1-1.3,0.2c-1.2,0.2-2.5,0.3-3.7,0.4c-0.5,0-1.1,0.1-1.6,0.1c-0.7,0-1.3,0.1-2,0.1c-1.1,0-2.1,0-3.2,0
					c-0.3,0-0.6,0-1-0.1c-1.2-0.1-2.3-0.2-3.5-0.4c-0.2,0-0.4-0.1-0.7-0.1c-3.5-0.5-6.8-1.3-9.8-2.5c-1.4-0.6-2.8-1.2-4.1-2
					c-6.2-3.6-9.1-8.4-8.8-13.1H934v-98.6h18.8l0,0h37.7l0,0L995.7,141.8L995.7,141.8z"/>
				<rect x="936.6" y="162.5" class="st28" width="56.3" height="77.5"/>
				<path class="st29" d="M988.1,171.1L988.1,171.1c-0.1,0-0.1,0.1-0.1,0.1c-0.8,0.7-1.8,1.3-2.8,2c-0.2,0.2-0.5,0.3-0.6,0.4
					c-6.8,3.9-16.2,5.5-24.9,4.6c-2.2-0.1-4.1-0.4-5.6-0.9c-3.4-0.8-6.5-2-9.3-3.5c-9.6-5.5-10.6-14.2-3.2-20.6
					c0.8,0.6,1.6,1.1,2.5,1.6c2.8,1.6,6.1,2.9,9.6,3.6c1.6,0.5,3.6,0.8,5.8,0.9c9,0.9,18.7-0.7,25.8-4.8l0,0
					c0.2-0.1,0.4-0.2,0.6-0.4c0.8-0.5,1.5-1,2.1-1.5C994.6,158.2,994.6,165.5,988.1,171.1z"/>
				<path class="st29" d="M995.7,141.9c0,0.5,0,1-0.1,1.5c-0.4,3-2.2,5.9-5.2,8.6c0,0-0.1,0.1-0.2,0.1c-0.3,0.2-0.5,0.4-0.8,0.6
					c-0.3,0.2-0.6,0.4-0.9,0.6c-0.4-0.3-0.8-0.6-1.2-1c-5.6-4.2-14-6.4-22.6-6.4c-6,0-12,1.1-17.2,3.3c-0.2,0.1-0.4,0.2-0.6,0.3
					c-2.5,1.2-4.5,2.7-6.1,4.2c-4.2-3-6.6-6.7-6.9-10.3c-0.1-0.7-0.1-1.4,0-2c0.4-4.3,3.4-8.5,9.1-11.7c0.1,0,0.1-0.1,0.2-0.1
					c3.4-1.9,7.3-3.3,11.5-4.2c7.8-1.6,16.4-1.4,23.8,0.6c2.8,0.8,5.4,1.8,7.7,3.1c0.2,0.1,0.4,0.2,0.6,0.3
					c5.7,3.3,8.6,7.6,8.9,11.9C995.7,141.5,995.7,141.7,995.7,141.9z"/>
				<g>
					<path class="st25" d="M984.8,228.4c-10.9-6.3-28.7-6.2-39.8,0.2s-11.2,16.7-0.3,23c2.7,1.6,5.9,2.8,9.3,3.5
						c1.5,0.5,3.5,0.8,5.6,0.9c8.7,0.9,18.1-0.7,24.9-4.6l0,0c0.2-0.1,0.4-0.2,0.6-0.4c1-0.6,1.9-1.3,2.8-2l0.1-0.1l0,0
						C995.5,242.6,994.4,233.9,984.8,228.4z"/>
				</g>
				<path id="XMLID_2_" class="st36" d="M995.8,149.9c0,10.9-15.6,19.8-34.9,20v76.4c19.3-0.2,34.9-9.1,34.9-20V149.9z"/>
				<path class="st27" d="M986.4,131.3c0,0.1,0,0.2,0,0.3c-0.1,1.6-0.8,3.2-1.8,4.5c-1.2,1.7-2.9,3-4.6,4c-0.7,0.4-1.4,0.7-2.1,1.1
					c-0.1,0.1-0.3,0.1-0.4,0.2c-0.1,0-0.1,0-0.1,0c-2.3,1-4.8,1.7-7.4,2c-3.6,0.6-7.5,0.6-11.1,0c-2.3-0.3-4.6-0.9-6.6-1.7
					c-0.2-0.1-0.4-0.2-0.6-0.3c-0.8-0.3-1.6-0.7-2.4-1.1c-4.2-2.4-6.3-5.7-6.3-8.9l0.2-1.8l7.5-69.2h28.1l0.1,1.3l0.1,1.4l0.5,4.4
					l6.6,61.2c0,0.1,0.1,0.3,0.1,0.4c0.1,0.4,0.2,0.9,0.2,1.3C986.5,130.8,986.5,131,986.4,131.3z"/>
				<path class="st30" d="M988.5,153.3c-0.4,0.3-0.9,0.6-1.4,0.9c-0.3,0.2-0.5,0.3-0.7,0.4l0,0c-7.5,4.3-17.8,6-27.4,5.1
					c-2.4-0.2-4.5-0.5-6.2-1c-3.7-0.8-7.2-2.1-10.2-3.9c-0.7-0.4-1.2-0.7-1.8-1.2c1.8-1.6,3.9-3.2,6.7-4.4
					c5.1-2.2,11.2-3.3,17.2-3.3c8.5,0,17,2.2,22.6,6.4C987.8,152.7,988.2,153,988.5,153.3z"/>
				<path class="st31" d="M979.6,67.4c-2.4,1.8-5.4,2.6-8.4,3.1c-2.7,0.5-5.6,0.6-8.2,1.5c-2.2,0.7-2,3-2.2,5
					c-0.5,3.7-0.7,7.4-1.2,11.1c-0.7,5.7-1.5,11.5-2.2,17.2c-0.8,6.7-1.7,13.4-2.6,20.1l-2.1,16c0,0-0.1,0.1-0.4,0.3
					c-1.1,0.8-4.3,3.6-5.2,7.9c-0.5,2.2-0.4,4.8,0.9,7.7l-1.1,98.1c-1.5-0.6-2.8-1.2-4.1-2c-6.2-3.6-9.1-8.4-8.8-13.1h-0.1v-98.9
					h0.1c0.4-4.3,3.4-8.5,9.1-11.7c0.1,0,0.1-0.1,0.2-0.1l7.5-69.2h4.6c1.5,1.1,2.7,1.8,4.4,2.3c0.8,0.2,1.7,0.5,2.5,0.6
					c0.1,0,0.1,0,0.2,0c2,0.1,4-0.7,6-1.4c3.4-1.1,7.3-1.7,10.4-0.2l0.1,1.4L979.6,67.4z"/>
				<path class="st32" d="M995.6,143.4L995.6,143.4l0.1,97.2c0,1.3-0.4,2.6-0.9,3.8c-0.9,2.5-2.4,4.5-4.4,6.2
					c-0.3,0.3-0.7,0.5-1.1,0.8c-0.3,0.2-0.5,0.4-0.8,0.6c-0.4,0.3-0.9,0.5-1.3,0.8c-0.3,0.2-0.5,0.3-0.7,0.5
					c0-25.3,0.2-91.5,0.9-100.9c0.3-4.4-0.6-7.2-2-9c-2.2-3.1-5.4-3.3-5.4-3.3l-1.5-14l-6.3-57.5l6.9-5.6l7,65.7
					c0,0.2,0.1,0.3,0.1,0.4c0.2,0.1,0.4,0.2,0.6,0.3c5.7,3.3,8.6,7.6,8.9,11.9c0,0.2,0,0.4,0,0.5
					C995.7,142.4,995.7,142.9,995.6,143.4z"/>
				<g>
					<path class="st33" d="M980.4,62.4L980.4,62.4c0.1-0.4,0.1-0.7,0.1-1.1v-3.9c0,0.2,0,0.4,0,0.5s0,0.1,0,0.3c0,0.1,0,0.2-0.1,0.3
						c-0.5,2.3-2.6,4.5-6.1,6c-6.9,3-16.8,2.2-22-1.7c-1.7-1.3-2.7-2.7-3.1-4.2c-0.1-0.4-0.1-0.8-0.1-1.1v0.8v3.3
						c0,0.6,0.1,1.3,0.4,1.9c0.4,1.2,1.4,2.3,2.8,3.4h0.1c0.1,0.1,0.3,0.2,0.5,0.3c1.2,0.8,2.5,1.4,4,1.9c0.2,0.1,0.3,0.1,0.5,0.2
						c1.4,0.5,3,0.8,4.6,0.9c0.2,0,0.4,0.1,0.6,0.1c1.7,0.2,3.4,0.1,5.1,0l0.7-0.1c1.6-0.2,3.1-0.5,4.5-1c0.2-0.1,0.4-0.1,0.6-0.2
						c0.4-0.1,0.7-0.3,1-0.4c1.1-0.5,2-1,2.8-1.5l0.4-0.3c1.3-1,2.2-2.2,2.7-3.3C980.2,63,980.3,62.7,980.4,62.4z"/>
					<path class="st34" d="M980.1,63.3c-0.1-0.1-0.3-0.1-0.4-0.1c-1,0-2,1.2-2.2,2.6c0,0.3-0.1,0.5,0,0.8l-0.4,0.3
						c-0.3-0.6-0.8-1.1-1.5-1.1c-1.1,0-2.2,1.3-2.4,3c-0.2,0.1-0.4,0.1-0.6,0.2c-0.4-1.1-1.2-1.9-2.2-1.9c-1.3,0-2.3,1.3-2.3,2.9
						l-0.7,0.1c-0.2-1.4-1.3-2.5-2.5-2.5c-1.3,0-2.4,1.1-2.5,2.5c-0.2,0-0.4,0-0.6-0.1v-0.2c0-1.7-1-3.1-2.3-3.1c-1.1,0-2,1-2.2,2.3
						c-0.1,0-0.1,0-0.2-0.1c-0.1,0-0.2,0-0.3-0.1l0,0c-0.2-1.7-1.3-3.1-2.4-3.1c-0.7,0-1.2,0.5-1.5,1.2l0,0l-0.5-0.3h-0.1l0,0
						c0-0.3,0-0.5,0-0.9c-0.2-1.5-1.2-2.6-2.2-2.6c-0.2,0-0.3,0-0.5,0.1l-0.4-5.2c0,0.2,0.1,0.4,0.1,0.6c0.3,1.5,1.3,2.9,3.1,4.2
						c5.2,3.9,15.1,4.7,22,1.7c3.5-1.5,5.6-3.7,6.1-6l0,0c0.1-0.2,0.1-0.3,0.1-0.5l0,0v-0.1c0-0.1,0-0.2,0-0.4v0.2v3.7
						c0,0.2,0,0.3,0,0.5L980.1,63.3z"/>
					<path class="st9" d="M980.5,57.4v3.9c0,0.6-0.1,1.1-0.3,1.7c-0.1-0.1-0.3-0.1-0.5-0.1c-1,0-2,1.2-2.2,2.6c-0.1,0.4-0.1,0.7,0,1
						c-0.1,0.1-0.2,0.1-0.3,0.2c-0.3-0.7-0.9-1.2-1.5-1.2c-1.2,0-2.2,1.4-2.4,3.1v0.1c-0.2,0.1-0.3,0.1-0.5,0.2
						c-0.3-1.3-1.2-2.1-2.2-2.1c-1.3,0-2.3,1.4-2.3,3.1V70c-0.2,0-0.4,0.1-0.6,0.1c-0.1-1.5-1.2-2.8-2.6-2.8c-1.4,0-2.5,1.2-2.6,2.8
						c-0.2,0-0.4,0-0.6-0.1c0-0.1,0-0.3,0-0.4c0-1.7-1-3.1-2.3-3.1c-1.2,0-2.1,1.1-2.3,2.6c-0.2,0-0.3-0.1-0.4-0.1
						c0-0.1,0-0.2,0-0.3c-0.2-1.7-1.3-3.1-2.4-3.1c-0.7,0-1.3,0.6-1.6,1.4c-0.1-0.1-0.3-0.2-0.4-0.3l0,0c0-0.4,0-0.7,0-1.1
						c-0.2-1.5-1.2-2.6-2.2-2.6c-0.2,0-0.4,0.1-0.6,0.2c-0.2-0.6-0.3-1.1-0.3-1.7v-4.1c0,0.4,0,0.8,0.1,1.1c0.3,1.5,1.3,2.9,3.1,4.2
						c5.2,3.9,15.1,4.7,22,1.7c3.5-1.5,5.6-3.7,6.1-6l0,0C980.4,58,980.5,57.8,980.5,57.4z"/>
					<path class="st35" d="M980.5,57.4c0,0.4,0,0.8-0.1,1.1l0,0c-0.5,2.3-2.6,4.5-6.1,6c-6.9,3-16.8,2.2-22-1.7
						c-1.7-1.3-2.7-2.7-3-4.2l0,0c-0.1-0.4-0.1-0.7-0.1-1.1c0-2.7,2.2-5.4,6.2-7.1c2.9-1.2,6.2-1.8,9.5-1.8c4.7,0,9.4,1.2,12.5,3.5
						C979.5,53.7,980.5,55.5,980.5,57.4z"/>
					<path class="st23" d="M980.4,58.1L980.4,58.1c-0.5,2.3-2.6,4.5-6.1,6c-6.9,3-16.8,2.2-22-1.7c-1.7-1.3-2.7-2.7-3-4.2l0,0
						c-0.1-0.3-0.1-0.6-0.1-0.9c0,0.1,0,0.1,0,0.2c0,0.4,0,0.7,0.1,1.1l0,0c0.3,1.5,1.3,2.9,3,4.2c5.2,3.9,15.1,4.7,22,1.7
						c3.5-1.5,5.6-3.7,6.1-6l0,0c0.1-0.4,0.1-0.8,0.1-1.1c0-0.1,0-0.1,0-0.2C980.5,57.5,980.4,57.8,980.4,58.1z"/>
				</g>
			</g>
			<path class="st36" d="M985.5,121.1c0,0.1,0,0.1,0,0.3c-0.1,1.5-0.7,3-1.7,4.3c-1.2,1.6-2.8,2.8-4.4,3.8c-0.7,0.4-1.3,0.7-2.1,1
				c-0.1,0.1-0.2,0.1-0.3,0.2c-0.1,0-0.1,0-0.1,0c-2.2,0.9-4.6,1.6-7.1,1.9c-3.5,0.5-7.2,0.5-10.6,0c-2.2-0.3-4.3-0.9-6.3-1.7
				c-0.2-0.1-0.4-0.2-0.6-0.3c-0.8-0.3-1.5-0.7-2.3-1.1c-4-2.3-6-5.4-6-8.5l0.2-1.7l4.4-40.7c0.4,1.5,1.4,3,3.2,4.3
				c5.4,4.1,15.7,4.9,22.9,1.8c3.6-1.5,5.7-3.7,6.3-6l4.3,39.8c0,0.1,0,0.3,0.1,0.4c0.1,0.4,0.2,0.8,0.2,1.3
				C985.5,120.6,985.5,120.8,985.5,121.1z"/>
		</g>
		<g>
			<polygon class="st39" points="926.2,253.4 958,272.4 958,191.4 926.2,111 			"/>
			<polygon class="st40" points="958,191.4 959.1,190.8 959.1,271.9 958,272.4 			"/>
			<polygon class="st37" points="958,191.4 959.1,190.8 927.2,110.4 926.2,111 			"/>
		</g>
		<g>
			<g>
				<g>
					<path class="st25" d="M944.6,265.9v7.4c0,5.1-4.1,10.2-11.8,13.5c-13.1,5.6-31.8,4.2-41.7-3.2c-4.1-3-6-6.6-6-10.1v-7.7
						c0,0.7,0.1,1.4,0.2,2.1l0,0c0.6,2.8,2.5,5.6,5.8,8c9.9,7.4,28.6,8.8,41.7,3.2c6.7-2.9,10.6-7,11.6-11.3l0,0
						C944.5,267.1,944.6,266.6,944.6,265.9z"/>
					<path class="st26" d="M944.6,265.9c0,0.7-0.1,1.4-0.2,2.2l0,0c-1,4.3-4.9,8.5-11.6,11.3c-13.1,5.6-31.8,4.2-41.7-3.2
						c-3.2-2.4-5.1-5.2-5.8-8l0,0c-0.2-0.7-0.2-1.4-0.2-2.1c0-5.1,4.1-10.2,11.8-13.5c5.4-2.3,11.8-3.5,18.1-3.5
						c9,0,17.8,2.3,23.7,6.6C942.6,258.8,944.6,262.4,944.6,265.9z"/>
				</g>
				<path class="st27" d="M945.7,170.9v98.6l0,0c0,3.5-1.7,7.1-5.3,10.1l0,0c-0.3,0.3-0.7,0.5-1.1,0.8c-0.3,0.2-0.5,0.4-0.8,0.6
					c-0.4,0.3-0.9,0.6-1.3,0.8c-0.3,0.2-0.5,0.3-0.7,0.5l0,0c-1,0.5-2,1.1-3.1,1.5c-0.4,0.2-0.7,0.3-1.1,0.5
					c-0.8,0.3-1.6,0.6-2.4,0.9c-0.8,0.3-1.5,0.5-2.3,0.7c-0.6,0.1-1.2,0.3-1.7,0.4c-0.7,0.2-1.4,0.3-2.1,0.5
					c-0.4,0.1-0.9,0.1-1.3,0.2c-1.2,0.2-2.5,0.3-3.7,0.4c-0.5,0-1.1,0.1-1.6,0.1c-0.7,0-1.3,0.1-2,0.1c-1.1,0-2.1,0-3.2,0
					c-0.3,0-0.6,0-1-0.1c-1.2-0.1-2.3-0.2-3.5-0.4c-0.2,0-0.4-0.1-0.7-0.1c-3.5-0.5-6.8-1.3-9.8-2.5c-1.4-0.6-2.8-1.3-4.1-2
					c-6.2-3.6-9.1-8.4-8.8-13.1H884v-98.6h18.8l0,0h37.7l0,0h5.2V170.9z"/>
				<rect x="886.7" y="191.6" class="st28" width="56.3" height="77.5"/>
				<path class="st29" d="M938.1,200.2L938.1,200.2c-0.1,0-0.1,0.1-0.1,0.1c-0.8,0.7-1.8,1.3-2.8,2c-0.2,0.2-0.5,0.3-0.6,0.4
					c-6.8,3.9-16.2,5.5-24.9,4.6c-2.2-0.1-4.1-0.4-5.6-0.9c-3.4-0.8-6.5-2-9.3-3.5c-9.6-5.5-10.6-14.2-3.2-20.6
					c0.8,0.6,1.6,1.1,2.5,1.6c2.8,1.6,6.1,2.9,9.6,3.6c1.6,0.5,3.6,0.8,5.8,0.9c9,0.9,18.7-0.7,25.8-4.8l0,0
					c0.2-0.1,0.4-0.2,0.6-0.4c0.8-0.5,1.5-1,2.1-1.5C944.6,187.3,944.6,194.7,938.1,200.2z"/>
				<path class="st29" d="M945.7,171.1c0,0.5,0,1-0.1,1.5c-0.4,3-2.2,5.9-5.2,8.6c0,0-0.1,0.1-0.2,0.1c-0.3,0.2-0.5,0.4-0.8,0.6
					c-0.3,0.2-0.6,0.4-0.9,0.6c-0.4-0.3-0.8-0.6-1.2-1c-5.6-4.2-14-6.4-22.6-6.4c-6,0-12.1,1.1-17.2,3.3c-0.2,0.1-0.4,0.2-0.6,0.3
					c-2.5,1.2-4.5,2.7-6.1,4.2c-4.2-3-6.6-6.7-6.9-10.3c-0.1-0.7-0.1-1.4,0-2c0.4-4.3,3.4-8.5,9.1-11.7c0.1,0,0.1-0.1,0.2-0.1
					c3.4-1.9,7.3-3.3,11.5-4.2c7.8-1.6,16.4-1.4,23.8,0.6c2.8,0.8,5.4,1.8,7.7,3.1c0.2,0.1,0.4,0.2,0.6,0.3
					c5.7,3.3,8.6,7.6,8.9,11.9C945.7,170.7,945.7,170.9,945.7,171.1z"/>
				<g>
					<path class="st25" d="M934.9,257.6c-10.9-6.3-28.7-6.2-39.8,0.2c-11.1,6.4-11.2,16.7-0.3,23c2.7,1.6,5.9,2.8,9.3,3.5
						c1.5,0.5,3.5,0.8,5.6,0.9c8.7,0.9,18.1-0.7,24.9-4.6l0,0c0.2-0.1,0.4-0.2,0.6-0.4c1-0.6,1.9-1.3,2.8-2l0.1-0.1l0,0
						C945.5,271.7,944.5,263.1,934.9,257.6z"/>
				</g>
				<path id="XMLID_1_" class="st36" d="M945.8,179.1c0,10.9-15.6,19.8-34.9,20v76.4c19.3-0.2,34.9-9.1,34.9-20V179.1z"/>
				<path class="st27" d="M936.5,160.5c0,0.1,0,0.2,0,0.3c-0.1,1.6-0.8,3.2-1.8,4.5c-1.2,1.7-2.9,3-4.6,4c-0.7,0.4-1.4,0.7-2.1,1.1
					c-0.1,0.1-0.3,0.1-0.4,0.2c-0.1,0-0.1,0-0.1,0c-2.3,1-4.8,1.7-7.4,2c-3.6,0.6-7.5,0.6-11.1,0c-2.3-0.3-4.6-0.9-6.6-1.7
					c-0.2-0.1-0.4-0.2-0.6-0.3c-0.8-0.3-1.6-0.7-2.4-1.1c-4.2-2.4-6.3-5.7-6.3-8.9l0.2-1.8l7.5-69.2h28.1l0.1,1.3l0.1,1.4l0.5,4.4
					l6.6,61.2c0,0.1,0.1,0.3,0.1,0.4c0.1,0.4,0.2,0.9,0.2,1.3C936.5,159.9,936.5,160.2,936.5,160.5z"/>
				<path class="st30" d="M938.6,182.5c-0.4,0.3-0.9,0.6-1.4,0.9c-0.3,0.2-0.5,0.3-0.7,0.4l0,0c-7.5,4.3-17.8,6-27.4,5.1
					c-2.4-0.2-4.5-0.5-6.2-1c-3.7-0.8-7.2-2.1-10.2-3.9c-0.7-0.4-1.2-0.7-1.8-1.2c1.8-1.6,3.9-3.2,6.7-4.4
					c5.1-2.2,11.2-3.3,17.2-3.3c8.5,0,17,2.2,22.6,6.4C937.8,181.9,938.2,182.2,938.6,182.5z"/>
				<path class="st31" d="M929.6,96.6c-2.4,1.8-5.4,2.6-8.4,3.1c-2.7,0.5-5.6,0.6-8.2,1.5c-2.2,0.7-2,3-2.2,5
					c-0.5,3.7-0.7,7.4-1.2,11.1c-0.7,5.7-1.5,11.5-2.2,17.2c-0.8,6.7-1.7,13.4-2.6,20.1l-2.1,16c0,0-0.1,0.1-0.4,0.3
					c-1.1,0.8-4.3,3.6-5.2,7.9c-0.5,2.2-0.4,4.8,0.9,7.7l-1.1,98.1c-1.5-0.6-2.8-1.2-4.1-2c-6.2-3.6-9.1-8.4-8.8-13.1h-0.1v-98.9
					h0.1c0.4-4.3,3.4-8.5,9.1-11.7c0.1,0,0.1-0.1,0.2-0.1l7.5-69.2h4.6c1.5,1.1,2.7,1.8,4.4,2.3c0.8,0.2,1.7,0.5,2.5,0.6
					c0.1,0,0.1,0,0.2,0c2,0.1,4-0.7,6-1.4c3.4-1.1,7.3-1.7,10.4-0.2l0.1,1.4L929.6,96.6z"/>
				<path class="st32" d="M945.6,172.6L945.6,172.6l0.1,97.2c0,1.3-0.4,2.6-0.9,3.8c-0.9,2.5-2.4,4.5-4.4,6.2
					c-0.3,0.3-0.7,0.5-1.1,0.8c-0.3,0.2-0.5,0.4-0.8,0.6c-0.4,0.3-0.9,0.5-1.3,0.8c-0.3,0.2-0.5,0.3-0.7,0.5
					c0-25.3,0.2-91.5,0.9-100.9c0.3-4.4-0.6-7.2-2-9c-2.2-3.1-5.4-3.3-5.4-3.3l-1.5-14l-6.3-57.5l6.9-5.6l7,65.6
					c0,0.2,0.1,0.3,0.1,0.4c0.2,0.1,0.4,0.2,0.6,0.3c5.7,3.3,8.6,7.6,8.9,11.9c0,0.2,0,0.4,0,0.5
					C945.7,171.6,945.7,172.1,945.6,172.6z"/>
				<g>
					<path class="st33" d="M930.4,91.6L930.4,91.6c0.1-0.4,0.1-0.7,0.1-1.1v-3.9c0,0.2,0,0.4,0,0.5s0,0.1,0,0.3c0,0.1,0,0.2-0.1,0.3
						c-0.5,2.3-2.6,4.5-6.1,6c-6.9,3-16.8,2.2-22-1.7c-1.7-1.3-2.7-2.7-3.1-4.2c-0.1-0.4-0.1-0.8-0.1-1.1v0.8v3.3
						c0,0.6,0.1,1.3,0.4,1.9c0.4,1.2,1.4,2.3,2.8,3.4h0.1c0.1,0.1,0.3,0.2,0.5,0.3c1.2,0.8,2.5,1.4,4,1.9c0.2,0.1,0.3,0.1,0.5,0.2
						c1.4,0.4,3,0.8,4.6,0.9c0.2,0,0.4,0.1,0.6,0.1c1.7,0.2,3.4,0.1,5.1,0l0.7-0.1c1.6-0.2,3.1-0.5,4.5-1c0.2-0.1,0.4-0.1,0.6-0.2
						c0.4-0.1,0.7-0.3,1-0.4c1.1-0.5,2-1,2.8-1.5l0.4-0.3c1.3-1,2.2-2.2,2.7-3.3C930.2,92.2,930.3,91.9,930.4,91.6z"/>
					<path class="st34" d="M930.1,92.4c-0.1-0.1-0.3-0.1-0.4-0.1c-1,0-2,1.2-2.2,2.6c0,0.3-0.1,0.5,0,0.8l-0.4,0.3
						c-0.3-0.6-0.8-1.1-1.5-1.1c-1.1,0-2.2,1.4-2.4,3c-0.2,0.1-0.4,0.1-0.6,0.2c-0.4-1.1-1.2-1.9-2.2-1.9c-1.3,0-2.3,1.3-2.3,2.9
						l-0.7,0.1c-0.2-1.4-1.3-2.5-2.5-2.5c-1.3,0-2.4,1.1-2.5,2.5c-0.2,0-0.4,0-0.6-0.1v-0.2c0-1.7-1-3.1-2.3-3.1c-1.1,0-2,1-2.2,2.3
						c-0.1,0-0.1,0-0.2-0.1c-0.1,0-0.2,0-0.3-0.1l0,0c-0.2-1.7-1.3-3.1-2.4-3.1c-0.7,0-1.2,0.5-1.5,1.2l0,0l-0.5-0.3h-0.1l0,0
						c0-0.3,0-0.5,0-0.9c-0.2-1.5-1.2-2.6-2.2-2.6c-0.2,0-0.3,0-0.5,0.1l-0.4-5.2c0,0.2,0.1,0.4,0.1,0.6c0.3,1.5,1.3,2.9,3.1,4.2
						c5.2,3.9,15.1,4.7,22,1.7c3.5-1.5,5.6-3.7,6.1-6l0,0c0.1-0.2,0.1-0.3,0.1-0.5l0,0V87c0-0.1,0-0.2,0-0.4v0.2v3.7
						c0,0.2,0,0.3,0,0.5L930.1,92.4z"/>
					<path class="st9" d="M930.5,86.6v3.9c0,0.6-0.1,1.1-0.3,1.7c-0.1-0.1-0.3-0.1-0.5-0.1c-1,0-2,1.2-2.2,2.6c-0.1,0.4-0.1,0.7,0,1
						c-0.1,0.1-0.2,0.1-0.3,0.2c-0.3-0.7-0.9-1.2-1.5-1.2c-1.2,0-2.3,1.4-2.4,3.1V98c-0.2,0.1-0.3,0.1-0.5,0.2
						c-0.3-1.3-1.2-2.1-2.2-2.1c-1.3,0-2.3,1.4-2.3,3.1v0.1c-0.2,0-0.4,0.1-0.6,0.1c-0.1-1.5-1.2-2.8-2.6-2.8
						c-1.4,0-2.5,1.2-2.6,2.8c-0.2,0-0.4,0-0.6-0.1c0-0.1,0-0.3,0-0.4c0-1.7-1-3.1-2.3-3.1c-1.2,0-2.1,1.1-2.3,2.6
						c-0.2,0-0.3-0.1-0.4-0.1c0-0.1,0-0.2,0-0.3c-0.2-1.7-1.3-3.1-2.4-3.1c-0.7,0-1.3,0.6-1.6,1.4c-0.1-0.1-0.3-0.2-0.4-0.3l0,0
						c0-0.4,0-0.7,0-1.1c-0.2-1.5-1.2-2.6-2.2-2.6c-0.2,0-0.4,0.1-0.6,0.2c-0.2-0.6-0.3-1.1-0.3-1.7v-4.1c0,0.4,0,0.8,0.1,1.1
						c0.3,1.5,1.3,2.9,3.1,4.2c5.2,3.9,15.1,4.7,22,1.7c3.5-1.5,5.6-3.7,6.1-6l0,0C930.5,87.2,930.5,87,930.5,86.6z"/>
					<path class="st35" d="M930.5,86.6c0,0.4,0,0.8-0.1,1.1l0,0c-0.5,2.3-2.6,4.5-6.1,6c-6.9,3-16.8,2.2-22-1.7
						c-1.7-1.3-2.7-2.7-3-4.2l0,0c-0.1-0.4-0.1-0.7-0.1-1.1c0-2.7,2.2-5.4,6.2-7.1c2.9-1.2,6.2-1.8,9.5-1.8c4.7,0,9.4,1.2,12.5,3.5
						C929.5,82.8,930.5,84.7,930.5,86.6z"/>
					<path class="st23" d="M930.4,87.3L930.4,87.3c-0.5,2.3-2.6,4.5-6.1,6c-6.9,3-16.8,2.2-22-1.7c-1.7-1.3-2.7-2.7-3-4.2l0,0
						c-0.1-0.3-0.1-0.6-0.1-0.9c0,0.1,0,0.1,0,0.2c0,0.4,0,0.7,0.1,1.1l0,0c0.3,1.5,1.3,2.9,3,4.2c5.2,3.9,15.1,4.7,22,1.7
						c3.5-1.5,5.6-3.7,6.1-6l0,0c0.1-0.4,0.1-0.8,0.1-1.1c0-0.1,0-0.1,0-0.2C930.5,86.7,930.5,87,930.4,87.3z"/>
				</g>
			</g>
			<path class="st36" d="M935.5,150.3c0,0.1,0,0.1,0,0.3c-0.1,1.5-0.7,3-1.7,4.3c-1.2,1.6-2.8,2.8-4.4,3.8c-0.7,0.4-1.3,0.7-2.1,1
				c-0.1,0.1-0.2,0.1-0.3,0.2c-0.1,0-0.1,0-0.1,0c-2.2,0.9-4.6,1.6-7.1,1.9c-3.5,0.5-7.2,0.5-10.6,0c-2.2-0.3-4.3-0.9-6.3-1.7
				c-0.2-0.1-0.4-0.2-0.6-0.3c-0.8-0.3-1.5-0.7-2.3-1.1c-4-2.3-6-5.4-6-8.5l0.2-1.7l4.4-40.7c0.4,1.5,1.4,3,3.2,4.3
				c5.4,4.1,15.7,4.9,22.9,1.8c3.6-1.5,5.7-3.7,6.3-6l4.3,39.8c0,0.1,0,0.3,0.1,0.4c0.1,0.4,0.2,0.8,0.2,1.3
				C935.5,149.7,935.5,150,935.5,150.3z"/>
		</g>
		<g>
			<polygon class="st39" points="875.3,283.2 907.1,302.2 907.1,221.2 875.3,140.7 			"/>
			<polygon class="st40" points="907.1,221.2 908.2,220.6 908.2,301.6 907.1,302.2 			"/>
			<polygon class="st37" points="907.1,221.2 908.2,220.6 876.4,140.1 875.3,140.7 			"/>
		</g>
		<g>
			<g>
				<g>
					<path class="st25" d="M894.6,294.5v7.4c0,5.1-4.1,10.2-11.8,13.5c-13.1,5.6-31.8,4.2-41.7-3.2c-4.1-3-6-6.6-6-10.1v-7.7
						c0,0.7,0.1,1.4,0.2,2.1l0,0c0.6,2.8,2.5,5.6,5.8,8c9.9,7.4,28.6,8.8,41.7,3.2c6.7-2.9,10.6-7,11.6-11.3l0,0
						C894.5,295.6,894.6,295.2,894.6,294.5z"/>
					<path class="st26" d="M894.6,294.5c0,0.7-0.1,1.4-0.2,2.2l0,0c-1,4.3-4.9,8.5-11.6,11.3c-13.1,5.6-31.8,4.2-41.7-3.2
						c-3.2-2.4-5.1-5.2-5.8-8l0,0c-0.2-0.7-0.2-1.4-0.2-2.1c0-5.1,4.1-10.2,11.8-13.5c5.4-2.3,11.8-3.5,18.1-3.5
						c9,0,17.8,2.3,23.7,6.6C892.6,287.4,894.6,291,894.6,294.5z"/>
				</g>
				<path class="st27" d="M895.7,199.5v98.6l0,0c0,3.5-1.7,7.1-5.3,10.1l0,0c-0.3,0.3-0.7,0.5-1.1,0.8c-0.3,0.2-0.5,0.4-0.8,0.6
					c-0.4,0.3-0.9,0.6-1.3,0.8c-0.3,0.2-0.5,0.3-0.7,0.5l0,0c-1,0.5-2,1.1-3.1,1.5c-0.4,0.2-0.7,0.3-1.1,0.5
					c-0.8,0.3-1.6,0.6-2.4,0.9c-0.8,0.3-1.5,0.5-2.3,0.7c-0.6,0.1-1.2,0.3-1.7,0.4c-0.7,0.2-1.4,0.3-2.1,0.5
					c-0.4,0.1-0.9,0.1-1.3,0.2c-1.2,0.2-2.5,0.3-3.7,0.4c-0.5,0-1.1,0.1-1.6,0.1c-0.7,0-1.3,0.1-2,0.1c-1.1,0-2.1,0-3.2,0
					c-0.3,0-0.6,0-1-0.1c-1.2-0.1-2.3-0.2-3.5-0.4c-0.2,0-0.4-0.1-0.7-0.1c-3.5-0.5-6.8-1.3-9.8-2.5c-1.4-0.6-2.8-1.3-4.1-2
					c-6.2-3.6-9.1-8.4-8.8-13.1H834v-98.6h18.8l0,0h37.7l0,0h5.2V199.5z"/>
				<rect x="836.6" y="220.2" class="st28" width="56.3" height="77.5"/>
				<path class="st29" d="M888.1,228.8L888.1,228.8c-0.1,0-0.1,0.1-0.1,0.1c-0.8,0.7-1.7,1.3-2.8,2c-0.2,0.2-0.5,0.3-0.6,0.4
					c-6.8,3.9-16.2,5.5-24.9,4.6c-2.2-0.1-4.1-0.4-5.6-0.9c-3.4-0.8-6.5-2-9.3-3.5c-9.6-5.5-10.6-14.2-3.2-20.6
					c0.8,0.6,1.6,1.1,2.5,1.6c2.8,1.6,6.1,2.9,9.6,3.6c1.6,0.5,3.6,0.8,5.8,0.9c9,0.9,18.7-0.7,25.8-4.8l0,0
					c0.2-0.1,0.4-0.2,0.6-0.4c0.8-0.5,1.5-1,2.1-1.5C894.6,215.9,894.6,223.2,888.1,228.8z"/>
				<path class="st29" d="M895.7,199.6c0,0.5,0,1-0.1,1.5c-0.4,3-2.2,5.9-5.2,8.6c0,0-0.1,0.1-0.2,0.1c-0.3,0.2-0.5,0.4-0.8,0.6
					c-0.3,0.2-0.6,0.4-0.9,0.6c-0.4-0.3-0.8-0.6-1.2-1c-5.6-4.2-14-6.4-22.6-6.4c-6,0-12,1.1-17.2,3.3c-0.2,0.1-0.4,0.2-0.6,0.3
					c-2.5,1.2-4.5,2.7-6.1,4.2c-4.2-3-6.6-6.7-6.9-10.3c-0.1-0.7-0.1-1.4,0-2c0.4-4.3,3.4-8.5,9.1-11.7c0.1,0,0.1-0.1,0.2-0.1
					c3.4-1.9,7.3-3.3,11.5-4.2c7.8-1.6,16.4-1.4,23.8,0.6c2.8,0.8,5.4,1.8,7.7,3.1c0.2,0.1,0.4,0.2,0.6,0.3
					c5.7,3.3,8.6,7.6,8.9,11.9C895.7,199.3,895.7,199.5,895.7,199.6z"/>
				<g>
					<path class="st25" d="M884.8,286.1c-10.9-6.3-28.7-6.2-39.8,0.2c-11.1,6.4-11.2,16.7-0.3,23c2.7,1.6,5.9,2.8,9.3,3.5
						c1.5,0.5,3.5,0.8,5.6,0.9c8.7,0.9,18.1-0.7,24.9-4.6l0,0c0.2-0.1,0.4-0.2,0.6-0.4c1-0.6,1.9-1.3,2.8-2l0.1-0.1l0,0
						C895.5,300.3,894.4,291.7,884.8,286.1z"/>
				</g>
				<path id="XMLID_6281_" class="st36" d="M895.8,207.7c0,10.9-15.6,19.8-34.9,20v76.4c19.3-0.2,34.9-9.1,34.9-20V207.7z"/>
				<path class="st27" d="M886.4,189.1c0,0.1,0,0.2,0,0.3c-0.1,1.6-0.8,3.2-1.8,4.5c-1.2,1.7-2.9,3-4.6,4c-0.7,0.4-1.4,0.7-2.1,1.1
					c-0.1,0.1-0.3,0.1-0.4,0.2c-0.1,0-0.1,0-0.1,0c-2.3,1-4.8,1.7-7.4,2c-3.6,0.6-7.5,0.6-11.1,0c-2.3-0.3-4.6-0.9-6.6-1.7
					c-0.2-0.1-0.4-0.2-0.6-0.3c-0.8-0.3-1.6-0.7-2.4-1.1c-4.2-2.4-6.3-5.7-6.3-8.9l0.2-1.8l7.5-69.2h28.1l0.1,1.3l0.1,1.4l0.5,4.4
					l6.6,61.2c0,0.1,0.1,0.3,0.1,0.4c0.1,0.4,0.2,0.9,0.2,1.3C886.5,188.5,886.5,188.8,886.4,189.1z"/>
				<path class="st30" d="M888.5,211.1c-0.4,0.3-0.9,0.6-1.4,0.9c-0.3,0.2-0.5,0.3-0.7,0.4l0,0c-7.5,4.3-17.8,6-27.4,5.1
					c-2.4-0.2-4.5-0.5-6.2-1c-3.7-0.8-7.2-2.1-10.2-3.9c-0.7-0.4-1.2-0.7-1.8-1.2c1.8-1.6,3.9-3.2,6.7-4.4
					c5.1-2.2,11.2-3.3,17.2-3.3c8.5,0,17,2.2,22.6,6.4C887.8,210.4,888.2,210.7,888.5,211.1z"/>
				<path class="st31" d="M879.6,125.2c-2.4,1.8-5.4,2.6-8.4,3.1c-2.7,0.5-5.6,0.6-8.2,1.5c-2.2,0.7-2,3-2.2,5
					c-0.5,3.7-0.7,7.4-1.2,11.1c-0.7,5.7-1.5,11.5-2.2,17.2c-0.8,6.7-1.7,13.4-2.6,20.1l-2.1,16c0,0-0.1,0.1-0.4,0.3
					c-1.1,0.8-4.3,3.6-5.2,7.9c-0.5,2.2-0.4,4.8,0.9,7.7l-1.1,98.1c-1.5-0.6-2.8-1.2-4.1-2c-6.2-3.6-9.1-8.4-8.8-13.1h-0.1v-98.9
					h0.1c0.4-4.3,3.4-8.5,9.1-11.7c0.1,0,0.1-0.1,0.2-0.1l7.5-69.2h4.6c1.5,1.1,2.7,1.8,4.4,2.3c0.8,0.2,1.7,0.5,2.5,0.6
					c0.1,0,0.1,0,0.2,0c2,0.1,4-0.7,6-1.4c3.4-1.1,7.3-1.7,10.4-0.2l0.1,1.4L879.6,125.2z"/>
				<path class="st32" d="M895.6,201.1L895.6,201.1l0.1,97.2c0,1.3-0.4,2.6-0.9,3.8c-0.9,2.5-2.4,4.5-4.4,6.2
					c-0.3,0.3-0.7,0.5-1.1,0.8c-0.3,0.2-0.5,0.4-0.8,0.6c-0.4,0.3-0.9,0.5-1.3,0.8c-0.3,0.2-0.5,0.3-0.7,0.5
					c0-25.3,0.2-91.5,0.9-100.9c0.3-4.4-0.6-7.2-2-9c-2.2-3.1-5.4-3.3-5.4-3.3l-1.5-14l-6.3-57.5l6.9-5.6l7,65.6
					c0,0.2,0.1,0.3,0.1,0.5c0.2,0.1,0.4,0.2,0.6,0.3c5.7,3.3,8.6,7.6,8.9,11.9c0,0.2,0,0.4,0,0.5
					C895.7,200.1,895.6,200.7,895.6,201.1z"/>
				<g>
					<path class="st33" d="M880.4,120.2L880.4,120.2c0.1-0.4,0.1-0.7,0.1-1.1v-3.9c0,0.2,0,0.4,0,0.5s0,0.1,0,0.3
						c0,0.1,0,0.2-0.1,0.3c-0.5,2.3-2.6,4.5-6.1,6c-6.9,3-16.8,2.2-22-1.7c-1.7-1.3-2.7-2.7-3.1-4.2c-0.1-0.4-0.1-0.8-0.1-1.1v0.8
						v3.3c0,0.6,0.1,1.3,0.4,1.9c0.5,1.2,1.4,2.3,2.8,3.4h0.1c0.1,0.1,0.3,0.2,0.5,0.3c1.2,0.8,2.5,1.4,4,1.9
						c0.2,0.1,0.3,0.1,0.5,0.2c1.4,0.4,3,0.8,4.6,0.9c0.2,0,0.4,0.1,0.6,0.1c1.7,0.2,3.4,0.1,5.1,0l0.7-0.1c1.6-0.2,3.1-0.5,4.5-1
						c0.2-0.1,0.4-0.1,0.6-0.2c0.4-0.1,0.7-0.3,1-0.4c1.1-0.5,2-1,2.8-1.5l0.4-0.3c1.3-1,2.2-2.2,2.7-3.3
						C880.2,120.7,880.3,120.5,880.4,120.2z"/>
					<path class="st34" d="M880.1,121c-0.1-0.1-0.3-0.1-0.4-0.1c-1,0-2,1.2-2.2,2.6c0,0.3-0.1,0.5,0,0.8l-0.4,0.3
						c-0.3-0.6-0.8-1.1-1.5-1.1c-1.1,0-2.2,1.3-2.4,3c-0.2,0.1-0.4,0.1-0.6,0.2c-0.4-1.1-1.2-1.9-2.2-1.9c-1.3,0-2.3,1.3-2.3,2.9
						l-0.7,0.1c-0.2-1.4-1.3-2.5-2.5-2.5c-1.3,0-2.4,1.1-2.5,2.5c-0.2,0-0.4,0-0.6-0.1v-0.2c0-1.7-1-3.1-2.3-3.1c-1.1,0-2,1-2.2,2.3
						c-0.1,0-0.1,0-0.2-0.1c-0.1,0-0.2,0-0.3-0.1l0,0c-0.2-1.7-1.3-3.1-2.4-3.1c-0.7,0-1.2,0.5-1.5,1.2l0,0l-0.5-0.3h-0.1l0,0
						c0-0.3,0-0.5,0-0.9c-0.2-1.5-1.2-2.6-2.2-2.6c-0.2,0-0.3,0-0.5,0.1l-0.4-5.2c0,0.2,0.1,0.4,0.1,0.6c0.3,1.5,1.3,2.9,3.1,4.2
						c5.2,3.9,15.1,4.7,22,1.7c3.5-1.5,5.6-3.7,6.1-6l0,0c0.1-0.2,0.1-0.3,0.1-0.5l0,0v-0.1c0-0.1,0-0.2,0-0.4v0.2v3.7
						c0,0.2,0,0.3,0,0.5L880.1,121z"/>
					<path class="st9" d="M880.5,115.1v3.9c0,0.6-0.1,1.1-0.3,1.7c-0.1-0.1-0.3-0.1-0.5-0.1c-1,0-2,1.2-2.2,2.6
						c-0.1,0.4-0.1,0.7,0,1c-0.1,0.1-0.2,0.1-0.3,0.2c-0.3-0.7-0.9-1.2-1.5-1.2c-1.2,0-2.2,1.4-2.4,3.1v0.1
						c-0.2,0.1-0.3,0.1-0.5,0.2c-0.3-1.3-1.2-2.1-2.2-2.1c-1.3,0-2.3,1.4-2.3,3.1v0.1c-0.2,0-0.4,0.1-0.6,0.1
						c-0.1-1.5-1.2-2.8-2.6-2.8c-1.4,0-2.5,1.2-2.6,2.8c-0.2,0-0.4,0-0.6-0.1c0-0.1,0-0.3,0-0.4c0-1.7-1-3.1-2.3-3.1
						c-1.2,0-2.1,1.1-2.3,2.6c-0.2,0-0.3-0.1-0.4-0.1c0-0.1,0-0.2,0-0.3c-0.2-1.7-1.3-3.1-2.4-3.1c-0.7,0-1.3,0.6-1.6,1.4
						c-0.1-0.1-0.3-0.2-0.4-0.3l0,0c0-0.4,0-0.7,0-1.1c-0.2-1.5-1.2-2.6-2.2-2.6c-0.2,0-0.4,0.1-0.6,0.2c-0.2-0.6-0.3-1.1-0.3-1.7
						v-4.1c0,0.4,0,0.8,0.1,1.1c0.3,1.5,1.3,2.9,3.1,4.2c5.2,3.9,15.1,4.7,22,1.7c3.5-1.5,5.6-3.7,6.1-6l0,0
						C880.4,115.8,880.5,115.5,880.5,115.1z"/>
					<path class="st35" d="M880.5,115.2c0,0.4,0,0.8-0.1,1.1l0,0c-0.5,2.3-2.6,4.5-6.1,6c-6.9,3-16.8,2.2-22-1.7
						c-1.7-1.3-2.7-2.7-3-4.2l0,0c-0.1-0.4-0.1-0.7-0.1-1.1c0-2.7,2.2-5.4,6.2-7.1c2.9-1.2,6.2-1.8,9.5-1.8c4.7,0,9.4,1.2,12.5,3.5
						C879.5,111.4,880.5,113.3,880.5,115.2z"/>
					<path class="st23" d="M880.4,115.9L880.4,115.9c-0.5,2.3-2.6,4.5-6.1,6c-6.9,3-16.8,2.2-22-1.7c-1.7-1.3-2.7-2.7-3-4.2l0,0
						c-0.1-0.3-0.1-0.6-0.1-0.9c0,0.1,0,0.1,0,0.2c0,0.4,0,0.7,0.1,1.1l0,0c0.3,1.5,1.3,2.9,3,4.2c5.2,3.9,15.1,4.7,22,1.7
						c3.5-1.5,5.6-3.7,6.1-6l0,0c0.1-0.4,0.1-0.8,0.1-1.1c0-0.1,0-0.1,0-0.2C880.5,115.3,880.4,115.6,880.4,115.9z"/>
				</g>
			</g>
			<path class="st36" d="M885.5,178.9c0,0.1,0,0.1,0,0.3c-0.1,1.5-0.7,3-1.7,4.3c-1.2,1.6-2.8,2.8-4.4,3.8c-0.7,0.4-1.3,0.7-2.1,1
				c-0.1,0.1-0.2,0.1-0.3,0.2c-0.1,0-0.1,0-0.1,0c-2.2,0.9-4.6,1.6-7.1,1.9c-3.5,0.5-7.2,0.5-10.6,0c-2.2-0.3-4.3-0.9-6.3-1.7
				c-0.2-0.1-0.4-0.2-0.6-0.3c-0.8-0.3-1.5-0.7-2.3-1.1c-4-2.3-6-5.4-6-8.5l0.2-1.7l4.4-40.7c0.4,1.5,1.4,3,3.2,4.3
				c5.4,4.1,15.7,4.9,22.9,1.8c3.6-1.5,5.7-3.7,6.3-6l4.3,39.8c0,0.1,0,0.3,0.1,0.4c0.1,0.4,0.2,0.8,0.2,1.3
				C885.5,178.3,885.5,178.6,885.5,178.9z"/>
		</g>
		<g>
			<polygon class="st39" points="771.4,286.3 853,333.5 853,281.1 821.2,172 771.4,196.6 			"/>
			<polygon class="st40" points="853,281.1 854.1,280.5 854.1,332.9 853,333.5 			"/>
			<polygon class="st38" points="853,281.1 854.1,280.5 822.3,171.4 821.2,172 			"/>
		</g>
		<polygon class="st37" points="853,281.1 907.1,221.2 908.2,220.6 908.2,301.6 853,333.5 		"/>
		<polygon class="st38" points="906.6,219.8 907.1,221.2 854.1,279.9 853.5,278.3 		"/>
		<polygon class="st37" points="903.9,251.3 958,191.4 959.1,190.8 959.1,271.9 903.9,303.7 		"/>
		<polygon class="st38" points="957.5,190.1 958,191.4 908.2,246.5 908.2,244.3 		"/>
		<polygon class="st37" points="955.3,222.1 1009.4,162.2 1010.4,161.6 1010.4,242.6 955.3,274.5 		"/>
		<polygon class="st38" points="1008.8,160.9 1009.4,162.2 959.1,218 959.1,215.8 		"/>
	</g>
</g>
<g>
	<path class="st9" d="M738.2,371.3c-0.2-0.5-0.4-1-0.7-1.4c-3.4-7-9.3-9.3-15.9-12.9c-8.9-5-17.9-9.9-26.7-15
		c0.3,0.1,0.5,0.3,0.7,0.5l-2.8-1.6l-2-1.1l-1-0.6c-0.1,0-0.2-0.1-0.3-0.1c-2.9-1.4-8.1-1.3-15,0.5c-0.2,0.1-0.5,0.1-0.7,0.2
		c-0.1,0-0.2-0.1-0.3-0.1l-4.9-2c-0.1-0.1-0.1-0.1-0.2-0.2c-0.1,0-0.1-0.1-0.1-0.1c-0.2-0.1-0.3-0.2-0.6-0.3
		c-0.3-0.1-0.6-0.2-0.9-0.3c-0.1,0-0.2-0.1-0.3-0.1L638,325c0,0,0.1,0.1,0.1,0.2l-8.3-3.4l-1.9-0.8c0-0.4-0.1-0.7-0.2-1
		c-0.1-0.1-0.2-0.3-0.3-0.4c0,0,0,0,0-0.1c-0.1-0.1-0.3-0.3-0.5-0.4l-2.4-1.4c0,0,0.1,0,0.1,0.1c0,0-0.1,0-0.1-0.1
		c-1.2-0.7-3.2-0.8-6-0.2c-4,0.8-8.8,2.9-12.8,5.4c-2.8,1.8-5.3,3.7-7,5.7c-2.3,2.7-2.5,4.7-1,5.7l0.1,0.1h-0.1l0.1,0.1
		c0,0-0.1,0-0.2-0.1l2.5,1.4c0.4,0.2,0.8,0.3,1.3,0.4c0.1,0,0.1,0,0.2,0c0.5,0.1,1,0.1,1.6,0.1l7.6,5.8c-0.1,0-0.2,0-0.3-0.1
		l21.6,16.5l0.9,0.7c0.2,0.1,0.4,0.2,0.5,0.2l4.1,3.1l0,0c0,0,0,0,0,0.1c-2.8,4.1-2.7,7.2-0.4,8.9l-0.1,0.1l0.2,0.1l61.4,34.4h0.1
		c0.2,0.1,0.3,0.2,0.5,0.3c1,0.5,2.3,0.9,3.9,1c2.3,0.8,5.8,0.8,10.3-0.1c5.5-1.1,10.7-3.1,15.7-5.5c3.9-1.8,10.2-4,11.3-8.4
		C742.5,386.2,741.2,378.1,738.2,371.3z"/>
	<g>
		<g>
			<g>
				<path class="st25" d="M747.4,385.6v7.4c0,5.1-4.1,10.2-11.8,13.5c-13.1,5.6-31.8,4.2-41.7-3.2c-4.1-3-6-6.6-6-10.1v-7.7
					c0,0.7,0.1,1.4,0.2,2.1l0,0c0.6,2.8,2.5,5.6,5.8,8c9.9,7.4,28.6,8.8,41.7,3.2c6.7-2.9,10.6-7,11.6-11.3l0,0
					C747.3,386.8,747.4,386.3,747.4,385.6z"/>
				<path class="st26" d="M747.4,385.6c0,0.7-0.1,1.4-0.2,2.2l0,0c-1,4.3-4.9,8.5-11.6,11.3c-13.1,5.6-31.8,4.2-41.7-3.2
					c-3.2-2.4-5.1-5.2-5.8-8l0,0c-0.2-0.7-0.2-1.4-0.2-2.1c0-5.1,4.1-10.2,11.8-13.5c5.4-2.3,11.8-3.5,18.1-3.5
					c9,0,17.8,2.3,23.7,6.6C745.4,378.5,747.4,382.1,747.4,385.6z"/>
			</g>
			<path class="st27" d="M748.5,290.6v98.6l0,0c0,3.5-1.7,7.1-5.3,10.1l0,0c-0.3,0.3-0.7,0.5-1.1,0.8c-0.3,0.2-0.5,0.4-0.8,0.6
				c-0.4,0.3-0.9,0.6-1.3,0.8c-0.3,0.2-0.5,0.3-0.7,0.5l0,0c-1,0.5-2,1.1-3.1,1.5c-0.4,0.2-0.7,0.3-1.1,0.5
				c-0.8,0.3-1.6,0.6-2.4,0.9c-0.8,0.3-1.5,0.5-2.3,0.7c-0.6,0.1-1.2,0.3-1.7,0.4c-0.7,0.2-1.4,0.3-2.1,0.5
				c-0.5,0.1-0.9,0.1-1.3,0.2c-1.2,0.2-2.5,0.3-3.7,0.4c-0.5,0-1.1,0.1-1.6,0.1c-0.7,0-1.3,0.1-2,0.1c-1.1,0-2.1,0-3.2,0
				c-0.3,0-0.6,0-1-0.1c-1.2-0.1-2.3-0.2-3.5-0.4c-0.2,0-0.5-0.1-0.7-0.1c-3.5-0.5-6.8-1.3-9.8-2.5c-1.4-0.6-2.8-1.3-4.1-2
				c-6.2-3.6-9.1-8.4-8.8-13.1h-0.1v-98.6h18.8l0,0h37.7l0,0h5.2V290.6z"/>
			<rect x="689.4" y="311.3" class="st28" width="56.3" height="77.5"/>
			<path class="st29" d="M740.9,319.9L740.9,319.9c-0.1,0-0.1,0.1-0.1,0.1c-0.8,0.7-1.8,1.3-2.8,2c-0.2,0.2-0.5,0.3-0.6,0.4
				c-6.8,3.9-16.2,5.5-24.9,4.6c-2.2-0.1-4.1-0.4-5.6-0.9c-3.4-0.8-6.5-2-9.3-3.5c-9.6-5.5-10.6-14.2-3.2-20.6
				c0.8,0.6,1.6,1.1,2.5,1.6c2.8,1.6,6.1,2.9,9.6,3.6c1.6,0.5,3.6,0.8,5.8,0.9c9,0.9,18.7-0.7,25.8-4.8l0,0c0.2-0.1,0.4-0.2,0.6-0.4
				c0.8-0.5,1.5-1,2.1-1.5C747.3,307,747.3,314.3,740.9,319.9z"/>
			<path class="st29" d="M748.5,290.8c0,0.5,0,1-0.1,1.5c-0.4,3-2.2,5.9-5.2,8.6c0,0-0.1,0.1-0.2,0.1c-0.3,0.2-0.5,0.4-0.8,0.6
				s-0.6,0.4-0.9,0.6c-0.4-0.3-0.8-0.6-1.2-1c-5.6-4.2-14-6.4-22.6-6.4c-6,0-12.1,1.1-17.2,3.3c-0.2,0.1-0.4,0.2-0.6,0.3
				c-2.5,1.2-4.5,2.7-6.1,4.2c-4.2-3-6.6-6.7-6.9-10.3c-0.1-0.7-0.1-1.4,0-2c0.4-4.3,3.4-8.5,9.1-11.7c0.1,0,0.1-0.1,0.2-0.1
				c3.4-1.9,7.3-3.3,11.5-4.2c7.8-1.6,16.4-1.4,23.8,0.6c2.8,0.8,5.4,1.8,7.7,3.1c0.2,0.1,0.4,0.2,0.6,0.3c5.7,3.3,8.6,7.6,8.9,11.9
				C748.5,290.4,748.5,290.6,748.5,290.8z"/>
			<g>
				<path class="st25" d="M737.6,377.3c-10.9-6.3-28.7-6.2-39.8,0.2c-11.1,6.4-11.2,16.7-0.3,23c2.7,1.6,5.9,2.8,9.3,3.5
					c1.5,0.5,3.5,0.8,5.6,0.9c8.7,0.9,18.1-0.7,24.9-4.6l0,0c0.2-0.1,0.4-0.2,0.6-0.4c1-0.6,1.9-1.3,2.8-2l0.1-0.1l0,0
					C748.3,391.4,747.2,382.8,737.6,377.3z"/>
			</g>
			<path id="XMLID_6_" class="st36" d="M748.5,298.8c0,10.9-15.6,19.8-34.9,20v76.4c19.3-0.2,34.9-9.1,34.9-20V298.8z"/>
			<path class="st27" d="M739.2,280.2c0,0.1,0,0.2,0,0.3c-0.1,1.6-0.8,3.2-1.8,4.5c-1.2,1.7-2.9,3-4.6,4c-0.7,0.4-1.4,0.7-2.1,1.1
				c-0.1,0.1-0.3,0.1-0.4,0.2c-0.1,0-0.1,0-0.1,0c-2.3,1-4.8,1.7-7.4,2c-3.6,0.6-7.5,0.6-11.1,0c-2.3-0.3-4.6-0.9-6.6-1.7
				c-0.2-0.1-0.4-0.2-0.6-0.3c-0.8-0.3-1.6-0.7-2.4-1.1c-4.2-2.4-6.3-5.7-6.3-8.9l0.2-1.8l7.5-69.2h28.1l0.1,1.3l0.1,1.4l0.5,4.4
				l6.6,61.2c0,0.1,0.1,0.3,0.1,0.4c0.1,0.4,0.2,0.9,0.2,1.3C739.2,279.6,739.2,279.9,739.2,280.2z"/>
			<path class="st30" d="M741.3,302.2c-0.4,0.3-0.9,0.6-1.4,0.9c-0.3,0.2-0.5,0.3-0.7,0.4l0,0c-7.5,4.3-17.8,6-27.4,5.1
				c-2.4-0.2-4.5-0.5-6.2-1c-3.7-0.8-7.2-2.1-10.2-3.9c-0.7-0.4-1.2-0.7-1.8-1.2c1.8-1.6,3.9-3.2,6.7-4.4c5.1-2.3,11.2-3.3,17.2-3.3
				c8.5,0,17,2.2,22.6,6.4C740.6,301.6,741,301.9,741.3,302.2z"/>
			<path class="st31" d="M732.4,216.3c-2.4,1.8-5.4,2.6-8.4,3.1c-2.7,0.5-5.6,0.6-8.2,1.5c-2.2,0.7-2,3-2.2,5
				c-0.5,3.7-0.7,7.4-1.2,11.1c-0.7,5.7-1.5,11.5-2.2,17.2c-0.8,6.7-1.7,13.4-2.6,20.1l-2.1,16c0,0-0.1,0.1-0.4,0.3
				c-1.1,0.8-4.3,3.6-5.2,7.9c-0.5,2.2-0.4,4.8,0.9,7.7l-1.1,98.1c-1.5-0.6-2.8-1.2-4.1-2c-6.2-3.6-9.1-8.4-8.8-13.1h-0.1v-98.9h0.1
				c0.4-4.3,3.4-8.5,9.1-11.7c0.1,0,0.1-0.1,0.2-0.1l7.5-69.2h4.6c1.5,1.1,2.7,1.8,4.4,2.3c0.8,0.2,1.7,0.5,2.5,0.6
				c0.1,0,0.1,0,0.2,0c2,0.1,4-0.7,6-1.4c3.4-1.1,7.3-1.7,10.4-0.2l0.1,1.4L732.4,216.3z"/>
			<path class="st32" d="M748.3,292.3L748.3,292.3l0.1,97.2c0,1.3-0.4,2.6-0.9,3.8c-0.9,2.5-2.4,4.5-4.4,6.2
				c-0.3,0.3-0.7,0.5-1.1,0.8c-0.3,0.2-0.5,0.4-0.8,0.6c-0.4,0.3-0.9,0.5-1.3,0.8c-0.3,0.2-0.5,0.3-0.7,0.5
				c0-25.3,0.2-91.5,0.9-100.9c0.3-4.4-0.6-7.2-2-9c-2.2-3.1-5.4-3.3-5.4-3.3l-1.5-14l-6.3-57.5l6.9-5.6l7,65.6
				c0,0.2,0.1,0.3,0.1,0.5c0.2,0.1,0.4,0.2,0.6,0.3c5.7,3.3,8.6,7.6,8.9,11.9c0,0.2,0,0.4,0,0.5
				C748.5,291.3,748.4,291.8,748.3,292.3z"/>
			<g>
				<path class="st33" d="M733.1,211.3v-0.1c0.1-0.3,0.1-0.6,0.1-1v-3.9c0,0.2,0,0.4,0,0.5s0,0.1,0,0.3c0,0.1,0,0.2-0.1,0.3
					c-0.5,2.3-2.6,4.5-6.1,6c-6.9,3-16.8,2.2-22-1.7c-1.7-1.3-2.7-2.7-3.1-4.2c-0.1-0.4-0.1-0.8-0.1-1.1v0.8v3.3
					c0,0.6,0.1,1.3,0.4,1.9c0.5,1.2,1.4,2.3,2.8,3.4h0.1c0.1,0.1,0.3,0.2,0.4,0.3c1.2,0.8,2.5,1.4,4,1.9c0.2,0.1,0.3,0.1,0.5,0.2
					c1.4,0.4,3,0.8,4.6,0.9c0.2,0,0.4,0.1,0.6,0.1c1.7,0.2,3.4,0.1,5.1,0l0.7-0.1c1.6-0.2,3.1-0.5,4.5-1c0.2-0.1,0.4-0.1,0.6-0.2
					c0.4-0.1,0.7-0.3,1-0.4c1.1-0.5,2-1,2.8-1.5l0.4-0.3c1.3-1,2.2-2.2,2.7-3.3C733,211.9,733.1,211.6,733.1,211.3z"/>
				<path class="st34" d="M732.9,212.1c-0.1-0.1-0.3-0.1-0.4-0.1c-1,0-2,1.2-2.2,2.6c0,0.3-0.1,0.5,0,0.8l-0.4,0.3
					c-0.3-0.6-0.8-1.1-1.5-1.1c-1.1,0-2.2,1.4-2.4,3c-0.2,0.1-0.4,0.1-0.6,0.2c-0.4-1.1-1.2-1.9-2.2-1.9c-1.3,0-2.3,1.3-2.3,2.9
					l-0.7,0.1c-0.2-1.4-1.3-2.5-2.5-2.5c-1.3,0-2.4,1.1-2.5,2.5c-0.2,0-0.4,0-0.6-0.1v-0.2c0-1.7-1-3.1-2.3-3.1c-1.1,0-2,1-2.2,2.3
					c-0.1,0-0.1,0-0.2-0.1c-0.1,0-0.2,0-0.3-0.1l0,0c-0.2-1.7-1.3-3.1-2.4-3.1c-0.7,0-1.2,0.5-1.5,1.2l0,0l-0.4-0.3h-0.1l0,0
					c0-0.3,0-0.5,0-0.9c-0.2-1.5-1.2-2.6-2.2-2.6c-0.2,0-0.3,0-0.5,0.1l-0.4-5.2c0,0.2,0.1,0.4,0.1,0.6c0.3,1.5,1.3,2.9,3.1,4.2
					c5.2,3.9,15.1,4.7,22,1.7c3.5-1.5,5.6-3.7,6.1-6l0,0c0.1-0.2,0.1-0.3,0.1-0.5l0,0v-0.1c0-0.1,0-0.2,0-0.4v0.2v3.7
					c0,0.2,0,0.3,0,0.5L732.9,212.1z"/>
				<path class="st9" d="M733.2,206.3v3.9c0,0.6-0.1,1.1-0.3,1.7c-0.1-0.1-0.3-0.1-0.5-0.1c-1,0-2,1.2-2.2,2.6c-0.1,0.4-0.1,0.7,0,1
					c-0.1,0.1-0.2,0.1-0.3,0.2c-0.3-0.7-0.9-1.2-1.5-1.2c-1.2,0-2.2,1.4-2.4,3.1v0.1c-0.2,0.1-0.3,0.1-0.5,0.2
					c-0.3-1.3-1.2-2.1-2.2-2.1c-1.3,0-2.3,1.4-2.3,3.1v0.1c-0.2,0-0.4,0.1-0.6,0.1c-0.1-1.5-1.2-2.8-2.6-2.8c-1.4,0-2.5,1.2-2.6,2.8
					c-0.2,0-0.4,0-0.6-0.1c0-0.1,0-0.3,0-0.4c0-1.7-1-3.1-2.3-3.1c-1.2,0-2.1,1.1-2.3,2.6c-0.2,0-0.3-0.1-0.4-0.1c0-0.1,0-0.2,0-0.3
					c-0.2-1.7-1.3-3.1-2.4-3.1c-0.7,0-1.3,0.6-1.6,1.4c-0.1-0.1-0.3-0.2-0.4-0.3l0,0c0-0.4,0-0.7,0-1.1c-0.2-1.5-1.2-2.6-2.2-2.6
					c-0.2,0-0.4,0.1-0.6,0.2c-0.2-0.6-0.3-1.1-0.3-1.7v-4.1c0,0.4,0,0.8,0.1,1.1c0.3,1.5,1.4,2.9,3.1,4.2c5.2,3.9,15.1,4.7,22,1.7
					c3.5-1.5,5.6-3.7,6.1-6l0,0C733.2,206.9,733.2,206.7,733.2,206.3z"/>
				<path class="st35" d="M733.3,206.3c0,0.4,0,0.8-0.1,1.1l0,0c-0.5,2.3-2.6,4.5-6.1,6c-6.9,3-16.8,2.2-22-1.7
					c-1.7-1.3-2.7-2.7-3-4.2l0,0c-0.1-0.4-0.1-0.7-0.1-1.1c0-2.7,2.2-5.4,6.2-7.1c2.9-1.2,6.2-1.8,9.5-1.8c4.7,0,9.4,1.2,12.5,3.5
					C732.2,202.5,733.3,204.4,733.3,206.3z"/>
				<path class="st23" d="M733.1,207L733.1,207c-0.5,2.3-2.6,4.5-6.1,6c-6.9,3-16.8,2.2-22-1.7c-1.7-1.3-2.7-2.7-3-4.2l0,0
					c-0.1-0.3-0.1-0.6-0.1-0.9c0,0.1,0,0.1,0,0.2c0,0.4,0,0.7,0.1,1.1l0,0c0.3,1.5,1.3,2.9,3,4.2c5.2,3.9,15.1,4.7,22,1.7
					c3.5-1.5,5.6-3.7,6.1-6l0,0c0.1-0.4,0.1-0.8,0.1-1.1c0-0.1,0-0.1,0-0.2C733.2,206.4,733.2,206.7,733.1,207z"/>
			</g>
		</g>
		<path class="st36" d="M738.2,270c0,0.1,0,0.1,0,0.3c-0.1,1.5-0.7,3-1.7,4.3c-1.2,1.6-2.8,2.8-4.4,3.8c-0.7,0.4-1.3,0.7-2.1,1
			c-0.1,0.1-0.2,0.1-0.3,0.2c-0.1,0-0.1,0-0.1,0c-2.2,0.9-4.6,1.6-7.1,1.9c-3.5,0.5-7.2,0.5-10.6,0c-2.2-0.3-4.3-0.9-6.3-1.7
			c-0.2-0.1-0.4-0.2-0.6-0.3c-0.8-0.3-1.5-0.7-2.3-1.1c-4-2.3-6-5.4-6-8.5l0.2-1.7l4.4-40.7c0.4,1.5,1.4,3,3.2,4.3
			c5.4,4.1,15.7,4.9,22.9,1.8c3.6-1.5,5.7-3.7,6.3-6l4.3,39.8c0,0.1,0,0.3,0.1,0.4c0.1,0.4,0.2,0.8,0.2,1.3
			C738.3,269.4,738.3,269.7,738.2,270z"/>
	</g>
</g>
</svg>
