<?xml version="1.0" encoding="utf-8"?>
<!-- Generator: Adobe Illustrator 22.0.1, SVG Export Plug-In . SVG Version: 6.00 Build 0)  -->
<svg version="1.1" id="a5860ba0-ef67-4914-ac96-07e2ebcccb4f"
	 xmlns="http://www.w3.org/2000/svg" xmlns:xlink="http://www.w3.org/1999/xlink" x="0px" y="0px" viewBox="0 0 1095.7 664"
	 style="enable-background:new 0 0 1095.7 664;" xml:space="preserve">
<style type="text/css">
	.st0{opacity:0.1;}
	.st1{enable-background:new    ;}
	.st2{clip-path:url(#SVGID_2_);enable-background:new    ;}
	.st3{fill:#B2C5CC;}
	.st4{fill:#ADC0C7;}
	.st5{fill:#A9BBC2;}
	.st6{fill:#A4B6BD;}
	.st7{fill:#A0B1B8;}
	.st8{fill:#9BACB3;}
	.st9{fill:#97A7AD;}
	.st10{fill:#93A2A8;}
	.st11{fill:#8E9DA3;}
	.st12{fill:#8A999E;}
	.st13{fill:#859499;}
	.st14{fill:#818F94;}
	.st15{fill:#7C8A8F;}
	.st16{fill:#78858A;}
	.st17{fill:#738085;}
	.st18{fill:#8AAFBF;}
	.st19{clip-path:url(#SVGID_4_);enable-background:new    ;}
	.st20{clip-path:url(#SVGID_6_);enable-background:new    ;}
	.st21{fill:#ABBEC5;}
	.st22{fill:#778488;}
	.st23{clip-path:url(#SVGID_8_);enable-background:new    ;}
	.st24{fill:#87ABBB;}
	.st25{fill:#84A7B7;}
	.st26{fill:#80A3B2;}
	.st27{fill:#7D9EAD;}
	.st28{fill:#7A9AA8;}
	.st29{fill:#7696A4;}
	.st30{fill:#73929F;}
	.st31{fill:#708D9A;}
	.st32{fill:#6C8996;}
	.st33{fill:#698591;}
	.st34{clip-path:url(#SVGID_10_);enable-background:new    ;}
	.st35{fill:#586F7A;}
	.st36{fill:#5B747E;}
	.st37{fill:#5F7883;}
	.st38{fill:#627C88;}
	.st39{fill:#65808C;}
	.st40{fill:#BFD4DB;}
	.st41{fill:#DEF6FF;}
	.st42{fill:#B2DDEA;}
	.st43{clip-path:url(#SVGID_12_);enable-background:new    ;}
	.st44{clip-path:url(#SVGID_14_);enable-background:new    ;}
	.st45{clip-path:url(#SVGID_16_);enable-background:new    ;}
	.st46{clip-path:url(#SVGID_18_);enable-background:new    ;}
	.st47{clip-path:url(#SVGID_20_);enable-background:new    ;}
	.st48{clip-path:url(#SVGID_22_);enable-background:new    ;}
	.st49{clip-path:url(#SVGID_24_);enable-background:new    ;}
	.st50{clip-path:url(#SVGID_26_);enable-background:new    ;}
	.st51{clip-path:url(#SVGID_28_);enable-background:new    ;}
	.st52{clip-path:url(#SVGID_30_);enable-background:new    ;}
	.st53{clip-path:url(#SVGID_32_);enable-background:new    ;}
	.st54{clip-path:url(#SVGID_34_);enable-background:new    ;}
	.st55{fill:#A9D6EA;}
	.st56{fill:#5FB7DD;}
	.st57{fill:#95C4DE;}
	.st58{fill:#131C24;}
	.st59{fill:#EFB185;}
	.st60{fill:#E6A376;}
	.st61{fill:#5FB9E6;}
	.st62{fill:#77D2FF;}
	.st63{fill:#111114;}
	.st64{fill:#0A0A0A;}
	.st65{fill:#EA49BD;}
	.st66{fill:#FF61CB;}
	.st67{fill:#DD9569;}
	.st68{fill:#341C09;}
	.st69{fill:#221101;}
</style>
<g>
	<g>
		<path class="st0" d="M875.3,518.6c43.3,25,43.5,65.6,0.5,90.6c-43,25-113.1,25-156.4,0c-43.3-25-43.6-65.6-0.5-90.6
			C762,493.6,832,493.6,875.3,518.6z"/>
	</g>
	<g>
		<g>
			<g class="st0">
				<polygon points="233.4,539.7 421.7,649.2 856.4,398.1 663.6,284.8 				"/>
			</g>
			<g class="st1">
				<defs>
					<path id="SVGID_1_" class="st1" d="M610,437.6c42.7-24.7,77.3-84.5,77.1-133.6c4,2.3,8,4.7,12,7c0.1,49.1-34.4,109-77.1,133.6
						C618.4,442.5,613.6,439.7,610,437.6z"/>
				</defs>
				<clipPath id="SVGID_2_">
					<use xlink:href="#SVGID_1_"  style="overflow:visible;"/>
				</clipPath>
				<g class="st2">
					<path class="st3" d="M622,444.6l-12-7c9.1-5.2,17.8-12,25.8-20l12,7C639.8,432.5,631.1,439.4,622,444.6L622,444.6z"/>
					<path class="st4" d="M647.9,424.6l-12-7c2.9-2.9,5.7-5.9,8.4-9l12,7C653.6,418.7,650.7,421.7,647.9,424.6L647.9,424.6z"/>
					<path class="st5" d="M656.3,415.6l-12-7c2.1-2.5,4.3-5,6.3-7.6l12,7C660.5,410.6,658.4,413.1,656.3,415.6L656.3,415.6z"/>
					<path class="st6" d="M662.6,407.9l-12-7c1.8-2.3,3.5-4.6,5.2-7l12,7C666.1,403.3,664.3,405.6,662.6,407.9L662.6,407.9z"/>
					<path class="st7" d="M667.7,400.9l-12-7c1.6-2.2,3-4.4,4.5-6.7l12,7C670.8,396.5,669.3,398.8,667.7,400.9L667.7,400.9z"/>
					<path class="st8" d="M672.2,394.3l-12-7c1.4-2.1,2.7-4.3,4-6.5l12,7C674.9,389.9,673.6,392.1,672.2,394.3L672.2,394.3z"/>
					<path class="st9" d="M676.2,387.7l-12-7c1.3-2.2,2.5-4.3,3.6-6.5l12,7C678.7,383.4,677.5,385.6,676.2,387.7L676.2,387.7z"/>
					<path class="st10" d="M679.8,381.2l-12-7c1.2-2.2,2.3-4.4,3.3-6.6l12,7C682.1,376.8,681,379,679.8,381.2L679.8,381.2z"/>
					<path class="st11" d="M683.2,374.6l-12-7c1.1-2.2,2.1-4.5,3.1-6.7l12,7C685.3,370.2,684.2,372.4,683.2,374.6L683.2,374.6z"/>
					<path class="st12" d="M686.2,367.9l-12-7c1-2.3,2-4.6,2.8-7l12,7C688.2,363.3,687.2,365.6,686.2,367.9L686.2,367.9z"/>
					<path class="st13" d="M689.1,360.9l-12-7c0.9-2.4,1.8-4.9,2.6-7.3l12,7C690.9,356.1,690,358.5,689.1,360.9L689.1,360.9z"/>
					<path class="st14" d="M691.7,353.6l-12-7c0.9-2.6,1.7-5.2,2.4-7.9l12,7C693.4,348.4,692.6,351,691.7,353.6L691.7,353.6z"/>
					<path class="st15" d="M694.1,345.8l-12-7c0.8-3,1.5-5.9,2.2-8.9l12,7C695.7,339.8,694.9,342.8,694.1,345.8L694.1,345.8z"/>
					<path class="st16" d="M696.3,336.9l-12-7c0.8-3.6,1.4-7.2,1.8-10.7l12,7C697.7,329.7,697.1,333.3,696.3,336.9L696.3,336.9z"/>
					<path class="st17" d="M698.1,326.1l-12-7c0.7-5.1,1-10.2,1-15.1c-0.1-24.4-8.7-41.6-22.6-49.7l12,7
						c13.9,8.1,22.5,25.2,22.6,49.7C699.1,315.9,698.8,321,698.1,326.1L698.1,326.1z"/>
				</g>
			</g>
			<g>
				<polygon class="st18" points="596.2,405.2 584.2,398.3 646.7,327.3 658.7,334.3 				"/>
			</g>
			<g class="st1">
				<defs>
					<path id="SVGID_3_" class="st1" d="M554.9,443c14.1,8.2,33.6,7,55.1-5.4l12,7c-21.5,12.4-41,13.6-55.1,5.4
						C563.3,447.9,558.5,445.1,554.9,443z"/>
				</defs>
				<clipPath id="SVGID_4_">
					<use xlink:href="#SVGID_3_"  style="overflow:visible;"/>
				</clipPath>
				<g class="st19">
					<path class="st12" d="M566.9,450l-12-7c0.1,0.1,0.3,0.2,0.4,0.3l12,7C567.2,450.1,567.1,450.1,566.9,450L566.9,450z"/>
					<path class="st11" d="M567.4,450.2l-12-7c1.3,0.7,2.5,1.3,3.9,1.9l12,7C569.9,451.6,568.6,450.9,567.4,450.2L567.4,450.2z"/>
					<path class="st10" d="M571.2,452.1l-12-7c1.3,0.6,2.7,1,4.1,1.4l12,7C573.9,453.2,572.6,452.7,571.2,452.1L571.2,452.1z"/>
					<path class="st9" d="M575.3,453.6l-12-7c1.4,0.4,2.9,0.8,4.3,1l12,7C578.2,454.3,576.7,454,575.3,453.6L575.3,453.6z"/>
					<path class="st8" d="M579.7,454.6l-12-7c1.5,0.3,3.1,0.4,4.7,0.5l12,7C582.8,455,581.2,454.8,579.7,454.6L579.7,454.6z"/>
					<path class="st7" d="M584.4,455.1l-12-7c1.7,0.1,3.4,0.1,5.1,0.1l12,7C587.7,455.2,586,455.2,584.4,455.1L584.4,455.1z"/>
					<path class="st6" d="M589.5,455.2l-12-7c1.9-0.1,3.8-0.3,5.8-0.6l12,7C593.3,454.9,591.4,455.1,589.5,455.2L589.5,455.2z"/>
					<path class="st5" d="M595.2,454.6l-12-7c2.2-0.3,4.5-0.8,6.8-1.5l12,7C599.7,453.8,597.5,454.2,595.2,454.6L595.2,454.6z"/>
					<path class="st4" d="M602.1,453.1l-12-7c3-0.8,6-1.9,9.1-3.2l12,7C608.1,451.3,605,452.3,602.1,453.1L602.1,453.1z"/>
					<path class="st3" d="M611.2,450l-12-7c3.5-1.5,7.2-3.3,10.8-5.4l12,7C618.3,446.7,614.7,448.5,611.2,450L611.2,450z"/>
				</g>
			</g>
			<g class="st1">
				<defs>
					<path id="SVGID_5_" class="st1" d="M687.1,304c-0.1-24.4-8.7-41.6-22.6-49.7l12,7c13.9,8.1,22.5,25.2,22.6,49.7
						C695.1,308.6,691.1,306.3,687.1,304z"/>
				</defs>
				<clipPath id="SVGID_6_">
					<use xlink:href="#SVGID_5_"  style="overflow:visible;"/>
				</clipPath>
				<g class="st20">
					<path class="st17" d="M698.1,326.1l-12-7c0.7-5.1,1-10.2,1-15.1c-0.1-24.4-8.7-41.6-22.6-49.7l12,7
						c13.9,8.1,22.5,25.2,22.6,49.7C699.1,315.9,698.8,321,698.1,326.1L698.1,326.1z"/>
				</g>
			</g>
			<g>
				<polygon class="st21" points="596,335.6 584,328.6 646.7,327.3 658.7,334.3 				"/>
			</g>
			<g>
				<polygon class="st22" points="596.2,405.2 584.2,398.3 584,328.6 596,335.6 				"/>
			</g>
			<g class="st1">
				<defs>
					<path id="SVGID_7_" class="st1" d="M664.5,254.3l12,7c-14.1-8.2-33.5-7-55,5.4l-12-7C631,247.3,650.4,246.2,664.5,254.3z"/>
				</defs>
				<clipPath id="SVGID_8_">
					<use xlink:href="#SVGID_7_"  style="overflow:visible;"/>
				</clipPath>
				<g class="st23">
					<path class="st24" d="M621.5,266.7l-12-7c3.7-2.1,7.3-3.9,10.8-5.4l12,7C628.8,262.8,625.2,264.6,621.5,266.7L621.5,266.7z"/>
					<path class="st25" d="M632.3,261.3l-12-7c3.1-1.3,6.1-2.3,9.1-3.1l12,7C638.5,259,635.4,260,632.3,261.3L632.3,261.3z"/>
					<path class="st26" d="M641.4,258.2l-12-7c2.3-0.6,4.6-1.1,6.8-1.5l12,7C646,257.1,643.8,257.6,641.4,258.2L641.4,258.2z"/>
					<path class="st27" d="M648.2,256.7l-12-7c2-0.3,3.9-0.5,5.8-0.6l12,7C652.1,256.2,650.2,256.4,648.2,256.7L648.2,256.7z"/>
					<path class="st28" d="M654,256.1l-12-7c1.8-0.1,3.5-0.1,5.1,0.1l12,7C657.5,256.1,655.8,256.1,654,256.1L654,256.1z"/>
					<path class="st29" d="M659.1,256.2l-12-7c1.6,0.1,3.1,0.3,4.7,0.5l12,7C662.3,256.5,660.7,256.3,659.1,256.2L659.1,256.2z"/>
					<path class="st30" d="M663.8,256.7l-12-7c1.5,0.3,2.9,0.6,4.3,1l12,7C666.7,257.3,665.3,257,663.8,256.7L663.8,256.7z"/>
					<path class="st31" d="M668.1,257.7l-12-7c1.4,0.4,2.8,0.9,4.1,1.4l12,7C670.9,258.6,669.5,258.1,668.1,257.7L668.1,257.7z"/>
					<path class="st32" d="M672.2,259.2l-12-7c1.3,0.6,2.6,1.2,3.9,1.9l12,7C674.9,260.4,673.6,259.7,672.2,259.2L672.2,259.2z"/>
					<path class="st33" d="M676.1,261.1l-12-7c0.1,0.1,0.3,0.2,0.4,0.2l12,7C676.4,261.2,676.3,261.1,676.1,261.1L676.1,261.1z"/>
				</g>
			</g>
			<g class="st1">
				<defs>
					<path id="SVGID_9_" class="st1" d="M566.9,450l-12-7c-13.9-8.1-22.5-25.2-22.6-49.6c-0.1-49.1,34.4-109,77.2-133.6l12,7
						c-42.8,24.7-77.3,84.5-77.1,133.6C544.4,424.7,553,441.9,566.9,450z"/>
				</defs>
				<clipPath id="SVGID_10_">
					<use xlink:href="#SVGID_9_"  style="overflow:visible;"/>
				</clipPath>
				<g class="st34">
					<path class="st35" d="M566.9,450l-12-7c-13.9-8.1-22.5-25.2-22.6-49.6c0-5,0.3-10,1-15.2l12,7c-0.7,5.1-1,10.2-1,15.1
						C544.4,424.7,553,441.9,566.9,450L566.9,450z"/>
					<path class="st36" d="M545.3,385.2l-12-7c0.5-3.5,1.1-7.1,1.8-10.7l12,7C546.4,378.1,545.8,381.6,545.3,385.2L545.3,385.2z"/>
					<path class="st37" d="M547.2,374.4l-12-7c0.6-3,1.4-5.9,2.2-8.9l12,7C548.5,368.5,547.8,371.5,547.2,374.4L547.2,374.4z"/>
					<path class="st38" d="M549.4,365.6l-12-7c0.7-2.6,1.5-5.3,2.4-7.9l12,7C550.9,360.3,550.1,362.9,549.4,365.6L549.4,365.6z"/>
					<path class="st39" d="M551.8,357.7l-12-7c0.8-2.4,1.7-4.9,2.6-7.3l12,7C553.5,352.8,552.6,355.2,551.8,357.7L551.8,357.7z"/>
					<path class="st33" d="M554.4,350.4l-12-7c0.9-2.3,1.8-4.6,2.8-7l12,7C556.2,345.7,555.3,348,554.4,350.4L554.4,350.4z"/>
					<path class="st32" d="M557.2,343.4l-12-7c1-2.3,2-4.5,3.1-6.7l12,7C559.2,338.9,558.2,341.2,557.2,343.4L557.2,343.4z"/>
					<path class="st31" d="M560.3,336.7l-12-7c1.1-2.2,2.2-4.4,3.3-6.6l12,7C562.5,332.3,561.4,334.5,560.3,336.7L560.3,336.7z"/>
					<path class="st30" d="M563.6,330.1l-12-7c1.2-2.2,2.4-4.4,3.6-6.5l12,7C566,325.8,564.8,327.9,563.6,330.1L563.6,330.1z"/>
					<path class="st29" d="M567.3,323.6l-12-7c1.3-2.2,2.6-4.4,4-6.5l12,7C569.9,319.2,568.6,321.4,567.3,323.6L567.3,323.6z"/>
					<path class="st28" d="M571.3,317.1l-12-7c1.5-2.3,2.9-4.5,4.5-6.7l12,7C574.2,312.6,572.7,314.8,571.3,317.1L571.3,317.1z"/>
					<path class="st27" d="M575.8,310.4l-12-7c1.7-2.4,3.4-4.7,5.1-7l12,7C579.1,305.7,577.4,308,575.8,310.4L575.8,310.4z"/>
					<path class="st26" d="M580.9,303.4l-12-7c2-2.6,4.1-5.2,6.3-7.6l12,7C585,298.2,582.9,300.8,580.9,303.4L580.9,303.4z"/>
					<path class="st25" d="M587.2,295.7l-12-7c2.7-3.1,5.6-6.2,8.5-9l12,7C592.7,289.6,589.9,292.6,587.2,295.7L587.2,295.7z"/>
					<path class="st24" d="M595.6,286.7l-12-7c8.1-8,16.8-14.8,25.9-20l12,7C612.4,271.9,603.7,278.8,595.6,286.7L595.6,286.7z"/>
				</g>
			</g>
			<g>
				<polygon class="st40" points="400.7,332.6 388.7,325.6 846.1,61.5 858.1,68.5 				"/>
			</g>
			<path class="st41" d="M858.1,68.5l0.9,312.9c0,7.4-5.2,16.3-11.6,20L413.2,652.1c-6.4,3.7-11.6,0.8-11.6-6.6l-0.9-312.9
				L858.1,68.5z"/>
			<path class="st42" d="M401.6,645.5l-0.9-312.9l-12-7l0.9,312.9c0,3.7,1.3,6.2,3.4,7.5c4,2.3,8,4.7,12,7
				C402.9,651.7,401.6,649.2,401.6,645.5z"/>
			<g class="st1">
				<defs>
					<path id="SVGID_11_" class="st1" d="M488.6,241.8c0-3.3-1.2-5.7-3.1-6.8l12,7c1.9,1.1,3.1,3.4,3.1,6.8l0,0l0,0l0,0l0,0l0,0
						c-2.5-1.5-5.1-2.9-7.6-4.4C491.6,243.5,490.1,242.6,488.6,241.8c4,2.3,8,4.7,12,7c0,6.7-4.7,14.9-10.5,18.3l-12-7
						C483.9,256.7,488.6,248.5,488.6,241.8z"/>
				</defs>
				<clipPath id="SVGID_12_">
					<use xlink:href="#SVGID_11_"  style="overflow:visible;"/>
				</clipPath>
				<g class="st43">
					<path class="st24" d="M490.1,267.1l-12-7c1.2-0.7,2.4-1.7,3.5-2.7l12,7C492.5,265.4,491.3,266.4,490.1,267.1L490.1,267.1z"/>
					<path class="st25" d="M493.6,264.4l-12-7c0.4-0.4,0.8-0.8,1.2-1.2l12,7C494.4,263.5,494,263.9,493.6,264.4L493.6,264.4z"/>
					<path class="st26" d="M494.8,263.1l-12-7c0.3-0.3,0.6-0.7,0.9-1.1l12,7C495.4,262.4,495.1,262.8,494.8,263.1L494.8,263.1z"/>
					<path class="st27" d="M495.6,262.1l-12-7c0.2-0.3,0.5-0.6,0.7-0.9l12,7C496.1,261.4,495.9,261.8,495.6,262.1L495.6,262.1z"/>
					<path class="st28" d="M496.3,261.1l-12-7c0.2-0.3,0.4-0.6,0.6-0.9l12,7C496.7,260.5,496.5,260.8,496.3,261.1L496.3,261.1z"/>
					<path class="st29" d="M496.9,260.2l-12-7c0.2-0.3,0.4-0.6,0.5-0.9l12,7C497.3,259.6,497.1,259.9,496.9,260.2L496.9,260.2z"/>
					<path class="st30" d="M497.5,259.3l-12-7c0.2-0.3,0.3-0.6,0.5-0.9l12,7C497.8,258.7,497.6,259,497.5,259.3L497.5,259.3z"/>
					<path class="st31" d="M498,258.4l-12-7c0.2-0.3,0.3-0.6,0.5-0.9l12,7C498.3,257.8,498.1,258.1,498,258.4L498,258.4z"/>
					<path class="st32" d="M498.4,257.5l-12-7c0.1-0.3,0.3-0.6,0.4-0.9l12,7C498.7,256.9,498.6,257.2,498.4,257.5L498.4,257.5z"/>
					<path class="st33" d="M498.9,256.6l-12-7c0.1-0.3,0.3-0.6,0.4-1l12,7C499.1,256,499,256.3,498.9,256.6L498.9,256.6z"/>
					<path class="st39" d="M499.2,255.6l-12-7c0.1-0.3,0.2-0.7,0.4-1l12,7C499.5,255,499.4,255.3,499.2,255.6L499.2,255.6z"/>
					<path class="st38" d="M499.6,254.6l-12-7c0.1-0.3,0.2-0.7,0.3-1.1l12,7C499.8,253.9,499.7,254.3,499.6,254.6L499.6,254.6z"/>
					<path class="st37" d="M499.9,253.6l-12-7c0.1-0.4,0.2-0.8,0.3-1.2l12,7C500.1,252.7,500.1,253.2,499.9,253.6L499.9,253.6z"/>
					<path class="st36" d="M500.2,252.3l-12-7c0.1-0.5,0.2-1,0.3-1.5l12,7C500.4,251.3,500.3,251.8,500.2,252.3L500.2,252.3z"/>
					<path class="st35" d="M500.5,250.9l-12-7c0.1-0.7,0.1-1.4,0.1-2.1c0-3.3-1.2-5.7-3.1-6.8l12,7c1.9,1.1,3.1,3.4,3.1,6.8
						C500.6,249.5,500.6,250.2,500.5,250.9L500.5,250.9z"/>
				</g>
			</g>
			<g class="st1">
				<defs>
					<path id="SVGID_13_" class="st1" d="M485.5,235c0.6,0.3,1.2,0.7,1.8,1.1c3.4,2,6.8,3.9,10.2,5.9c-1.9-1.1-4.6-1-7.5,0.7l-12-7
						C480.9,234,483.6,233.9,485.5,235z"/>
				</defs>
				<clipPath id="SVGID_14_">
					<use xlink:href="#SVGID_13_"  style="overflow:visible;"/>
				</clipPath>
				<g class="st44">
					<path class="st3" d="M490,242.7l-12-7c0.5-0.3,1-0.5,1.5-0.7l12,7C491,242.2,490.5,242.4,490,242.7L490,242.7z"/>
					<path class="st4" d="M491.5,242l-12-7c0.4-0.2,0.8-0.3,1.2-0.4l12,7C492.4,241.7,491.9,241.8,491.5,242L491.5,242z"/>
					<path class="st5" d="M492.8,241.6l-12-7c0.3-0.1,0.6-0.2,0.9-0.2l12,7C493.4,241.4,493.1,241.5,492.8,241.6L492.8,241.6z"/>
					<path class="st6" d="M493.7,241.4l-12-7c0.3,0,0.5-0.1,0.8-0.1l12,7C494.2,241.3,494,241.3,493.7,241.4L493.7,241.4z"/>
					<path class="st7" d="M494.5,241.3l-12-7c0.2,0,0.5,0,0.7,0l12,7C494.9,241.3,494.7,241.3,494.5,241.3L494.5,241.3z"/>
					<path class="st8" d="M495.2,241.3l-12-7c0.2,0,0.4,0,0.6,0.1l12,7C495.6,241.3,495.4,241.3,495.2,241.3L495.2,241.3z"/>
					<path class="st9" d="M495.8,241.4l-12-7c0.2,0.1,0.4,0.1,0.6,0.1l12,7C496.2,241.4,496,241.4,495.8,241.4L495.8,241.4z"/>
					<path class="st10" d="M496.4,241.5l-12-7c0.2,0.1,0.4,0.1,0.6,0.2l12,7C496.8,241.6,496.6,241.6,496.4,241.5L496.4,241.5z"/>
					<path class="st11" d="M497,241.7l-12-7c0.2,0.1,0.4,0.1,0.5,0.3l12,7C497.3,241.9,497.1,241.8,497,241.7L497,241.7z"/>
					<path class="st12" d="M497.5,242l-12-7c0,0,0,0,0.1,0L497.5,242C497.5,242,497.5,242,497.5,242L497.5,242z"/>
				</g>
			</g>
			<g class="st1">
				<defs>
					<path id="SVGID_15_" class="st1" d="M482.6,267.8l-12-7c-1.9-1.1-3.1-3.5-3.1-6.8c0-6.7,4.7-14.9,10.6-18.3l12,7
						c-5.9,3.4-10.6,11.5-10.6,18.3C479.5,264.4,480.6,266.7,482.6,267.8z"/>
				</defs>
				<clipPath id="SVGID_16_">
					<use xlink:href="#SVGID_15_"  style="overflow:visible;"/>
				</clipPath>
				<g class="st45">
					<path class="st17" d="M482.6,267.8l-12-7c-1.9-1.1-3.1-3.5-3.1-6.8c0-0.7,0.1-1.4,0.1-2.1l12,7c-0.1,0.7-0.1,1.4-0.1,2.1
						C479.5,264.4,480.6,266.7,482.6,267.8L482.6,267.8z"/>
					<path class="st16" d="M479.6,258.9l-12-7c0.1-0.5,0.1-1,0.2-1.5l12,7C479.7,258,479.7,258.5,479.6,258.9L479.6,258.9z"/>
					<path class="st15" d="M479.8,257.5l-12-7c0.1-0.4,0.2-0.8,0.3-1.2l12,7C480,256.7,479.9,257.1,479.8,257.5L479.8,257.5z"/>
					<path class="st14" d="M480.1,256.3l-12-7c0.1-0.4,0.2-0.7,0.3-1.1l12,7C480.3,255.6,480.2,255.9,480.1,256.3L480.1,256.3z"/>
					<path class="st13" d="M480.5,255.2l-12-7c0.1-0.3,0.2-0.7,0.4-1l12,7C480.7,254.5,480.6,254.9,480.5,255.2L480.5,255.2z"/>
					<path class="st12" d="M480.8,254.2l-12-7c0.1-0.3,0.2-0.6,0.4-1l12,7C481.1,253.6,480.9,253.9,480.8,254.2L480.8,254.2z"/>
					<path class="st11" d="M481.2,253.3l-12-7c0.1-0.3,0.3-0.6,0.4-0.9l12,7C481.5,252.6,481.3,253,481.2,253.3L481.2,253.3z"/>
					<path class="st10" d="M481.6,252.3l-12-7c0.1-0.3,0.3-0.6,0.5-0.9l12,7C481.9,251.7,481.8,252,481.6,252.3L481.6,252.3z"/>
					<path class="st9" d="M482.1,251.4l-12-7c0.1-0.3,0.3-0.6,0.5-0.9l12,7C482.4,250.8,482.2,251.1,482.1,251.4L482.1,251.4z"/>
					<path class="st8" d="M482.6,250.5l-12-7c0.2-0.3,0.4-0.6,0.6-0.9l12,7C482.9,250,482.7,250.2,482.6,250.5L482.6,250.5z"/>
					<path class="st7" d="M483.1,249.6l-12-7c0.2-0.3,0.4-0.6,0.6-0.9l12,7C483.5,249,483.3,249.3,483.1,249.6L483.1,249.6z"/>
					<path class="st6" d="M483.7,248.7l-12-7c0.2-0.3,0.5-0.6,0.7-1l12,7C484.2,248.1,484,248.4,483.7,248.7L483.7,248.7z"/>
					<path class="st5" d="M484.4,247.8l-12-7c0.3-0.3,0.6-0.7,0.9-1l12,7C485,247.1,484.7,247.4,484.4,247.8L484.4,247.8z"/>
					<path class="st4" d="M485.3,246.7l-12-7c0.4-0.4,0.8-0.8,1.2-1.2l12,7C486.1,245.9,485.7,246.3,485.3,246.7L485.3,246.7z"/>
					<path class="st3" d="M486.5,245.5l-12-7c1.1-1.1,2.3-2,3.6-2.8l12,7C488.8,243.5,487.6,244.4,486.5,245.5L486.5,245.5z"/>
				</g>
			</g>
			<g class="st1">
				<defs>
					<path id="SVGID_17_" class="st1" d="M461.8,258.9c3.5,2.1,7.1,4.1,10.6,6.2l0,0l0,0l0,0l0,0l0,0l0,0l0,0
						C468.9,263,465.3,261,461.8,258.9z"/>
				</defs>
				<clipPath id="SVGID_18_">
					<use xlink:href="#SVGID_17_"  style="overflow:visible;"/>
				</clipPath>
				<g class="st46">
					<path class="st35" d="M472.3,267.1l-12-7c0.1-0.7,0.1-1.4,0.1-2.1c0-3.3-1.2-5.7-3.1-6.8l12,7c1.9,1.1,3.1,3.4,3.1,6.8
						C472.4,265.7,472.4,266.4,472.3,267.1L472.3,267.1z"/>
				</g>
			</g>
			<g class="st1">
				<defs>
					<path id="SVGID_19_" class="st1" d="M460.4,258.1c0-3.3-1.2-5.7-3.1-6.8l12,7c1.9,1.1,3.1,3.4,3.1,6.8l0,0l0,0l0,0l0,0l0,0l0,0
						l0,0l0,0C468.4,262.8,464.4,260.4,460.4,258.1c4,2.3,8,4.7,12,7c0,6.7-4.7,14.9-10.6,18.3l-12-7
						C455.7,273,460.4,264.8,460.4,258.1z"/>
				</defs>
				<clipPath id="SVGID_20_">
					<use xlink:href="#SVGID_19_"  style="overflow:visible;"/>
				</clipPath>
				<g class="st47">
					<path class="st24" d="M461.8,283.4l-12-7c1.2-0.7,2.4-1.7,3.5-2.7l12,7C464.3,281.7,463.1,282.7,461.8,283.4L461.8,283.4z"/>
					<path class="st25" d="M465.4,280.7l-12-7c0.4-0.4,0.8-0.8,1.2-1.2l12,7C466.2,279.9,465.8,280.3,465.4,280.7L465.4,280.7z"/>
					<path class="st26" d="M466.5,279.4l-12-7c0.3-0.3,0.6-0.7,0.9-1l12,7C467.1,278.7,466.8,279.1,466.5,279.4L466.5,279.4z"/>
					<path class="st27" d="M467.4,278.4l-12-7c0.2-0.3,0.5-0.6,0.7-1l12,7C467.9,277.7,467.6,278,467.4,278.4L467.4,278.4z"/>
					<path class="st28" d="M468.1,277.4l-12-7c0.2-0.3,0.4-0.6,0.6-0.9l12,7C468.5,276.8,468.3,277.1,468.1,277.4L468.1,277.4z"/>
					<path class="st29" d="M468.7,276.5l-12-7c0.2-0.3,0.4-0.6,0.5-0.9l12,7C469.1,275.9,468.9,276.2,468.7,276.5L468.7,276.5z"/>
					<path class="st30" d="M469.3,275.6l-12-7c0.2-0.3,0.3-0.6,0.5-0.9l12,7C469.6,275,469.4,275.3,469.3,275.6L469.3,275.6z"/>
					<path class="st31" d="M469.8,274.7l-12-7c0.2-0.3,0.3-0.6,0.5-0.9l12,7C470.1,274.1,469.9,274.4,469.8,274.7L469.8,274.7z"/>
					<path class="st32" d="M470.2,273.8l-12-7c0.1-0.3,0.3-0.6,0.4-0.9l12,7C470.5,273.2,470.4,273.5,470.2,273.8L470.2,273.8z"/>
					<path class="st33" d="M470.6,272.9l-12-7c0.1-0.3,0.3-0.6,0.4-1l12,7C470.9,272.2,470.8,272.5,470.6,272.9L470.6,272.9z"/>
					<path class="st39" d="M471,271.9l-12-7c0.1-0.3,0.3-0.7,0.4-1l12,7C471.3,271.2,471.2,271.6,471,271.9L471,271.9z"/>
					<path class="st38" d="M471.4,270.9l-12-7c0.1-0.4,0.2-0.7,0.3-1.1l12,7C471.6,270.2,471.5,270.5,471.4,270.9L471.4,270.9z"/>
					<path class="st37" d="M471.7,269.8l-12-7c0.1-0.4,0.2-0.8,0.3-1.2l12,7C471.9,269,471.8,269.4,471.7,269.8L471.7,269.8z"/>
					<path class="st36" d="M472,268.6l-12-7c0.1-0.5,0.2-1,0.3-1.5l12,7C472.2,267.6,472.1,268.1,472,268.6L472,268.6z"/>
					<path class="st35" d="M472.3,267.1l-12-7c0.1-0.7,0.1-1.4,0.1-2.1c0-3.3-1.2-5.7-3.1-6.8l12,7c1.9,1.1,3.1,3.4,3.1,6.8
						C472.4,265.7,472.4,266.4,472.3,267.1L472.3,267.1z"/>
				</g>
			</g>
			<g class="st1">
				<defs>
					<path id="SVGID_21_" class="st1" d="M442.3,277.1c1.9,1.1,4.6,1,7.5-0.7c3.5,2.1,7.1,4.1,10.6,6.2l1.4,0.8
						c-2.9,1.7-5.6,1.9-7.5,0.7C450.7,282,445.9,279.2,442.3,277.1z"/>
				</defs>
				<clipPath id="SVGID_22_">
					<use xlink:href="#SVGID_21_"  style="overflow:visible;"/>
				</clipPath>
				<g class="st48">
					<path class="st33" d="M454.3,284.1l-12-7c0,0,0,0,0,0L454.3,284.1C454.3,284.1,454.3,284.1,454.3,284.1L454.3,284.1z"/>
					<path class="st32" d="M454.3,284.1l-12-7c0.2,0.1,0.3,0.2,0.6,0.3l12,7C454.7,284.3,454.5,284.3,454.3,284.1L454.3,284.1z"/>
					<path class="st31" d="M454.9,284.4l-12-7c0.2,0.1,0.4,0.1,0.6,0.2l12,7C455.2,284.6,455.1,284.5,454.9,284.4L454.9,284.4z"/>
					<path class="st30" d="M455.4,284.6l-12-7c0.2,0.1,0.4,0.1,0.6,0.1l12,7C455.8,284.7,455.6,284.7,455.4,284.6L455.4,284.6z"/>
					<path class="st29" d="M456,284.8l-12-7c0.2,0,0.4,0.1,0.6,0.1l12,7C456.5,284.8,456.2,284.8,456,284.8L456,284.8z"/>
					<path class="st28" d="M456.7,284.8l-12-7c0.2,0,0.5,0,0.7,0l12,7C457.1,284.8,456.9,284.8,456.7,284.8L456.7,284.8z"/>
					<path class="st27" d="M457.4,284.8l-12-7c0.3,0,0.5,0,0.8-0.1l12,7C457.9,284.8,457.6,284.8,457.4,284.8L457.4,284.8z"/>
					<path class="st26" d="M458.2,284.8l-12-7c0.3,0,0.6-0.1,0.9-0.2l12,7C458.8,284.6,458.5,284.7,458.2,284.8L458.2,284.8z"/>
					<path class="st25" d="M459.1,284.6l-12-7c0.4-0.1,0.8-0.2,1.2-0.4l12,7C459.9,284.3,459.5,284.4,459.1,284.6L459.1,284.6z"/>
					<path class="st24" d="M460.3,284.1l-12-7c0.5-0.2,1-0.4,1.5-0.7l12,7C461.3,283.7,460.8,283.9,460.3,284.1L460.3,284.1z"/>
				</g>
			</g>
			<g class="st1">
				<defs>
					<path id="SVGID_23_" class="st1" d="M457.3,251.3l12,7c-1.9-1.1-4.6-1-7.6,0.7l-12-7C452.7,250.4,455.4,250.2,457.3,251.3z"/>
				</defs>
				<clipPath id="SVGID_24_">
					<use xlink:href="#SVGID_23_"  style="overflow:visible;"/>
				</clipPath>
				<g class="st49">
					<path class="st3" d="M461.8,259l-12-7c0.5-0.3,1-0.5,1.5-0.8l12,7C462.8,258.5,462.3,258.8,461.8,259L461.8,259z"/>
					<path class="st4" d="M463.3,258.3l-12-7c0.4-0.2,0.8-0.3,1.2-0.4l12,7C464.1,258,463.7,258.1,463.3,258.3L463.3,258.3z"/>
					<path class="st5" d="M464.5,257.9l-12-7c0.3-0.1,0.6-0.2,0.9-0.2l12,7C465.1,257.7,464.8,257.8,464.5,257.9L464.5,257.9z"/>
					<path class="st6" d="M465.4,257.7l-12-7c0.3,0,0.5-0.1,0.8-0.1l12,7C466,257.6,465.7,257.6,465.4,257.7L465.4,257.7z"/>
					<path class="st7" d="M466.2,257.6l-12-7c0.2,0,0.5,0,0.7,0l12,7C466.7,257.6,466.5,257.6,466.2,257.6L466.2,257.6z"/>
					<path class="st8" d="M466.9,257.6l-12-7c0.2,0,0.4,0,0.6,0.1l12,7C467.4,257.6,467.2,257.6,466.9,257.6L466.9,257.6z"/>
					<path class="st9" d="M467.6,257.7l-12-7c0.2,0,0.4,0.1,0.6,0.1l12,7C468,257.8,467.8,257.7,467.6,257.7L467.6,257.7z"/>
					<path class="st10" d="M468.2,257.8l-12-7c0.2,0.1,0.4,0.1,0.6,0.2l12,7C468.6,257.9,468.4,257.9,468.2,257.8L468.2,257.8z"/>
					<path class="st11" d="M468.7,258l-12-7c0.2,0.1,0.4,0.2,0.5,0.3l12,7C469.1,258.2,468.9,258.1,468.7,258L468.7,258z"/>
					<path class="st12" d="M469.3,258.3l-12-7c0,0,0,0,0.1,0L469.3,258.3C469.3,258.3,469.3,258.3,469.3,258.3L469.3,258.3z"/>
				</g>
			</g>
			<g class="st1">
				<defs>
					<path id="SVGID_25_" class="st1" d="M454.3,284.1c-4-2.3-8-4.6-12-7c-1.9-1.1-3.1-3.5-3.1-6.8c0-6.7,4.7-14.9,10.6-18.3l12,7
						c-5.8,3.4-10.6,11.5-10.6,18.3C451.2,280.7,452.4,283,454.3,284.1z"/>
				</defs>
				<clipPath id="SVGID_26_">
					<use xlink:href="#SVGID_25_"  style="overflow:visible;"/>
				</clipPath>
				<g class="st50">
					<path class="st17" d="M454.3,284.1l-12-7c-1.9-1.1-3.1-3.5-3.1-6.8c0-0.7,0-1.4,0.1-2.1l12,7c-0.1,0.7-0.1,1.4-0.1,2.1
						C451.2,280.7,452.4,283,454.3,284.1L454.3,284.1z"/>
					<path class="st16" d="M451.3,275.3l-12-7c0.1-0.5,0.1-1,0.2-1.5l12,7C451.5,274.3,451.4,274.8,451.3,275.3L451.3,275.3z"/>
					<path class="st15" d="M451.6,273.8l-12-7c0.1-0.4,0.2-0.8,0.3-1.2l12,7C451.8,273,451.7,273.4,451.6,273.8L451.6,273.8z"/>
					<path class="st14" d="M451.9,272.6l-12-7c0.1-0.4,0.2-0.7,0.3-1.1l12,7C452.1,271.9,452,272.2,451.9,272.6L451.9,272.6z"/>
					<path class="st13" d="M452.2,271.5l-12-7c0.1-0.3,0.2-0.7,0.4-1l12,7C452.4,270.8,452.3,271.2,452.2,271.5L452.2,271.5z"/>
					<path class="st12" d="M452.6,270.5l-12-7c0.1-0.3,0.3-0.6,0.4-0.9l12,7C452.8,269.9,452.7,270.2,452.6,270.5L452.6,270.5z"/>
					<path class="st11" d="M452.9,269.6l-12-7c0.1-0.3,0.3-0.6,0.4-0.9l12,7C453.2,268.9,453.1,269.3,452.9,269.6L452.9,269.6z"/>
					<path class="st10" d="M453.4,268.6l-12-7c0.2-0.3,0.3-0.6,0.5-0.9l12,7C453.7,268,453.5,268.3,453.4,268.6L453.4,268.6z"/>
					<path class="st9" d="M453.8,267.8l-12-7c0.2-0.3,0.3-0.6,0.5-0.9l12,7C454.1,267.1,454,267.5,453.8,267.8L453.8,267.8z"/>
					<path class="st8" d="M454.3,266.9l-12-7c0.2-0.3,0.4-0.6,0.5-0.9l12,7C454.7,266.3,454.5,266.6,454.3,266.9L454.3,266.9z"/>
					<path class="st7" d="M454.9,266l-12-7c0.2-0.3,0.4-0.6,0.6-0.9l12,7C455.3,265.3,455.1,265.7,454.9,266L454.9,266z"/>
					<path class="st6" d="M455.5,265l-12-7c0.2-0.3,0.5-0.6,0.7-1l12,7C455.9,264.4,455.7,264.7,455.5,265L455.5,265z"/>
					<path class="st5" d="M456.2,264.1l-12-7c0.3-0.4,0.6-0.7,0.9-1l12,7C456.8,263.4,456.5,263.7,456.2,264.1L456.2,264.1z"/>
					<path class="st4" d="M457,263l-12-7c0.4-0.4,0.8-0.8,1.2-1.2l12,7C457.8,262.2,457.4,262.6,457,263L457,263z"/>
					<path class="st3" d="M458.2,261.8l-12-7c1.1-1.1,2.3-2,3.5-2.8l12,7C460.5,259.8,459.3,260.7,458.2,261.8L458.2,261.8z"/>
				</g>
			</g>
			<g class="st1">
				<defs>
					<path id="SVGID_27_" class="st1" d="M433.5,275.2c3.5,2,7.1,4.1,10.6,6.2l0,0l0,0l0,0l0,0l0,0l0,0l0,0
						C440.6,279.3,437.1,277.3,433.5,275.2z"/>
				</defs>
				<clipPath id="SVGID_28_">
					<use xlink:href="#SVGID_27_"  style="overflow:visible;"/>
				</clipPath>
				<g class="st51">
					<path class="st35" d="M444,283.4l-12-7c0.1-0.7,0.1-1.4,0.1-2.1c0-3.3-1.2-5.7-3.1-6.8l12,7c1.9,1.1,3.1,3.5,3.1,6.8
						C444.1,282.1,444.1,282.8,444,283.4L444,283.4z"/>
				</g>
			</g>
			<g class="st1">
				<defs>
					<path id="SVGID_29_" class="st1" d="M432.1,274.4c0-3.3-1.2-5.7-3.1-6.8l12,7c1.9,1.1,3.1,3.5,3.1,6.8l0,0l0,0l0,0l0,0l0,0l0,0
						l0,0l0,0C440.1,279.1,436.1,276.7,432.1,274.4c4,2.3,8,4.7,12,7c0,6.7-4.7,14.9-10.6,18.3l-12-7
						C427.4,289.3,432.1,281.1,432.1,274.4z"/>
				</defs>
				<clipPath id="SVGID_30_">
					<use xlink:href="#SVGID_29_"  style="overflow:visible;"/>
				</clipPath>
				<g class="st52">
					<path class="st24" d="M433.6,299.7l-12-7c1.2-0.7,2.4-1.7,3.6-2.7l12,7C436,298,434.8,299,433.6,299.7L433.6,299.7z"/>
					<path class="st25" d="M437.1,297l-12-7c0.4-0.4,0.8-0.8,1.1-1.2l12,7C437.9,296.2,437.5,296.6,437.1,297L437.1,297z"/>
					<path class="st26" d="M438.3,295.7l-12-7c0.3-0.3,0.6-0.7,0.9-1.1l12,7C438.8,295,438.6,295.4,438.3,295.7L438.3,295.7z"/>
					<path class="st27" d="M439.1,294.7l-12-7c0.2-0.3,0.5-0.6,0.7-0.9l12,7C439.6,294,439.4,294.4,439.1,294.7L439.1,294.7z"/>
					<path class="st28" d="M439.8,293.7l-12-7c0.2-0.3,0.4-0.6,0.6-0.9l12,7C440.2,293.1,440,293.4,439.8,293.7L439.8,293.7z"/>
					<path class="st29" d="M440.5,292.8l-12-7c0.2-0.3,0.4-0.6,0.6-0.9l12,7C440.8,292.2,440.6,292.5,440.5,292.8L440.5,292.8z"/>
					<path class="st30" d="M441,291.9l-12-7c0.2-0.3,0.3-0.6,0.5-0.9l12,7C441.3,291.3,441.2,291.6,441,291.9L441,291.9z"/>
					<path class="st31" d="M441.5,291l-12-7c0.2-0.3,0.3-0.6,0.4-0.9l12,7C441.8,290.4,441.7,290.7,441.5,291L441.5,291z"/>
					<path class="st32" d="M442,290.1l-12-7c0.2-0.3,0.3-0.6,0.4-0.9l12,7C442.2,289.5,442.1,289.8,442,290.1L442,290.1z"/>
					<path class="st33" d="M442.4,289.2l-12-7c0.1-0.3,0.3-0.6,0.4-1l12,7C442.7,288.6,442.5,288.9,442.4,289.2L442.4,289.2z"/>
					<path class="st39" d="M442.8,288.2l-12-7c0.1-0.3,0.2-0.7,0.4-1l12,7C443,287.6,442.9,287.9,442.8,288.2L442.8,288.2z"/>
					<path class="st38" d="M443.1,287.2l-12-7c0.1-0.3,0.2-0.7,0.3-1.1l12,7C443.4,286.5,443.2,286.9,443.1,287.2L443.1,287.2z"/>
					<path class="st37" d="M443.5,286.1l-12-7c0.1-0.4,0.2-0.8,0.3-1.2l12,7C443.7,285.3,443.6,285.7,443.5,286.1L443.5,286.1z"/>
					<path class="st36" d="M443.8,284.9l-12-7c0.1-0.5,0.2-1,0.3-1.5l12,7C443.9,283.9,443.9,284.4,443.8,284.9L443.8,284.9z"/>
					<path class="st35" d="M444,283.4l-12-7c0.1-0.7,0.1-1.4,0.1-2.1c0-3.3-1.2-5.7-3.1-6.8l12,7c1.9,1.1,3.1,3.5,3.1,6.8
						C444.1,282.1,444.1,282.8,444,283.4L444,283.4z"/>
				</g>
			</g>
			<g class="st1">
				<defs>
					<path id="SVGID_31_" class="st1" d="M429,267.6l12,7c-1.9-1.1-4.6-0.9-7.6,0.8l-12-7C424.4,266.7,427.1,266.5,429,267.6z"/>
				</defs>
				<clipPath id="SVGID_32_">
					<use xlink:href="#SVGID_31_"  style="overflow:visible;"/>
				</clipPath>
				<g class="st53">
					<path class="st3" d="M433.5,275.4l-12-7c0.5-0.3,1-0.5,1.5-0.7l12,7C434.5,274.8,434,275.1,433.5,275.4L433.5,275.4z"/>
					<path class="st4" d="M435,274.6l-12-7c0.4-0.2,0.9-0.3,1.3-0.4l12,7C435.8,274.3,435.4,274.4,435,274.6L435,274.6z"/>
					<path class="st5" d="M436.2,274.2l-12-7c0.3-0.1,0.6-0.1,0.9-0.2l12,7C436.9,274,436.6,274.1,436.2,274.2L436.2,274.2z"/>
					<path class="st6" d="M437.2,274l-12-7c0.3,0,0.5-0.1,0.8-0.1l12,7C437.7,273.9,437.4,274,437.2,274L437.2,274z"/>
					<path class="st7" d="M438,273.9l-12-7c0.2,0,0.5,0,0.7,0l12,7C438.4,273.9,438.2,273.9,438,273.9L438,273.9z"/>
					<path class="st8" d="M438.7,273.9l-12-7c0.2,0,0.4,0,0.6,0.1l12,7C439.1,274,438.9,273.9,438.7,273.9L438.7,273.9z"/>
					<path class="st9" d="M439.3,274l-12-7c0.2,0,0.4,0.1,0.6,0.1l12,7C439.7,274.1,439.5,274,439.3,274L439.3,274z"/>
					<path class="st10" d="M439.9,274.1l-12-7c0.2,0.1,0.4,0.1,0.6,0.2l12,7C440.3,274.3,440.1,274.2,439.9,274.1L439.9,274.1z"/>
					<path class="st11" d="M440.5,274.3l-12-7c0.2,0.1,0.4,0.2,0.5,0.3l12,7C440.8,274.5,440.7,274.4,440.5,274.3L440.5,274.3z"/>
					<path class="st12" d="M441,274.6l-12-7c0,0,0,0,0.1,0L441,274.6C441,274.6,441,274.6,441,274.6L441,274.6z"/>
				</g>
			</g>
			<g class="st1">
				<defs>
					<path id="SVGID_33_" class="st1" d="M426,300.4l-12-7c-1.9-1.1-3.1-3.5-3.1-6.8c0-6.7,4.7-14.9,10.6-18.3l12,7
						c-5.8,3.4-10.6,11.5-10.6,18.3C422.9,297,424.1,299.3,426,300.4z"/>
				</defs>
				<clipPath id="SVGID_34_">
					<use xlink:href="#SVGID_33_"  style="overflow:visible;"/>
				</clipPath>
				<g class="st54">
					<path class="st17" d="M426,300.4l-12-7c-1.9-1.1-3.1-3.5-3.1-6.8c0-0.7,0.1-1.4,0.2-2.1l12,7c-0.1,0.7-0.1,1.4-0.1,2.1
						C422.9,297,424.1,299.3,426,300.4L426,300.4z"/>
					<path class="st16" d="M423.1,291.6l-12-7c0.1-0.5,0.1-1,0.2-1.5l12,7C423.2,290.6,423.1,291.1,423.1,291.6L423.1,291.6z"/>
					<path class="st15" d="M423.3,290.1l-12-7c0.1-0.4,0.2-0.8,0.3-1.2l12,7C423.5,289.3,423.4,289.7,423.3,290.1L423.3,290.1z"/>
					<path class="st14" d="M423.6,288.9l-12-7c0.1-0.3,0.2-0.7,0.3-1.1l12,7C423.8,288.2,423.7,288.6,423.6,288.9L423.6,288.9z"/>
					<path class="st13" d="M423.9,287.8l-12-7c0.1-0.3,0.2-0.7,0.4-1l12,7C424.2,287.2,424.1,287.5,423.9,287.8L423.9,287.8z"/>
					<path class="st12" d="M424.3,286.8l-12-7c0.1-0.3,0.2-0.6,0.4-1l12,7C424.6,286.2,424.4,286.5,424.3,286.8L424.3,286.8z"/>
					<path class="st11" d="M424.7,285.9l-12-7c0.1-0.3,0.3-0.6,0.4-0.9l12,7C425,285.3,424.8,285.6,424.7,285.9L424.7,285.9z"/>
					<path class="st10" d="M425.1,285l-12-7c0.1-0.3,0.3-0.6,0.5-0.9l12,7C425.4,284.4,425.2,284.7,425.1,285L425.1,285z"/>
					<path class="st9" d="M425.6,284.1l-12-7c0.2-0.3,0.3-0.6,0.5-0.9l12,7C425.9,283.5,425.7,283.8,425.6,284.1L425.6,284.1z"/>
					<path class="st8" d="M426.1,283.2l-12-7c0.2-0.3,0.3-0.6,0.5-0.9l12,7C426.4,282.6,426.2,282.9,426.1,283.2L426.1,283.2z"/>
					<path class="st7" d="M426.6,282.3l-12-7c0.2-0.3,0.4-0.6,0.6-0.9l12,7C427,281.7,426.8,282,426.6,282.3L426.6,282.3z"/>
					<path class="st6" d="M427.2,281.4l-12-7c0.2-0.3,0.5-0.6,0.7-1l12,7C427.7,280.7,427.4,281,427.2,281.4L427.2,281.4z"/>
					<path class="st5" d="M427.9,280.4l-12-7c0.3-0.3,0.6-0.7,0.9-1l12,7C428.5,279.7,428.2,280,427.9,280.4L427.9,280.4z"/>
					<path class="st4" d="M428.8,279.4l-12-7c0.4-0.4,0.8-0.8,1.2-1.2l12,7C429.5,278.5,429.2,278.9,428.8,279.4L428.8,279.4z"/>
					<path class="st3" d="M429.9,278.1l-12-7c1.1-1.1,2.3-2,3.6-2.8l12,7C432.3,276.1,431.1,277,429.9,278.1L429.9,278.1z"/>
				</g>
			</g>
			<g>
				<g>
					<path class="st55" d="M846.3,19.6c6.4-3.7,11.6-0.7,11.6,6.6l0.1,42.3L400.7,332.6l-0.1-42.3c0-7.4,5.2-16.3,11.5-20
						L846.3,19.6z M461.8,283.4c5.8-3.4,10.6-11.6,10.6-18.3c0-6.7-4.8-9.4-10.6-6c-5.8,3.4-10.6,11.5-10.6,18.3
						C451.2,284,456,286.8,461.8,283.4L461.8,283.4z M433.6,299.7c5.8-3.4,10.6-11.6,10.6-18.3c0-6.7-4.8-9.4-10.6-6
						c-5.8,3.4-10.6,11.5-10.6,18.3C422.9,300.4,427.7,303.1,433.6,299.7L433.6,299.7z M490.1,267.1c5.9-3.4,10.6-11.6,10.5-18.3
						c0-6.7-4.8-9.4-10.6-6.1c-5.9,3.4-10.6,11.5-10.6,18.3C479.5,267.7,484.2,270.5,490.1,267.1L490.1,267.1z"/>
				</g>
			</g>
			<g>
				<path class="st56" d="M490,242.7c5.8-3.4,10.6-0.7,10.6,6.1c0,6.7-4.7,14.9-10.5,18.3c-5.8,3.4-10.6,0.6-10.6-6.1
					C479.4,254.3,484.2,246.1,490,242.7z"/>
			</g>
			<g>
				<path class="st56" d="M461.8,259c5.8-3.4,10.6-0.7,10.6,6c0,6.7-4.7,14.9-10.6,18.3c-5.9,3.4-10.6,0.6-10.6-6.1
					C451.2,270.6,455.9,262.4,461.8,259z"/>
			</g>
			<g>
				<path class="st56" d="M433.5,275.4c5.9-3.4,10.6-0.7,10.6,6c0,6.7-4.7,14.9-10.6,18.3c-5.8,3.4-10.6,0.7-10.7-6.1
					C422.9,286.9,427.7,278.7,433.5,275.4z"/>
			</g>
			<g>
				<polygon class="st56" points="400.7,332.6 388.7,325.6 388.6,283.3 400.6,290.3 				"/>
			</g>
			<path class="st57" d="M848.9,18.5c0.7-0.2,1.3-0.4,1.9-0.4c0.1,0,0.1,0,0.1,0c0.7-0.1,1.3,0,1.9,0.1c0,0,0.1,0,0.1,0
				c0.6,0.1,1.2,0.3,1.7,0.6c0,0-0.1,0-0.1,0l-12-7c-0.2-0.1-0.4-0.2-0.6-0.3c-0.2-0.1-0.4-0.2-0.6-0.2c-0.1-0.1-0.3-0.1-0.4-0.1
				c0,0-0.1,0-0.1,0c-0.1,0-0.1,0-0.1,0c-0.2,0-0.5-0.1-0.7-0.1c-0.2,0-0.5,0-0.8,0c-0.1,0-0.2,0-0.3,0c-0.1,0-0.1,0-0.2,0
				c-0.1,0-0.3,0-0.4,0c-0.3,0.1-0.7,0.1-1,0.2c-0.1,0-0.3,0.1-0.4,0.1c-0.1,0-0.3,0.1-0.4,0.1c-0.2,0.1-0.3,0.1-0.5,0.2
				c-0.5,0.2-1.1,0.5-1.6,0.8L400.1,263.3c-0.7,0.4-1.5,0.9-2.2,1.5c-0.2,0.2-0.5,0.4-0.7,0.6c-0.3,0.3-0.7,0.5-1,0.9
				c-0.1,0.1-0.3,0.3-0.4,0.4c-0.1,0.1-0.3,0.3-0.4,0.4c-0.1,0.2-0.3,0.3-0.4,0.5c-0.3,0.4-0.6,0.8-0.9,1.2
				c-0.1,0.1-0.2,0.3-0.3,0.4c0,0.1-0.1,0.1-0.2,0.2c-0.1,0.1-0.2,0.3-0.3,0.4c-0.2,0.3-0.5,0.7-0.7,1c-0.2,0.3-0.4,0.6-0.6,1
				c0,0,0,0.1-0.1,0.1c0,0,0,0,0,0.1c-0.2,0.3-0.3,0.6-0.5,0.8c-0.2,0.3-0.3,0.7-0.5,1c-0.1,0.3-0.3,0.6-0.4,0.9c0,0,0,0,0,0
				c0,0,0,0,0,0.1c-0.1,0.3-0.3,0.7-0.4,1c-0.1,0.3-0.3,0.7-0.4,1.1c-0.1,0.2-0.1,0.3-0.2,0.5c0,0.1-0.1,0.2-0.1,0.2
				c0,0.1-0.1,0.3-0.1,0.4c-0.1,0.4-0.2,0.9-0.3,1.3c-0.1,0.3-0.1,0.5-0.1,0.8c0,0.1,0,0.3-0.1,0.4c0,0.1-0.1,0.3-0.1,0.4
				c-0.1,0.8-0.1,1.5-0.1,2.3l12,7c0-0.9,0.1-1.8,0.2-2.7c0-0.1,0.1-0.3,0.1-0.4c0.1-0.8,0.3-1.7,0.6-2.5c0-0.1,0-0.1,0.1-0.2
				c0.3-0.9,0.6-1.8,1-2.7c0,0,0-0.1,0-0.1c0.4-0.9,0.8-1.8,1.4-2.7c0,0,0-0.1,0-0.1c0.5-0.8,1-1.7,1.6-2.4c0.1-0.1,0.1-0.2,0.2-0.2
				c0.5-0.7,1.1-1.4,1.7-2c0.1-0.1,0.2-0.3,0.4-0.4c0.5-0.5,1-0.9,1.5-1.4c0.2-0.2,0.4-0.4,0.7-0.6c0.7-0.6,1.4-1.1,2.2-1.5
				L846.3,19.6c0.7-0.4,1.5-0.7,2.1-1C848.6,18.6,848.7,18.5,848.9,18.5z"/>
			<g>
				<polygon class="st55" points="458.9,344.3 458.9,354.9 813.1,150.4 813.1,139.8 				"/>
			</g>
			<g>
				<polygon class="st55" points="458.9,387.5 458.9,398.1 813.1,193.7 813.1,183 				"/>
			</g>
			<g>
				<polygon class="st55" points="458.9,430.8 458.9,441.4 813.1,236.9 813.1,226.3 				"/>
			</g>
			<g>
				<polygon class="st55" points="458.9,474 458.9,484.6 813.1,280.1 813.1,269.5 				"/>
			</g>
			<g>
				<polygon class="st55" points="458.9,517.3 458.9,527.9 813.1,323.4 813.1,312.7 				"/>
			</g>
			<g>
				<polygon class="st55" points="458.9,560.5 458.9,571.1 813.1,366.6 813.1,356 				"/>
			</g>
		</g>
		<g>
			<path class="st58" d="M727.4,324c0,0-4-9.2-16.1-9.4C711.3,314.6,714.3,326.1,727.4,324z"/>
			<g>
				<path class="st59" d="M715.6,309.8c0,0-10.2,12.9-11.1,16.3c-0.9,3.4-5.2,17.8,1.9,27.7c3.8,5.3,6-2.1,7.1-11.8
					c0.5-4.4-0.1-7.7,5.7-12.4c4.2-3.4,8.9-10.2,10.7-13.8C731.7,312.3,715.6,309.8,715.6,309.8z"/>
				<path class="st60" d="M729.7,316.7c-1.8,3.6-7,9.8-7.8,15.1c-1,6.4-8,6-8.4,10.4c-0.9,7.5-2.6,13.8-4.9,13.6
					c1.1-5.7-5.5-10,1.7-23.2c2.6-4.8,11.3-14.7,16.2-18.8C729.3,315.1,730.4,315.3,729.7,316.7z"/>
				<path class="st59" d="M725.7,313.6c0,0-2.2,18.4-3.7,23.9c-1.5,5.5-4.8,8.7-5.5,7.5c-0.7-1.2,2.8-17.7-3.2-17.3
					C710.3,327.9,724.8,316.2,725.7,313.6z"/>
			</g>
			<path class="st61" d="M770.3,165.3c0,0-18.5-4.3-26.1,32.4c-7.7,36.7-7.7,51-13.1,63.6c-5.4,12.6-19.8,53.3-19.8,53.3
				s11.7,0.6,16.1,9.4c0,0,30.3-50.3,36.2-72.5C769.6,229.3,789.5,175.5,770.3,165.3z"/>
			<path class="st62" d="M731.1,261.3c5.4-12.6,5.4-26.9,13.1-63.6c4.2-19.9,11.5-27.8,17.4-30.7c17.4,11.5-1.8,63.7-7.7,85.5
				c-4.5,16.6-22,50.5-30.6,66.6c-6.2-4.6-12-4.4-12-4.4S725.7,273.8,731.1,261.3z"/>
			<path class="st63" d="M788.7,520.1c0,0,4.9,11.5,0,14.4c-4.9,3-5.6,6.2-13.4,5.6c-7.9-0.7-6.7,2-9.4,4.9
				c-2.7,2.9-30.5,15.1-35.7,9.2c-5.2-5.9,9.5-12.8,14.7-16.2s17.7-17.1,18-21.1C763.2,512.9,788.7,520.1,788.7,520.1z"/>
			<path class="st64" d="M788.7,534.5c-4.9,3-5.6,6.2-13.4,5.6c-7.9-0.7-6.7,2-9.4,4.9c-2.7,2.9-30.5,15.1-35.7,9.2
				c-1.8-2-1.2-4.1,0.4-6.2c1.9,0.3,4.6,0.8,8.1,1.4c8.2,1.4,18.7-8,22.8-11.5c4.1-3.5,9.2-2.1,16.2-3.3c7-1.2,6-11.9,6-11.9
				l5.2-1.8C790,523.4,792.9,532,788.7,534.5z"/>
			<path class="st63" d="M838.3,557.3c0,0,2.1,13.5-3.1,20.9c-5.2,7.3-16.6,20-21.6,19.4c-4.9-0.6-5.7-2.8-5.7-2.8s-2.1-11,1.5-22
				c3.7-11,3.9-15.5,3.9-15.5H838.3z"/>
			<path class="st64" d="M835.2,578.1c-4.6,6.4-14,17-19.5,19.1c7.3-9.4-3.7-7.5,4.6-12c11.3-6.2,4.1-11.3,9.2-12.8
				c5.1-1.4,1.4-14,1.4-14l2.7-1.2h4.8C838.3,557.3,840.4,570.8,835.2,578.1z"/>
			<path class="st65" d="M778.2,337.1c0,0-23.4-2.5-31.2-19.8c0,0-2.1,38.2,2.6,82.4c4.7,44.2,8.6,122.1,8.6,122.1s15.1,14.2,30.7,0
				c0,0,4.4-51.4,0-79.9c0,0,2.9-49.8-1.9-74.8C782.1,342.2,778.2,337.1,778.2,337.1z"/>
			<path class="st66" d="M758.2,521.8c0,0-3.9-77.8-8.6-122.1c-4.7-44.3-3.1-88.2-3.1-88.2c5.7,12.7,20.3,23.2,27.4,24.8
				c-0.6,16.9-2.1,66.7-1.9,83.2c0.2,15.8,3.3,81,4.6,108.4C766.2,529.3,758.2,521.8,758.2,521.8z"/>
			<path class="st65" d="M833.1,334.5c0,0,2.2,25.9,2.7,66.1c0.5,40.2,3.4,55.4,4.4,61.5c1,6.2,4.4,73.5,2.4,93.1
				c0,0-12.7,19.6-32.7,0c0,0-3.4-69-6.8-84.7c-3.4-15.7-22.5-92-30.2-119.4c-3.4-12.1-4.2-16.7-4.2-16.7S802.3,358.7,833.1,334.5z"
				/>
			<path class="st66" d="M809.9,555.2c0,0-3.4-69-6.8-84.7c-3.4-15.7-22.5-92-30.2-119.4c-3.4-12.1-11.3-21.4-11.3-21.4
				s22.1,15.5,41.3,15.5c0.8,5.9,9,62.2,10.9,86.9c1.9,24.4,18.6,110.3,14.1,131.8C822.9,564.1,816.8,561.9,809.9,555.2z"/>
			<path class="st62" d="M811.1,173.9c0,0,34.4,20.7,35.1,23.5c0.7,2.8,9.5,10.1-6,40.5c0,0-20.1,32.8-13.7,67.5
				c3.8,20.1,7.6,30.7,7.6,30.7s-17.5,22.4-60.9,2.9c-8.8-3.9-23-17.3-26.8-27.5c0,0,6.2-28.8,3-63.2c-3.1-34.4-3.2-78.8,16.5-83.3
				C766.1,165.1,771.4,159.5,811.1,173.9z"/>
			<g>
				<path class="st59" d="M808.2,144c0,0-8.3,18.1,2,27.8c5.7,5.4-3.3,21.9-22.7,23.7c0,0-8.9-0.8-8.5-4c0.9-7.4-2.6-10.9-6.5-15.9
					C768.6,170.7,808.2,144,808.2,144z"/>
				<path class="st67" d="M810.2,171.8c0.7,0.6,1.2,1.5,1.4,2.4c-8.4-6.2-22.3-4.6-22.3-4.6l15.2-23c0.7-0.5,1.2-0.9,1.7-1.2
					l0.8,1.7C805.2,152.6,802.5,164.6,810.2,171.8z"/>
				<g>
					<path class="st59" d="M810.7,134.2c0,0-1.3,22.5-14.7,34.6c-11.9,10.8-26.4,18.9-31.7,3.5c-4.2-12.2-15.3-43.3-5.2-51.4
						c13-10.5,16.7-21.5,34.2-18C793.2,102.9,813.5,108.7,810.7,134.2z"/>
					<path class="st60" d="M810.7,134.2c0,0,1.2,18.9-14.6,34.9c-3.4,3.4-8,6.4-11.5,8.6c6.2-6.2,6.6-7.9,11.1-15.1
						c4.4-7.1-8.6-2.6-1.9-20.1c2.3-5.9-11.9,3.5-15.4,3.9c-20.5,2.6-20.7-9.3-21.9-14.2c0.1-2.2,0.3-4.3,0.8-6.3l1.3-4
						c0.2-0.4,0.4-0.7,0.5-1.1c1.8-3.1,3.6-5.9,5.5-8.3c8.8-1.2,33.7-4.5,34.2-4.4c0.4,0,5.5,5.2,10.3,10.1
						C810.6,122.4,811.4,127.6,810.7,134.2z"/>
					<path class="st68" d="M805,156.6c0,0,14.2-17.7,5.1-38.6c0,0-5.8-17-25.5-16.3c-9.5,0.3-25.5,4.3-29.7,24.1
						c-1.3,6.2,0.5,18.1,22.5,8.6c3.1-1.4,11.7-3.9,15.2-1.6c3.5,2.3,4.7,7.5,3.9,12.2c-0.7,4.1,2.8,4,3.1,3.1c0.3-0.9,3-12.7,7.9-9
						C811.8,142.4,805.3,155.8,805,156.6z"/>
					<path class="st69" d="M805,156.6c0.3-0.8,6.8-14.2,2.4-17.5c-4.9-3.7-7.5,8.1-7.9,9c-0.3,0.9-3.8,1-3.1-3.1
						c0.8-4.7-0.3-9.8-3.9-12.2c-3.2-2.1-10.7,0.4-15.2,1.6c3.4-3,10.9-5.1,12.6-11.8c2.3-9.1,6.8-13.8,11.4-16
						c6.5,4.8,8.7,11.5,8.7,11.5C819.2,138.9,805,156.6,805,156.6z"/>
				</g>
				<path class="st68" d="M743.8,123.5c0,0,9.2,23.2,34.7,11.5c0,0,12.7-5.6,16.2-18.8c0.7-2.8,3.2-7.7,7.6-8.8c0,0-8.7-9-26.8-4.8
					c-8.5,2-16.2,11.7-18.2,13.4C755.3,117.6,750.9,124.1,743.8,123.5z"/>
			</g>
			<path class="st61" d="M846.2,197.5c0.7,2.8,9.5,10.1-6,40.5c0,0-20.1,32.8-13.7,67.5c3.8,20.1,7.6,30.7,7.6,30.7s-8.7,11-29,10.8
				c-5-29.8,0.9-82.4,3.7-118.6c1.8-23.3,13.1-35.6,22.3-41.9C838.9,191.4,845.9,196.2,846.2,197.5z"/>
			<path class="st60" d="M772.2,203.7c0,0,0.9-14.4,3.5-17.1c2.6-2.6-0.2-7.1-3-3.7c-2.8,3.4-3.8,8.3-3.8,8.3s-2.7-16.7,2.1-18.7
				c4.8-2-13.3-0.4-15.8,7.5c-2.6,7.9-6.9,16,7.3,31.4C762.4,211.5,769.2,210.2,772.2,203.7z"/>
			<path class="st61" d="M828.9,196.2c9.5-5.5,28.1-1.1,18.4,22.7c-9.7,23.8-51.8,78.5-64.8,77.2c-13.1-1.3-8.3-27.4,2-42.5
				C794.9,238.5,820,201.4,828.9,196.2z"/>
			<path class="st61" d="M778.7,295.4c0,0-24.3-30.4-21.5-89.4c0,0,7.1,3.6,15.7-3.4C772.9,202.6,810,305.1,778.7,295.4z"/>
		</g>
	</g>
</g>
</svg>
