<?xml version="1.0" encoding="utf-8"?>
<!-- Generator: Adobe Illustrator 22.0.1, SVG Export Plug-In . SVG Version: 6.00 Build 0)  -->
<svg version="1.1" id="a5860ba0-ef67-4914-ac96-07e2ebcccb4f"
	 xmlns="http://www.w3.org/2000/svg" xmlns:xlink="http://www.w3.org/1999/xlink" x="0px" y="0px" viewBox="0 0 1095.7 664"
	 style="enable-background:new 0 0 1095.7 664;" xml:space="preserve">
<style type="text/css">
	.st0{opacity:0.1;}
	.st1{fill:#A9D6EA;}
	.st2{fill:#95C4DE;}
	.st3{fill:#DEF6FF;}
	.st4{fill:url(#SVGID_1_);}
	.st5{fill:#75B2CC;}
	.st6{fill:url(#SVGID_2_);}
	.st7{enable-background:new    ;}
	.st8{clip-path:url(#SVGID_4_);enable-background:new    ;}
	.st9{fill:#B8387B;}
	.st10{fill:url(#SVGID_5_);}
	.st11{fill:url(#SVGID_6_);}
	.st12{fill:#FFE85F;}
	.st13{fill:url(#SVGID_7_);}
	.st14{fill:url(#SVGID_8_);}
	.st15{fill:url(#SVGID_9_);}
	.st16{fill:url(#SVGID_10_);}
	.st17{fill:url(#SVGID_11_);}
	.st18{fill:url(#SVGID_12_);}
	.st19{fill:#BAD1DE;}
	.st20{fill:#EFB185;}
	.st21{fill:#A3C1CE;}
	.st22{fill:#111114;}
	.st23{fill:#9CBC35;}
	.st24{fill:#779F29;}
	.st25{fill:#CAE0EA;}
	.st26{fill:#FEFFFF;}
	.st27{fill:#DD9569;}
	.st28{fill:#F2B78F;}
	.st29{fill:#E6A376;}
	.st30{fill:#341C09;}
	.st31{fill:#221101;}
	.st32{fill:#9DBCC9;}
	.st33{fill:#E2E6ED;}
	.st34{fill:#A5AAB4;}
</style>
<g>
	<g>
		<g class="st0">
			<path d="M155.7,348c-11.8,6.8-11.8,17.7-0.2,24.6l23.2,13.6L609.1,638l35.9,21c11.7,6.8,30.6,6.9,42.4,0.1l251.5-144.2
				c11.8-6.7,11.9-17.7,0.2-24.5L449.5,204c-11.7-6.8-30.6-6.9-42.4-0.2L155.7,348z"/>
		</g>
		<path class="st1" d="M146.6,268.6c0,1,0.2,2.1,0.5,3.1c0,0.1,0.1,0.2,0.1,0.3c0.3,1,0.8,1.9,1.4,2.8c0.1,0.1,0.2,0.3,0.3,0.5
			c0.6,0.9,1.4,1.8,2.4,2.6c0.6,0.5,1.4,1.1,2.1,1.6c0.6,0.4,1.1,0.9,1.8,1.3l23.3,13.5l0.1,39.1l-23.2-13.5
			c-0.1-0.1-0.2-0.1-0.4-0.2c-0.6-0.3-0.9-0.7-1.5-1.1c-0.7-0.5-1.5-1-2.1-1.6c-0.1-0.1-0.1-0.1-0.2-0.1c-0.7-0.6-1.3-1.3-1.9-2
			c-0.1-0.2-0.2-0.3-0.3-0.5c-0.1-0.2-0.2-0.3-0.3-0.5c-0.2-0.3-0.4-0.5-0.6-0.8c-0.3-0.6-0.6-1.1-0.8-1.7c0-0.1,0-0.2-0.1-0.3
			c-0.1-0.1-0.1-0.2-0.1-0.3c-0.1-0.4-0.3-0.7-0.3-1.1c-0.1-0.6-0.2-1.1-0.2-1.7v-0.2c0,0,0,0,0,0c0-11.4-0.1-22.7-0.1-34.1l0-4.7
			C146.6,268.8,146.6,268.7,146.6,268.6z"/>
		<path class="st2" d="M939.1,420.8c5.9-3.4,8.8-7.9,8.8-12.4l0.1,39.1c0,4.5-2.9,9-8.9,12.4l-251,144.9l-0.1-39.1L939.1,420.8z"/>
		<path class="st1" d="M645.6,565.8c1.8,1.1,3.8,1.9,5.9,2.6c0.8,0.2,1.5,0.5,2.3,0.7c1,0.3,2,0.5,3,0.7c1.2,0.2,2.4,0.5,3.7,0.6
			c0.3,0,0.6,0.1,0.9,0.1c1.7,0.2,3.4,0.3,5.1,0.3c0.2,0,0.5,0,0.7,0c1.7,0,3.4-0.1,5-0.3c0.2,0,0.5,0,0.7-0.1
			c1.7-0.2,3.3-0.5,4.8-0.8c0.3-0.1,0.5-0.1,0.8-0.2c1.4-0.4,2.9-0.8,4.2-1.3c0.2-0.1,0.5-0.1,0.7-0.2c1.6-0.6,3.2-1.3,4.6-2.2
			l0.1,39.1c-1.4,0.8-2.8,1.5-4.3,2.1c-0.1,0-0.2,0.1-0.2,0.1c-0.2,0.1-0.5,0.2-0.7,0.2c-0.9,0.3-1.8,0.6-2.7,0.9
			c-0.5,0.1-1,0.3-1.5,0.4c-0.3,0.1-0.5,0.1-0.8,0.2c-0.3,0.1-0.5,0.2-0.8,0.2c-1,0.2-2,0.4-3,0.5c-0.3,0.1-0.7,0.1-1,0.1
			c-0.3,0-0.5,0.1-0.8,0.1c-0.4,0-0.7,0.1-1.1,0.1c-1,0.1-2,0.1-3,0.2c-0.3,0-0.6,0-0.9,0c-0.3,0-0.6,0-0.8,0c-0.4,0-0.9,0-1.3,0
			c-1.1,0-2.2-0.1-3.3-0.2c-0.1,0-0.3-0.1-0.4-0.1c-0.3,0-0.6-0.1-0.9-0.1c-0.9-0.1-1.7-0.2-2.5-0.4c-0.4-0.1-0.7-0.2-1.1-0.3
			c-1-0.2-2-0.5-3-0.7c-0.5-0.1-1.1-0.2-1.6-0.4c-0.2-0.1-0.4-0.2-0.7-0.3c-2.1-0.7-4.1-1.6-5.9-2.6l-36-20.9l-0.1-39.1L645.6,565.8
			z"/>
		<g>
			<g>
				<path class="st3" d="M155.4,256.3c-11.8,6.8-11.8,17.8-0.1,24.6l23.3,13.5l431.1,250.5l36,20.9c11.7,6.8,30.6,6.8,42.4,0
					l251.1-144.9c11.7-6.8,11.8-17.8,0.1-24.5l-490.3-285c-11.7-6.8-30.6-6.8-42.4,0L155.4,256.3z"/>
			</g>
		</g>
		<g>
			<g>
				
					<linearGradient id="SVGID_1_" gradientUnits="userSpaceOnUse" x1="936.9059" y1="156.534" x2="316.1854" y2="508.8758" gradientTransform="matrix(-1 0 0 1 1163.6191 0)">
					<stop  offset="0" style="stop-color:#1A6BB2"/>
					<stop  offset="1" style="stop-color:#1B4B92"/>
				</linearGradient>
				<polygon class="st4" points="178.6,294.4 609.7,544.9 903.2,375.4 472.1,124.9 				"/>
			</g>
		</g>
		<g>
			<path class="st5" d="M252.9,221.2c-3.1,1.8-3.2,5.5,1.4,7.9c3.2,1.7,7.2,3,10.4,1.2l91.3-51.8c3.1-1.8-0.9-6.1-4-7.9
				c-3.1-1.8-8.1-1.8-11.3,0L252.9,221.2z"/>
		</g>
		<g>
			<path class="st1" d="M255.7,223.6c-3.1,1.8-3.1,4.8-0.1,6.6c3.1,1.8,8.2,1.8,11.4,0l87.7-50.7c3.1-1.8,3.1-4.7,0-6.6
				c-3.1-1.8-8.2-1.8-11.3,0L255.7,223.6z"/>
		</g>
		<g>
			
				<linearGradient id="SVGID_2_" gradientUnits="userSpaceOnUse" x1="553.8303" y1="439.1841" x2="985.066" y2="439.1841" gradientTransform="matrix(-1 0 0 1 1163.6191 0)">
				<stop  offset="0" style="stop-color:#1B4B92"/>
				<stop  offset="1" style="stop-color:#1A5CB2"/>
			</linearGradient>
			<polygon class="st6" points="178.6,294.4 178.7,333.5 609.8,584 609.7,544.9 			"/>
		</g>
		<g class="st7">
			<defs>
				<path id="SVGID_3_" class="st7" d="M367.7,321.3c0-3.2,0-6.3,0-9.5l0,0l0,0l0,0C367.6,315,367.6,318.2,367.7,321.3z"/>
			</defs>
			<clipPath id="SVGID_4_">
				<use xlink:href="#SVGID_3_"  style="overflow:visible;"/>
			</clipPath>
			<g class="st8">
				<path class="st9" d="M364.7,310.5l0,10.8c1.1,0.3,2,0.8,2.9,1.3c0.1,0,0.1,0.1,0.2,0.1l0-10.8c-0.1,0-0.1-0.1-0.2-0.1
					C366.7,311.3,365.7,310.9,364.7,310.5L364.7,310.5z"/>
			</g>
		</g>
	</g>
	<g>
		<g class="st0">
			<polygon points="860.7,368 694.2,464.8 309.7,242.8 480.3,142.6 			"/>
		</g>
		<g>
			<g>
				<g class="st7">
					<g>
						
							<linearGradient id="SVGID_5_" gradientUnits="userSpaceOnUse" x1="448.8056" y1="196.9051" x2="516.351" y2="196.9051" gradientTransform="matrix(1 0 0 1 -71.0313 0)">
							<stop  offset="0" style="stop-color:#FFDF02"/>
							<stop  offset="0.1253" style="stop-color:#F9D402"/>
							<stop  offset="0.4425" style="stop-color:#ECBD01"/>
							<stop  offset="0.7411" style="stop-color:#E4AF00"/>
							<stop  offset="1" style="stop-color:#E1AA00"/>
						</linearGradient>
						<polygon class="st10" points="445.3,112.5 444.9,242.3 377.8,281.3 378.1,151.5 						"/>
					</g>
					<g>
						
							<linearGradient id="SVGID_6_" gradientUnits="userSpaceOnUse" x1="421.1879" y1="103.8754" x2="407.0369" y2="323.1907" gradientTransform="matrix(1 0 0 1 -71.0313 0)">
							<stop  offset="0" style="stop-color:#FFDF02"/>
							<stop  offset="0.1253" style="stop-color:#F9D402"/>
							<stop  offset="0.4425" style="stop-color:#ECBD01"/>
							<stop  offset="0.7411" style="stop-color:#E4AF00"/>
							<stop  offset="1" style="stop-color:#E1AA00"/>
						</linearGradient>
						<polygon class="st11" points="378.1,151.5 377.8,281.3 310.2,242.3 310.5,112.5 						"/>
					</g>
					<g>
						<polygon class="st12" points="445.3,112.5 378.1,151.5 310.5,112.5 377.7,73.4 						"/>
					</g>
				</g>
			</g>
			<g>
				<g class="st7">
					<g>
						
							<linearGradient id="SVGID_7_" gradientUnits="userSpaceOnUse" x1="550.1666" y1="216.3967" x2="617.9565" y2="216.3967" gradientTransform="matrix(1 0 0 1 -71.0313 0)">
							<stop  offset="0" style="stop-color:#FFDF02"/>
							<stop  offset="0.1253" style="stop-color:#F9D402"/>
							<stop  offset="0.4425" style="stop-color:#ECBD01"/>
							<stop  offset="0.7411" style="stop-color:#E4AF00"/>
							<stop  offset="1" style="stop-color:#E1AA00"/>
						</linearGradient>
						<polygon class="st13" points="546.9,88.7 546.3,305 479.1,344 479.7,127.8 						"/>
					</g>
					<g>
						
							<linearGradient id="SVGID_8_" gradientUnits="userSpaceOnUse" x1="521.5132" y1="70.7216" x2="510.9022" y2="390.8219" gradientTransform="matrix(1 0 0 1 -71.0313 0)">
							<stop  offset="0" style="stop-color:#FFDF02"/>
							<stop  offset="0.1253" style="stop-color:#F9D402"/>
							<stop  offset="0.4425" style="stop-color:#ECBD01"/>
							<stop  offset="0.7411" style="stop-color:#E4AF00"/>
							<stop  offset="1" style="stop-color:#E1AA00"/>
						</linearGradient>
						<polygon class="st14" points="479.7,127.8 479.1,344 411.6,305 412.2,88.8 						"/>
					</g>
					<g>
						<polygon class="st12" points="546.9,88.7 479.7,127.8 412.2,88.8 479.3,49.8 						"/>
					</g>
				</g>
			</g>
			<g>
				<g class="st7">
					<g>
						
							<linearGradient id="SVGID_9_" gradientUnits="userSpaceOnUse" x1="651.6506" y1="233.6517" x2="719.6613" y2="233.6517" gradientTransform="matrix(1 0 0 1 -71.0313 0)">
							<stop  offset="0" style="stop-color:#FFDF02"/>
							<stop  offset="0.1253" style="stop-color:#F9D402"/>
							<stop  offset="0.4425" style="stop-color:#ECBD01"/>
							<stop  offset="0.7411" style="stop-color:#E4AF00"/>
							<stop  offset="1" style="stop-color:#E1AA00"/>
						</linearGradient>
						<polygon class="st15" points="648.6,62.8 647.8,365.5 580.6,404.5 581.5,101.8 						"/>
					</g>
					<g>
						
							<linearGradient id="SVGID_10_" gradientUnits="userSpaceOnUse" x1="620.4091" y1="84.2676" x2="615.1034" y2="457.428" gradientTransform="matrix(1 0 0 1 -71.0313 0)">
							<stop  offset="0" style="stop-color:#FFDF02"/>
							<stop  offset="0.1253" style="stop-color:#F9D402"/>
							<stop  offset="0.4425" style="stop-color:#ECBD01"/>
							<stop  offset="0.7411" style="stop-color:#E4AF00"/>
							<stop  offset="1" style="stop-color:#E1AA00"/>
						</linearGradient>
						<polygon class="st16" points="581.5,101.8 580.6,404.5 513,365.5 513.9,62.8 						"/>
					</g>
					<g>
						<polygon class="st12" points="648.6,62.8 581.5,101.8 513.9,62.8 581,23.8 						"/>
					</g>
				</g>
			</g>
			<g>
				<g class="st7">
					<g>
						
							<linearGradient id="SVGID_11_" gradientUnits="userSpaceOnUse" x1="795.3535" y1="75.9527" x2="802.4261" y2="429.6705" gradientTransform="matrix(1 0 0 1 -71.0313 0)">
							<stop  offset="0" style="stop-color:#FFDF02"/>
							<stop  offset="0.1253" style="stop-color:#F9D402"/>
							<stop  offset="0.4425" style="stop-color:#ECBD01"/>
							<stop  offset="0.7411" style="stop-color:#E4AF00"/>
							<stop  offset="1" style="stop-color:#E1AA00"/>
						</linearGradient>
						<polygon class="st17" points="762,39 760.9,428.3 693.7,467.3 694.8,78.1 						"/>
					</g>
					<g>
						
							<linearGradient id="SVGID_12_" gradientUnits="userSpaceOnUse" x1="737.9453" y1="68.8712" x2="723.8001" y2="475.6459" gradientTransform="matrix(1 0 0 1 -71.0313 0)">
							<stop  offset="0" style="stop-color:#FFDF02"/>
							<stop  offset="0.1253" style="stop-color:#F9D402"/>
							<stop  offset="0.4425" style="stop-color:#ECBD01"/>
							<stop  offset="0.7411" style="stop-color:#E4AF00"/>
							<stop  offset="1" style="stop-color:#E1AA00"/>
						</linearGradient>
						<polygon class="st18" points="694.8,78.1 693.7,467.3 626.2,428.3 627.3,39 						"/>
					</g>
					<g>
						<polygon class="st12" points="762,39 694.8,78.1 627.3,39 694.4,0 						"/>
					</g>
				</g>
			</g>
		</g>
	</g>
	<g>
		<path class="st19" d="M444.5,182.5c0,0,14.9,1.8,14.3,18.7c-0.6,16.9-16.2,89.7-34.1,104.2c-17.9,14.5-17.5-20-17.5-20
			S418.1,178.7,444.5,182.5z"/>
		<path class="st20" d="M343.4,298.7c0,0-20.5,3.8-34.4-2c-14-5.8-10.6-6.2-9.5-8.4c2.3-4.6,20.8-3.3,24.2-4.2
			c3.4-0.9-2.8-3.6-4.2-5.9c-1.4-2.3-4.6-5.1-3.5-5.9c1.1-0.8,4-1.6,9.1,2.6c5.2,4.1,18.3,9.7,18.3,9.7L343.4,298.7z"/>
		<path class="st19" d="M340.5,282.7c0,0,1.1,3.9,1.1,9.1c-0.1,6.3-2.9,10.5-2.9,10.5s66.7,13.4,83.6,4.8c0,0,16.4-25.2-8.7-32
			L340.5,282.7z"/>
		<path class="st21" d="M416.5,308.9c1.6,0.1,3.4-0.4,5.5-1.7c0.1,0,0.2-0.1,0.2-0.1c0,0,0-0.1,0.1-0.1c0.8-0.5,1.5-0.9,2.3-1.6
			c17.9-14.5,33.5-87.4,34.1-104.2c0.1-3.2-0.5-5.7-1.3-8c-5.5,18.8-30.9,105-38.7,106.5c-7.2,1.4-59.2-1.7-77.9-2.8
			c-0.9,3.4-2.3,5.5-2.3,5.5S393.8,313.3,416.5,308.9z"/>
		<g>
			<path class="st22" d="M368.8,513.2c0,0,3.8,13.3-5.6,16.7c-9.4,3.3-17.1,7.3-20.7,10.2c-3.6,2.8-43.9,20-48.8,11.9
				c-5-8.1,7-17.3,10.1-20.1c3-2.8,30.5-26.5,30.5-26.5L368.8,513.2z"/>
			<path class="st22" d="M401.3,536.4c0,0,3.8,13.3-5.6,16.7c-9.3,3.3-17,7.3-20.6,10.2c-3.6,2.8-43.9,19.9-48.8,11.9
				c-5-8.1,7.1-17.3,10.1-20.1c3-2.8,30.5-26.5,30.5-26.5L401.3,536.4z"/>
			<path class="st23" d="M436.1,321c0,0-98.7,62.1-101.6,77.9c-2.8,15.8-2.2,108.8-2.2,108.8s25.3,10.9,37.5,4.1l10.2-87.6
				c0,0,77.7-57.3,81.1-59.5C464.6,362.5,436.1,321,436.1,321z"/>
			<path class="st24" d="M461.1,364.6c-3.4,2.1-81.1,59.5-81.1,59.5l-10.2,87.6c-5.9,3.3-14.8,2.4-22.5,0.7
				c3.5-26.6,11.3-85.2,14.1-100c3.7-19.4,83.3-65.2,83.3-65.2l16.2,15.2C461.5,363.5,461.6,364.4,461.1,364.6z"/>
			<path class="st23" d="M436,323.3c0,0,11.4,33.9,17.3,41.3c0,0-78.9,41.8-82.9,61.9c-4,20.2-9,106.6-9,106.6s17.6,11.5,41.4,3.1
				c0,0,8.8-66.3,9.7-93c0,0,119.3-31.6,110.5-96.9C523.1,346.2,477.4,364.4,436,323.3z"/>
			<path class="st24" d="M412.6,443.1c-0.9,26.7-9.7,93-9.7,93c-4.1,1.5-8,2.3-11.6,2.7c0.7-10.4,1.5-24,2.6-41.9
				c3.9-66.9,14.3-65.7,14.3-65.7c75.7-34.2,91-66.8,91-66.8l24.3-15C527.8,412.6,412.6,443.1,412.6,443.1z"/>
		</g>
		<path class="st19" d="M487,188.2c0,0,37.7,19.2,38.6,22.1c0.9,2.9,10.7,9.9-3.2,43c0,0-18.7,35.9-9.3,71.8
			c5.4,20.8,10.3,31.7,10.3,31.7s-16.7,24.8-63.7,7.5c-9.5-3.5-25.4-16.4-30.3-26.8c0,0,4.4-30.7-1.5-66.6
			c-5.9-35.9-9.2-82.5,11.2-88.6C439.1,182.3,444.2,176.1,487,188.2z"/>
		<path class="st25" d="M427.9,271c5.9,35.9,1.5,66.6,1.5,66.6c4.8,10.4,20.8,23.3,30.3,26.8c5.3,1.9,10.1,3.3,14.6,4.2
			c-1.9-5.1-5-14-8.2-26.5c-9.4-35.9,9.3-71.8,9.3-71.8c14-33.1,4.2-40.1,3.2-43c-0.9-2.9-38.6-22.1-38.6-22.1
			c-5.4-1.5-10.1-2.8-14.4-3.8C421.3,219.7,424,247.6,427.9,271z"/>
		<path class="st26" d="M473.7,176.7c0,0-27.4,14.4-15.2,35.1l-12.9,7.1C445.7,218.8,433.1,182.7,473.7,176.7z"/>
		<path class="st20" d="M491.3,162.2c0,0-11.5,17.5-2.4,29.3c5.1,6.6-6.9,22.2-27.4,21c0,0-9.1-2.2-8.2-5.6
			c2.1-7.5-0.9-11.8-4.2-17.6C445.8,183.6,491.3,162.2,491.3,162.2z"/>
		<path class="st27" d="M488.9,191.5c0.6,0.8,1,1.7,1.1,2.7c-7.7-7.8-22.4-8.4-22.4-8.4l19.5-21.6c0.8-0.4,1.4-0.7,2-0.9l0.6,1.9
			C486.8,170.7,482.1,182.7,488.9,191.5z"/>
		<path class="st28" d="M453.3,206.9c1.9-12-0.9-11.8-4.2-17.6c-0.9-1.6,1.9-4.3,6.4-7.5c1.1,0.8,2.2,2,3.3,3.7
			c8,12.3,7.9,21.8,6.9,26.9c-1.4,0.1-2.8,0.2-4.3,0C459,212.1,452.7,210.6,453.3,206.9z"/>
		<g>
			<path class="st20" d="M495.6,152.4c0,0-5,23.1-20.9,33.7c-14.1,9.3-30.5,15.4-33.6-1.4c-2.4-13.4-9-47.5,2.8-54.3
				c15.2-8.8,20.8-19.7,38.4-13.2C482.4,117.1,502.5,126.3,495.6,152.4z"/>
			<path class="st29" d="M495.6,152.4c0,0-1.8,19.9-20.9,34c-4.1,3-9.3,5.4-13.4,7.1c7.4-5.5,8.2-7.2,13.9-13.9
				c5.8-6.7-8.6-4.1,1.2-21.2c3.3-5.8-13,1.7-16.6,1.6c-21.7-0.5-20.1-13-20.5-18.2c0.4-2.3,1-4.5,1.8-6.4l2.1-4
				c0.2-0.4,0.5-0.7,0.7-1.1c2.4-2.9,4.7-5.5,7-7.7c9.3,0.2,35.7,0.8,36.3,0.9c0.4,0.1,4.9,6.3,9.1,12.1
				C497.4,140.2,497.4,145.7,495.6,152.4z"/>
			<path class="st30" d="M486,174.8c0,0,17.6-16.1,11.5-39.3c0,0-3.3-18.6-24-21.1c-9.9-1.2-28.9-0.6-36.4,19.4
				c-2.4,6.2-0.8,19.9,23.7,13.5c3.5-0.9,12.8-2.1,16.1,0.8c3.3,3,3.6,8.5,2.1,13.3c-1.4,4.1,2.3,4.6,2.8,3.7
				c0.5-0.9,5.2-12.7,9.6-8.1C495.4,161.2,486.5,174,486,174.8z"/>
			<path class="st31" d="M486,174.8c0.4-0.8,9.3-13.6,5.3-17.8c-4.4-4.6-9.1,7.2-9.6,8.1c-0.5,0.9-4.2,0.4-2.8-3.7
				c1.6-4.7,1.2-10.3-2.1-13.3c-3-2.7-11.1-1.3-16.1-0.8c4.1-2.6,12.1-3.5,15-10.3c3.8-9,9.3-13.3,14.4-14.9
				c6,6.1,7.3,13.3,7.3,13.3C503.6,158.7,486,174.8,486,174.8z"/>
		</g>
		<path class="st26" d="M486.1,185.8c0,0-4.1,20.7-27.5,26l6.7,16.3C465.2,228.1,507.1,207.1,486.1,185.8z"/>
		<path class="st32" d="M525.6,210.3c0.9,2.9,10.7,9.9-3.2,43c0,0-15.7,35.7-7.5,71.5c3.5,15.4,3.2,16.5,9,29.5
			c3.4,7.5-11.3,12-24.7,16.1c-8-19-7.2-19.3-10.5-40.2c-4.6-28.5-1.3-52,22-80.6c20.5-25.2,11.9-35,12.4-41.6
			C524.5,209.1,525.4,209.9,525.6,210.3z"/>
		<path class="st30" d="M437.1,133.8c0,0-3.6,22.3,24.8,14.2c0,0,14.2-3.8,19.9-16.9c1.2-2.8,4.5-7.4,9.3-7.9c0,0-7.6-10.7-27.1-9.3
			c-9.2,0.7-18.7,9.6-21.1,11C440.6,126.3,444.4,135.6,437.1,133.8z"/>
		<g>
			<g>
				<polygon class="st33" points="425.8,355.2 353.3,397.3 297.1,364.9 369.6,322.8 				"/>
			</g>
			<g>
				<polygon class="st34" points="367,379.8 365.2,380.8 348.2,370.9 349.9,369.9 				"/>
			</g>
			<g>
				<polygon class="st34" points="360.1,383.7 358.4,384.8 333.1,370.2 334.8,369.1 				"/>
			</g>
			<g>
				<polygon class="st34" points="363.5,381.8 361.8,382.8 339.6,370 341.4,369 				"/>
			</g>
			<g>
				<polygon class="st34" points="342.4,361.6 327.7,370.1 314.6,362.6 329.3,354.1 				"/>
			</g>
			<g>
				<polygon class="st34" points="353.3,387.7 351.5,388.8 329.4,375.9 331.1,374.9 				"/>
			</g>
			<g>
				<polygon class="st34" points="356.7,385.7 355,386.8 337.9,376.9 339.6,375.9 				"/>
			</g>
			<g>
				<polygon class="st34" points="370.4,377.8 368.6,378.8 343.3,364.2 345.1,363.2 				"/>
			</g>
			<g>
				<polygon class="st34" points="390.9,363.9 389.1,364.9 372.1,355 373.8,354 				"/>
			</g>
			<g>
				<polygon class="st34" points="384,367.8 382.3,368.9 357,354.3 358.7,353.2 				"/>
			</g>
			<g>
				<polygon class="st34" points="387.4,365.8 385.7,366.9 363.5,354.1 365.3,353.1 				"/>
			</g>
			<g>
				<polygon class="st34" points="377.2,371.8 375.4,372.8 353.3,360.1 355,359 				"/>
			</g>
			<g>
				<polygon class="st34" points="380.6,369.8 378.9,370.9 361.8,361 363.5,360 				"/>
			</g>
			<g>
				<polygon class="st34" points="394.3,361.9 392.5,362.9 367.2,348.3 369,347.3 				"/>
			</g>
		</g>
		<path class="st20" d="M439.6,358.3c0,0-22.6,18.6-44.6,14.3c0,0,0-5.7,9.8-7.9c9.8-2.1,13.5-9.6,13.5-10.8
			c-0.1-1.1-7.8-1.8-11.2-2c-3.5-0.2-7.6-4.9,0.8-5.4c8.4-0.5,22.7-3.7,30.9-1.9C438.8,344.6,446.9,353.3,439.6,358.3z"/>
		<path class="st19" d="M512.4,203.6c0,0,18.5,4.3,23,20.5c4.5,16.3,11.4,90.5-1.3,109.6c-12.7,19.2-95.9,29.2-95.9,29.2
			c6-12.6-2.5-23.1-2.5-23.1l71.8-30C507.5,309.9,494.6,210.6,512.4,203.6z"/>
		<path class="st25" d="M507.5,309.9l-71.8,30c0,0,1.4,1.8,2.7,4.8c17.2-5.9,73.8-25.6,79.5-32.8c6.3-7.7-7.2-91.8-9.4-104.8
			C496.7,226.6,507.5,309.9,507.5,309.9z"/>
	</g>
</g>
</svg>
