<?xml version="1.0" encoding="utf-8"?>
<!-- Generator: Adobe Illustrator 22.0.1, SVG Export Plug-In . SVG Version: 6.00 Build 0)  -->
<svg version="1.1" id="a5860ba0-ef67-4914-ac96-07e2ebcccb4f"
	 xmlns="http://www.w3.org/2000/svg" xmlns:xlink="http://www.w3.org/1999/xlink" x="0px" y="0px" viewBox="0 0 1095.7 664"
	 style="enable-background:new 0 0 1095.7 664;" xml:space="preserve">
<style type="text/css">
	.st0{display:none;fill:#3F3D56;}
	.st1{display:none;opacity:0.1;enable-background:new    ;}
	.st2{display:none;fill:#6C63FF;}
	.st3{display:none;fill:#D0CDE1;}
	.st4{display:none;fill:#FFB8B8;}
	.st5{display:none;fill:#2F2E41;}
	.st6{opacity:0.1;}
	.st7{fill:#E53399;}
	.st8{fill:#FF76C4;}
	.st9{fill:#73C139;}
	.st10{fill:#4D9B12;}
	.st11{fill:url(#SVGID_1_);}
	.st12{fill:#FFE85F;}
	.st13{fill:url(#SVGID_2_);}
	.st14{fill:url(#SVGID_3_);}
	.st15{enable-background:new    ;}
	.st16{fill:#323A3B;}
	.st17{fill:#232829;}
	.st18{fill:#1D1F1F;}
	.st19{fill:#141515;}
	.st20{fill:#A9D6EA;}
	.st21{fill:#303637;}
	.st22{fill:#454E4F;}
	.st23{fill:#DEF6FF;}
	.st24{fill:#EFB185;}
	.st25{fill:#E6A376;}
	.st26{fill:#5FB9E6;}
	.st27{fill:#77D2FF;}
	.st28{fill:#111114;}
	.st29{fill:#0A0A0A;}
	.st30{fill:#EA49BD;}
	.st31{fill:#FF61CB;}
	.st32{fill:#DD9569;}
	.st33{fill:#341C09;}
	.st34{fill:#221101;}
	.st35{fill:#AAC6C3;}
	.st36{fill:#C2E7F2;}
	.st37{fill:#A9D5E0;}
	.st38{fill:#5A5C5D;}
	.st39{fill:#6D6F70;}
</style>
<title>abstract</title>
<rect x="712.5" y="718.8" class="st0" width="424.4" height="2.2"/>
<polygon class="st0" points="468.4,469.3 468.4,240.3 730.8,240.3 730.8,8 -41.3,8 -41.3,699.4 730.8,699.4 730.8,469.3 "/>
<polygon class="st1" points="730.8,240.3 730.8,8 463.1,8 463.1,237 226.5,237 226.5,8 -41.3,8 -41.3,240.3 200.7,240.3 
	200.7,469.3 -41.3,469.3 -41.3,699.4 470.6,699.4 470.6,469.3 468.4,469.3 468.4,240.3 "/>
<path class="st2" d="M143.7,8c0,102.2-82.8,185-185,185V8H143.7z"/>
<path class="st1" d="M44.8,8c0,47.5-38.5,86-86,86v47.3C32.4,141.3,92.1,81.7,92.1,8H44.8z"/>
<polygon class="st3" points="730.8,72.5 730.8,39.2 553.4,39.2 553.4,8 514.7,8 514.7,39.2 514.7,72.5 514.7,98.3 514.7,131.7 
	553.4,131.7 730.8,131.7 730.8,98.3 553.4,98.3 553.4,72.5 "/>
<path class="st3" d="M420.1,363.9c0-48.1-39-87.1-87.1-87.1s-87.1,39-87.1,87.1c0,43.5,32.2,80.4,75.3,86.3v122.3H178.3
	c-6.6-47.6-50.4-81-98.1-74.4c-47.6,6.6-81,50.4-74.5,98.1s50.4,81,98.1,74.4c38.7-5.3,69.1-35.7,74.4-74.4h142.9v51.6h23.7v-51.6
	h48.4v-23.7h-48.4V450.2C387.9,444.2,420.1,407.5,420.1,363.9z"/>
<polygon class="st3" points="632.4,486.8 671.1,553.8 709.8,620.9 632.4,620.9 555,620.9 593.7,553.8 "/>
<polygon class="st2" points="615.2,629.5 537.8,629.5 576.5,562.4 576.7,562 562.5,537.4 523.8,604.4 485.1,671.5 562.5,671.5 
	639.9,671.5 615.8,629.5 "/>
<polygon class="st3" points="129.7,379 129.7,320.9 158.8,320.9 158.8,286.5 14.7,286.5 14.7,430.6 158.8,430.6 158.8,379 "/>
<rect x="54.4" y="259.6" class="st2" width="53.8" height="53.8"/>
<path class="st4" d="M966.3,265.9l-17.7,47l-64.2,22.5c0,0-38.7-4.3-38.7,17.2c0,15.3,46.2,2.2,46.2,2.2l84.6-25.4l26.7-66
	L966.3,265.9z"/>
<rect x="641.6" y="253.2" class="st2" width="251.6" height="217.2"/>
<polygon class="st0" points="762.5,319.1 801.2,386.1 840,453.2 762.5,453.2 685.1,453.2 723.8,386.1 "/>
<polygon class="st3" points="762.3,367.6 780,398 797.5,428.4 762.3,428.4 727.3,428.4 744.8,398 "/>
<polygon class="st3" points="762.3,268.7 780,299.1 797.5,329.5 762.3,329.5 727.3,329.5 744.8,299.1 "/>
<path class="st5" d="M1003.9,235.3c0,0-17.7-2.6-26.7,30.5s-11.4,35.6-11.4,35.6s52.2,7.6,53.3,5.1S1030.6,243,1003.9,235.3z"/>
<circle class="st4" cx="993.8" cy="188.3" r="34.3"/>
<path class="st4" d="M978.6,216.3c0,0,11.4,29.2,7.6,33c-3.8,3.8,47,8.9,47,8.9s3.8-19-11.4-30.5c0,0-6.3-19-5.1-22.9
	C1018,200.9,978.6,216.3,978.6,216.3z"/>
<path class="st5" d="M1009.1,229c-13,4.9-24.7,12.7-34.3,22.9c-15.3,16.6-22.9,21.6-22.9,21.6s-17.7,6.3-11.4,36.9
	c3.2,15.3,1,32.4-2,45.7c-4.6,20.8-6.9,41.8-6.9,63.1v13.1c0,0-116.9,245.3-77.5,261.7s74.9,21.6,77.5,17.7
	c2.6-3.9,48.3-202,48.3-202S992.5,722,1024.3,722c31.7,0,83.9-8.9,83.9-8.9L1043.3,459c0,0,15.3-43.2-22.9-73.7l-5.1-14
	c21.1,0,30.8-133.4,8.9-144.8C1024.3,226.5,1019.2,222.6,1009.1,229z"/>
<path class="st4" d="M977.3,297.6l-17.7,47l-64.2,22.6c0,0-38.7-4.3-38.7,17.2c0,15.3,46.2,2.2,46.2,2.2l84.6-25.4l26.7-66
	L977.3,297.6z"/>
<ellipse class="st5" cx="892.8" cy="709.3" rx="22.3" ry="12.7"/>
<ellipse class="st5" cx="1063.1" cy="709.3" rx="22.3" ry="12.7"/>
<path class="st5" d="M1007.1,140.3L1007.1,140.3c-1.7,0-3.5,0.2-5.3,0.5c-3.1-1.5-6.6-2.3-10-2.4h-0.9c-17.5,0-31.8,15.9-31.8,35.5
	l0,0h5.9l1-7.2l1.4,7.2h4.9c-1.5,5.8-2.3,11.8-2.3,17.9v36.1h8.9l5.2-13.4l-1.3,13.4h57.2l4.7-12.2l-1.2,12.2h6.5v-28.4
	C1049.9,166.8,1030.7,140.3,1007.1,140.3z"/>
<g>
	<g>
		<g class="st6">
			<g>
				<path d="M302.5,245.7c28.6,16.5,28.7,43.2,0.4,59.7c-28.4,16.5-74.4,16.5-103,0c-28.5-16.5-28.7-43.1-0.3-59.6
					C227.9,229.3,274,229.2,302.5,245.7z"/>
			</g>
		</g>
		<g>
			<g>
				<path class="st7" d="M308.8,136.8c22,12.7,22.1,33.3,0.3,46.1c-21.9,12.7-57.5,12.7-79.5,0c-22.1-12.7-22.2-33.3-0.3-46.1
					C251.2,124.1,286.8,124.1,308.8,136.8z"/>
			</g>
			<path class="st8" d="M308.8,136.8c-22-12.7-57.6-12.7-79.5,0c-21.9,12.7-21.8,33.3,0.3,46.1c22,12.7,57.6,12.7,79.5,0
				C331,170.2,330.9,149.5,308.8,136.8z M301.9,178.7c-18,10.4-47.2,10.4-65.2,0s-18.2-27.3-0.2-37.8c17.9-10.4,47.1-10.4,65.2,0
				C319.7,151.4,319.8,168.3,301.9,178.7z"/>
			<g>
				<path class="st9" d="M236.5,77.5C236.4,77.5,236.4,77.5,236.5,77.5c-0.1,0.3-0.1,0.5-0.2,0.7c0,0,0,0.1-0.1,0.1
					c-0.1,0.2-0.2,0.4-0.4,0.6c-0.1,0.1-0.3,0.3-0.4,0.4c-0.1,0.1-0.2,0.2-0.3,0.3c-0.5,0.4-1.1,0.7-1.8,1c-0.1,0-0.2,0.1-0.3,0.1
					c-0.7,0.2-1.3,0.4-2.1,0.5c0,0-0.1,0-0.1,0c-0.8,0.1-1.5,0.1-2.2,0.1c0,0-0.1,0-0.1,0c-0.7-0.1-1.4-0.2-2.1-0.5
					c-1.3-0.5-2-1.4-2.1-2.3l21.6,164.1c0.1,0.9,0.8,1.7,2.1,2.3c0.3,0.1,0.6,0.2,0.9,0.3c0.3,0.1,0.5,0.1,0.8,0.1
					c0.1,0,0.2,0,0.4,0c0,0,0,0,0.1,0c0.1,0,0.1,0,0.2,0c0.2,0,0.4,0,0.6,0l0-0.1l0,0l0,0.1c0.2,0,0.4,0,0.6,0c0.2,0,0.4,0,0.6-0.1
					c0.1,0,0.1,0,0.2,0c0,0,0.1,0,0.1,0c0.1,0,0.2,0,0.3,0c0.2,0,0.5-0.1,0.7-0.1c0.3-0.1,0.5-0.1,0.8-0.2c0.1,0,0.2-0.1,0.3-0.1
					c0.1,0,0.2-0.1,0.3-0.1c0.2-0.1,0.4-0.1,0.5-0.2c0.5-0.2,0.9-0.5,1.3-0.8c0,0,0,0,0.1-0.1c0.1-0.1,0.2-0.2,0.3-0.3
					c0.1-0.1,0.3-0.3,0.4-0.4c0,0,0,0,0,0c0.1-0.2,0.2-0.3,0.3-0.5c0,0,0-0.1,0-0.1c0,0,0-0.1,0-0.1c0-0.1,0.1-0.1,0.1-0.2
					c0-0.1,0.1-0.2,0.1-0.4c0,0,0,0,0,0c0,0,0-0.1,0-0.1c0-0.1,0-0.2,0-0.2c0-0.1,0-0.2,0-0.3c0,0,0,0,0-0.1L236.5,76.8
					C236.5,77,236.5,77.2,236.5,77.5z"/>
				<g>
					<path class="st10" d="M234.4,74.6c2.6,1,2.9,3.3,0.7,4.9c-2.2,1.7-6,2.2-8.6,1.2c-2.6-1.1-2.9-3.3-0.7-5
						C228,74,231.8,73.5,234.4,74.6z"/>
				</g>
			</g>
			<g>
				<path class="st9" d="M271.7,69.8C271.7,69.8,271.7,69.9,271.7,69.8c-0.1,0.3-0.1,0.5-0.2,0.7c0,0,0,0.1-0.1,0.1
					c-0.1,0.2-0.2,0.4-0.4,0.6c-0.1,0.1-0.3,0.3-0.4,0.4c-0.1,0.1-0.2,0.2-0.3,0.3c-0.5,0.4-1.1,0.7-1.7,1c-0.1,0-0.2,0.1-0.3,0.1
					c-0.7,0.2-1.4,0.4-2.1,0.5c0,0-0.1,0-0.1,0c-0.7,0.1-1.5,0.1-2.2,0c0,0-0.1,0-0.1,0c-0.8-0.1-1.5-0.2-2.1-0.5
					c-1.3-0.5-2-1.4-2.1-2.3l21.6,164.1c0.1,0.9,0.8,1.7,2.1,2.2c0.3,0.1,0.6,0.2,0.9,0.3c0.3,0.1,0.5,0.1,0.8,0.2
					c0.1,0,0.2,0,0.4,0c0,0,0.1,0,0.1,0c0.1,0,0.1,0,0.2,0c0.2,0,0.4,0,0.6,0l0-0.1l0,0l0,0.1c0.2,0,0.4,0,0.6,0
					c0.2,0,0.4,0,0.6-0.1c0.1,0,0.2,0,0.2,0c0,0,0.1,0,0.1,0c0.1,0,0.2,0,0.3-0.1c0.2,0,0.4-0.1,0.7-0.1c0.2-0.1,0.5-0.1,0.8-0.2
					c0.1,0,0.2-0.1,0.3-0.1c0.1,0,0.2-0.1,0.3-0.1c0.2-0.1,0.4-0.1,0.5-0.2c0.5-0.2,0.9-0.5,1.3-0.8c0,0,0.1,0,0.1-0.1
					c0.1-0.1,0.2-0.2,0.3-0.2c0.1-0.1,0.3-0.3,0.4-0.4c0,0,0,0,0,0c0.1-0.1,0.2-0.3,0.3-0.5c0,0,0-0.1,0-0.1c0,0,0-0.1,0.1-0.1
					c0-0.1,0.1-0.1,0.1-0.2c0.1-0.1,0.1-0.3,0.1-0.4c0,0,0,0,0,0c0,0,0-0.1,0-0.1c0-0.1,0-0.1,0-0.2c0-0.1,0-0.2,0-0.3
					c0,0,0,0,0-0.1L271.7,69.2C271.8,69.4,271.8,69.6,271.7,69.8z"/>
				<g>
					<path class="st10" d="M269.6,66.9c2.6,1,2.9,3.3,0.7,5c-2.2,1.7-6,2.2-8.6,1.2c-2.6-1.1-2.9-3.3-0.7-5
						C263.2,66.4,267.1,65.9,269.6,66.9z"/>
				</g>
			</g>
			<g>
				<path class="st9" d="M330.2,87.2C330.1,87.2,330.1,87.2,330.2,87.2c-0.2,0.2-0.3,0.4-0.5,0.5c0,0-0.1,0.1-0.1,0.1
					c-0.2,0.1-0.4,0.3-0.6,0.4c-0.2,0.1-0.3,0.1-0.5,0.2c-0.1,0.1-0.3,0.1-0.4,0.1c-0.6,0.1-1.3,0.2-2,0.1c-0.1,0-0.2,0-0.3,0
					c-0.7-0.1-1.4-0.2-2.1-0.4c0,0-0.1,0-0.1,0c-0.7-0.2-1.4-0.5-2-0.9c0,0-0.1,0-0.1,0c-0.6-0.4-1.2-0.8-1.6-1.3
					c-1-1-1.3-2.1-1-2.9l-50.5,157.6c-0.3,0.9,0,1.9,0.9,3c0.2,0.2,0.5,0.5,0.7,0.7c0.2,0.2,0.4,0.3,0.6,0.5
					c0.1,0.1,0.2,0.1,0.3,0.2c0,0,0.1,0,0.1,0c0.1,0,0.1,0.1,0.2,0.1c0.2,0.1,0.4,0.2,0.5,0.3l0-0.1l0,0l0,0.1
					c0.2,0.1,0.4,0.2,0.6,0.3c0.2,0.1,0.4,0.1,0.6,0.2c0.1,0,0.1,0,0.2,0.1c0,0,0,0,0.1,0c0.1,0,0.2,0.1,0.3,0.1
					c0.2,0.1,0.5,0.1,0.7,0.2c0.3,0,0.5,0.1,0.8,0.1c0.1,0,0.2,0,0.3,0c0.1,0,0.2,0,0.3,0c0.2,0,0.4,0,0.5,0c0.5,0,1-0.1,1.5-0.2
					c0,0,0,0,0.1,0c0.1,0,0.2-0.1,0.3-0.1c0.2-0.1,0.4-0.1,0.5-0.2c0,0,0,0,0,0c0.2-0.1,0.3-0.2,0.5-0.3c0,0,0.1-0.1,0.1-0.1
					c0,0,0.1,0,0.1-0.1c0,0,0.1-0.1,0.1-0.1c0.1-0.1,0.2-0.2,0.3-0.3c0,0,0,0,0,0c0,0,0-0.1,0.1-0.1c0-0.1,0.1-0.1,0.1-0.2
					c0.1-0.1,0.1-0.2,0.1-0.3c0,0,0,0,0-0.1l50.5-157.6C330.4,86.8,330.3,87,330.2,87.2z"/>
				<g>
					<path class="st10" d="M329.5,83.7c1.9,2,1.2,4.2-1.5,4.8c-2.7,0.6-6.4-0.6-8.2-2.6c-1.9-2.1-1.2-4.2,1.5-4.8
						C323.9,80.4,327.6,81.6,329.5,83.7z"/>
				</g>
			</g>
			<g>
				
					<linearGradient id="SVGID_1_" gradientUnits="userSpaceOnUse" x1="316.4053" y1="169.5007" x2="353.117" y2="169.5007" gradientTransform="matrix(1 0 0 1 -76.668 0)">
					<stop  offset="0" style="stop-color:#FFDF02"/>
					<stop  offset="0.1253" style="stop-color:#F9D402"/>
					<stop  offset="0.4425" style="stop-color:#ECBD01"/>
					<stop  offset="0.7411" style="stop-color:#E4AF00"/>
					<stop  offset="1" style="stop-color:#E1AA00"/>
				</linearGradient>
				<path class="st11" d="M276.2,87.8C276.2,87.8,276.2,87.9,276.2,87.8c-0.1,0.2-0.2,0.4-0.4,0.6c0,0-0.1,0.1-0.1,0.1
					c-0.2,0.2-0.4,0.3-0.6,0.5c-0.1,0.1-0.3,0.2-0.5,0.3c-0.1,0.1-0.2,0.1-0.4,0.2c-0.6,0.2-1.3,0.4-2,0.4c-0.1,0-0.2,0-0.3,0
					c-0.7,0-1.4,0-2.1-0.1c0,0-0.1,0-0.1,0c-0.7-0.1-1.5-0.3-2.1-0.6c0,0-0.1,0-0.1,0c-0.7-0.3-1.3-0.6-1.9-1.1
					c-1.1-0.9-1.6-1.9-1.4-2.8l-24.6,163.7c-0.1,0.9,0.3,1.9,1.4,2.8c0.3,0.2,0.5,0.4,0.8,0.5c0.2,0.1,0.4,0.2,0.7,0.4
					c0.1,0,0.2,0.1,0.4,0.1c0,0,0,0,0.1,0c0.1,0,0.1,0.1,0.2,0.1c0.2,0.1,0.4,0.1,0.6,0.2c0.2,0.1,0.4,0.1,0.6,0.2
					c0.2,0,0.4,0.1,0.6,0.1c0.1,0,0.1,0,0.2,0c0,0,0,0,0.1,0c0.1,0,0.2,0,0.3,0c0.2,0,0.5,0,0.7,0.1c0.3,0,0.5,0,0.8,0
					c0.1,0,0.2,0,0.3,0c0.1,0,0.2,0,0.3,0c0.2,0,0.4,0,0.5-0.1c0.5-0.1,1-0.2,1.4-0.4c0,0,0.1,0,0.1,0c0.1-0.1,0.2-0.1,0.3-0.2
					c0.2-0.1,0.3-0.2,0.5-0.3c0,0,0,0,0,0c0.2-0.1,0.3-0.2,0.4-0.3c0,0,0-0.1,0.1-0.1c0,0,0-0.1,0.1-0.1c0.1,0,0.1-0.1,0.1-0.1
					c0.1-0.1,0.1-0.2,0.2-0.3c0,0,0,0,0,0c0,0,0,0,0-0.1c0-0.1,0.1-0.1,0.1-0.2c0-0.1,0.1-0.2,0.1-0.3c0,0,0,0,0-0.1l24.6-163.7
					C276.4,87.4,276.3,87.6,276.2,87.8z"/>
				<g>
					<path class="st12" d="M275,84.4c2.2,1.7,1.8,3.9-0.7,5c-2.6,1-6.4,0.5-8.6-1.3c-2.2-1.7-1.8-3.9,0.7-5
						C269,82.2,272.8,82.7,275,84.4z"/>
				</g>
			</g>
			<g>
				
					<linearGradient id="SVGID_2_" gradientUnits="userSpaceOnUse" x1="356.8177" y1="119.7821" x2="393.5189" y2="119.7821" gradientTransform="matrix(0.9906 -0.137 0.137 0.9906 -101.3737 87.5367)">
					<stop  offset="0" style="stop-color:#FFDF02"/>
					<stop  offset="0.1253" style="stop-color:#F9D402"/>
					<stop  offset="0.4425" style="stop-color:#ECBD01"/>
					<stop  offset="0.7411" style="stop-color:#E4AF00"/>
					<stop  offset="1" style="stop-color:#E1AA00"/>
				</linearGradient>
				<path class="st13" d="M293.5,71.4C293.5,71.4,293.5,71.4,293.5,71.4c-0.1,0.3-0.2,0.5-0.3,0.6c0,0-0.1,0.1-0.1,0.1
					c-0.1,0.2-0.3,0.3-0.5,0.5c-0.1,0.1-0.3,0.2-0.4,0.3c-0.1,0.1-0.2,0.2-0.4,0.3c-0.6,0.3-1.2,0.5-1.9,0.7c-0.1,0-0.2,0.1-0.3,0.1
					c-0.7,0.1-1.4,0.2-2.1,0.2c0,0-0.1,0-0.1,0c-0.7,0-1.5-0.1-2.2-0.3c0,0-0.1,0-0.1,0c-0.7-0.2-1.4-0.4-2-0.8
					c-1.2-0.7-1.8-1.6-1.8-2.5l-1.9,165.5c0,0.9,0.6,1.8,1.8,2.5c0.3,0.2,0.6,0.3,0.9,0.4c0.2,0.1,0.5,0.2,0.8,0.3
					c0.1,0,0.2,0.1,0.4,0.1c0,0,0,0,0.1,0c0.1,0,0.1,0,0.2,0c0.2,0.1,0.4,0.1,0.6,0.1c0.2,0,0.4,0,0.6,0.1c0.2,0,0.4,0,0.6,0
					c0.1,0,0.1,0,0.2,0c0,0,0,0,0.1,0c0.1,0,0.2,0,0.3,0c0.2,0,0.5,0,0.7,0c0.3,0,0.5-0.1,0.8-0.1c0.1,0,0.2-0.1,0.3-0.1
					c0.1,0,0.2-0.1,0.3-0.1c0.2,0,0.4-0.1,0.5-0.1c0.5-0.1,0.9-0.3,1.3-0.6c0,0,0,0,0.1,0c0.1-0.1,0.2-0.2,0.3-0.2
					c0.2-0.1,0.3-0.2,0.4-0.3c0,0,0,0,0,0c0.2-0.1,0.3-0.3,0.4-0.4c0,0,0.1-0.1,0.1-0.1c0,0,0-0.1,0.1-0.1c0-0.1,0.1-0.1,0.1-0.2
					c0.1-0.1,0.1-0.2,0.2-0.3c0,0,0,0,0,0c0,0,0,0,0-0.1c0-0.1,0-0.1,0.1-0.2c0-0.1,0-0.2,0-0.3c0,0,0,0,0-0.1l1.9-165.5
					C293.6,71,293.5,71.2,293.5,71.4z"/>
				<g>
					<path class="st12" d="M291.8,68.2c2.4,1.4,2.4,3.7,0,5c-2.4,1.3-6.3,1.3-8.7-0.1c-2.4-1.4-2.4-3.6,0-5
						C285.5,66.8,289.4,66.8,291.8,68.2z"/>
				</g>
			</g>
			<path class="st8" d="M229.6,182.9c22,12.7,57.6,12.7,79.5,0c15.1-8.8,19.7-21.4,13.9-32.5h-10.7c6.2,9.5,2.8,20.7-10.4,28.3
				c-18,10.4-47.2,10.4-65.2,0c-13.3-7.7-16.8-18.8-10.7-28.3h-10.6C209.6,161.5,214.3,174.1,229.6,182.9z"/>
			
				<linearGradient id="SVGID_3_" gradientUnits="userSpaceOnUse" x1="345.7008" y1="180.3493" x2="345.7008" y2="320.2367" gradientTransform="matrix(1 0 0 1 -76.668 0)">
				<stop  offset="0" style="stop-color:#FF4CAA"/>
				<stop  offset="1" style="stop-color:#E53399"/>
			</linearGradient>
			<path class="st14" d="M325.3,161.7c-0.1,0.6-0.1,1.2-0.2,1.8c-0.1,0.5-0.2,0.9-0.4,1.4c-0.2,0.6-0.3,1.1-0.5,1.7
				c-0.2,0.4-0.4,0.9-0.6,1.3c-0.3,0.6-0.5,1.2-0.8,1.8c-0.2,0.4-0.5,0.8-0.8,1.3c-0.4,0.7-0.8,1.3-1.3,2c-0.5,0.6-0.9,1.2-1.5,1.8
				c-0.1,0.1-0.2,0.3-0.4,0.4c-0.7,0.8-1.5,1.6-2.4,2.3c-0.6,0.5-1.2,1-1.8,1.4c-0.5,0.4-1,0.8-1.5,1.2c-0.6,0.5-1.3,0.9-2,1.4
				c-0.7,0.5-1.4,0.9-2.1,1.4c-1.7,1-3.5,1.8-5.3,2.7c-0.5,0.2-1.1,0.5-1.6,0.7c-1.4,0.6-2.9,1.2-4.4,1.7c-0.5,0.2-1.1,0.4-1.6,0.5
				c-1,0.3-1.9,0.6-2.9,0.8c-0.7,0.2-1.5,0.4-2.2,0.6c-1,0.2-2.1,0.4-3.1,0.6c-0.7,0.2-1.4,0.3-2.2,0.4c-2.1,0.4-4.2,0.7-6.4,0.9
				c-0.7,0.1-1.3,0.1-2,0.2c-1.3,0.1-2.5,0.2-3.8,0.3c-0.8,0-1.6,0-2.4,0.1c-1,0-2.1,0-3.1,0c-0.9,0-1.7,0-2.6-0.1
				c-1,0-1.9-0.1-2.8-0.2c-0.9-0.1-1.7-0.1-2.6-0.2c-0.9-0.1-1.9-0.2-2.8-0.3c-0.9-0.1-1.7-0.2-2.5-0.3c-1-0.2-2-0.3-3-0.5
				c-0.8-0.1-1.5-0.3-2.3-0.5c-1.2-0.3-2.4-0.6-3.5-0.9c-0.6-0.2-1.3-0.3-1.9-0.5c-2.1-0.6-4.1-1.3-6-2c-1-0.4-2-0.8-2.9-1.3
				c-0.5-0.2-0.9-0.4-1.4-0.6c-1.4-0.7-2.8-1.4-4.1-2.1c-11.1-6.4-16.6-14.8-16.6-23.2L212.6,270c0,8.4,5.5,16.8,16.6,23.2
				c1.3,0.8,2.7,1.5,4.1,2.1c0.5,0.2,1,0.4,1.5,0.6c0.8,0.4,1.6,0.8,2.5,1.1c0.1,0,0.2,0.1,0.3,0.1c2,0.8,4,1.5,6.1,2.1
				c0.2,0,0.3,0.1,0.5,0.2c0.5,0.1,0.9,0.2,1.4,0.3c1.2,0.3,2.4,0.6,3.6,0.9c0.3,0.1,0.6,0.2,0.9,0.2c0.4,0.1,0.9,0.1,1.3,0.2
				c1,0.2,2,0.4,3,0.5c0.4,0.1,0.8,0.2,1.2,0.2c0.4,0.1,0.9,0.1,1.3,0.2c0.9,0.1,1.9,0.2,2.8,0.3c0.4,0,0.9,0.1,1.3,0.1
				c0.4,0,0.8,0,1.2,0.1c1,0.1,2,0.1,2.9,0.1c0.5,0,0.9,0.1,1.4,0.1c0.4,0,0.7,0,1.1,0c1,0,2.1,0,3.1,0c0.5,0,1,0,1.5,0
				c0.3,0,0.6,0,0.9-0.1c1.3-0.1,2.6-0.2,3.9-0.3c0.5,0,1,0,1.5-0.1c0.2,0,0.3,0,0.5-0.1c2.2-0.2,4.3-0.5,6.4-0.9c0.1,0,0.2,0,0.3,0
				c0.6-0.1,1.2-0.3,1.8-0.4c1.1-0.2,2.1-0.4,3.2-0.7c0.7-0.2,1.4-0.4,2.2-0.6c1-0.3,2-0.5,2.9-0.8c0.2-0.1,0.4-0.1,0.6-0.2
				c0.3-0.1,0.6-0.3,1-0.4c1.5-0.5,3-1.1,4.5-1.7c0.5-0.2,1.1-0.5,1.6-0.7c1.8-0.8,3.6-1.7,5.3-2.7c0.2-0.1,0.5-0.3,0.7-0.4
				c0.5-0.3,1-0.6,1.4-1c0.7-0.4,1.4-0.9,2-1.4c0.6-0.4,1-0.8,1.6-1.3c0.6-0.5,1.2-0.9,1.7-1.4c0.1-0.1,0.3-0.2,0.4-0.3
				c0.7-0.7,1.4-1.3,2-2c0.1-0.1,0.2-0.3,0.4-0.4c0.4-0.4,0.7-0.8,1.1-1.3c0.2-0.2,0.3-0.4,0.4-0.6c0.5-0.6,0.9-1.3,1.3-2
				c0.2-0.3,0.4-0.5,0.6-0.8c0.1-0.1,0.1-0.3,0.2-0.4c0.3-0.6,0.6-1.1,0.8-1.7c0.2-0.4,0.4-0.7,0.5-1c0-0.1,0.1-0.3,0.1-0.4
				c0.2-0.5,0.3-1.1,0.5-1.6c0.1-0.4,0.3-0.8,0.4-1.2c0-0.1,0-0.2,0-0.3c0.1-0.6,0.1-1.1,0.2-1.7c0-0.4,0.1-0.8,0.1-1.2
				c0-0.2,0-0.3,0-0.5l0.3-110.3C325.4,160.6,325.3,161.1,325.3,161.7z"/>
		</g>
	</g>
	<polygon class="st6" points="477.3,254.1 916.2,507.5 651.5,661.3 212.6,407.9 	"/>
	<g>
		<g class="st15">
			<g>
				<polygon class="st16" points="462.3,255.4 462.3,274.5 401.5,309.9 401.5,290.9 				"/>
			</g>
			<g>
				<polygon class="st17" points="537.2,298.6 537.1,317.7 462.3,274.5 462.3,255.4 				"/>
			</g>
			<g>
				<polygon class="st18" points="537.2,298.6 537.1,317.7 476.3,353.1 476.3,334 				"/>
			</g>
			<g>
				<polygon class="st19" points="476.3,334 476.3,353.1 401.5,309.9 401.5,290.9 				"/>
			</g>
			<g>
				<polygon class="st16" points="274.6,364.6 274.6,383.7 254.5,395.3 254.5,376.3 				"/>
			</g>
			<g>
				<polygon class="st17" points="349.4,407.8 349.3,426.8 274.6,383.7 274.6,364.6 				"/>
			</g>
			<g>
				<polygon class="st20" points="349.4,407.8 329.3,419.4 254.5,376.3 274.6,364.6 				"/>
			</g>
			<g>
				<polygon class="st19" points="329.3,419.4 329.3,438.5 254.5,395.3 254.5,376.3 				"/>
			</g>
			<g>
				<polygon class="st18" points="349.4,407.8 349.3,426.8 329.3,438.5 329.3,419.4 				"/>
			</g>
			<g>
				<polygon class="st16" points="554.8,308.8 554.8,327.9 342.2,451.5 342.2,432.3 				"/>
			</g>
			<g>
				<polygon class="st17" points="836.3,471.3 836.3,490.4 554.8,327.9 554.8,308.8 				"/>
			</g>
			<g>
				<polygon class="st21" points="623.7,594.8 623.6,614 342.2,451.5 342.2,432.3 				"/>
			</g>
			<g>
				<polygon class="st22" points="836.3,471.3 836.3,490.4 623.6,614 623.7,594.8 				"/>
			</g>
			<g>
				<g>
					<polygon class="st20" points="836.3,471.3 623.7,594.8 342.2,432.3 554.8,308.8 					"/>
				</g>
			</g>
			<g>
				<path class="st23" d="M462.6,238.8l407.9,235.5L624.6,617.2L216.7,381.7L462.6,238.8z M623.7,594.8l212.6-123.5L554.8,308.8
					L342.2,432.3L623.7,594.8L623.7,594.8z M476.3,334l60.9-35.4l-74.8-43.2l-60.9,35.4L476.3,334L476.3,334z M329.3,419.4
					l20.1-11.6l-74.8-43.2l-20.1,11.7L329.3,419.4L329.3,419.4z"/>
			</g>
			<g>
				<g>
					<polygon class="st20" points="537.2,298.6 476.3,334 401.5,290.9 462.3,255.4 					"/>
				</g>
			</g>
			<g>
				<g>
					<polygon class="st20" points="870.5,474.3 870.4,493.4 624.5,636.3 624.6,617.2 					"/>
				</g>
			</g>
			<g>
				<polygon class="st20" points="624.6,617.2 624.5,636.3 216.7,400.8 216.7,381.7 				"/>
			</g>
		</g>
	</g>
	<g>
		<path class="st6" d="M547.9,415.3c-45,26-45.2,68.1-0.5,94.1c44.7,26,117.4,26,162.4,0c45-26,45.2-68.1,0.5-94.1
			C665.6,389.4,592.9,389.4,547.9,415.3z"/>
		<g>
			<g>
				<path class="st24" d="M522.7,232.4c0,0-9.8,12.8-10.7,16.2c-0.8,3.4-4.9,17.6,2.2,27.2c3.8,5.2,5.9-2.1,6.9-11.6
					c0.4-4.3-0.2-7.6,5.4-12.3c4.1-3.4,8.7-10.2,10.4-13.7C538.6,234.6,522.7,232.4,522.7,232.4z"/>
				<path class="st25" d="M536.7,238.9c-1.7,3.5-6.7,9.7-7.5,14.9c-0.9,6.3-7.7,6-8.2,10.3c-0.8,7.4-2.4,13.6-4.7,13.4
					c1-5.6-5.5-9.8,1.4-22.8c2.5-4.7,10.9-14.6,15.7-18.7C536.3,237.4,537.4,237.5,536.7,238.9z"/>
				<path class="st24" d="M532.7,236c0,0-2,18.1-3.3,23.5c-1.4,5.4-4.6,8.6-5.3,7.4c-0.7-1.2,2.5-17.4-3.3-16.9
					C517.7,250.2,531.9,238.5,532.7,236z"/>
			</g>
			<path class="st26" d="M574.8,89.7c0,0-18.2-4-25.3,32.2c-7.1,36.1-6.9,50.2-12.1,62.6c-5.2,12.4-18.9,52.7-18.9,52.7
				s11.5,0.4,16,9c0,0,29.2-49.9,34.8-71.7C574.9,152.5,593.8,99.4,574.8,89.7z"/>
			<path class="st27" d="M537.4,184.5c5.2-12.4,5-26.5,12.1-62.6c3.9-19.7,11-27.4,16.8-30.5c17.2,11.1-1,62.7-6.5,84.1
				c-4.2,16.4-21,49.9-29.3,65.8c-6.1-4.4-11.9-4.2-11.9-4.2S532.2,196.9,537.4,184.5z"/>
		</g>
		<path class="st28" d="M625.2,421.8c0,0,4.8,11.2,0,14.2c-4.8,2.9-5.5,6.1-13.2,5.5c-7.7-0.6-6.6,1.9-9.3,4.8
			c-2.6,2.9-30,14.8-35.1,9c-5.1-5.8,9.3-12.6,14.4-15.9c5.2-3.4,17.4-16.9,17.7-20.7C600.1,414.7,625.2,421.8,625.2,421.8z"/>
		<path class="st29" d="M625.2,435.9c-4.8,2.9-5.5,6.1-13.2,5.5c-7.7-0.6-6.6,1.9-9.3,4.8c-2.6,2.9-30,14.8-35.1,9
			c-1.8-2-1.2-4.1,0.4-6.1c1.9,0.3,4.5,0.8,8,1.4c8,1.4,18.4-7.9,22.4-11.3c4-3.4,9-2.1,16-3.3c6.9-1.1,5.9-11.7,5.9-11.7l5.1-1.8
			C626.4,425,629.3,433.4,625.2,435.9z"/>
		<path class="st28" d="M674,458.3c0,0,2,13.3-3.1,20.5c-5.1,7.2-16.3,19.7-21.2,19.1c-4.9-0.6-5.6-2.8-5.6-2.8s-2.1-10.8,1.5-21.6
			c3.6-10.8,3.8-15.3,3.8-15.3H674z"/>
		<path class="st29" d="M670.9,478.8c-4.5,6.3-13.7,16.7-19.2,18.8c7.2-9.3-3.6-7.4,4.5-11.8c11.2-6.1,4-11.1,9-12.6
			c5-1.4,1.3-13.7,1.3-13.7l2.7-1.2h4.7C674,458.3,676,471.6,670.9,478.8z"/>
		<path class="st30" d="M614.8,241.8c0,0-23-2.5-30.6-19.5c0,0-2.1,37.5,2.6,81c4.6,43.5,8.5,120,8.5,120s14.9,14,30.2,0
			c0,0,4.3-50.5,0-78.5c0,0,2.9-49-1.9-73.5C618.7,246.9,614.8,241.8,614.8,241.8z"/>
		<path class="st31" d="M595.2,423.4c0,0-3.9-76.5-8.5-120c-4.6-43.5-3.1-86.7-3.1-86.7c5.6,12.5,20,22.8,26.9,24.4
			c-0.6,16.6-2.1,65.6-1.9,81.8c0.2,15.5,3.3,79.6,4.6,106.5C603.1,430.8,595.2,423.4,595.2,423.4z"/>
		<path class="st30" d="M668.8,239.2c0,0,2.2,25.5,2.7,65c0.5,39.5,3.4,54.4,4.3,60.5c0.9,6.1,4.3,72.2,2.4,91.5
			c0,0-12.5,19.3-32.2,0c0,0-3.3-67.8-6.7-83.3c-3.4-15.4-22.2-90.4-29.8-117.3c-3.3-11.9-4.1-16.4-4.1-16.4S638.6,263,668.8,239.2z
			"/>
		<path class="st31" d="M646,456.2c0,0-3.3-67.8-6.7-83.3c-3.4-15.4-22.2-90.4-29.8-117.3c-3.3-11.9-11.1-21-11.1-21
			s21.8,15.3,40.6,15.2c0.8,5.8,8.8,61.2,10.7,85.4c1.8,24,18.3,108.4,13.9,129.6C658.7,464.9,652.8,462.9,646,456.2z"/>
		<path class="st27" d="M617.4,84.7c0,0,37.4,12.6,38.7,15.2c1.3,2.5,11.2,7.7,2.8,40.1c0,0-12.4,35.8,1.1,67.7
			c7.9,18.5,13.8,27.9,13.8,27.9s-12.1,25.2-57.8,15.6c-9.2-1.9-25.7-11.7-31.5-20.7c0,0-0.1-29-10.4-61.3
			c-10.3-32.4-19.7-75-1.7-83.5C572.3,85.7,576.2,79.2,617.4,84.7z"/>
		<g>
			<path class="st24" d="M608.2,56.5c0,0-4.1,19.1,7.8,26.3c6.6,4,1.5,21.7-16.8,27.5c0,0-8.7,1.1-9-2.1c-0.7-7.3-4.8-10-9.6-13.9
				C575.9,90.5,608.2,56.5,608.2,56.5z"/>
			<path class="st32" d="M616,82.9c0.8,0.5,1.4,1.1,1.9,2c-9.4-4.2-22.4,0.2-22.4,0.2l9.7-25.3c0.5-0.6,1-1.1,1.4-1.5l1.2,1.5
				C607.2,65.5,607.1,77.5,616,82.9z"/>
			<g>
				<path class="st24" d="M608.6,46.6c0,0,3.5,21.8-6.9,36.4c-9.1,12.9-21.4,23.8-29.7,10.1c-6.6-10.8-23.8-38.3-15.9-48.3
					c10.3-12.8,11.5-24.2,29-24.5C585.2,20.3,605.9,21.5,608.6,46.6z"/>
				<path class="st25" d="M608.6,46.6c0,0,5.1,17.9-6.7,36.6c-2.5,4-6.3,7.9-9.2,10.7c4.6-7.3,4.7-9,7.5-16.8
					c2.8-7.8-8.8-0.7-6.1-18.9c0.9-6.2-10.7,5.9-13.9,7c-19.1,6.8-21.9-4.5-24-9c-0.4-2.2-0.6-4.3-0.6-6.2l0.5-4.1
					c0.1-0.4,0.2-0.8,0.3-1.2c1.1-3.4,2.2-6.4,3.5-9.1c8.2-3,31.4-11.4,31.9-11.5c0.4,0,6.4,3.8,12.1,7.5
					C606.1,35.3,608,40.1,608.6,46.6z"/>
				<path class="st33" d="M607.9,69.3c0,0,9.9-20-3.3-38.1c0,0-9.2-15.1-28-10.3c-9,2.3-23.6,9.5-23.4,29.4
					c0.1,6.2,4.3,17.3,23.4,3.5c2.7-2,10.4-6.2,14.3-4.7c3.9,1.5,6.1,6.2,6.3,10.9c0.2,4.1,3.5,3.2,3.7,2.3
					c0.1-0.9,0.2-12.8,5.7-10.3C611.4,54.3,608,68.4,607.9,69.3z"/>
				<path class="st34" d="M607.9,69.3c0.1-0.9,3.5-15-1.3-17.3c-5.4-2.5-5.5,9.3-5.7,10.3c-0.1,0.9-3.5,1.8-3.7-2.3
					c-0.2-4.7-2.4-9.4-6.3-10.9c-3.5-1.4-10.1,2.6-14.3,4.7c2.6-3.6,9.4-7.2,9.6-14c0.3-9.2,3.6-14.7,7.5-17.8
					c7.3,3.3,10.8,9.2,10.8,9.2C617.8,49.3,607.9,69.3,607.9,69.3z"/>
			</g>
			<path class="st33" d="M577.8,54.1c0,0,11.1-8.1,11.6-21.5c0.1-2.9,1.4-8,5.4-10.1c0,0-10.2-6.8-26.8,1
				c-7.8,3.7-13.5,14.4-14.6,16.7C547.6,52.4,555.8,70.7,577.8,54.1z"/>
		</g>
		<path class="st26" d="M656,99.9c1.3,2.5,11.2,7.7,2.8,40.1c0,0-12.4,35.8,1.1,67.7c7.9,18.5,13.8,27.9,13.8,27.9
			s-6,12.4-25.6,16.5c-11-27.5-16.5-79.3-21.4-114.7c-3.2-22.8,5.1-37,12.5-44.9C647.7,95.6,655.5,98.7,656,99.9z"/>
		<path class="st27" d="M633.3,106.1c1.3-9.9,14.5-21.5,26.1-1.9c11.6,19.6,33.3,81.9,25.3,91c-3.1,3.5-8.7,7.8-13.9,4.4
			c-8.1-5.4-16.2-22.2-19.3-31.7C646.5,152.3,632.2,115.4,633.3,106.1z"/>
		<g>
			<g>
				<polygon class="st35" points="434.9,437.7 509.3,384.2 493.1,393.7 				"/>
			</g>
			<g>
				<polygon class="st23" points="434.9,437.7 493.1,393.7 455.6,358.1 				"/>
			</g>
			<g>
				<g>
					<polygon class="st36" points="673.4,134.9 493.1,393.7 509.3,384.2 689.4,125.2 					"/>
				</g>
			</g>
			<g>
				<g>
					<polygon class="st23" points="646.4,122 466.1,380.7 493.1,393.7 673.4,134.9 					"/>
				</g>
			</g>
			<g>
				<g>
					<polygon class="st36" points="635.7,99.1 455.6,358.1 466.1,380.7 646.4,122 					"/>
				</g>
			</g>
			<g>
				<g>
					<polygon class="st37" points="646.4,122 673.4,134.9 689.4,125.2 678.7,102.6 651.8,89.5 635.7,99.1 					"/>
				</g>
			</g>
			<g>
				<g>
					<polygon class="st23" points="657.4,116.6 669.2,122.3 676.3,118.2 671.5,108.1 659.7,102.3 652.6,106.5 					"/>
				</g>
			</g>
			<g>
				<polygon class="st36" points="434.9,437.7 466.1,380.7 455.6,358.1 				"/>
			</g>
			<g>
				<polygon class="st38" points="441.4,426.1 434.9,437.7 439.1,421.6 				"/>
			</g>
			<g>
				<polygon class="st39" points="441.4,426.1 447.1,429.1 434.9,437.7 				"/>
			</g>
		</g>
		<path class="st25" d="M615.4,210c0,0-13.8,1.5-16.7-0.5c-2.9-2-6.6,1.3-3,3.4c3.7,2.1,8.5,2.2,8.5,2.2s-15.3,5.2-18,1
			c-2.6-4.2,1.8,12.6,9.6,13.7c7.8,1.2,16.2,3.9,28.4-11.9C624.3,217.9,622,211.7,615.4,210z"/>
		<path class="st27" d="M685.6,192.4c0,0-20.2,27.1-67.2,32.4c0,0,1.7-7.1-5.2-14.3C613.2,210.5,690.4,144.9,685.6,192.4z"/>
	</g>
</g>
</svg>
