<?xml version="1.0" encoding="utf-8"?>
<!-- Generator: Adobe Illustrator 22.0.1, SVG Export Plug-In . SVG Version: 6.00 Build 0)  -->
<svg version="1.1" id="a5860ba0-ef67-4914-ac96-07e2ebcccb4f"
	 xmlns="http://www.w3.org/2000/svg" xmlns:xlink="http://www.w3.org/1999/xlink" x="0px" y="0px" viewBox="0 0 1095.7 664"
	 style="enable-background:new 0 0 1095.7 664;" xml:space="preserve">
<style type="text/css">
	.st0{opacity:0.1;}
	.st1{fill:#E53399;}
	.st2{fill:#FF76C4;}
	.st3{fill:#73C139;}
	.st4{fill:#4D9B12;}
	.st5{fill:url(#SVGID_1_);}
	.st6{fill:#FFE85F;}
	.st7{fill:url(#SVGID_2_);}
	.st8{fill:url(#SVGID_3_);}
	.st9{fill:#95C4DE;}
	.st10{fill:#DEF6FF;}
	.st11{fill:url(#SVGID_4_);}
	.st12{fill:#A9D6EA;}
	.st13{fill:#72B5D3;}
	.st14{fill:url(#SVGID_5_);}
	.st15{fill:#FFFFFE;}
	.st16{fill:#ED8001;}
	.st17{fill:#58361A;}
	.st18{fill:#F79534;}
	.st19{fill:#FACD00;}
	.st20{enable-background:new    ;}
	.st21{fill:#649DD5;}
	.st22{fill:#8FC1EA;}
	.st23{opacity:0.8;}
	.st24{fill:#0A1014;}
	.st25{fill:#111114;}
	.st26{fill:#131C24;}
	.st27{fill:#1D1D21;}
	.st28{fill:#161619;}
	.st29{fill:#779F29;}
	.st30{fill:#1D2833;}
	.st31{fill:#9CBC35;}
	.st32{fill:#FEFFFF;}
	.st33{fill:#EFB185;}
	.st34{fill:#DD9569;}
	.st35{fill:#F2B78F;}
	.st36{fill:#E6A376;}
	.st37{fill:#CC963E;}
	.st38{fill:#F7C479;}
	.st39{fill:#8CB230;}
</style>
<g>
	<g>
		<g>
			<g class="st0">
				<g>
					<path d="M248.3,250.4c-30.1,17.4-30.2,45.5-0.4,62.8c29.8,17.4,78.3,17.4,108.4,0c30-17.3,30.2-45.4,0.4-62.7
						C326.9,233.1,278.3,233.1,248.3,250.4z"/>
				</g>
			</g>
			<g>
				<g>
					<path class="st1" d="M241.7,135.8c-23.2,13.4-23.3,35.1-0.3,48.5c23.1,13.4,60.5,13.4,83.7,0c23.2-13.4,23.3-35.1,0.3-48.5
						C302.4,122.4,264.9,122.4,241.7,135.8z"/>
				</g>
				<path class="st2" d="M241.4,184.3c23.1,13.4,60.5,13.4,83.7,0c23.2-13.4,23.3-35.1,0.3-48.5c-23-13.4-60.5-13.4-83.7,0
					C218.5,149.2,218.4,170.9,241.4,184.3z M249.2,140.1c19-11,49.8-11,68.7,0c18.9,11,18.8,28.8-0.2,39.8c-19,11-49.8,11-68.7,0
					C230.1,168.9,230.2,151.1,249.2,140.1z"/>
				<g>
					<path class="st3" d="M317.9,73.3c0,0,0,0.1,0,0.1c0,0.2,0.1,0.4,0.2,0.6c0,0,0,0.1,0.1,0.1c0.1,0.2,0.3,0.4,0.4,0.6
						c0.1,0.1,0.3,0.3,0.4,0.4c0.1,0.1,0.2,0.2,0.4,0.3c0.5,0.4,1.2,0.8,1.8,1c0.1,0,0.2,0.1,0.3,0.1c0.7,0.2,1.4,0.4,2.2,0.5
						c0,0,0.1,0,0.1,0c0.8,0.1,1.6,0.1,2.4,0.1c0,0,0.1,0,0.1,0c0.8-0.1,1.5-0.2,2.2-0.5c1.3-0.6,2.1-1.4,2.2-2.4l-22.7,172.8
						c-0.1,1-0.9,1.8-2.2,2.4c-0.3,0.1-0.6,0.2-1,0.3c-0.3,0.1-0.5,0.1-0.8,0.2c-0.1,0-0.3,0-0.4,0c0,0,0,0-0.1,0
						c-0.1,0-0.1,0-0.2,0c-0.2,0-0.4,0-0.6,0l0-0.1l0,0l0,0.1c-0.2,0-0.4,0-0.6,0c-0.2,0-0.4,0-0.6-0.1c-0.1,0-0.1,0-0.2,0
						c0,0-0.1,0-0.1,0c-0.1,0-0.2,0-0.3-0.1c-0.2,0-0.5-0.1-0.7-0.2c-0.3-0.1-0.5-0.1-0.8-0.2c-0.1,0-0.2-0.1-0.3-0.1
						c-0.1,0-0.2-0.1-0.3-0.1c-0.2-0.1-0.4-0.1-0.5-0.2c-0.5-0.2-0.9-0.5-1.3-0.8c0,0,0,0-0.1-0.1c-0.1-0.1-0.2-0.2-0.3-0.3
						c-0.2-0.1-0.3-0.3-0.4-0.4c0,0,0,0,0,0c-0.1-0.2-0.2-0.3-0.3-0.5c0,0,0-0.1,0-0.1c0,0,0-0.1,0-0.1c0-0.1-0.1-0.1-0.1-0.2
						c0-0.1-0.1-0.2-0.1-0.4c0,0,0,0,0-0.1c0,0,0-0.1,0-0.1c0-0.1,0-0.2,0-0.2c0-0.1,0-0.3,0-0.4c0,0,0,0,0-0.1l22.7-172.8
						C317.8,72.8,317.8,73,317.9,73.3z"/>
					<g>
						<path class="st4" d="M320.1,70.2c-2.7,1.1-3,3.4-0.7,5.2c2.3,1.8,6.3,2.3,9,1.2c2.7-1.1,3-3.4,0.7-5.2
							C326.8,69.7,322.8,69.1,320.1,70.2z"/>
					</g>
				</g>
				<g>
					<path class="st3" d="M280.8,65.2c0,0,0,0.1,0,0.1c0.1,0.2,0.1,0.4,0.2,0.6c0,0,0.1,0.1,0.1,0.1c0.1,0.2,0.3,0.4,0.4,0.6
						c0.1,0.1,0.3,0.3,0.4,0.4c0.1,0.1,0.2,0.2,0.4,0.3c0.5,0.4,1.2,0.8,1.8,1c0.1,0,0.2,0.1,0.3,0.1c0.7,0.2,1.4,0.4,2.2,0.5
						c0,0,0.1,0,0.1,0c0.8,0.1,1.6,0.1,2.3,0.1c0,0,0.1,0,0.1,0c0.8-0.1,1.5-0.3,2.2-0.5c1.4-0.6,2.1-1.4,2.3-2.4L270.8,239
						c-0.1,1-0.9,1.8-2.2,2.4c-0.3,0.1-0.6,0.2-1,0.3c-0.3,0.1-0.5,0.1-0.8,0.2c-0.1,0-0.3,0-0.4,0c0,0-0.1,0-0.1,0
						c-0.1,0-0.1,0-0.2,0c-0.2,0-0.4,0-0.7,0l0-0.1l0,0l0,0.1c-0.2,0-0.4,0-0.6,0c-0.2,0-0.4,0-0.6-0.1c-0.1,0-0.2,0-0.2,0
						c0,0-0.1,0-0.1,0c-0.1,0-0.2,0-0.3,0c-0.2,0-0.5-0.1-0.7-0.2c-0.3-0.1-0.5-0.1-0.8-0.2c-0.1,0-0.2-0.1-0.3-0.1
						c-0.1,0-0.2-0.1-0.3-0.1c-0.2-0.1-0.4-0.1-0.5-0.2c-0.5-0.2-0.9-0.5-1.3-0.8c0,0-0.1,0-0.1-0.1c-0.1-0.1-0.2-0.2-0.3-0.3
						c-0.1-0.1-0.3-0.3-0.4-0.4c0,0,0,0,0,0c-0.1-0.2-0.2-0.3-0.3-0.5c0,0,0-0.1,0-0.1c0,0,0-0.1-0.1-0.1c0-0.1-0.1-0.1-0.1-0.2
						c-0.1-0.1-0.1-0.3-0.1-0.4c0,0,0,0,0,0c0,0,0-0.1,0-0.1c0-0.1,0-0.2,0-0.2c0-0.1,0-0.3,0-0.4c0,0,0-0.1,0-0.1l22.7-172.8
						C280.7,64.8,280.7,65,280.8,65.2z"/>
					<g>
						<path class="st4" d="M283,62.2c-2.7,1.1-3,3.5-0.7,5.2c2.3,1.8,6.3,2.3,9,1.2c2.7-1.1,3-3.4,0.7-5.2
							C289.7,61.6,285.7,61.1,283,62.2z"/>
					</g>
				</g>
				<g>
					<path class="st3" d="M219.2,83.5C219.3,83.5,219.3,83.5,219.2,83.5c0.2,0.3,0.3,0.4,0.5,0.5c0,0,0.1,0.1,0.1,0.1
						c0.2,0.1,0.4,0.3,0.6,0.4c0.2,0.1,0.4,0.1,0.6,0.2c0.1,0.1,0.3,0.1,0.5,0.2c0.7,0.1,1.4,0.2,2.1,0.1c0.1,0,0.2,0,0.3,0
						c0.7-0.1,1.5-0.2,2.2-0.4c0,0,0.1,0,0.1,0c0.8-0.2,1.5-0.6,2.1-1c0,0,0.1,0,0.1,0c0.7-0.4,1.2-0.9,1.7-1.4c1-1.1,1.3-2.2,1-3.1
						l53.2,165.9c0.3,0.9,0,2-1,3.1c-0.2,0.2-0.5,0.5-0.8,0.7c-0.2,0.2-0.4,0.3-0.7,0.5c-0.1,0.1-0.2,0.1-0.3,0.2c0,0-0.1,0-0.1,0.1
						c-0.1,0-0.1,0.1-0.2,0.1c-0.2,0.1-0.4,0.2-0.6,0.3l0-0.1l0,0l0,0.1c-0.2,0.1-0.4,0.2-0.6,0.3c-0.2,0.1-0.4,0.2-0.6,0.2
						c-0.1,0-0.1,0-0.2,0.1c0,0,0,0-0.1,0c-0.1,0-0.2,0.1-0.3,0.1c-0.2,0.1-0.5,0.1-0.7,0.2c-0.3,0.1-0.6,0.1-0.8,0.1
						c-0.1,0-0.2,0-0.4,0c-0.1,0-0.2,0-0.3,0c-0.2,0-0.4,0-0.6,0c-0.5,0-1-0.1-1.5-0.2c0,0,0,0-0.1,0c-0.1,0-0.2-0.1-0.4-0.1
						c-0.2-0.1-0.4-0.1-0.5-0.2c0,0,0,0-0.1,0c-0.2-0.1-0.3-0.2-0.5-0.3c0,0-0.1-0.1-0.1-0.1c0,0-0.1,0-0.1-0.1c0,0-0.1-0.1-0.2-0.1
						c-0.1-0.1-0.2-0.2-0.3-0.3c0,0,0,0,0,0c0,0,0-0.1-0.1-0.1c0-0.1-0.1-0.1-0.1-0.2c-0.1-0.1-0.1-0.2-0.2-0.3c0,0,0,0,0-0.1
						L218.9,82.9C219,83.1,219.1,83.3,219.2,83.5z"/>
					<g>
						<path class="st4" d="M219.9,79.8c-2,2.1-1.3,4.4,1.6,5c2.8,0.6,6.7-0.6,8.7-2.8c2-2.2,1.3-4.4-1.6-5
							C225.8,76.4,221.9,77.6,219.9,79.8z"/>
					</g>
				</g>
				<g>
					
						<linearGradient id="SVGID_1_" gradientUnits="userSpaceOnUse" x1="967.1202" y1="170.1653" x2="1005.7644" y2="170.1653" gradientTransform="matrix(-1 0 0 1 1281.5391 0)">
						<stop  offset="0" style="stop-color:#FFDF02"/>
						<stop  offset="0.1253" style="stop-color:#F9D402"/>
						<stop  offset="0.4425" style="stop-color:#ECBD01"/>
						<stop  offset="0.7411" style="stop-color:#E4AF00"/>
						<stop  offset="1" style="stop-color:#E1AA00"/>
					</linearGradient>
					<path class="st5" d="M276,84.2C276,84.2,276,84.2,276,84.2c0.1,0.3,0.2,0.4,0.4,0.6c0,0,0.1,0.1,0.1,0.1
						c0.2,0.2,0.4,0.3,0.6,0.5c0.1,0.1,0.3,0.2,0.5,0.3c0.1,0.1,0.3,0.2,0.4,0.2c0.6,0.3,1.3,0.4,2.1,0.5c0.1,0,0.2,0,0.3,0
						c0.7,0,1.5,0,2.2-0.1c0,0,0.1,0,0.1,0c0.8-0.1,1.6-0.3,2.3-0.6c0,0,0.1,0,0.1,0c0.7-0.3,1.4-0.7,2-1.1c1.2-0.9,1.6-2,1.5-2.9
						l25.9,172.3c0.1,1-0.4,2-1.5,2.9c-0.3,0.2-0.5,0.4-0.8,0.6c-0.2,0.1-0.5,0.3-0.7,0.4c-0.1,0-0.2,0.1-0.4,0.2c0,0,0,0-0.1,0
						c-0.1,0-0.1,0.1-0.2,0.1c-0.2,0.1-0.4,0.1-0.6,0.2c-0.2,0.1-0.4,0.1-0.6,0.2c-0.2,0.1-0.4,0.1-0.6,0.1c-0.1,0-0.2,0-0.2,0
						c0,0,0,0-0.1,0c-0.1,0-0.2,0-0.3,0c-0.2,0-0.5,0-0.7,0.1c-0.3,0-0.5,0-0.8,0c-0.1,0-0.2,0-0.4,0c-0.1,0-0.2,0-0.3,0
						c-0.2,0-0.4,0-0.6-0.1c-0.5-0.1-1-0.2-1.5-0.4c0,0-0.1,0-0.1,0c-0.1-0.1-0.2-0.1-0.3-0.2c-0.2-0.1-0.4-0.2-0.5-0.3c0,0,0,0,0,0
						c-0.2-0.1-0.3-0.2-0.5-0.4c0,0,0-0.1-0.1-0.1c0,0,0-0.1-0.1-0.1c-0.1,0-0.1-0.1-0.1-0.2c-0.1-0.1-0.2-0.2-0.2-0.3
						c0,0,0,0,0-0.1c0,0,0-0.1,0-0.1c0-0.1-0.1-0.2-0.1-0.2c0-0.1-0.1-0.2-0.1-0.4c0,0,0,0,0-0.1L275.8,83.5
						C275.8,83.7,275.9,84,276,84.2z"/>
					<g>
						<path class="st6" d="M277.3,80.6c-2.3,1.8-1.9,4.1,0.7,5.2c2.7,1.1,6.7,0.5,9-1.3c2.3-1.8,2-4.2-0.7-5.2
							C283.6,78.2,279.6,78.8,277.3,80.6z"/>
					</g>
				</g>
				<g>
					
						<linearGradient id="SVGID_2_" gradientUnits="userSpaceOnUse" x1="1002.8696" y1="209.1605" x2="1041.5173" y2="209.1605" gradientTransform="matrix(-0.9906 -0.137 -0.137 0.9906 1306.2448 87.5367)">
						<stop  offset="0" style="stop-color:#FFDF02"/>
						<stop  offset="0.1253" style="stop-color:#F9D402"/>
						<stop  offset="0.4425" style="stop-color:#ECBD01"/>
						<stop  offset="0.7411" style="stop-color:#E4AF00"/>
						<stop  offset="1" style="stop-color:#E1AA00"/>
					</linearGradient>
					<path class="st7" d="M257.9,66.9C257.9,66.9,257.9,66.9,257.9,66.9c0.1,0.3,0.2,0.5,0.3,0.7c0,0,0.1,0.1,0.1,0.1
						c0.1,0.2,0.3,0.4,0.5,0.6c0.1,0.1,0.3,0.2,0.5,0.3c0.1,0.1,0.2,0.2,0.4,0.3c0.6,0.3,1.3,0.6,2,0.8c0.1,0,0.2,0,0.3,0.1
						c0.7,0.2,1.5,0.3,2.2,0.3c0,0,0.1,0,0.1,0c0.8,0,1.6-0.1,2.3-0.3c0,0,0,0,0.1,0c0.8-0.2,1.5-0.5,2.1-0.8
						c1.3-0.7,1.9-1.7,1.9-2.7l2,174.2c0,1-0.6,1.9-1.9,2.7c-0.3,0.2-0.6,0.3-0.9,0.5c-0.3,0.1-0.5,0.2-0.8,0.3
						c-0.1,0-0.2,0.1-0.4,0.1c0,0-0.1,0-0.1,0c-0.1,0-0.1,0-0.2,0.1c-0.2,0.1-0.4,0.1-0.6,0.1c-0.2,0-0.4,0.1-0.6,0.1
						c-0.2,0-0.4,0-0.6,0c-0.1,0-0.2,0-0.2,0c0,0,0,0-0.1,0c-0.1,0-0.2,0-0.3,0c-0.2,0-0.5,0-0.7,0c-0.3,0-0.6-0.1-0.8-0.1
						c-0.1,0-0.2-0.1-0.4-0.1c-0.1,0-0.2-0.1-0.3-0.1c-0.2,0-0.4-0.1-0.6-0.1c-0.5-0.2-1-0.3-1.4-0.6c0,0,0,0-0.1-0.1
						c-0.1-0.1-0.2-0.2-0.3-0.2c-0.2-0.1-0.3-0.2-0.5-0.3c0,0,0,0,0,0c-0.2-0.1-0.3-0.3-0.4-0.4c0,0-0.1-0.1-0.1-0.1
						c0,0,0-0.1-0.1-0.1c-0.1-0.1-0.1-0.1-0.1-0.2c-0.1-0.1-0.1-0.2-0.2-0.4c0,0,0,0,0-0.1c0,0,0,0,0-0.1c0-0.1-0.1-0.2-0.1-0.2
						c0-0.1-0.1-0.2-0.1-0.4c0,0,0,0,0-0.1l-2-174.2C257.7,66.4,257.8,66.7,257.9,66.9z"/>
					<g>
						<path class="st6" d="M259.6,63.6c-2.5,1.5-2.5,3.8,0,5.3c2.5,1.4,6.6,1.4,9.1-0.1c2.5-1.5,2.5-3.8,0-5.3
							C266.2,62,262.1,62.1,259.6,63.6z"/>
					</g>
				</g>
				<path class="st2" d="M325.1,184.3c-23.2,13.4-60.6,13.4-83.7,0c-15.9-9.3-20.8-22.5-14.6-34.2h11.3c-6.6,10-3,21.8,10.9,29.8
					c18.9,11,49.6,11,68.7,0c14-8.1,17.7-19.8,11.2-29.8h11.2C346.2,161.8,341.2,175,325.1,184.3z"/>
				
					<linearGradient id="SVGID_3_" gradientUnits="userSpaceOnUse" x1="997.959" y1="181.6026" x2="997.959" y2="328.8458" gradientTransform="matrix(-1 0 0 1 1281.5391 0)">
					<stop  offset="0" style="stop-color:#FF4CAA"/>
					<stop  offset="1" style="stop-color:#E53399"/>
				</linearGradient>
				<path class="st8" d="M224.4,161.9c0.1,0.6,0.1,1.2,0.2,1.8c0.1,0.5,0.2,1,0.4,1.5c0.2,0.6,0.3,1.2,0.5,1.8
					c0.2,0.5,0.4,0.9,0.6,1.4c0.3,0.6,0.5,1.3,0.9,1.9c0.2,0.4,0.5,0.9,0.8,1.3c0.4,0.7,0.9,1.4,1.4,2.1c0.5,0.7,1,1.3,1.5,1.9
					c0.1,0.1,0.3,0.3,0.4,0.4c0.8,0.8,1.6,1.7,2.5,2.4c0.6,0.5,1.2,1,1.8,1.5c0.5,0.4,1.1,0.9,1.6,1.3c0.7,0.5,1.4,1,2.1,1.4
					c0.7,0.5,1.5,1,2.2,1.5c1.8,1,3.6,1.9,5.6,2.8c0.6,0.3,1.1,0.5,1.7,0.7c1.5,0.6,3.1,1.2,4.6,1.8c0.6,0.2,1.1,0.4,1.7,0.6
					c1,0.3,2,0.6,3.1,0.9c0.8,0.2,1.6,0.4,2.3,0.6c1.1,0.3,2.2,0.5,3.2,0.7c0.8,0.2,1.5,0.3,2.3,0.5c2.2,0.4,4.5,0.7,6.7,0.9
					c0.7,0.1,1.4,0.1,2.1,0.2c1.3,0.1,2.7,0.2,4,0.3c0.8,0,1.7,0,2.5,0.1c1.1,0,2.2,0,3.2,0c0.9,0,1.8,0,2.7-0.1c1,0,2-0.1,3-0.2
					c0.9-0.1,1.8-0.1,2.7-0.2c1-0.1,2-0.2,3-0.3c0.9-0.1,1.8-0.2,2.7-0.4c1-0.2,2.1-0.3,3.1-0.5c0.8-0.2,1.6-0.3,2.4-0.5
					c1.3-0.3,2.5-0.6,3.7-0.9c0.7-0.2,1.3-0.3,2-0.5c2.2-0.6,4.3-1.3,6.4-2.2c1-0.4,2.1-0.9,3.1-1.3c0.5-0.2,1-0.4,1.4-0.6
					c1.5-0.7,2.9-1.4,4.3-2.3c11.7-6.8,17.5-15.6,17.5-24.4l0.3,116.2c0,8.8-5.8,17.7-17.5,24.4c-1.4,0.8-2.8,1.6-4.4,2.3
					c-0.5,0.2-1.1,0.4-1.6,0.7c-0.9,0.4-1.7,0.8-2.6,1.2c-0.1,0-0.2,0-0.3,0.1c-2.1,0.8-4.2,1.5-6.4,2.2c-0.2,0-0.3,0.1-0.5,0.2
					c-0.5,0.1-1,0.2-1.5,0.4c-1.2,0.3-2.5,0.6-3.7,0.9c-0.3,0.1-0.6,0.2-1,0.2c-0.5,0.1-1,0.2-1.4,0.3c-1.1,0.2-2.1,0.4-3.2,0.6
					c-0.4,0.1-0.8,0.2-1.3,0.2c-0.5,0.1-0.9,0.1-1.4,0.2c-1,0.1-2,0.2-3,0.3c-0.4,0-0.9,0.1-1.4,0.2c-0.4,0-0.8,0-1.3,0.1
					c-1,0.1-2,0.1-3.1,0.2c-0.5,0-1,0.1-1.5,0.1c-0.4,0-0.8,0-1.2,0c-1.1,0-2.2,0-3.3,0c-0.5,0-1.1,0-1.6,0c-0.3,0-0.6-0.1-1-0.1
					c-1.4-0.1-2.7-0.2-4.1-0.3c-0.5,0-1,0-1.6-0.1c-0.2,0-0.3-0.1-0.5-0.1c-2.3-0.2-4.5-0.5-6.7-0.9c-0.1,0-0.2,0-0.3,0
					c-0.6-0.1-1.3-0.3-1.9-0.4c-1.1-0.2-2.2-0.4-3.3-0.7c-0.8-0.2-1.5-0.4-2.3-0.6c-1.1-0.3-2.1-0.6-3.1-0.9
					c-0.2-0.1-0.4-0.1-0.6-0.2c-0.4-0.1-0.7-0.3-1-0.4c-1.6-0.6-3.2-1.1-4.7-1.8c-0.6-0.2-1.1-0.5-1.7-0.7c-1.9-0.9-3.8-1.8-5.6-2.8
					c-0.2-0.1-0.5-0.3-0.7-0.4c-0.5-0.3-1-0.7-1.5-1c-0.7-0.5-1.5-0.9-2.1-1.4c-0.6-0.4-1.1-0.9-1.7-1.3c-0.6-0.5-1.2-1-1.8-1.5
					c-0.1-0.1-0.3-0.2-0.4-0.3c-0.8-0.7-1.5-1.4-2.1-2.2c-0.1-0.1-0.3-0.3-0.4-0.5c-0.4-0.4-0.8-0.9-1.2-1.3
					c-0.2-0.2-0.3-0.4-0.4-0.6c-0.5-0.7-1-1.4-1.4-2c-0.2-0.3-0.4-0.6-0.6-0.9c-0.1-0.1-0.1-0.3-0.2-0.4c-0.3-0.6-0.6-1.2-0.8-1.8
					c-0.2-0.4-0.4-0.7-0.5-1.1c0-0.1-0.1-0.3-0.1-0.4c-0.2-0.5-0.3-1.1-0.5-1.7c-0.1-0.4-0.3-0.8-0.4-1.3c0-0.1,0-0.2-0.1-0.3
					c-0.1-0.6-0.1-1.2-0.2-1.8c0-0.4-0.1-0.9-0.1-1.3c0-0.2,0-0.4,0-0.5l-0.3-116.2C224.2,160.8,224.3,161.3,224.4,161.9z"/>
			</g>
		</g>
		<g>
			<g class="st0">
				<polygon points="810.5,478.8 582.9,611.1 202.8,391.6 430.4,259.4 				"/>
			</g>
			<g>
				<path class="st9" d="M771.6,473.4c-2.7,10-174.7,101.6-174.7,101.6c-11.1,6.4-33.5,5.4-44.7-1.1c-77.8-44.9-305-177.5-305-177.5
					c-11.2-6.5-14.6-23.2-3.5-29.7l179.2-98.3C422.8,268.4,797,379.6,771.6,473.4z"/>
			</g>
			<g>
				<path class="st10" d="M772.8,465.5l-176,102.3c-11.1,6.4-33.5,5.5-44.7-1c-77.8-44.9-307-178.7-307-178.7
					c-11.3-6.5-11.3-17-0.2-23.4l177.9-103.4L772.8,465.5z"/>
			</g>
			<path class="st9" d="M819.2,220.5c-0.2-1.3-0.4-2.6-0.7-4c-0.1-0.4-0.2-0.8-0.3-1.2c-0.4-1.3-0.8-2.7-1.3-4
				c0-0.2-0.1-0.5-0.2-0.6c-0.5-1.1-1-2.2-1.6-3.3c-0.3-0.6-0.5-1-0.9-1.5c-0.6-0.9-1.1-1.8-1.7-2.5c-0.1-0.3-0.3-0.6-0.5-0.7
				c-0.8-1.1-1.7-2-2.6-2.9c-0.3-0.2-0.5-0.4-0.8-0.6c-1-0.9-2-1.7-3.2-2.3L496.4,18.4c-1.2-0.7-2.4-1.2-3.6-1.5
				c-0.4-0.1-0.8-0.2-1.2-0.3c-0.5-0.2-1.1-0.2-1.7-0.3c-0.5-0.1-1-0.1-1.5-0.1c-0.4,0-0.8,0-1.1,0c-0.8,0.1-1.5,0.2-2.2,0.3
				l8.8-2.2c0.5-0.2,1-0.3,1.5-0.3c0.2,0,0.5,0,0.7,0c0.4-0.1,0.6-0.1,1.1-0.1c0.2,0,0.5,0,0.7,0c0.2,0,0.5,0.1,0.8,0.1
				c0.5,0.1,1,0.2,1.6,0.3c0.3,0,0.5,0,0.8,0.1c0.1,0.1,0.4,0.1,0.5,0.2c1.2,0.3,2.5,0.8,3.6,1.5l309,178.4c1.1,0.6,2.2,1.4,3.2,2.3
				c0.2,0.2,0.4,0.3,0.6,0.5c0.9,0.9,1.9,1.9,2.7,2.9c0.2,0.2,0.3,0.4,0.5,0.6c0.3,0.4,0.7,0.8,1,1.3c0.3,0.4,0.5,1,0.8,1.4
				c0.3,0.5,0.6,0.9,0.9,1.4c0.1,0.3,0.3,0.5,0.4,0.7c0.5,0.9,0.9,1.9,1.2,2.8c0.1,0.1,0.2,0.2,0.2,0.3c0,0,0,0,0,0
				c0.5,1,0.8,2.1,1.1,3.2c0.1,0.3,0.1,0.8,0.2,1.1c0.1,0.3,0.2,0.7,0.2,0.9c0.1,0.4,0.2,0.8,0.3,1.2c0.2,1,0.3,1.9,0.4,2.8
				c0,0.2,0.1,0.3,0.1,0.5c0,0,0,0.1,0,0.2c0.1,1.4,0.1,2.8,0.1,4.1c0,0.1-0.1,0.2-0.1,0.3c0,1.8-0.3,3.5-0.7,5.2l-55.9,244.8
				l-7.4,4.3l54.6-247c0.3-1.7,0.6-3.5,0.7-5.3c0-1.5,0-3-0.1-4.6C819.2,220.8,819.2,220.6,819.2,220.5z"/>
			<g>
				<path class="st10" d="M496.4,18.4c-10-5.8-20.6-0.2-23.5,12.7l-50.1,230.2L766,469.5l52.8-238.8c2.8-12.8-3.1-28-13.2-33.9
					L496.4,18.4z"/>
			</g>
			
				<linearGradient id="SVGID_4_" gradientUnits="userSpaceOnUse" x1="772.6752" y1="68.8025" x2="518.5184" y2="461.8992" gradientTransform="matrix(-1 0 0 1 1281.5391 0)">
				<stop  offset="0" style="stop-color:#1A6BB2"/>
				<stop  offset="1" style="stop-color:#1B4B92"/>
			</linearGradient>
			<polygon class="st11" points="806.6,237.5 479.8,50.9 436.4,248.7 759,446.5 			"/>
			<g>
				<g>
					<g>
						<path class="st12" d="M410.6,293.5l311.6,179.9l-104,60.5L306.5,354L410.6,293.5z M544.1,481.8l13.9-8.2L413,390l-14,8.1
							L544.1,481.8L544.1,481.8z M451.9,367.3l-14,8.2l12.9,7.4l14-8.1L451.9,367.3L451.9,367.3z M406.7,357.4l14-8.1l-12.8-7.5
							l-14,8.2L406.7,357.4L406.7,357.4z M583,459.3l14-8.2l-12.9-7.4l-14,8.2L583,459.3L583,459.3z M540.1,418.2l-14,8.1l12.9,7.4
							l14-8.2L540.1,418.2L540.1,418.2z M627,484.7l14-8.1l-12.8-7.4l-14,8.2L627,484.7L627,484.7z M482,401l12.8,7.4l14.1-8.1
							l-12.8-7.5L482,401L482,401z M481.3,384.3l-13.9,8.1l12.8,7.4l14-8.1L481.3,384.3L481.3,384.3z M656.5,501.7l14-8.1l-12.8-7.4
							l-14.1,8.1L656.5,501.7L656.5,501.7z M391.9,349l14.1-8.1l-12.8-7.5l-14,8.2L391.9,349L391.9,349z M525.4,409.8l-14,8.1
							l12.8,7.4l14-8.1L525.4,409.8L525.4,409.8z M436,374.4l14-8.1l-12.8-7.4l-14,8.1L436,374.4L436,374.4z M569.5,435.2l-14,8.1
							l12.8,7.4l14-8.1L569.5,435.2L569.5,435.2z M612.4,476.2l14-8.1l-12.8-7.4l-14.1,8.1L612.4,476.2L612.4,476.2z M588.2,507.3
							l14-8.1l-12.9-7.4l-13.9,8.1L588.2,507.3L588.2,507.3z M387.2,368.7l14-8.1l-12.9-7.5l-14,8.1L387.2,368.7L387.2,368.7z
							 M520.6,429.6l-13.9,8.1l12.8,7.4l14-8.1L520.6,429.6L520.6,429.6z M471.3,356.1l-13.9,8.1l12.8,7.5l14-8.1L471.3,356.1
							L471.3,356.1z M426.1,346.1l14-8.1l-12.9-7.4l-13.9,8.1L426.1,346.1L426.1,346.1z M489.4,411.5l-12.9-7.4l-14,8.1l12.9,7.4
							L489.4,411.5L489.4,411.5z M501.5,389.6l12.8,7.5l14-8.1l-12.9-7.4L501.5,389.6L501.5,389.6z M432.4,378.6l-14,8.1l12.9,7.4
							l14-8.2L432.4,378.6L432.4,378.6z M367.8,380.1l14-8.2l-12.9-7.4l-14,8.1L367.8,380.1L367.8,380.1z M559.6,406.9l-14,8.1
							l12.8,7.5l14-8.1L559.6,406.9L559.6,406.9z M607.6,496l14-8.1l-12.8-7.5l-13.9,8.2L607.6,496L607.6,496z M563.6,470.6l14-8.1
							l-12.9-7.4l-14,8.1L563.6,470.6L563.6,470.6z M602.5,448l13.9-8.2l-12.8-7.4l-14,8.1L602.5,448L602.5,448z M646.5,473.4
							l14-8.1l-12.9-7.5l-13.9,8.1L646.5,473.4L646.5,473.4z M500.8,373l-14,8.2l12.9,7.4l14-8.1L500.8,373L500.8,373z M593,487.6
							l14-8.2l-12.9-7.4l-13.9,8.1L593,487.6L593,487.6z M631.9,464.9l14-8.1l-12.8-7.5l-14,8.1L631.9,464.9L631.9,464.9z
							 M505.9,421.1l-14,8.1l12.9,7.4l14-8.1L505.9,421.1L505.9,421.1z M455.6,363.1l13.9-8.1l-12.8-7.4l-14,8.1L455.6,363.1
							L455.6,363.1z M544.8,398.5l-14,8.1l12.9,7.5l13.9-8.1L544.8,398.5L544.8,398.5z M416.6,385.7l14-8.1l-12.9-7.4l-14,8.1
							L416.6,385.7L416.6,385.7z M461.8,395.6l-14,8.1l12.9,7.4l14-8.1L461.8,395.6L461.8,395.6z M397.2,397.1l13.9-8.1l-12.9-7.4
							l-13.9,8.1L397.2,397.1L397.2,397.1z M550,446.6l-14,8.1l12.9,7.4l14-8.1L550,446.6L550,446.6z M588.9,423.9l-14,8.2l12.9,7.4
							l14-8.2L588.9,423.9L588.9,423.9z M617.6,524.3l14-8.2l-12.9-7.4l-13.9,8.1L617.6,524.3L617.6,524.3z M353.1,371.6l14-8.1
							l-12.9-7.4l-14,8.1L353.1,371.6L353.1,371.6z M372.6,360.3l14-8.1l-12.9-7.5l-14,8.2L372.6,360.3L372.6,360.3z M637.1,513
							l14-8.1l-12.8-7.4l-14,8.1L637.1,513L637.1,513z M411.5,337.7l14-8.1l-12.8-7.4l-14,8.1L411.5,337.7L411.5,337.7z
							 M573.6,498.9l14-8.1l-12.9-7.4l-14,8.1L573.6,498.9L573.6,498.9z M676,490.3l13.9-8.1l-12.9-7.4l-13.9,8.1L676,490.3
							L676,490.3z M377.2,340.5l14.1-8.1l-12.9-7.4l-14,8.1L377.2,340.5L377.2,340.5z M554.8,426.7l-14,8.1l12.8,7.4l14-8.1
							L554.8,426.7L554.8,426.7z M597.7,467.7l14-8.1l-12.8-7.4l-14,8.1L597.7,467.7L597.7,467.7z M421.3,365.9l14.1-8.1l-12.8-7.4
							l-14,8.1L421.3,365.9L421.3,365.9z M466.6,375.9l-14,8.1l12.8,7.4l14-8.2L466.6,375.9L466.6,375.9z M641.7,493.2l14-8.1
							l-12.8-7.4l-14,8.1L641.7,493.2L641.7,493.2z M496.7,409.5l12.8,7.3l14-8.1l-12.7-7.4L496.7,409.5L496.7,409.5z M661.2,481.8
							l14-8.2l-12.8-7.3l-13.9,8.1L661.2,481.8L661.2,481.8z M357.9,351.8l14-8.1l-12.8-7.4l-14,8.1L357.9,351.8L357.9,351.8z
							 M622.4,504.5l13.9-8.1l-12.8-7.4l-14,8.1L622.4,504.5L622.4,504.5z M447.1,387.1l-14,8.2l12.9,7.4l14-8.1L447.1,387.1
							L447.1,387.1z M440.8,354.6l13.9-8.1l-12.7-7.4l-14.1,8.1L440.8,354.6L440.8,354.6z M486.1,364.5l-14,8.1l12.8,7.4l13.9-8.2
							L486.1,364.5L486.1,364.5z M558.8,490.3l13.9-8.1l-12.8-7.4l-14,8.1L558.8,490.3L558.8,490.3z M338.4,363.1l13.9-8.1
							l-12.8-7.4l-14,8.1L338.4,363.1L338.4,363.1z M578.3,479l13.9-8.1l-12.8-7.4l-14,8.1L578.3,479L578.3,479z M402,377.3l14-8.2
							l-12.8-7.4l-14,8.1L402,377.3L402,377.3z M617.1,456.4l14-8.1l-12.8-7.4l-14,8.1L617.1,456.4L617.1,456.4z M602.9,515.8
							l13.9-8.2l-12.8-7.4l-13.9,8.1L602.9,515.8L602.9,515.8z M574.3,415.4l-14,8.1l12.8,7.4l14-8.1L574.3,415.4L574.3,415.4z
							 M382.4,388.5l14-8.1l-12.8-7.4l-14,8.1L382.4,388.5L382.4,388.5z M516.2,398.1l12.8,7.4l14-8.1l-12.8-7.4L516.2,398.1
							L516.2,398.1z M504.1,420l-12.8-7.4l-13.9,8.1l12.8,7.5L504.1,420L504.1,420z M396.8,329.2l13.9-8.1l-12.8-7.4l-14,8.1
							L396.8,329.2L396.8,329.2z M535.3,438l-13.9,8.1l12.8,7.4l14-8.2L535.3,438L535.3,438z M522.1,366.3l-9.7,5.6l12.8,7.4
							l9.7-5.6L522.1,366.3L522.1,366.3z M615.1,420l-9.7,5.7l12.9,7.4l9.7-5.7L615.1,420L615.1,420z M434,315.4l-9.8,5.7l12.9,7.4
							l9.7-5.7L434,315.4L434,315.4z M487.8,346.5l-9.7,5.7l12.8,7.4l9.8-5.6L487.8,346.5L487.8,346.5z M468.2,335.2l-9.7,5.7
							l12.9,7.4l9.8-5.6L468.2,335.2L468.2,335.2z M669,451.1l-9.8,5.7l12.9,7.4l9.7-5.6L669,451.1L669,451.1z M688.6,462.5
							l-9.6,5.6l12.8,7.5l9.7-5.7L688.6,462.5L688.6,462.5z M637.8,444.4l9.7-5.7l-12.8-7.4l-9.7,5.7L637.8,444.4L637.8,444.4z
							 M417.4,317.1l9.7-5.6l-12.8-7.4l-9.8,5.6L417.4,317.1L417.4,317.1z M541.7,377.6l-9.7,5.7l12.8,7.4l9.7-5.7L541.7,377.6
							L541.7,377.6z"/>
					</g>
				</g>
			</g>
			<g>
				<g>
					<g>
						<polygon class="st13" points="513.6,380.4 499.7,388.6 486.8,381.1 500.8,373 						"/>
					</g>
					<g>
						<polygon class="st13" points="410.7,321.1 396.8,329.2 383.9,321.7 397.9,313.7 						"/>
					</g>
					<g>
						<polygon class="st13" points="469.5,355 455.6,363.1 442.7,355.7 456.7,347.6 						"/>
					</g>
					<g>
						<polygon class="st13" points="430.6,377.6 416.6,385.7 403.8,378.3 417.8,370.2 						"/>
					</g>
					<g>
						<polygon class="st13" points="427.2,311.5 417.4,317.1 404.6,309.7 414.4,304.1 						"/>
					</g>
					<g>
						<polygon class="st13" points="446.7,322.8 437.1,328.5 424.2,321.1 434,315.4 						"/>
					</g>
					<g>
						<polygon class="st13" points="425.4,329.5 411.5,337.7 398.6,330.3 412.6,322.1 						"/>
					</g>
					<g>
						<polygon class="st13" points="391.3,332.3 377.2,340.5 364.5,333 378.5,324.9 						"/>
					</g>
					<g>
						<polygon class="st13" points="440.1,338 426.1,346.1 413.3,338.7 427.3,330.6 						"/>
					</g>
					<g>
						<polygon class="st13" points="481.1,342.7 471.3,348.3 458.5,340.9 468.2,335.2 						"/>
					</g>
					<g>
						<polygon class="st13" points="406,340.9 391.9,349 379.2,341.6 393.2,333.4 						"/>
					</g>
					<g>
						<polygon class="st13" points="371.8,343.7 357.9,351.8 345,344.4 359,336.3 						"/>
					</g>
					<g>
						<polygon class="st13" points="454.8,346.5 440.8,354.6 428,347.2 442,339.1 						"/>
					</g>
					<g>
						<polygon class="st13" points="420.7,349.3 406.7,357.4 393.8,350.1 407.8,341.9 						"/>
					</g>
					<g>
						<polygon class="st13" points="500.6,354 490.8,359.6 478.1,352.2 487.8,346.5 						"/>
					</g>
					<g>
						<polygon class="st13" points="386.6,352.2 372.6,360.3 359.7,352.9 373.7,344.7 						"/>
					</g>
					<g>
						<polygon class="st13" points="352.3,355 338.4,363.1 325.6,355.7 339.6,347.6 						"/>
					</g>
					<g>
						<polygon class="st13" points="435.4,357.8 421.3,365.9 408.6,358.5 422.5,350.4 						"/>
					</g>
					<g>
						<polygon class="st13" points="401.2,360.7 387.2,368.7 374.4,361.3 388.4,353.2 						"/>
					</g>
					<g>
						<polygon class="st13" points="484.2,363.5 470.2,371.6 457.4,364.1 471.3,356.1 						"/>
					</g>
					<g>
						<polygon class="st13" points="450.1,366.3 436,374.4 423.2,367 437.2,358.9 						"/>
					</g>
					<g>
						<polygon class="st13" points="415.9,369.1 402,377.3 389.1,369.8 403.1,361.7 						"/>
					</g>
					<g>
						<polygon class="st13" points="534.9,373.8 525.2,379.4 512.4,371.9 522.1,366.3 						"/>
					</g>
					<g>
						<polygon class="st13" points="498.9,371.9 484.9,380.1 472.1,372.7 486.1,364.5 						"/>
					</g>
					<g>
						<polygon class="st13" points="464.7,374.8 450.8,382.9 437.9,375.5 451.9,367.3 						"/>
					</g>
					<g>
						<polygon class="st13" points="396.5,380.4 382.4,388.5 369.7,381.1 383.6,373 						"/>
					</g>
					<g>
						<polygon class="st13" points="554.5,385 544.8,390.7 532,383.3 541.7,377.6 						"/>
					</g>
					<g>
						<polygon class="st13" points="479.4,383.2 465.4,391.4 452.6,384 466.6,375.9 						"/>
					</g>
					<g>
						<polygon class="st13" points="445.3,386 431.3,394.2 418.4,386.8 432.4,378.6 						"/>
					</g>
					<g>
						<polygon class="st13" points="528.3,388.9 514.3,397.1 501.5,389.6 515.4,381.5 						"/>
					</g>
					<g>
						<polygon class="st13" points="411.2,388.9 397.2,397.1 384.3,389.6 398.3,381.5 						"/>
					</g>
					<g>
						<polygon class="st13" points="460,394.6 446,402.7 433.2,395.3 447.1,387.1 						"/>
					</g>
					<g>
						<polygon class="st13" points="543,397.4 529,405.5 516.2,398.1 530.2,390 						"/>
					</g>
					<g>
						<polygon class="st13" points="508.8,400.2 494.8,408.4 482,401 496,392.8 						"/>
					</g>
					<g>
						<polygon class="st13" points="474.7,403.1 460.7,411.2 447.8,403.7 461.8,395.6 						"/>
					</g>
					<g>
						<polygon class="st13" points="557.7,405.9 543.7,414 530.8,406.6 544.8,398.5 						"/>
					</g>
					<g>
						<polygon class="st13" points="523.5,408.7 509.5,416.8 496.7,409.5 510.8,401.3 						"/>
					</g>
					<g>
						<polygon class="st13" points="489.4,411.5 475.4,419.7 462.5,412.2 476.5,404.1 						"/>
					</g>
					<g>
						<polygon class="st13" points="572.4,414.4 558.4,422.5 545.6,415 559.6,406.9 						"/>
					</g>
					<g>
						<polygon class="st13" points="538.3,417.2 524.3,425.3 511.4,417.9 525.4,409.8 						"/>
					</g>
					<g>
						<polygon class="st13" points="504.1,420 490.1,428.2 477.3,420.7 491.2,412.6 						"/>
					</g>
					<g>
						<polygon class="st13" points="587,422.9 573.1,430.9 560.3,423.5 574.3,415.4 						"/>
					</g>
					<g>
						<polygon class="st13" points="628,427.4 618.3,433.1 605.4,425.6 615.1,420 						"/>
					</g>
					<g>
						<polygon class="st13" points="552.9,425.6 538.9,433.8 526.1,426.4 540.1,418.2 						"/>
					</g>
					<g>
						<polygon class="st13" points="518.8,428.5 504.8,436.6 492,429.2 505.9,421.1 						"/>
					</g>
					<g>
						<polygon class="st13" points="601.8,431.3 587.8,439.5 574.9,432 588.9,423.9 						"/>
					</g>
					<g>
						<polygon class="st13" points="567.6,434.2 553.6,442.2 540.8,434.9 554.8,426.7 						"/>
					</g>
					<g>
						<polygon class="st13" points="647.6,438.7 637.8,444.4 625.1,437 634.7,431.3 						"/>
					</g>
					<g>
						<polygon class="st13" points="533.5,437 519.5,445.1 506.7,437.7 520.6,429.6 						"/>
					</g>
					<g>
						<polygon class="st13" points="616.4,439.8 602.5,448 589.6,440.5 603.6,432.4 						"/>
					</g>
					<g>
						<polygon class="st13" points="582.3,442.7 568.3,450.8 555.5,443.3 569.5,435.2 						"/>
					</g>
					<g>
						<polygon class="st13" points="548.2,445.5 534.2,453.6 521.4,446.2 535.3,438 						"/>
					</g>
					<g>
						<polygon class="st13" points="631.1,448.3 617.1,456.4 604.3,449 618.4,440.9 						"/>
					</g>
					<g>
						<polygon class="st13" points="597,451.1 583,459.3 570.2,451.8 584.2,443.7 						"/>
					</g>
					<g>
						<polygon class="st13" points="562.9,453.9 548.9,462.1 536,454.6 550,446.6 						"/>
					</g>
					<g>
						<polygon class="st13" points="681.8,458.6 672.1,464.2 659.3,456.8 669,451.1 						"/>
					</g>
					<g>
						<polygon class="st13" points="645.8,456.8 631.9,464.9 619,457.5 633,449.4 						"/>
					</g>
					<g>
						<polygon class="st13" points="611.7,459.6 597.7,467.7 584.9,460.3 598.9,452.2 						"/>
					</g>
					<g>
						<polygon class="st13" points="660.6,465.3 646.5,473.4 633.7,465.9 647.7,457.8 						"/>
					</g>
					<g>
						<polygon class="st13" points="701.4,469.9 691.8,475.6 678.9,468.1 688.6,462.5 						"/>
					</g>
					<g>
						<polygon class="st13" points="626.4,468.1 612.4,476.2 599.5,468.8 613.6,460.7 						"/>
					</g>
					<g>
						<polygon class="st13" points="592.2,470.9 578.3,479 565.4,471.6 579.4,463.5 						"/>
					</g>
					<g>
						<polygon class="st13" points="675.2,473.7 661.2,481.8 648.5,474.4 662.4,466.4 						"/>
					</g>
					<g>
						<polygon class="st13" points="558.1,473.7 544.1,481.8 399,398.1 413,390 						"/>
					</g>
					<g>
						<polygon class="st13" points="641.1,476.6 627,484.7 614.2,477.3 628.2,469.1 						"/>
					</g>
					<g>
						<polygon class="st13" points="607,479.4 593,487.6 580.1,480.1 594.1,472 						"/>
					</g>
					<g>
						<polygon class="st13" points="689.9,482.3 676,490.3 663.1,483 677,474.8 						"/>
					</g>
					<g>
						<polygon class="st13" points="572.8,482.3 558.8,490.3 546,483 559.9,474.8 						"/>
					</g>
					<g>
						<polygon class="st13" points="655.7,485 641.7,493.2 628.9,485.8 642.9,477.6 						"/>
					</g>
					<g>
						<polygon class="st13" points="621.6,487.9 607.6,496 594.8,488.6 608.8,480.4 						"/>
					</g>
					<g>
						<polygon class="st13" points="587.5,490.7 573.6,498.9 560.6,491.4 574.6,483.3 						"/>
					</g>
					<g>
						<polygon class="st13" points="670.5,493.6 656.5,501.7 643.6,494.3 657.7,486.1 						"/>
					</g>
					<g>
						<polygon class="st13" points="636.3,496.4 622.4,504.5 609.5,497.1 623.5,489 						"/>
					</g>
					<g>
						<polygon class="st13" points="602.2,499.2 588.2,507.3 575.4,499.9 589.3,491.8 						"/>
					</g>
					<g>
						<polygon class="st13" points="651,504.9 637.1,513 624.2,505.6 638.2,497.4 						"/>
					</g>
					<g>
						<polygon class="st13" points="616.8,507.7 602.9,515.8 590.1,508.4 604,500.2 						"/>
					</g>
					<g>
						<polygon class="st13" points="631.6,516.1 617.6,524.3 604.8,516.8 618.7,508.7 						"/>
					</g>
					<g>
						<polygon class="st13" points="494.2,391.8 480.2,399.9 467.3,392.4 481.3,384.3 						"/>
					</g>
					<g>
						<polygon class="st13" points="577.6,462.5 563.6,470.6 550.7,463.1 564.7,455 						"/>
					</g>
					<g>
						<polygon class="st13" points="381.8,371.9 367.8,380.1 354.9,372.6 368.9,364.5 						"/>
					</g>
					<g>
						<polygon class="st13" points="367.1,363.5 353.1,371.6 340.3,364.2 354.2,356.1 						"/>
					</g>
				</g>
			</g>
			<g>
				<path class="st13" d="M473.2,457.5c4.4,2.6,4.5,6.8,0,9.4L444,483.9c-4.5,2.6-11.7,2.6-16.3,0.1L388,461c-4.4-2.6-4.4-6.8,0-9.4
					l29.2-17c4.4-2.5,11.7-2.5,16.2,0L473.2,457.5z"/>
			</g>
			<g>
				<g>
					<path class="st12" d="M473.2,459c4.4,2.6,4.5,6.8,0,9.4l-29.3,17c-4.5,2.6-11.7,2.6-16.3,0.1l-39.7-23c-4.4-2.6-4.4-6.8,0-9.4
						l29.2-17c4.4-2.6,11.7-2.6,16.2,0L473.2,459z"/>
				</g>
			</g>
		</g>
		<g>
			<g class="st0">
				<g>
					<path d="M866.4,571.4c31.4,18.1,31.5,47.4,0.4,65.4c-31.1,18.1-81.5,18.1-112.9,0c-31.3-18-31.4-47.3-0.4-65.3
						C784.6,553.4,835.2,553.4,866.4,571.4z"/>
				</g>
			</g>
			<linearGradient id="SVGID_5_" gradientUnits="userSpaceOnUse" x1="790.5986" y1="501.6258" x2="790.5986" y2="678.9337">
				<stop  offset="0" style="stop-color:#FFDF02"/>
				<stop  offset="0.1253" style="stop-color:#F9D402"/>
				<stop  offset="0.4425" style="stop-color:#ECBD01"/>
				<stop  offset="0.7411" style="stop-color:#E4AF00"/>
				<stop  offset="1" style="stop-color:#E1AA00"/>
			</linearGradient>
			<path class="st14" d="M842.3,612.3c0.4-1.3,0.6-2.7,0.7-4l21.6-129.6h-148l21.6,130.1c0.1,1.2,0.3,2.5,0.6,3.7l0.1,0.8h0.1
				c1.9,5.8,6.6,11.3,14.3,15.8c20.4,11.9,53.7,11.9,74.3,0c7.8-4.5,12.6-10,14.5-15.8h0.1L842.3,612.3z"/>
			<g>
				<g>
					<path class="st15" d="M738.4,448.4c-29,16.7-29.2,43.9-0.4,60.6c28.8,16.8,75.7,16.7,104.7,0c29-16.7,29.1-43.8,0.3-60.6
						C814.3,431.6,767.4,431.6,738.4,448.4z"/>
				</g>
			</g>
			<g>
				<g>
					<path class="st6" d="M738.4,448.4c-29,16.7-29.2,43.9-0.4,60.6c28.8,16.8,75.7,16.7,104.7,0c29-16.7,29.1-43.8,0.3-60.6
						C814.3,431.6,767.4,431.6,738.4,448.4z"/>
				</g>
			</g>
			<g>
				<g>
					<path class="st16" d="M746.1,452.8c-24.7,14.3-24.9,37.4-0.3,51.7c24.6,14.3,64.6,14.3,89.3,0c24.7-14.3,24.9-37.4,0.3-51.7
						C810.8,438.6,770.8,438.6,746.1,452.8z"/>
				</g>
			</g>
			<g>
				<path class="st17" d="M835.1,504.6c-24.7,14.3-64.7,14.3-89.3,0c-7.4-4.3-12.6-9.5-15.5-14.9c2.1-7.3,8-14.3,17.7-19.9
					c24.7-14.3,64.7-14.3,89.3,0c7.4,4.3,12.6,9.5,15.5,14.9C850.7,491.9,844.8,498.9,835.1,504.6z"/>
			</g>
			<g>
				<g>
					<path class="st18" d="M827.2,593.2c-0.1-0.1-0.2-0.1-0.3-0.2c-1-0.4-2.1-0.9-3.2-1.6l7-4.1c1.1,0.6,2.1,1.1,3.2,1.6
						c0.3,0.1,0.6,0.3,0.9,0.4c0.6,0.3,1.2,0.4,1.8,0.6c0.3,0.1,0.7,0.2,1,0.3c0.3,0.1,0.7,0.2,1,0.2c0.4,0.1,0.8,0.2,1.2,0.2
						c0.3,0,0.5,0.1,0.8,0.1c0.5,0,0.9,0,1.4,0c0.2,0,0.4,0,0.5,0c0.6,0,1.2-0.1,1.7-0.2c0.1,0,0.2-0.1,0.3-0.1
						c0.5-0.1,0.9-0.2,1.3-0.4c0.2-0.1,0.3-0.1,0.4-0.1c0.5-0.2,1-0.5,1.5-0.7l-7,4.1c0,0-0.1,0-0.1,0.1c-0.3,0.2-0.7,0.4-1.1,0.6
						c-0.1,0-0.2,0-0.3,0.1c-0.1,0.1-0.3,0.1-0.5,0.2c-0.2,0-0.3,0.1-0.5,0.2c-0.3,0.1-0.5,0.1-0.8,0.2c-0.1,0-0.3,0.1-0.4,0.1
						c-0.1,0-0.1,0-0.1,0c-0.5,0.1-0.9,0.1-1.4,0.2c0,0-0.1,0-0.2,0c-0.2,0-0.4,0-0.6,0c-0.3,0-0.6,0-0.8,0c-0.2,0-0.3,0-0.5,0
						c-0.3,0-0.5-0.1-0.8-0.1c-0.2,0-0.3,0-0.5-0.1c-0.2,0-0.5-0.1-0.6-0.1c-0.3-0.1-0.7-0.1-1.1-0.2c-0.1-0.1-0.3-0.1-0.4-0.1
						c-0.2,0-0.4-0.2-0.6-0.2c-0.6-0.2-1.2-0.4-1.8-0.6C827.6,593.4,827.4,593.3,827.2,593.2z"/>
				</g>
				<g>
					<path class="st18" d="M855.6,584.8c0-1.1,0-2.1-0.1-3.2c0-0.3,0-0.6-0.1-1c-0.1-0.7-0.2-1.4-0.3-2.1c-0.1-0.7-0.2-1.4-0.4-2.1
						c-0.1-0.6-0.2-1.3-0.4-1.9c-0.1-0.5-0.2-0.9-0.4-1.4c-0.2-0.8-0.4-1.6-0.7-2.3c-0.1-0.4-0.2-0.7-0.3-1.1
						c-0.3-1.1-0.7-2.2-1.2-3.3c-0.1-0.2-0.1-0.4-0.2-0.5c-0.4-0.9-0.8-1.9-1.2-2.9c-0.1-0.3-0.3-0.6-0.4-0.9c-0.5-1-1-2-1.5-3.1
						c0-0.1-0.1-0.2-0.2-0.3c-0.6-1.1-1.2-2.2-1.8-3.2c-0.2-0.3-0.4-0.6-0.5-0.9c-0.5-0.8-1-1.5-1.5-2.3c-0.2-0.4-0.5-0.7-0.7-1.1
						c-0.5-0.8-1.1-1.5-1.7-2.3c-0.2-0.3-0.4-0.6-0.6-0.9c-0.5-0.7-1.1-1.3-1.6-1.9c-0.3-0.4-0.7-0.9-1-1.3
						c-0.2-0.3-0.5-0.5-0.7-0.8c-0.9-0.9-1.7-1.9-2.6-2.8c-0.5-0.5-1.1-1-1.6-1.5c-0.3-0.3-0.7-0.7-1-1c-0.6-0.6-1.3-1.1-1.9-1.6
						c-0.3-0.3-0.7-0.6-1-0.9c-0.7-0.6-1.5-1.1-2.2-1.6c-0.3-0.2-0.6-0.4-0.9-0.6c-1-0.7-2.1-1.4-3.1-2l7-4.1c1,0.6,2.1,1.3,3.1,2
						c0.3,0.2,0.6,0.4,0.8,0.6c0.7,0.5,1.5,1,2.2,1.6c0.3,0.3,0.7,0.6,1,0.9c0.6,0.5,1.3,1.1,1.9,1.6c0.4,0.4,0.7,0.7,1.1,1
						c0.4,0.3,0.8,0.7,1.1,1c0.2,0.2,0.3,0.3,0.5,0.5c0.9,0.9,1.8,1.8,2.6,2.8c0.2,0.2,0.4,0.4,0.6,0.6c0,0.1,0.1,0.1,0.1,0.2
						c0.4,0.5,0.8,1,1.2,1.5c0.4,0.5,0.8,1,1.2,1.5c0,0.1,0.1,0.1,0.1,0.2c0.3,0.3,0.5,0.7,0.7,1c0.4,0.6,0.8,1.1,1.2,1.7
						c0.1,0.2,0.3,0.3,0.4,0.5c0.2,0.3,0.4,0.7,0.7,1c0.3,0.4,0.6,0.8,0.8,1.2c0.2,0.4,0.5,0.8,0.7,1.1c0.2,0.3,0.3,0.6,0.5,0.9
						c0.1,0.2,0.3,0.4,0.4,0.6c0.5,0.9,1,1.7,1.5,2.6c0,0,0,0,0,0.1c0,0,0,0,0,0.1c0.4,0.8,0.9,1.6,1.3,2.4c0.1,0.3,0.2,0.5,0.3,0.8
						c0.1,0.3,0.3,0.6,0.4,0.9c0.1,0.3,0.3,0.6,0.4,0.9c0.3,0.6,0.5,1.3,0.8,1.9c0.1,0.2,0.2,0.4,0.2,0.6c0,0,0.1,0.1,0.1,0.1
						c0.3,0.9,0.7,1.8,1,2.7c0,0.2,0.1,0.3,0.1,0.4c0.1,0.3,0.2,0.7,0.3,1c0.2,0.5,0.3,1,0.5,1.5c0.1,0.3,0.1,0.6,0.2,0.9
						c0.2,0.5,0.2,0.9,0.4,1.4c0.1,0.3,0.1,0.6,0.2,0.9c0.1,0.3,0.1,0.6,0.2,1c0.2,0.7,0.3,1.4,0.4,2.1c0,0.3,0.1,0.6,0.1,0.9
						c0.1,0.4,0.1,0.8,0.1,1.2c0,0.3,0.1,0.7,0.1,1c0.1,1.1,0.1,2.2,0.1,3.2c0,9-3.3,15.3-8.6,18.4l-7,4.1
						C852.4,600.1,855.6,593.8,855.6,584.8z"/>
				</g>
				<g>
					<g>
						<path class="st19" d="M823.9,532.2l0,9.1c12.9,7.4,23.3,24.7,23.3,38.6c-0.1,13.9-10.5,19-23.4,11.6l0,9.2
							c17.6,10.2,31.9,3.1,31.9-15.9C855.7,565.9,841.5,542.3,823.9,532.2z"/>
					</g>
				</g>
			</g>
		</g>
		<g>
			<g class="st20">
				<g>
					<polygon class="st21" points="530.7,95.5 528.6,103.5 573,130.8 575,122.7 					"/>
				</g>
				<g>
					<g>
						<path class="st21" d="M585.8,326.5l-102.7-63.2l25.5-99.9l102.7,63.2L585.8,326.5z M501,223.4l87.2,53.7l11.5-45l-87.2-53.7
							L501,223.4L501,223.4z"/>
					</g>
				</g>
				<g>
					<polygon class="st21" points="517.6,128.4 515.6,135.9 618.4,199.2 620.3,191.6 					"/>
				</g>
				<g>
					<polygon class="st21" points="649.9,223.3 648.3,229.6 709.6,267.3 711.2,261.1 					"/>
				</g>
				<g>
					<polygon class="st21" points="653.5,209.1 651.9,215.4 713.2,253.2 714.8,246.9 					"/>
				</g>
				<g>
					<path class="st22" d="M685.3,392.8l-78.4-48.2l39.2-153.5l78.4,48.2L685.3,392.8z M619.6,341.6l61.3,37.8l11.4-44.6L631,297
						L619.6,341.6L619.6,341.6z M640.3,260.8l61.3,37.8l1.6-6.3l-61.3-37.7L640.3,260.8L640.3,260.8z M651.9,215.4l61.3,37.8
						l1.6-6.3l-61.4-37.8L651.9,215.4L651.9,215.4z M643.9,246.6l61.3,37.8l1.6-6.3l-61.4-37.8L643.9,246.6L643.9,246.6z
						 M648.3,229.6l61.3,37.8l1.6-6.3l-61.4-37.8L648.3,229.6L648.3,229.6z"/>
				</g>
				<g>
					<polygon class="st21" points="513.2,145.4 511.3,153 614,216.2 616,208.6 					"/>
				</g>
				<g>
					<polygon class="st21" points="617.9,149.1 615.8,157.2 727.8,226.1 729.9,218.1 					"/>
				</g>
				<g class="st23">
					<g>
						<path class="st21" d="M470.3,270l221,136L749,204.6L521.4,73.5L470.3,270z M511.3,153l1.9-7.6L616,208.6l0,0l-1.9,7.6
							l-65.1-40.1L511.3,153L511.3,153z M517.6,128.4l102.7,63.2l-1.9,7.5l-102.7-63.2L517.6,128.4L517.6,128.4z M519.2,121.8
							l1.9-7.6l102.7,63.2L622,185L519.2,121.8L519.2,121.8z M733.9,215.6l-4.3,17L523.4,105.7l4.3-17L733.9,215.6L733.9,215.6z
							 M685.3,392.8l-78.4-48.2l39.2-153.5l78.4,48.2L685.3,392.8L685.3,392.8z M611.4,226.6l-25.5,99.9l-102.7-63.2l25.5-99.9
							L611.4,226.6L611.4,226.6z"/>
					</g>
				</g>
				<g>
					<polygon class="st22" points="501,223.4 512.5,178.5 599.7,232.2 588.2,277.1 					"/>
				</g>
				<g>
					<polygon class="st21" points="521.2,114.2 519.2,121.8 622,185 623.9,177.4 					"/>
				</g>
				<g>
					<polygon class="st21" points="631,297 619.6,341.6 681,379.4 692.4,334.8 					"/>
				</g>
				<g>
					<path class="st22" d="M729.6,232.6L523.4,105.7l5.3-21.1l209,124.6L729.6,232.6z M615.8,157.2l112,68.9l2-8l-112-68.9
						L615.8,157.2L615.8,157.2z M528.6,103.5l44.4,27.3l2-8l-44.3-27.3L528.6,103.5L528.6,103.5z"/>
				</g>
			</g>
			<g>
				<polygon class="st21" points="645.5,240.3 643.9,246.6 705.3,284.4 706.9,278.1 				"/>
			</g>
			<g>
				<polygon class="st21" points="641.9,254.5 640.3,260.8 701.6,298.5 703.2,292.2 				"/>
			</g>
		</g>
	</g>
	<path class="st24" d="M542.3,379.2c0,0-11.4,9.5-9,19.5c0,0,3.8,4,7.4-3.1C544.3,388.5,548,379,542.3,379.2z"/>
	<path class="st25" d="M533.3,399.7c0,0,17.2,5.9,20.1,0.3c2.9-5.6,6.1-10.1,8.2-12.1c2.1-2,16.3-25.9,11.6-29.7
		c-4.7-3.8-11.5,3-13.5,4.6c-2,1.7-23.6,18.4-23.6,18.4L533.3,399.7z"/>
	<path class="st26" d="M391,293.9c0,0,60.2,34.5,73.8,46.2c11.3,9.7,73.9,39.7,73.9,39.7s-2.9,5.9-5.1,19.4c0,0-57.2-0.8-93.2-33.9
		c0,0-120.8-25.2-110.5-87.5C330,277.8,369.8,285,391,293.9z"/>
	<path class="st27" d="M561.6,387.9c1.9-1.8,13.3-20.9,12.4-27.7c-2-0.3-5.3,0.1-7.1,4.5c-2.8,6.9-11.5,22.6-13.1,24.6
		c-1.4,1.7-9.1,9.2-7.9,13c3.4,0.2,6.5-0.3,7.5-2.4C556.3,394.4,559.5,389.9,561.6,387.9z"/>
	<path class="st28" d="M507.3,429.7c0,0,19.5,3.1,21.5-2c2.1-5.1,4.5-9.2,6.1-11.2c1.7-1.9,12-23.7,7.7-26.6
		c-4.3-2.9-9.7,3.5-11.3,5.1c-1.6,1.6-19.4,17.6-19.4,17.6L507.3,429.7z"/>
	<path class="st27" d="M534.9,416.4c1.5-1.7,9.8-19.2,8.5-25c-1.8-0.1-4.6,0.5-5.8,4.5c-1.9,6.2-8.2,20.5-9.4,22.4
		c-1,1.6-7.2,8.7-5.8,11.9c3-0.1,5.6-0.8,6.3-2.7C530.9,422.5,533.3,418.4,534.9,416.4z"/>
	<path class="st29" d="M365,182.1c0,0-11.4,1.4-10.9,14.4c0.5,13,12.4,68.9,26.2,80.1c13.7,11.1,13.5-15.3,13.5-15.3
		S385.3,179.2,365,182.1z"/>
	<path class="st30" d="M380.9,288.4c0,0-10,29.7-15.2,36.1c0,0,60.2,34.5,73.8,46.2c11.3,9.7,75.3,39.1,75.3,39.1s-4.3,6.5-6.5,19.9
		c0,0-57.2-0.8-93.2-33.9c0,0-120.8-25.2-110.5-87.5C304.7,308.4,344.7,324.3,380.9,288.4z"/>
	<path class="st31" d="M332.4,186.5c0,0-32.7,18.3-33.4,20.6c-0.7,2.2-4.5,4,6.2,29.4c0,0,10.1,22.4,2.9,50
		c-4.2,16-3.5,21.4-3.5,21.4s12.7,27.2,48.8,13.9c7.3-2.7,27.6-22.1,31.3-30.1c0,0-11.5-14.1-7-41.7c4.5-27.6,7.1-63.3-8.6-68.1
		C369.2,181.9,365.2,177.1,332.4,186.5z"/>
	<path class="st32" d="M342.5,177.6c0,0,21,11.1,11.7,26.9l9.9,5.4C364.1,210,373.8,182.3,342.5,177.6z"/>
	<path class="st33" d="M329.1,166.5c0,0,8.8,13.4,1.8,22.5c-3.9,5.1,5.3,17.1,21,16.1c0,0,7.1-1.7,6.3-4.3
		c-1.6-5.8,0.7-9.1,3.2-13.5C364,182.9,329.1,166.5,329.1,166.5z"/>
	<path class="st34" d="M330.9,189c-0.5,0.6-0.7,1.3-0.8,2.1c5.9-6,17.2-6.5,17.2-6.5l-15-16.6c-0.6-0.3-1.1-0.5-1.5-0.7l-0.5,1.5
		C332.5,173,336.1,182.2,330.9,189z"/>
	<path class="st35" d="M358.3,200.8c-1.5-9.2,0.7-9.1,3.2-13.5c0.7-1.2-1.5-3.3-4.9-5.8c-0.9,0.6-1.7,1.6-2.6,2.9
		c-6.1,9.4-6.1,16.8-5.3,20.7c1.1,0.1,2.2,0.2,3.3,0C353.8,204.8,358.7,203.7,358.3,200.8z"/>
	<g>
		<path class="st33" d="M325.8,159c0,0,3.8,17.8,16.1,25.9c10.8,7.1,23.5,11.8,25.8-1.1c1.8-10.3,6.9-36.5-2.2-41.7
			c-11.7-6.8-16-15.1-29.5-10.1C335.9,131.8,320.4,138.9,325.8,159z"/>
		<path class="st36" d="M325.8,159c0,0,1.4,15.3,16,26.1c3.1,2.3,7.2,4.2,10.2,5.4c-5.7-4.2-6.3-5.5-10.7-10.6
			c-4.4-5.1,6.6-3.2-0.9-16.3c-2.6-4.5,10,1.3,12.8,1.2c16.7-0.4,15.4-10,15.8-14c-0.3-1.8-0.8-3.4-1.4-4.9l-1.6-3
			c-0.2-0.3-0.4-0.6-0.6-0.8c-1.8-2.3-3.6-4.3-5.4-5.9c-7.1,0.2-27.5,0.6-27.9,0.7c-0.3,0.1-3.8,4.8-7,9.3
			C324.4,149.6,324.4,153.8,325.8,159z"/>
		<path class="st37" d="M333.1,176.2c0,0-13.5-12.4-8.8-30.2c0,0,2.5-14.3,18.4-16.2c7.6-0.9,22.2-0.4,28,14.9
			c1.8,4.8,0.6,15.3-18.2,10.4c-2.7-0.7-9.8-1.7-12.3,0.6c-2.5,2.3-2.8,6.6-1.6,10.2c1.1,3.2-1.7,3.5-2.1,2.8
			c-0.4-0.7-4-9.8-7.4-6.2C326,165.7,332.8,175.6,333.1,176.2z"/>
		<path class="st37" d="M333.1,176.2c-0.3-0.6-7.1-10.5-4.1-13.7c3.4-3.6,7,5.5,7.4,6.2c0.4,0.7,3.2,0.3,2.1-2.8
			c-1.2-3.6-0.9-7.9,1.6-10.2c2.3-2.1,8.5-1,12.3-0.6c-3.1-2-9.3-2.7-11.5-7.9c-3-6.9-7.1-10.2-11.1-11.4
			c-4.6,4.7-5.6,10.2-5.6,10.2C319.6,163.8,333.1,176.2,333.1,176.2z"/>
	</g>
	<path class="st32" d="M333.1,184.6c0,0,3.2,15.9,21.1,19.9l-5.1,12.5C349.1,217.1,316.9,201,333.1,184.6z"/>
	<path class="st38" d="M370.7,144.7c0,0,2.8,17.1-19,10.9c0,0-10.9-2.9-15.3-13c-0.9-2.2-3.4-5.7-7.1-6.1c0,0,5.8-8.2,20.8-7.2
		c7.1,0.5,14.4,7.4,16.2,8.5C368,138.9,365.1,146,370.7,144.7z"/>
	<path class="st33" d="M442.6,271.4c0,0,15.7,2.9,26.4-1.5c10.7-4.4,8.1-4.8,7.3-6.4c-1.8-3.5-15.9-2.6-18.6-3.3
		c-2.6-0.7,2.2-2.8,3.2-4.6c1.1-1.8,3.6-3.9,2.7-4.5c-0.8-0.6-3-1.2-7,2c-4,3.2-14,7.5-14,7.5L442.6,271.4z"/>
	<path class="st29" d="M444.9,259.1c0,0-0.9,3-0.8,7c0,4.8,2.3,8.1,2.3,8.1s-51.2,10.3-64.3,3.7c0,0-12.6-19.4,6.7-24.6L444.9,259.1
		z"/>
	<path class="st33" d="M368.7,317.1c0,0,17.3,14.3,34.3,11c0,0,0-4.4-7.6-6.1c-7.5-1.7-10.4-7.4-10.4-8.3c0.1-0.9,6-1.4,8.6-1.5
		c2.7-0.1,5.8-3.7-0.6-4.2c-6.4-0.4-17.4-2.8-23.7-1.5C369.4,306.6,363.2,313.3,368.7,317.1z"/>
	<path class="st29" d="M309.9,203.6c0,0-11.3-2.1-14.8,10.4c-3.4,12.5-8.8,69.5,1,84.2c9.8,14.7,73.6,22.5,73.6,22.5
		c-4.6-9.7,1.9-17.7,1.9-17.7L316.6,280C316.6,280,330.1,207,309.9,203.6z"/>
	<path class="st39" d="M316.6,280l55.1,23.1c0,0-1.8,2.4-2.9,6c-12.5-4-58.8-10.9-57.7-20.8c5.5-51.4,6.1-78.2,6.1-78.2l2.1,6.1
		C324.4,237.9,316.6,280,316.6,280z"/>
</g>
</svg>
