<?xml version="1.0" encoding="utf-8"?>
<!-- Generator: Adobe Illustrator 22.0.1, SVG Export Plug-In . SVG Version: 6.00 Build 0)  -->
<svg version="1.1" id="a5860ba0-ef67-4914-ac96-07e2ebcccb4f"
	 xmlns="http://www.w3.org/2000/svg" xmlns:xlink="http://www.w3.org/1999/xlink" x="0px" y="0px" viewBox="0 0 1095.7 664"
	 style="enable-background:new 0 0 1095.7 664;" xml:space="preserve">
<style type="text/css">
	.st0{opacity:0.1;}
	.st1{enable-background:new    ;}
	.st2{fill:#95C4DE;}
	.st3{fill:#A9D6EA;}
	.st4{fill:#DEF6FF;}
	.st5{opacity:0.5;fill:#DEF6FF;}
	.st6{fill:#C0C5D1;}
	.st7{fill:url(#SVGID_1_);}
	.st8{fill:#649DD5;}
	.st9{fill:#8FC1EA;}
	.st10{opacity:0.8;}
	.st11{fill:#FFDF02;}
	.st12{fill:#EAA700;}
	.st13{fill:#0D2445;}
	.st14{fill:#111114;}
	.st15{fill:#2B3C4B;}
	.st16{fill:#314656;}
	.st17{fill:#EA49BD;}
	.st18{fill:#FF61CB;}
	.st19{fill:#EFB185;}
	.st20{fill:#DD9569;}
	.st21{fill:#E6A376;}
	.st22{fill:#131C24;}
	.st23{fill:#1D2833;}
	.st24{fill:#DEF0F9;}
</style>
<g>
	<g>
		<g class="st0">
			<polygon points="853.7,563.5 686.6,660.6 300.7,437.8 471.8,337.2 			"/>
		</g>
		<g class="st1">
			<g>
				<polygon class="st2" points="699.1,547.8 699.1,566.3 609,618.6 609.1,600.2 				"/>
			</g>
			<g>
				<polygon class="st3" points="609.1,600.2 609,618.6 395.5,495.4 395.6,476.9 				"/>
			</g>
			<g>
				<polygon class="st4" points="699.1,547.8 609.1,600.2 395.6,476.9 485.7,424.6 				"/>
			</g>
			<g>
				<polygon class="st5" points="699.1,547.8 395.6,476.9 395.6,476.9 485.7,424.6 				"/>
			</g>
		</g>
		<g class="st1">
			<g>
				<polygon class="st2" points="615.9,565.7 631.9,556.4 632.4,389.8 616.4,399.1 				"/>
			</g>
			<g>
				<polygon class="st6" points="616.4,399.1 632.4,389.8 487.4,306.1 471.4,315.4 				"/>
			</g>
			<g>
				<polygon class="st3" points="471.4,315.4 470.9,482 615.9,565.7 616.4,399.1 				"/>
			</g>
		</g>
		<polygon class="st2" points="761.9,584.7 777.4,580.4 843.7,253.7 828.2,258 		"/>
		<polygon class="st3" points="828.2,258 843.7,253.7 412.8,5 397.4,9.3 		"/>
		<polygon class="st4" points="397.4,9.3 331.1,336 761.9,584.7 828.2,258 		"/>
		
			<linearGradient id="SVGID_1_" gradientUnits="userSpaceOnUse" x1="766.8724" y1="64.3762" x2="572.5496" y2="511.0663" gradientTransform="matrix(-1 0 0 1 1246.2383 0)">
			<stop  offset="0" style="stop-color:#1A6BB2"/>
			<stop  offset="1" style="stop-color:#1B4B92"/>
		</linearGradient>
		<polygon class="st7" points="408.9,35.3 350.1,329.6 749,560.4 810.1,262.3 		"/>
		<g>
			<g class="st1">
				<g>
					<polygon class="st8" points="459.3,101.6 456.7,112.9 519.8,149.3 522.3,138 					"/>
				</g>
				<g>
					<g>
						<path class="st8" d="M545.4,422.3l-146-84.3l31.7-140.6l146,84.3L545.4,422.3z M422.8,281.6l124,71.6l14.3-63.3l-124-71.6
							L422.8,281.6L422.8,281.6z"/>
					</g>
				</g>
				<g>
					<polygon class="st8" points="442.2,148.1 439.9,158.7 585.9,243 588.3,232.4 					"/>
				</g>
				<g>
					<polygon class="st8" points="630.8,275.6 628.8,284.4 716,334.7 718,325.9 					"/>
				</g>
				<g>
					<polygon class="st8" points="635.3,255.6 633.3,264.5 720.5,314.8 722.5,305.9 					"/>
				</g>
				<g>
					<path class="st9" d="M686.9,511l-111.4-64.3l48.8-216L735.7,295L686.9,511z M593.3,442l87.2,50.4l14.2-62.8l-87.2-50.4
						L593.3,442L593.3,442z M618.9,328.3l87.2,50.3l2-8.9l-87.2-50.3L618.9,328.3L618.9,328.3z M633.3,264.5l87.2,50.3l2-8.9
						l-87.2-50.3L633.3,264.5L633.3,264.5z M623.4,308.3l87.2,50.3l2-8.9l-87.2-50.3L623.4,308.3L623.4,308.3z M628.8,284.4
						l87.2,50.3l2-8.8l-87.2-50.3L628.8,284.4L628.8,284.4z"/>
				</g>
				<g>
					<polygon class="st8" points="436.8,172.1 434.5,182.7 580.5,267 582.9,256.4 					"/>
				</g>
				<g>
					<polygon class="st8" points="583.3,173.1 580.7,184.4 739.9,276.4 742.4,265.1 					"/>
				</g>
				<g class="st10">
					<g>
						<path class="st8" d="M381.7,347.8l314.2,181.4l61.3-271.5L443,76.3L381.7,347.8z M434.5,182.7l2.4-10.6l146,84.3l0,0
							l-2.4,10.6l-92.6-53.5L434.5,182.7L434.5,182.7z M442.2,148.1l146,84.3l-2.4,10.6l-146-84.3L442.2,148.1L442.2,148.1z
							 M444.3,138.8l2.4-10.6l146,84.3l-2.4,10.6L444.3,138.8L444.3,138.8z M748,261.5l-5.4,24L449.5,116.2l5.4-23.9L748,261.5
							L748,261.5z M686.9,511l-111.4-64.3l48.8-216L735.7,295L686.9,511L686.9,511z M577.2,281.6l-31.7,140.6l-146-84.3l31.7-140.6
							L577.2,281.6L577.2,281.6z"/>
					</g>
				</g>
				<g>
					<polygon class="st9" points="422.8,281.6 437.1,218.3 561.1,289.9 546.8,353.2 					"/>
				</g>
				<g>
					<polygon class="st8" points="446.8,128.2 444.3,138.8 590.4,223.1 592.8,212.5 					"/>
				</g>
				<g>
					<polygon class="st8" points="607.4,379.3 593.3,442 680.5,492.4 694.6,429.6 					"/>
				</g>
				<g>
					<path class="st9" d="M742.6,285.4L449.5,116.2l5.4-23.9L748,261.5L742.6,285.4z M580.7,184.4l159.2,91.9l2.5-11.3l-159.2-91.9
						L580.7,184.4L580.7,184.4z M456.7,112.9l63,36.4l2.5-11.3l-63-36.4L456.7,112.9L456.7,112.9z"/>
				</g>
			</g>
			<g>
				<polygon class="st8" points="625.4,299.5 623.4,308.3 710.6,358.7 712.6,349.8 				"/>
			</g>
			<g>
				<polygon class="st8" points="620.9,319.4 618.9,328.3 706.1,378.6 708.1,369.8 				"/>
			</g>
		</g>
		<g>
			<polygon class="st11" points="430,46.9 412.8,131.8 460.7,159 482.7,152.3 497.4,147.5 508.7,92.3 			"/>
			<polygon class="st12" points="497.4,147.5 469.5,135.2 460.7,159 			"/>
			<polygon class="st4" points="440.4,70.4 439.4,75.5 488.3,104.4 489.5,98.8 			"/>
			<polygon class="st4" points="436.7,85.9 435.6,91 484.6,119.9 485.8,114.3 			"/>
			<polygon class="st4" points="431.9,100.6 430.9,105.6 479.8,134.6 481,128.9 			"/>
		</g>
	</g>
	<g>
		<g>
			<g>
				<path class="st4" d="M343,132.6c-34.1,123.3-68.1,246.7-102.2,370c-2.7,9.9,12.7,14.1,15.4,4.2c34-123.3,68.1-246.7,102.1-370
					C361.2,126.9,345.8,122.7,343,132.6L343,132.6z"/>
			</g>
		</g>
		<g>
			<g>
				<path class="st4" d="M423.7,173.8c-34,123.3-68.1,246.7-102.1,370c-2.7,9.9,12.7,14.2,15.4,4.2C371,424.7,405,301.4,439.1,178
					C441.8,168.1,426.4,163.9,423.7,173.8L423.7,173.8z"/>
			</g>
		</g>
		<g>
			<path class="st4" d="M332.4,193.5c26.2,16,52.5,32.1,78.7,48.1c8.7,5.3,16.6-8.3,7.9-13.6c-26.2-16-52.5-32.1-78.7-48.1
				C331.7,174.6,323.8,188.2,332.4,193.5L332.4,193.5z"/>
		</g>
		<g>
			<path class="st4" d="M317.5,255.8c24.6,15.8,49.1,31.5,73.7,47.3c8.6,5.5,16.5-8.1,7.9-13.6c-24.6-15.8-49.1-31.5-73.7-47.3
				C316.9,236.7,309,250.4,317.5,255.8L317.5,255.8z"/>
		</g>
		<g>
			<path class="st4" d="M301.9,325.5c24.4,14.4,48.7,28.8,73.1,43.2c8.8,5.2,16.7-8.4,7.9-13.6c-24.4-14.4-48.7-28.8-73.1-43.2
				C301.1,306.7,293.2,320.3,301.9,325.5L301.9,325.5z"/>
		</g>
		<g>
			<path class="st4" d="M283.9,378c24.5,15.4,49,30.8,73.5,46.2c8.6,5.4,16.5-8.2,7.9-13.6c-24.5-15.4-49-30.8-73.5-46.2
				C283.2,359,275.3,372.7,283.9,378L283.9,378z"/>
		</g>
		<g>
			<path class="st4" d="M267.9,442.4c24.2,14.5,48.4,29.1,72.6,43.6c8.7,5.2,16.6-8.4,7.9-13.6c-24.2-14.5-48.4-29.1-72.6-43.6
				C267.1,423.6,259.2,437.2,267.9,442.4L267.9,442.4z"/>
		</g>
	</g>
	<g>
		<polygon class="st13" points="432,198.9 433.5,202 428.4,198.3 426.9,195.2 		"/>
	</g>
	<path class="st14" d="M312.7,418.2c0,0,8.8,2.3,6.1,7.2c-2.7,4.9-13.8,11.7-15.4,14.8c-1.7,3.1-11.2,13.9-13.8,12.5
		c-2.6-1.4-9.8-0.5-7.6-13.6C284.1,425.9,300.9,416.4,312.7,418.2z"/>
	<path class="st14" d="M323.4,467.7c0,0-5.6,12.2,4.9,16.3c10.5,4.1,8-3,30.9,5.4c22.9,8.4,26.3-3.5,26.6-6.3
		c0.7-6.3-15.4-9.2-20.4-11.1c-5-1.9-14.7-8-14.7-8l-27.6-0.1L323.4,467.7z"/>
	<path class="st15" d="M301.5,242.5c0,0-8,76.7-8.9,85.4c-0.9,8.6-17.5,75.7-14.8,106.1c0,0,15,18.5,31.5,3.2
		c0,0,13.4-84.8,19.7-103.6c6.2-18.8,10.8-77.8,10.8-77.8L301.5,242.5z"/>
	<path class="st15" d="M329.7,256.4c0,0-1.2,49.9-2.3,99.5c0,0-7.5,97.8-6.7,112c0,0,30.7,11,35.3-3.5c0,0,8-85.9,10.6-103.7
		c2.6-17.9,9.6-67.7,5.5-97.3C368,233.8,329.7,256.4,329.7,256.4z"/>
	<path class="st16" d="M320.8,467.9c-0.9-14.3,6.7-112,6.7-112c0.7-33.4,1.5-66.9,2-85.2l19,6.7c0,0,10.2,38.2,2.4,93.1
		c-6,42.5-11,84.4-12.9,101.2C329.2,471,320.8,467.9,320.8,467.9z"/>
	<path class="st16" d="M277.9,434c-2.7-30.4,13.9-97.5,14.8-106.1c0.8-8.2,8.1-78.2,8.8-84.8l15.6,14.7c0,0-0.2,55.4-8.8,86.1
		c-7.8,27.9-10.3,83.6-14.3,99.2C284.6,442.2,277.9,434,277.9,434z"/>
	<path class="st17" d="M348.2,89.8c0,0-14.8-5.3-21.6,19.8c-5.4,20.3-9,53.2-6.4,67.1c2.6,13.9,13.2,43.5,13.2,43.5s18.3,2.5,18.4-9
		l-9.6-44.8C342.2,166.5,365.7,92.2,348.2,89.8z"/>
	<path class="st18" d="M347,89.3c0,0-18.1,2.2-18.7,31.4c-0.6,29.2-0.4,48.3-4.4,57.8c-4,9.5-19.2,41-23.6,47
		c0,0-10.2,20.6,34.4,50.8c0,0,39,18.5,41.8-10.5c2.8-29,15.5-72.9,20.2-82.8c4.6-9.9,18.1-28.2-2.6-51.1
		C373.4,109,363.8,94.1,347,89.3z"/>
	<path class="st17" d="M396.8,183c-4.7,9.9-17.4,53.8-20.2,82.8c-1.9,20.1-21.3,17.4-32.9,13.8c0.5-13.2,14.3-32.2,15-61.1
		c0.8-35.8,9.9-56.5,21.6-71.6c7.6-9.8,14.4-7.7,19.6-7.6C411.9,158.8,400.9,174.2,396.8,183z"/>
	<g>
		<path class="st19" d="M369.8,82.8c0,0-3.2,14.2-10.9,21.1c-7,6.2,22.6,24.7,25.9,17.8c0.4-0.7-1.6-14.7,11.1-25.8
			C402.5,90,369.8,82.8,369.8,82.8z"/>
		<path class="st20" d="M358.8,104.5c5.7-5.1,9-14.3,10.3-18.7l19.3,20c0,0,0,0,0,0.1c-0.9-0.1-18.2-1.7-25.7,8.5
			C358.6,110.6,356.3,106.7,358.8,104.5z"/>
		<path class="st19" d="M416.5,58.6c0,0,0.6,14.2-4.2,24.5c-5.1,11.1-4.3,14-6.8,18.9c-1.1,2-2.4,5.3-5.3,6.6
			c-4.8,2.2-12.5,0.8-21.1-6.3c-10.4-8.6-17.2-29.6-6.8-42.6C382.7,46.7,402.8,40.1,416.5,58.6z"/>
		<path class="st21" d="M367.2,75.9c9.5-11.6,27.1-23.3,27.3-24.2c0.1-0.5,5-1.6,10.4-2.7c4.1,1.7,8.1,4.8,11.7,9.6
			c0,0,0.2,3.8-0.4,8.9c-4,2.2-11.1,3.8-12.9,6.1c-4.3,5.7-6.6,15.7-6.2,20.7c0.4,4.9-9.5,8.5-9.2,12.8c0,0.2,0,0.4-0.1,0.5
			c-2.7-1.2-5.6-2.9-8.5-5.4C372.5,96.7,367.3,86.2,367.2,75.9z"/>
		<path class="st22" d="M421.9,54.8c0,0-2,11.2-14.3,12.6c-7.4,0.8-10.4,11.2-10.8,13.2c-0.4,2-1.6,11.2-2.7,12
			c-2.2,1.6-4.8-6.7-7.3-7.1c-6.4-1-6,5.4-2.7,13.2c3.6,8.2-12.5,5.4-17.7-2.2c-2.8-4-3.6-6.1-5-17.6c-2.1-16.7,3.6-33.8,23.6-37
			C404.9,38.7,410,55.2,421.9,54.8z"/>
		<path class="st23" d="M366.4,96.4c-2.8-4-3.6-6.1-5-17.6c-2.1-16.7,3.6-33.8,23.6-37c20-3.1,25,13.3,36.9,12.9
			c0,0-0.4,1.9-1.6,4.2c-5.6-1-21.1-3.3-27.1,1.6c-7.3,6.1-11.6,1.8-14.6,11.4c-2.9,9.3-9.6,20.6,4.1,31.2
			C375.4,105.4,368.4,99.4,366.4,96.4z"/>
	</g>
	<path class="st24" d="M384.5,116.8l7.3,12.5c0,0-35.9-2.2-39.8-21.6c-0.5-2.7,3.8-9.7,10-9.1C362,98.6,358.5,112,384.5,116.8z"/>
	<path class="st19" d="M433.6,172.4c0,0-0.6-7.8,1.2-9.6c1.9-1.8,6.3-9.9,6.8-11.5c0.5-1.6,3.5-4.1,4.2-2.7
		c0.6,1.4-0.7,11.6-1.1,13.5c-0.4,1.9,8.2-1.2,10.1-4.3c1.9-3.1,4.4-6.5,5.2-5.4c0.8,1,4.5,9.9-2,18c-6.5,8.2-15.4,11.8-15.4,11.8
		L433.6,172.4z"/>
	<path class="st17" d="M389,136.6c4.7-0.8,13,1.6,14.7,12.5c1.7,10.9-5.3,55.2-5.3,55.2l33.6-34.8c0,0,13.5,5.9,12.2,15.3
		c0,0-51.8,60.9-58.5,60.2C367.7,243.2,364.1,141.1,389,136.6z"/>
	<path class="st18" d="M385.7,245.1c6.7,0.7,58.5-60.2,58.5-60.2c0.2-1.7,0-3.3-0.6-4.8l-1.4-2.6c-0.1-0.2-0.3-0.4-0.4-0.6
		c-1.4,1.5-43,44.4-55.2,52.8c-11.4,7.9,1.8-79.3,4-93.1c-0.5,0-1.1,0-1.5,0.1C364.1,141.1,367.7,243.2,385.7,245.1z"/>
</g>
</svg>
