<?xml version="1.0" encoding="utf-8"?>
<!-- Generator: Adobe Illustrator 22.0.1, SVG Export Plug-In . SVG Version: 6.00 Build 0)  -->
<svg version="1.1" id="a5860ba0-ef67-4914-ac96-07e2ebcccb4f"
	 xmlns="http://www.w3.org/2000/svg" xmlns:xlink="http://www.w3.org/1999/xlink" x="0px" y="0px" viewBox="0 0 1095.7 664"
	 style="enable-background:new 0 0 1095.7 664;" xml:space="preserve">
<style type="text/css">
	.st0{opacity:0.1;}
	.st1{enable-background:new    ;}
	.st2{clip-path:url(#SVGID_2_);enable-background:new    ;}
	.st3{fill:#B2C5CC;}
	.st4{fill:#ADC0C7;}
	.st5{fill:#A9BBC2;}
	.st6{fill:#A4B6BD;}
	.st7{fill:#A0B1B8;}
	.st8{fill:#9BACB3;}
	.st9{fill:#97A7AD;}
	.st10{fill:#93A2A8;}
	.st11{fill:#8E9DA3;}
	.st12{fill:#8A999E;}
	.st13{fill:#859499;}
	.st14{fill:#818F94;}
	.st15{fill:#7C8A8F;}
	.st16{fill:#78858A;}
	.st17{fill:#738085;}
	.st18{fill:#8AAFBF;}
	.st19{clip-path:url(#SVGID_4_);enable-background:new    ;}
	.st20{clip-path:url(#SVGID_6_);enable-background:new    ;}
	.st21{fill:#DEF6FF;}
	.st22{fill:#ABBEC5;}
	.st23{fill:#778488;}
	.st24{clip-path:url(#SVGID_8_);enable-background:new    ;}
	.st25{fill:#87ABBB;}
	.st26{fill:#84A7B7;}
	.st27{fill:#80A3B2;}
	.st28{fill:#7D9EAD;}
	.st29{fill:#7A9AA8;}
	.st30{fill:#7696A4;}
	.st31{fill:#73929F;}
	.st32{fill:#708D9A;}
	.st33{fill:#6C8996;}
	.st34{fill:#698591;}
	.st35{clip-path:url(#SVGID_10_);enable-background:new    ;}
	.st36{fill:#586F7A;}
	.st37{fill:#5B747E;}
	.st38{fill:#5F7883;}
	.st39{fill:#627C88;}
	.st40{fill:#65808C;}
	.st41{fill:#5FB7DD;}
	.st42{fill:#BFD4DB;}
	.st43{fill:#B2DDEA;}
	.st44{clip-path:url(#SVGID_12_);enable-background:new    ;}
	.st45{clip-path:url(#SVGID_14_);enable-background:new    ;}
	.st46{clip-path:url(#SVGID_16_);enable-background:new    ;}
	.st47{clip-path:url(#SVGID_18_);enable-background:new    ;}
	.st48{clip-path:url(#SVGID_20_);enable-background:new    ;}
	.st49{clip-path:url(#SVGID_22_);enable-background:new    ;}
	.st50{clip-path:url(#SVGID_24_);enable-background:new    ;}
	.st51{clip-path:url(#SVGID_26_);enable-background:new    ;}
	.st52{clip-path:url(#SVGID_28_);enable-background:new    ;}
	.st53{clip-path:url(#SVGID_30_);enable-background:new    ;}
	.st54{clip-path:url(#SVGID_32_);enable-background:new    ;}
	.st55{clip-path:url(#SVGID_34_);enable-background:new    ;}
	.st56{fill:#A9D6EA;}
	.st57{fill:#95C4DE;}
	.st58{fill:#2B0D04;}
	.st59{fill:#EFB185;}
	.st60{fill:#9CBC35;}
	.st61{fill:#779F29;}
	.st62{fill:#5FB9E6;}
	.st63{fill:#77D2FF;}
	.st64{fill:#E8A476;}
	.st65{fill:#DB9669;}
	.st66{fill:#F1B287;}
	.st67{fill:#EFF3FC;}
</style>
<g>
	<g>
		<g class="st0">
			<polygon points="230.9,518.4 406.9,620.7 813.5,386 633.1,280 			"/>
		</g>
		<g class="st1">
			<defs>
				<path id="SVGID_1_" class="st1" d="M583,422.9c39.9-23.1,72.3-79,72.1-124.9c3.7,2.2,7.5,4.4,11.2,6.5
					c0.1,45.9-32.2,101.9-72.1,124.9C590.9,427.5,586.4,424.8,583,422.9z"/>
			</defs>
			<clipPath id="SVGID_2_">
				<use xlink:href="#SVGID_1_"  style="overflow:visible;"/>
			</clipPath>
			<g class="st2">
				<path class="st3" d="M594.3,429.4l-11.3-6.5c8.5-4.9,16.6-11.3,24.2-18.7l11.2,6.5C610.9,418.2,602.7,424.5,594.3,429.4
					L594.3,429.4z"/>
				<path class="st4" d="M618.4,410.7l-11.2-6.5c2.7-2.7,5.3-5.5,7.9-8.4l11.3,6.5C623.8,405.2,621.1,408,618.4,410.7L618.4,410.7z"
					/>
				<path class="st5" d="M626.3,402.3l-11.3-6.5c2-2.3,4-4.7,5.9-7.1l11.2,6.5C630.3,397.6,628.3,400,626.3,402.3L626.3,402.3z"/>
				<path class="st6" d="M632.2,395.1l-11.2-6.5c1.7-2.1,3.2-4.3,4.8-6.5l11.2,6.5C635.5,390.8,633.9,393,632.2,395.1L632.2,395.1z"
					/>
				<path class="st7" d="M637,388.6l-11.2-6.5c1.4-2,2.8-4.1,4.2-6.2l11.3,6.5C639.8,384.5,638.5,386.6,637,388.6L637,388.6z"/>
				<path class="st8" d="M641.2,382.3l-11.3-6.5c1.3-2,2.5-4.1,3.7-6.1l11.2,6.5C643.7,378.3,642.5,380.3,641.2,382.3L641.2,382.3z"
					/>
				<path class="st9" d="M644.9,376.2l-11.2-6.5c1.2-2,2.3-4,3.4-6.1l11.3,6.5C647.2,372.2,646.1,374.2,644.9,376.2L644.9,376.2z"/>
				<path class="st10" d="M648.3,370.1l-11.3-6.5c1.1-2,2.1-4.1,3.1-6.2l11.2,6.5C650.5,366,649.4,368.1,648.3,370.1L648.3,370.1z"
					/>
				<path class="st11" d="M651.5,364l-11.2-6.5c1-2.1,1.9-4.2,2.9-6.3l11.3,6.5C653.4,359.8,652.5,361.9,651.5,364L651.5,364z"/>
				<path class="st12" d="M654.3,357.7l-11.3-6.5c0.9-2.2,1.8-4.3,2.7-6.5l11.2,6.5C656.2,353.4,655.3,355.5,654.3,357.7
					L654.3,357.7z"/>
				<path class="st13" d="M657,351.2l-11.2-6.5c0.9-2.3,1.7-4.5,2.4-6.8l11.3,6.5C658.7,346.7,657.9,348.9,657,351.2L657,351.2z"/>
				<path class="st14" d="M659.5,344.4l-11.3-6.5c0.8-2.5,1.6-4.9,2.3-7.4l11.2,6.5C661,339.5,660.3,341.9,659.5,344.4L659.5,344.4z
					"/>
				<path class="st15" d="M661.7,337l-11.2-6.5c0.8-2.8,1.4-5.5,2-8.3l11.3,6.5C663.2,331.5,662.5,334.2,661.7,337L661.7,337z"/>
				<path class="st16" d="M663.7,328.7l-11.3-6.5c0.7-3.4,1.3-6.7,1.7-10l11.3,6.5C665,322,664.5,325.3,663.7,328.7L663.7,328.7z"/>
				<path class="st17" d="M665.5,318.7l-11.3-6.5c0.6-4.8,0.9-9.5,0.9-14.2c-0.1-22.8-8.1-38.9-21.1-46.4l11.3,6.5
					c13,7.5,21.1,23.6,21.1,46.4C666.4,309.1,666.1,313.9,665.5,318.7L665.5,318.7z"/>
			</g>
		</g>
		<g>
			<polygon class="st18" points="570.2,392.6 558.9,386.1 617.4,319.8 628.6,326.3 			"/>
		</g>
		<g class="st1">
			<defs>
				<path id="SVGID_3_" class="st1" d="M531.5,427.9c13.2,7.7,31.4,6.6,51.5-5l11.3,6.5c-20.1,11.6-38.3,12.7-51.5,5
					C539.4,432.5,534.9,429.9,531.5,427.9z"/>
			</defs>
			<clipPath id="SVGID_4_">
				<use xlink:href="#SVGID_3_"  style="overflow:visible;"/>
			</clipPath>
			<g class="st19">
				<path class="st12" d="M542.8,434.5l-11.3-6.5c0.1,0.1,0.3,0.2,0.4,0.2l11.3,6.5C543,434.6,542.9,434.5,542.8,434.5L542.8,434.5z
					"/>
				<path class="st11" d="M543.2,434.7l-11.3-6.5c1.2,0.7,2.4,1.3,3.6,1.8l11.2,6.5C545.6,435.9,544.4,435.4,543.2,434.7
					L543.2,434.7z"/>
				<path class="st10" d="M546.8,436.5l-11.2-6.5c1.2,0.5,2.5,1,3.8,1.3l11.3,6.5C549.3,437.4,548,437,546.8,436.5L546.8,436.5z"/>
				<path class="st9" d="M550.6,437.8l-11.3-6.5c1.3,0.4,2.7,0.7,4.1,0.9l11.2,6.5C553.3,438.5,551.9,438.2,550.6,437.8L550.6,437.8
					z"/>
				<path class="st8" d="M554.7,438.8l-11.2-6.5c1.4,0.2,2.9,0.4,4.4,0.5l11.2,6.5C557.6,439.2,556.1,439,554.7,438.8L554.7,438.8z"
					/>
				<path class="st7" d="M559.1,439.3l-11.2-6.5c1.6,0.1,3.2,0.1,4.8,0l11.3,6.5C562.2,439.4,560.6,439.4,559.1,439.3L559.1,439.3z"
					/>
				<path class="st6" d="M563.9,439.3l-11.3-6.5c1.8-0.1,3.6-0.3,5.4-0.5l11.3,6.5C567.4,439,565.6,439.2,563.9,439.3L563.9,439.3z"
					/>
				<path class="st5" d="M569.3,438.8l-11.3-6.5c2.1-0.3,4.2-0.8,6.4-1.4l11.2,6.5C573.4,438,571.3,438.4,569.3,438.8L569.3,438.8z"
					/>
				<path class="st4" d="M575.6,437.4l-11.2-6.5c2.8-0.8,5.6-1.7,8.5-2.9l11.2,6.5C581.2,435.7,578.4,436.6,575.6,437.4L575.6,437.4
					z"/>
				<path class="st3" d="M584.1,434.5l-11.2-6.5c3.3-1.4,6.7-3.1,10.1-5l11.3,6.5C590.8,431.4,587.5,433.1,584.1,434.5L584.1,434.5z
					"/>
			</g>
		</g>
		<g class="st1">
			<defs>
				<path id="SVGID_5_" class="st1" d="M655.1,297.9c-0.1-22.8-8.1-38.9-21.1-46.4l11.2,6.5c13,7.5,21.1,23.6,21.1,46.4
					C662.6,302.3,658.9,300.1,655.1,297.9z"/>
			</defs>
			<clipPath id="SVGID_6_">
				<use xlink:href="#SVGID_5_"  style="overflow:visible;"/>
			</clipPath>
			<g class="st20">
				<path class="st17" d="M665.5,318.7l-11.3-6.5c0.6-4.8,0.9-9.5,0.9-14.2c-0.1-22.8-8.1-38.9-21.1-46.4l11.3,6.5
					c13,7.5,21.1,23.6,21.1,46.4C666.4,309.1,666.1,313.9,665.5,318.7L665.5,318.7z"/>
			</g>
		</g>
		<g>
			<polygon class="st21" points="570,327.5 628.6,326.3 570.2,392.6 			"/>
		</g>
		<g>
			<polygon class="st22" points="570,327.5 558.8,321 617.4,319.8 628.6,326.3 			"/>
		</g>
		<g>
			<polygon class="st23" points="570.2,392.6 558.9,386.1 558.8,321 570,327.5 			"/>
		</g>
		<g class="st1">
			<defs>
				<path id="SVGID_7_" class="st1" d="M634,251.5l11.3,6.5c-13.2-7.6-31.4-6.6-51.5,5l-11.2-6.5C602.6,244.9,620.9,243.9,634,251.5
					z"/>
			</defs>
			<clipPath id="SVGID_8_">
				<use xlink:href="#SVGID_7_"  style="overflow:visible;"/>
			</clipPath>
			<g class="st24">
				<path class="st25" d="M593.8,263.1l-11.2-6.5c3.4-2,6.8-3.6,10.1-5l11.2,6.5C600.6,259.4,597.2,261.1,593.8,263.1L593.8,263.1z"
					/>
				<path class="st26" d="M603.9,258l-11.2-6.5c2.9-1.2,5.7-2.2,8.5-2.9l11.3,6.5C609.7,255.9,606.8,256.8,603.9,258L603.9,258z"/>
				<path class="st27" d="M612.4,255.1l-11.3-6.5c2.2-0.6,4.3-1,6.4-1.4l11.2,6.5C616.7,254.1,614.6,254.5,612.4,255.1L612.4,255.1z
					"/>
				<path class="st28" d="M618.8,253.8l-11.2-6.5c1.8-0.3,3.6-0.5,5.4-0.5l11.2,6.5C622.4,253.3,620.6,253.5,618.8,253.8
					L618.8,253.8z"/>
				<path class="st29" d="M624.2,253.2l-11.2-6.5c1.6-0.1,3.2-0.1,4.8,0l11.3,6.5C627.4,253.2,625.8,253.1,624.2,253.2L624.2,253.2z
					"/>
				<path class="st30" d="M629,253.2l-11.3-6.5c1.5,0.1,2.9,0.3,4.4,0.5l11.3,6.5C631.9,253.5,630.5,253.3,629,253.2L629,253.2z"/>
				<path class="st31" d="M633.4,253.8l-11.3-6.5c1.4,0.2,2.7,0.6,4.1,0.9l11.2,6.5C636.1,254.3,634.7,254,633.4,253.8L633.4,253.8z
					"/>
				<path class="st32" d="M637.4,254.7l-11.2-6.5c1.3,0.4,2.6,0.8,3.8,1.3l11.3,6.5C640,255.5,638.7,255.1,637.4,254.7L637.4,254.7z
					"/>
				<path class="st33" d="M641.2,256l-11.3-6.5c1.3,0.5,2.5,1.1,3.6,1.8l11.3,6.5C643.7,257.2,642.5,256.6,641.2,256L641.2,256z"/>
				<path class="st34" d="M644.9,257.8l-11.3-6.5c0.1,0.1,0.3,0.2,0.4,0.2l11.3,6.5C645.1,258,645,257.9,644.9,257.8L644.9,257.8z"
					/>
			</g>
		</g>
		<g class="st1">
			<defs>
				<path id="SVGID_9_" class="st1" d="M542.8,434.5l-11.3-6.5c-13-7.5-21-23.6-21.1-46.4c-0.1-45.9,32.2-101.9,72.1-125l11.2,6.5
					c-40,23.1-72.3,79-72.1,124.9C521.7,410.9,529.8,426.9,542.8,434.5z"/>
			</defs>
			<clipPath id="SVGID_10_">
				<use xlink:href="#SVGID_9_"  style="overflow:visible;"/>
			</clipPath>
			<g class="st35">
				<path class="st36" d="M542.8,434.5l-11.3-6.5c-13-7.5-21-23.6-21.1-46.4c0-4.6,0.3-9.4,0.9-14.2l11.3,6.5
					c-0.6,4.8-0.9,9.5-0.9,14.2C521.7,410.9,529.8,426.9,542.8,434.5L542.8,434.5z"/>
				<path class="st37" d="M522.6,373.9l-11.3-6.5c0.4-3.3,1-6.7,1.7-10l11.2,6.5C523.6,367.2,523,370.5,522.6,373.9L522.6,373.9z"/>
				<path class="st38" d="M524.3,363.8l-11.2-6.5c0.6-2.8,1.3-5.5,2-8.3l11.2,6.5C525.6,358.3,524.9,361.1,524.3,363.8L524.3,363.8z
					"/>
				<path class="st39" d="M526.3,355.5l-11.2-6.5c0.7-2.5,1.4-4.9,2.2-7.4l11.2,6.5C527.8,350.6,527,353.1,526.3,355.5L526.3,355.5z
					"/>
				<path class="st40" d="M528.6,348.2l-11.2-6.5c0.8-2.3,1.6-4.6,2.4-6.8l11.2,6.5C530.2,343.6,529.4,345.9,528.6,348.2
					L528.6,348.2z"/>
				<path class="st34" d="M531,341.3l-11.2-6.5c0.8-2.2,1.7-4.3,2.7-6.5l11.3,6.5C532.8,337,531.9,339.1,531,341.3L531,341.3z"/>
				<path class="st33" d="M533.7,334.8l-11.3-6.5c0.9-2.1,1.9-4.2,2.9-6.3l11.2,6.5C535.6,330.6,534.6,332.7,533.7,334.8
					L533.7,334.8z"/>
				<path class="st32" d="M536.6,328.5l-11.2-6.5c1-2.1,2-4.1,3.1-6.2l11.2,6.5C538.6,324.4,537.6,326.5,536.6,328.5L536.6,328.5z"
					/>
				<path class="st31" d="M539.7,322.4l-11.2-6.5c1.1-2.1,2.2-4.1,3.4-6.1l11.2,6.5C541.9,318.3,540.8,320.3,539.7,322.4
					L539.7,322.4z"/>
				<path class="st30" d="M543.1,316.3l-11.2-6.5c1.2-2.1,2.4-4.1,3.7-6.1l11.3,6.5C545.6,312.2,544.3,314.2,543.1,316.3
					L543.1,316.3z"/>
				<path class="st29" d="M546.8,310.2l-11.3-6.5c1.3-2.1,2.8-4.2,4.2-6.3l11.2,6.5C549.6,306,548.2,308.1,546.8,310.2L546.8,310.2z
					"/>
				<path class="st28" d="M551,303.9l-11.2-6.5c1.6-2.2,3.2-4.4,4.8-6.5l11.2,6.5C554.2,299.5,552.6,301.7,551,303.9L551,303.9z"/>
				<path class="st27" d="M555.8,297.4l-11.2-6.5c1.9-2.4,3.8-4.8,5.9-7.1l11.3,6.5C559.7,292.6,557.7,294.9,555.8,297.4
					L555.8,297.4z"/>
				<path class="st26" d="M561.7,290.2l-11.3-6.5c2.6-2.9,5.2-5.8,7.9-8.4l11.2,6.5C566.9,284.5,564.3,287.3,561.7,290.2
					L561.7,290.2z"/>
				<path class="st25" d="M569.6,281.8l-11.2-6.5c7.6-7.4,15.7-13.8,24.2-18.7l11.2,6.5C585.3,268,577.2,274.4,569.6,281.8
					L569.6,281.8z"/>
			</g>
		</g>
		<g>
			<path class="st41" d="M593.8,263.1c39.9-23.1,72.5-4.5,72.6,41.4c0.1,45.9-32.2,101.9-72.1,124.9c-40,23.1-72.5,4.5-72.6-41.4
				C521.5,342.1,553.8,286.2,593.8,263.1z M570.2,392.6l58.4-66.3l-58.6,1.2L570.2,392.6L570.2,392.6z"/>
		</g>
		<g>
			<polygon class="st42" points="387.3,324.7 376.1,318.2 803.8,71.3 815,77.8 			"/>
		</g>
		<g>
			<path class="st21" d="M387.3,324.7L815,77.8l0.8,292.6c0,6.9-4.8,15.3-10.8,18.7L399,623.5c-6,3.5-10.8,0.7-10.9-6.2L387.3,324.7
				z M594.3,429.4c39.9-23.1,72.2-79,72.1-124.9c-0.1-45.9-32.6-64.5-72.6-41.4c-40,23.1-72.3,79-72.1,124.9
				C521.8,434,554.3,452.5,594.3,429.4L594.3,429.4z"/>
		</g>
		<path class="st43" d="M388.2,617.3l-0.8-292.6l-11.2-6.5l0.8,292.6c0,3.4,1.2,5.8,3.2,7c3.7,2.2,7.5,4.3,11.2,6.5
			C389.4,623.1,388.2,620.7,388.2,617.3z"/>
		<g class="st1">
			<defs>
				<path id="SVGID_11_" class="st1" d="M469.5,239.8c0-3.1-1.1-5.3-2.9-6.3l11.2,6.5c1.8,1,2.9,3.2,2.9,6.3l0,0l0,0l0,0l0,0l0,0
					c-2.4-1.4-4.7-2.8-7.1-4.1C472.3,241.4,470.9,240.6,469.5,239.8c3.7,2.2,7.5,4.4,11.2,6.5c0,6.3-4.4,13.9-9.8,17.1l-11.2-6.5
					C465.2,253.7,469.5,246.1,469.5,239.8z"/>
			</defs>
			<clipPath id="SVGID_12_">
				<use xlink:href="#SVGID_11_"  style="overflow:visible;"/>
			</clipPath>
			<g class="st44">
				<path class="st25" d="M470.9,263.4l-11.2-6.5c1.1-0.7,2.3-1.5,3.3-2.6l11.2,6.5C473.2,261.9,472.1,262.8,470.9,263.4
					L470.9,263.4z"/>
				<path class="st26" d="M474.2,260.9l-11.2-6.5c0.4-0.4,0.7-0.7,1.1-1.1l11.2,6.5C475,260.1,474.6,260.5,474.2,260.9L474.2,260.9z
					"/>
				<path class="st27" d="M475.3,259.7l-11.2-6.5c0.3-0.3,0.5-0.6,0.8-1l11.3,6.5C475.8,259.1,475.6,259.4,475.3,259.7L475.3,259.7z
					"/>
				<path class="st28" d="M476.1,258.8l-11.3-6.5c0.2-0.3,0.4-0.6,0.7-0.9l11.3,6.5C476.5,258.2,476.3,258.5,476.1,258.8
					L476.1,258.8z"/>
				<path class="st29" d="M476.8,257.9l-11.3-6.5c0.2-0.3,0.4-0.6,0.6-0.9l11.2,6.5C477.1,257.3,477,257.6,476.8,257.9L476.8,257.9z
					"/>
				<path class="st30" d="M477.3,257l-11.2-6.5c0.2-0.3,0.4-0.6,0.5-0.8l11.2,6.5C477.7,256.5,477.5,256.7,477.3,257L477.3,257z"/>
				<path class="st31" d="M477.8,256.2l-11.2-6.5c0.2-0.3,0.3-0.6,0.5-0.8l11.3,6.5C478.2,255.6,478,255.9,477.8,256.2L477.8,256.2z
					"/>
				<path class="st32" d="M478.3,255.3l-11.3-6.5c0.1-0.3,0.3-0.6,0.4-0.8l11.2,6.5C478.6,254.8,478.5,255.1,478.3,255.3
					L478.3,255.3z"/>
				<path class="st33" d="M478.7,254.5l-11.2-6.5c0.1-0.3,0.3-0.6,0.4-0.9l11.2,6.5C479,253.9,478.9,254.2,478.7,254.5L478.7,254.5z
					"/>
				<path class="st34" d="M479.1,253.6l-11.2-6.5c0.1-0.3,0.2-0.6,0.4-0.9l11.2,6.5C479.4,253,479.2,253.3,479.1,253.6L479.1,253.6z
					"/>
				<path class="st40" d="M479.5,252.7l-11.2-6.5c0.1-0.3,0.2-0.6,0.3-0.9l11.2,6.5C479.7,252.1,479.6,252.4,479.5,252.7
					L479.5,252.7z"/>
				<path class="st39" d="M479.8,251.8l-11.2-6.5c0.1-0.3,0.2-0.7,0.3-1l11.2,6.5C480,251.1,479.9,251.5,479.8,251.8L479.8,251.8z"
					/>
				<path class="st38" d="M480.1,250.8l-11.2-6.5c0.1-0.4,0.2-0.8,0.3-1.1l11.2,6.5C480.3,250,480.2,250.4,480.1,250.8L480.1,250.8z
					"/>
				<path class="st37" d="M480.4,249.7l-11.2-6.5c0.1-0.5,0.2-0.9,0.2-1.4l11.3,6.5C480.6,248.7,480.5,249.2,480.4,249.7
					L480.4,249.7z"/>
				<path class="st36" d="M480.7,248.3l-11.3-6.5c0.1-0.7,0.1-1.3,0.1-1.9c0-3.1-1.1-5.3-2.9-6.3l11.2,6.5c1.8,1,2.9,3.2,2.9,6.3
					C480.8,247,480.7,247.6,480.7,248.3L480.7,248.3z"/>
			</g>
		</g>
		<g class="st1">
			<defs>
				<path id="SVGID_13_" class="st1" d="M466.7,233.4c0.6,0.3,1.1,0.7,1.7,1c3.2,1.9,6.4,3.7,9.6,5.6c-1.8-1-4.3-0.9-7,0.7
					l-11.2-6.5C462.4,232.6,464.9,232.4,466.7,233.4z"/>
			</defs>
			<clipPath id="SVGID_14_">
				<use xlink:href="#SVGID_13_"  style="overflow:visible;"/>
			</clipPath>
			<g class="st45">
				<path class="st3" d="M470.9,240.7l-11.2-6.5c0.5-0.3,0.9-0.5,1.4-0.7l11.2,6.5C471.8,240.2,471.3,240.4,470.9,240.7L470.9,240.7
					z"/>
				<path class="st4" d="M472.3,240l-11.2-6.5c0.4-0.2,0.8-0.3,1.2-0.4l11.3,6.5C473,239.7,472.6,239.8,472.3,240L472.3,240z"/>
				<path class="st5" d="M473.4,239.6l-11.3-6.5c0.3-0.1,0.6-0.1,0.9-0.2l11.2,6.5C474,239.4,473.7,239.5,473.4,239.6L473.4,239.6z"
					/>
				<path class="st6" d="M474.3,239.4l-11.2-6.5c0.2,0,0.5-0.1,0.7-0.1l11.2,6.5C474.8,239.3,474.5,239.4,474.3,239.4L474.3,239.4z"
					/>
				<path class="st7" d="M475,239.3l-11.2-6.5c0.2,0,0.4,0,0.7,0l11.2,6.5C475.5,239.3,475.3,239.3,475,239.3L475,239.3z"/>
				<path class="st8" d="M475.7,239.3l-11.2-6.5c0.2,0,0.4,0,0.6,0.1l11.3,6.5C476.1,239.4,475.9,239.3,475.7,239.3L475.7,239.3z"/>
				<path class="st9" d="M476.3,239.4l-11.3-6.5c0.2,0,0.4,0.1,0.6,0.1l11.2,6.5C476.6,239.5,476.5,239.4,476.3,239.4L476.3,239.4z"
					/>
				<path class="st10" d="M476.8,239.5l-11.2-6.5c0.2,0,0.4,0.1,0.5,0.2l11.2,6.5C477.2,239.6,477,239.6,476.8,239.5L476.8,239.5z"
					/>
				<path class="st11" d="M477.3,239.7l-11.2-6.5c0.2,0.1,0.3,0.1,0.5,0.2l11.3,6.5C477.7,239.9,477.5,239.8,477.3,239.7
					L477.3,239.7z"/>
				<path class="st12" d="M477.9,239.9l-11.3-6.5c0,0,0,0,0.1,0L477.9,239.9C477.9,240,477.9,240,477.9,239.9L477.9,239.9z"/>
			</g>
		</g>
		<g class="st1">
			<defs>
				<path id="SVGID_15_" class="st1" d="M463.9,264.1l-11.3-6.5c-1.8-1-2.9-3.2-2.9-6.4c0-6.3,4.4-13.9,9.9-17.1l11.2,6.5
					c-5.5,3.2-9.9,10.8-9.9,17.1C461,260.9,462.1,263.1,463.9,264.1z"/>
			</defs>
			<clipPath id="SVGID_16_">
				<use xlink:href="#SVGID_15_"  style="overflow:visible;"/>
			</clipPath>
			<g class="st46">
				<path class="st17" d="M463.9,264.1l-11.3-6.5c-1.8-1-2.9-3.2-2.9-6.4c0-0.6,0-1.3,0.1-1.9l11.2,6.5c-0.1,0.7-0.1,1.3-0.1,1.9
					C461,260.9,462.1,263.1,463.9,264.1L463.9,264.1z"/>
				<path class="st16" d="M461.1,255.8l-11.2-6.5c0.1-0.5,0.1-0.9,0.2-1.4l11.2,6.5C461.2,254.9,461.2,255.4,461.1,255.8
					L461.1,255.8z"/>
				<path class="st15" d="M461.3,254.5l-11.2-6.5c0.1-0.4,0.2-0.8,0.3-1.1l11.2,6.5C461.5,253.7,461.4,254.1,461.3,254.5
					L461.3,254.5z"/>
				<path class="st14" d="M461.6,253.3l-11.2-6.5c0.1-0.3,0.2-0.7,0.3-1l11.3,6.5C461.8,252.7,461.7,253,461.6,253.3L461.6,253.3z"
					/>
				<path class="st13" d="M461.9,252.3l-11.3-6.5c0.1-0.3,0.2-0.6,0.3-0.9l11.2,6.5C462.1,251.7,462,252,461.9,252.3L461.9,252.3z"
					/>
				<path class="st12" d="M462.3,251.4l-11.2-6.5c0.1-0.3,0.2-0.6,0.4-0.9l11.3,6.5C462.5,250.8,462.4,251.1,462.3,251.4
					L462.3,251.4z"/>
				<path class="st11" d="M462.6,250.5l-11.3-6.5c0.1-0.3,0.3-0.6,0.4-0.9l11.2,6.5C462.9,249.9,462.7,250.2,462.6,250.5
					L462.6,250.5z"/>
				<path class="st10" d="M463,249.7l-11.2-6.5c0.1-0.3,0.3-0.6,0.4-0.8l11.3,6.5C463.3,249.1,463.2,249.4,463,249.7L463,249.7z"/>
				<path class="st9" d="M463.4,248.8l-11.3-6.5c0.1-0.3,0.3-0.6,0.5-0.8l11.3,6.5C463.7,248.3,463.6,248.5,463.4,248.8L463.4,248.8
					z"/>
				<path class="st8" d="M463.9,248l-11.3-6.5c0.2-0.3,0.3-0.6,0.5-0.8l11.2,6.5C464.2,247.4,464.1,247.7,463.9,248L463.9,248z"/>
				<path class="st7" d="M464.4,247.1l-11.2-6.5c0.2-0.3,0.4-0.6,0.6-0.9l11.2,6.5C464.8,246.6,464.6,246.9,464.4,247.1L464.4,247.1
					z"/>
				<path class="st6" d="M465,246.3l-11.2-6.5c0.2-0.3,0.4-0.6,0.7-0.9l11.3,6.5C465.4,245.7,465.2,246,465,246.3L465,246.3z"/>
				<path class="st5" d="M465.7,245.4l-11.3-6.5c0.3-0.3,0.5-0.7,0.8-1l11.2,6.5C466.2,244.7,465.9,245.1,465.7,245.4L465.7,245.4z"
					/>
				<path class="st4" d="M466.5,244.4l-11.2-6.5c0.4-0.4,0.7-0.8,1.1-1.2l11.2,6.5C467.2,243.6,466.8,244,466.5,244.4L466.5,244.4z"
					/>
				<path class="st3" d="M467.5,243.3l-11.2-6.5c1-1,2.1-1.9,3.3-2.6l11.2,6.5C469.7,241.4,468.6,242.2,467.5,243.3L467.5,243.3z"/>
			</g>
		</g>
		<g class="st1">
			<defs>
				<path id="SVGID_17_" class="st1" d="M444.5,255.8c3.3,1.9,6.6,3.9,9.9,5.8l0,0l0,0l0,0l0,0l0,0l0,0l0,0
					C451.1,259.6,447.8,257.7,444.5,255.8z"/>
			</defs>
			<clipPath id="SVGID_18_">
				<use xlink:href="#SVGID_17_"  style="overflow:visible;"/>
			</clipPath>
			<g class="st47">
				<path class="st36" d="M454.3,263.5L443,257c0.1-0.7,0.1-1.3,0.1-1.9c0-3.1-1.1-5.3-2.9-6.3l11.2,6.5c1.8,1,2.9,3.2,2.9,6.3
					C454.4,262.2,454.3,262.8,454.3,263.5L454.3,263.5z"/>
			</g>
		</g>
		<g class="st1">
			<defs>
				<path id="SVGID_19_" class="st1" d="M443.1,255c0-3.1-1.1-5.3-2.9-6.3l11.2,6.5c1.8,1,2.9,3.2,2.9,6.3l0,0l0,0l0,0l0,0l0,0l0,0
					l0,0l0,0C450.6,259.4,446.9,257.2,443.1,255c3.7,2.2,7.5,4.4,11.2,6.5c0,6.3-4.4,14-9.9,17.1l-11.3-6.5
					C438.7,269,443.2,261.3,443.1,255z"/>
			</defs>
			<clipPath id="SVGID_20_">
				<use xlink:href="#SVGID_19_"  style="overflow:visible;"/>
			</clipPath>
			<g class="st48">
				<path class="st25" d="M444.5,278.7l-11.3-6.5c1.2-0.7,2.3-1.5,3.3-2.6l11.3,6.5C446.8,277.1,445.7,278,444.5,278.7L444.5,278.7z
					"/>
				<path class="st26" d="M447.8,276.1l-11.3-6.5c0.4-0.4,0.7-0.8,1.1-1.2l11.3,6.5C448.5,275.4,448.2,275.8,447.8,276.1
					L447.8,276.1z"/>
				<path class="st27" d="M448.9,275l-11.3-6.5c0.3-0.3,0.5-0.6,0.8-1l11.2,6.5C449.4,274.3,449.2,274.7,448.9,275L448.9,275z"/>
				<path class="st28" d="M449.7,274l-11.2-6.5c0.2-0.3,0.4-0.6,0.7-0.9l11.2,6.5C450.1,273.4,449.9,273.7,449.7,274L449.7,274z"/>
				<path class="st29" d="M450.4,273.1l-11.2-6.5c0.2-0.3,0.4-0.6,0.6-0.9l11.2,6.5C450.8,272.5,450.6,272.8,450.4,273.1
					L450.4,273.1z"/>
				<path class="st30" d="M450.9,272.2l-11.2-6.5c0.2-0.3,0.4-0.6,0.5-0.8l11.3,6.5C451.3,271.7,451.1,272,450.9,272.2L450.9,272.2z
					"/>
				<path class="st31" d="M451.4,271.4l-11.3-6.5c0.2-0.3,0.3-0.6,0.5-0.8l11.2,6.5C451.8,270.8,451.6,271.1,451.4,271.4
					L451.4,271.4z"/>
				<path class="st32" d="M451.9,270.6l-11.2-6.5c0.1-0.3,0.3-0.6,0.4-0.8l11.3,6.5C452.2,270,452.1,270.3,451.9,270.6L451.9,270.6z
					"/>
				<path class="st33" d="M452.4,269.7l-11.3-6.5c0.1-0.3,0.3-0.6,0.4-0.9l11.2,6.5C452.6,269.1,452.5,269.4,452.4,269.7
					L452.4,269.7z"/>
				<path class="st34" d="M452.7,268.8l-11.2-6.5c0.1-0.3,0.3-0.6,0.4-0.9l11.2,6.5C453,268.3,452.9,268.5,452.7,268.8L452.7,268.8z
					"/>
				<path class="st40" d="M453.1,268l-11.2-6.5c0.1-0.3,0.2-0.6,0.3-0.9l11.2,6.5C453.3,267.3,453.2,267.6,453.1,268L453.1,268z"/>
				<path class="st39" d="M453.4,267l-11.2-6.5c0.1-0.3,0.2-0.7,0.3-1l11.2,6.5C453.7,266.3,453.6,266.7,453.4,267L453.4,267z"/>
				<path class="st38" d="M453.7,266l-11.2-6.5c0.1-0.4,0.2-0.8,0.3-1.1l11.2,6.5C453.9,265.2,453.9,265.6,453.7,266L453.7,266z"/>
				<path class="st37" d="M454,264.9l-11.2-6.5c0.1-0.5,0.2-0.9,0.2-1.4l11.2,6.5C454.2,264,454.1,264.4,454,264.9L454,264.9z"/>
				<path class="st36" d="M454.3,263.5L443,257c0.1-0.7,0.1-1.3,0.1-1.9c0-3.1-1.1-5.3-2.9-6.3l11.2,6.5c1.8,1,2.9,3.2,2.9,6.3
					C454.4,262.2,454.3,262.8,454.3,263.5L454.3,263.5z"/>
			</g>
		</g>
		<g class="st1">
			<defs>
				<path id="SVGID_21_" class="st1" d="M426.2,272.8c1.8,1,4.3,0.9,7-0.7c3.3,1.9,6.6,3.9,9.9,5.8l1.3,0.8
					c-2.8,1.6-5.3,1.7-7.1,0.7C434.1,277.4,429.6,274.8,426.2,272.8z"/>
			</defs>
			<clipPath id="SVGID_22_">
				<use xlink:href="#SVGID_21_"  style="overflow:visible;"/>
			</clipPath>
			<g class="st49">
				<path class="st34" d="M437.5,279.4l-11.2-6.5c0,0,0,0,0.1,0L437.5,279.4C437.5,279.4,437.5,279.4,437.5,279.4L437.5,279.4z"/>
				<path class="st33" d="M437.5,279.4l-11.2-6.5c0.2,0.1,0.3,0.2,0.5,0.2l11.3,6.5C437.8,279.6,437.7,279.5,437.5,279.4
					L437.5,279.4z"/>
				<path class="st32" d="M438,279.6l-11.3-6.5c0.2,0.1,0.4,0.1,0.5,0.2l11.2,6.5C438.4,279.8,438.2,279.7,438,279.6L438,279.6z"/>
				<path class="st31" d="M438.5,279.8l-11.2-6.5c0.2,0,0.4,0.1,0.6,0.1l11.2,6.5C438.9,279.9,438.7,279.9,438.5,279.8L438.5,279.8z
					"/>
				<path class="st30" d="M439.1,280l-11.2-6.5c0.2,0,0.4,0.1,0.6,0.1l11.2,6.5C439.5,280,439.3,280,439.1,280L439.1,280z"/>
				<path class="st29" d="M439.7,280l-11.2-6.5c0.2,0,0.4,0,0.7,0l11.2,6.5C440.1,280,439.9,280,439.7,280L439.7,280z"/>
				<path class="st28" d="M440.3,280l-11.2-6.5c0.2,0,0.5,0,0.7-0.1l11.2,6.5C440.8,280,440.6,280,440.3,280L440.3,280z"/>
				<path class="st27" d="M441.1,280l-11.2-6.5c0.3,0,0.6-0.1,0.9-0.2l11.2,6.5C441.7,279.9,441.4,279.9,441.1,280L441.1,280z"/>
				<path class="st26" d="M442,279.8l-11.2-6.5c0.4-0.1,0.8-0.2,1.2-0.4l11.2,6.5C442.7,279.5,442.3,279.7,442,279.8L442,279.8z"/>
				<path class="st25" d="M443.1,279.4l-11.2-6.5c0.5-0.2,0.9-0.4,1.4-0.7l11.3,6.5C444,279,443.6,279.2,443.1,279.4L443.1,279.4z"
					/>
			</g>
		</g>
		<g class="st1">
			<defs>
				<path id="SVGID_23_" class="st1" d="M440.3,248.7l11.2,6.5c-1.8-1.1-4.3-0.9-7.1,0.7l-11.3-6.5
					C435.9,247.8,438.5,247.7,440.3,248.7z"/>
			</defs>
			<clipPath id="SVGID_24_">
				<use xlink:href="#SVGID_23_"  style="overflow:visible;"/>
			</clipPath>
			<g class="st50">
				<path class="st3" d="M444.4,255.9l-11.3-6.5c0.5-0.3,0.9-0.5,1.4-0.7l11.3,6.5C445.4,255.4,444.9,255.7,444.4,255.9L444.4,255.9
					z"/>
				<path class="st4" d="M445.8,255.2l-11.3-6.5c0.4-0.2,0.8-0.3,1.2-0.4l11.3,6.5C446.6,254.9,446.2,255.1,445.8,255.2L445.8,255.2
					z"/>
				<path class="st5" d="M447,254.8l-11.3-6.5c0.3-0.1,0.6-0.2,0.9-0.2l11.3,6.5C447.6,254.7,447.3,254.8,447,254.8L447,254.8z"/>
				<path class="st6" d="M447.9,254.6l-11.3-6.5c0.3,0,0.5-0.1,0.8-0.1l11.2,6.5C448.4,254.6,448.1,254.6,447.9,254.6L447.9,254.6z"
					/>
				<path class="st7" d="M448.6,254.6l-11.2-6.5c0.2,0,0.4,0,0.7,0l11.2,6.5C449.1,254.6,448.8,254.6,448.6,254.6L448.6,254.6z"/>
				<path class="st8" d="M449.3,254.6L438,248c0.2,0,0.4,0,0.6,0.1l11.3,6.5C449.7,254.6,449.5,254.6,449.3,254.6L449.3,254.6z"/>
				<path class="st9" d="M449.9,254.6l-11.3-6.5c0.2,0,0.4,0.1,0.6,0.1l11.3,6.5C450.3,254.7,450.1,254.7,449.9,254.6L449.9,254.6z"
					/>
				<path class="st10" d="M450.4,254.8l-11.3-6.5c0.2,0,0.4,0.1,0.5,0.2L451,255C450.8,254.9,450.6,254.8,450.4,254.8L450.4,254.8z"
					/>
				<path class="st11" d="M451,255l-11.2-6.5c0.2,0.1,0.3,0.2,0.5,0.2l11.3,6.5C451.3,255.1,451.1,255,451,255L451,255z"/>
				<path class="st12" d="M451.5,255.2l-11.3-6.5c0,0,0,0,0.1,0L451.5,255.2C451.5,255.2,451.5,255.2,451.5,255.2L451.5,255.2z"/>
			</g>
		</g>
		<g class="st1">
			<defs>
				<path id="SVGID_25_" class="st1" d="M437.5,279.4c-3.7-2.2-7.5-4.3-11.2-6.5c-1.8-1-2.9-3.2-2.9-6.4c0-6.3,4.4-13.9,9.9-17.1
					l11.3,6.5c-5.5,3.2-9.9,10.8-9.9,17.1C434.6,276.1,435.7,278.3,437.5,279.4z"/>
			</defs>
			<clipPath id="SVGID_26_">
				<use xlink:href="#SVGID_25_"  style="overflow:visible;"/>
			</clipPath>
			<g class="st51">
				<path class="st17" d="M437.5,279.4l-11.2-6.5c-1.8-1-2.9-3.2-2.9-6.4c0-0.6,0-1.3,0.1-1.9l11.3,6.5c-0.1,0.6-0.1,1.3-0.1,1.9
					C434.6,276.1,435.7,278.3,437.5,279.4L437.5,279.4z"/>
				<path class="st16" d="M434.7,271.1l-11.3-6.5c0.1-0.5,0.1-0.9,0.2-1.4l11.3,6.5C434.8,270.2,434.7,270.6,434.7,271.1
					L434.7,271.1z"/>
				<path class="st15" d="M434.9,269.7l-11.3-6.5c0.1-0.4,0.2-0.8,0.3-1.1l11.2,6.5C435.1,269,435,269.3,434.9,269.7L434.9,269.7z"
					/>
				<path class="st14" d="M435.2,268.6l-11.2-6.5c0.1-0.3,0.2-0.7,0.3-1l11.2,6.5C435.4,267.9,435.3,268.2,435.2,268.6L435.2,268.6z
					"/>
				<path class="st13" d="M435.5,267.6l-11.2-6.5c0.1-0.3,0.2-0.6,0.3-0.9l11.2,6.5C435.7,267,435.6,267.3,435.5,267.6L435.5,267.6z
					"/>
				<path class="st12" d="M435.8,266.6l-11.2-6.5c0.1-0.3,0.2-0.6,0.4-0.9l11.2,6.5C436.1,266.1,435.9,266.3,435.8,266.6
					L435.8,266.6z"/>
				<path class="st11" d="M436.2,265.8l-11.2-6.5c0.1-0.3,0.3-0.6,0.4-0.9l11.2,6.5C436.5,265.2,436.3,265.5,436.2,265.8
					L436.2,265.8z"/>
				<path class="st10" d="M436.6,264.9l-11.2-6.5c0.1-0.3,0.3-0.6,0.4-0.8l11.2,6.5C436.9,264.3,436.7,264.6,436.6,264.9
					L436.6,264.9z"/>
				<path class="st9" d="M437,264.1l-11.2-6.5c0.2-0.3,0.3-0.6,0.5-0.8l11.2,6.5C437.3,263.5,437.2,263.8,437,264.1L437,264.1z"/>
				<path class="st8" d="M437.5,263.2l-11.2-6.5c0.2-0.3,0.3-0.6,0.5-0.8l11.3,6.5C437.8,262.7,437.6,262.9,437.5,263.2L437.5,263.2
					z"/>
				<path class="st7" d="M438,262.4l-11.3-6.5c0.2-0.3,0.4-0.6,0.6-0.9l11.3,6.5C438.4,261.8,438.2,262.1,438,262.4L438,262.4z"/>
				<path class="st6" d="M438.6,261.5l-11.3-6.5c0.2-0.3,0.4-0.6,0.7-0.9l11.2,6.5C439,260.9,438.8,261.2,438.6,261.5L438.6,261.5z"
					/>
				<path class="st5" d="M439.2,260.6l-11.2-6.5c0.3-0.3,0.5-0.7,0.8-1l11.2,6.5C439.8,260,439.5,260.3,439.2,260.6L439.2,260.6z"/>
				<path class="st4" d="M440,259.7l-11.2-6.5c0.4-0.4,0.7-0.8,1.1-1.2l11.3,6.5C440.7,258.9,440.4,259.3,440,259.7L440,259.7z"/>
				<path class="st3" d="M441.1,258.5l-11.3-6.5c1-1,2.2-1.9,3.3-2.6l11.3,6.5C443.3,256.6,442.2,257.5,441.1,258.5L441.1,258.5z"/>
			</g>
		</g>
		<g class="st1">
			<defs>
				<path id="SVGID_27_" class="st1" d="M418,271c3.3,1.9,6.6,3.9,9.9,5.8v0l0,0l0,0l0,0l0,0l0,0l0,0C424.7,274.9,421.3,273,418,271
					z"/>
			</defs>
			<clipPath id="SVGID_28_">
				<use xlink:href="#SVGID_27_"  style="overflow:visible;"/>
			</clipPath>
			<g class="st52">
				<path class="st36" d="M427.8,278.8l-11.3-6.5c0.1-0.7,0.1-1.3,0.1-1.9c0-3.1-1.1-5.3-2.9-6.3l11.2,6.5c1.8,1,2.9,3.2,2.9,6.3
					C428,277.5,427.9,278.1,427.8,278.8L427.8,278.8z"/>
			</g>
		</g>
		<g class="st1">
			<defs>
				<path id="SVGID_29_" class="st1" d="M416.7,270.3c0-3.1-1.1-5.3-2.9-6.3l11.2,6.5c1.8,1,2.9,3.2,2.9,6.3l0,0l0,0l0,0l0,0l0,0
					l0,0l0,0v0C424.2,274.6,420.5,272.5,416.7,270.3c3.7,2.2,7.5,4.4,11.2,6.5c0,6.3-4.4,14-9.9,17.1l-11.2-6.5
					C412.3,284.2,416.7,276.6,416.7,270.3z"/>
			</defs>
			<clipPath id="SVGID_30_">
				<use xlink:href="#SVGID_29_"  style="overflow:visible;"/>
			</clipPath>
			<g class="st53">
				<path class="st25" d="M418.1,293.9l-11.2-6.5c1.2-0.7,2.3-1.5,3.3-2.6l11.2,6.5C420.4,292.4,419.2,293.3,418.1,293.9
					L418.1,293.9z"/>
				<path class="st26" d="M421.4,291.4l-11.2-6.5c0.4-0.4,0.7-0.8,1.1-1.2l11.3,6.5C422.1,290.6,421.8,291,421.4,291.4L421.4,291.4z
					"/>
				<path class="st27" d="M422.5,290.2l-11.3-6.5c0.3-0.3,0.5-0.6,0.8-1l11.3,6.5C423,289.6,422.7,289.9,422.5,290.2L422.5,290.2z"
					/>
				<path class="st28" d="M423.3,289.2l-11.3-6.5c0.2-0.3,0.4-0.6,0.7-0.9l11.2,6.5C423.7,288.7,423.5,289,423.3,289.2L423.3,289.2z
					"/>
				<path class="st29" d="M423.9,288.3l-11.2-6.5c0.2-0.3,0.4-0.6,0.6-0.9l11.2,6.5C424.3,287.8,424.1,288.1,423.9,288.3
					L423.9,288.3z"/>
				<path class="st30" d="M424.5,287.5l-11.2-6.5c0.2-0.3,0.3-0.6,0.5-0.8l11.3,6.5C424.9,286.9,424.7,287.2,424.5,287.5
					L424.5,287.5z"/>
				<path class="st31" d="M425,286.6l-11.3-6.5c0.2-0.3,0.3-0.5,0.5-0.8l11.2,6.5C425.3,286.1,425.2,286.4,425,286.6L425,286.6z"/>
				<path class="st32" d="M425.5,285.8l-11.2-6.5c0.1-0.3,0.3-0.6,0.4-0.8l11.2,6.5C425.8,285.2,425.6,285.5,425.5,285.8
					L425.5,285.8z"/>
				<path class="st33" d="M425.9,285l-11.2-6.5c0.1-0.3,0.3-0.6,0.4-0.9l11.2,6.5C426.2,284.4,426.1,284.7,425.9,285L425.9,285z"/>
				<path class="st34" d="M426.3,284.1l-11.2-6.5c0.1-0.3,0.2-0.6,0.4-0.9l11.3,6.5C426.6,283.5,426.4,283.8,426.3,284.1
					L426.3,284.1z"/>
				<path class="st40" d="M426.7,283.2l-11.3-6.5c0.1-0.3,0.2-0.6,0.3-0.9l11.3,6.5C426.9,282.6,426.8,282.9,426.7,283.2
					L426.7,283.2z"/>
				<path class="st39" d="M427,282.3l-11.3-6.5c0.1-0.3,0.2-0.7,0.3-1l11.2,6.5C427.2,281.6,427.1,281.9,427,282.3L427,282.3z"/>
				<path class="st38" d="M427.3,281.3l-11.2-6.5c0.1-0.4,0.2-0.8,0.3-1.1l11.2,6.5C427.5,280.5,427.4,280.9,427.3,281.3
					L427.3,281.3z"/>
				<path class="st37" d="M427.6,280.1l-11.2-6.5c0.1-0.5,0.2-0.9,0.2-1.4l11.3,6.5C427.8,279.2,427.7,279.7,427.6,280.1
					L427.6,280.1z"/>
				<path class="st36" d="M427.8,278.8l-11.3-6.5c0.1-0.7,0.1-1.3,0.1-1.9c0-3.1-1.1-5.3-2.9-6.3l11.2,6.5c1.8,1,2.9,3.2,2.9,6.3
					C428,277.5,427.9,278.1,427.8,278.8L427.8,278.8z"/>
			</g>
		</g>
		<g class="st1">
			<defs>
				<path id="SVGID_31_" class="st1" d="M413.8,264l11.2,6.5c-1.8-1-4.3-0.9-7.1,0.7l-11.3-6.5C409.5,263.1,412,262.9,413.8,264z"/>
			</defs>
			<clipPath id="SVGID_32_">
				<use xlink:href="#SVGID_31_"  style="overflow:visible;"/>
			</clipPath>
			<g class="st54">
				<path class="st3" d="M418,271.2l-11.3-6.5c0.5-0.3,0.9-0.5,1.4-0.7l11.3,6.5C419,270.7,418.5,270.9,418,271.2L418,271.2z"/>
				<path class="st4" d="M419.4,270.5l-11.3-6.5c0.4-0.2,0.8-0.3,1.2-0.4l11.2,6.5C420.2,270.2,419.8,270.3,419.4,270.5L419.4,270.5
					z"/>
				<path class="st5" d="M420.6,270.1l-11.2-6.5c0.3-0.1,0.6-0.1,0.9-0.2l11.2,6.5C421.2,269.9,420.9,270,420.6,270.1L420.6,270.1z"
					/>
				<path class="st6" d="M421.5,269.9l-11.2-6.5c0.2,0,0.5-0.1,0.7-0.1l11.3,6.5C422,269.8,421.7,269.9,421.5,269.9L421.5,269.9z"/>
				<path class="st7" d="M422.2,269.8l-11.3-6.5c0.2,0,0.4,0,0.7,0l11.3,6.5C422.6,269.8,422.4,269.8,422.2,269.8L422.2,269.8z"/>
				<path class="st8" d="M422.9,269.8l-11.3-6.5c0.2,0,0.4,0,0.6,0.1l11.3,6.5C423.3,269.9,423.1,269.8,422.9,269.8L422.9,269.8z"/>
				<path class="st9" d="M423.5,269.9l-11.3-6.5c0.2,0,0.4,0.1,0.6,0.1L424,270C423.8,270,423.6,269.9,423.5,269.9L423.5,269.9z"/>
				<path class="st10" d="M424,270l-11.2-6.5c0.2,0.1,0.4,0.1,0.5,0.2l11.3,6.5C424.4,270.1,424.2,270.1,424,270L424,270z"/>
				<path class="st11" d="M424.5,270.2l-11.3-6.5c0.2,0.1,0.3,0.1,0.5,0.2l11.2,6.5C424.9,270.4,424.7,270.3,424.5,270.2
					L424.5,270.2z"/>
				<path class="st12" d="M425,270.5l-11.2-6.5c0,0,0,0,0.1,0L425,270.5C425.1,270.5,425,270.5,425,270.5L425,270.5z"/>
			</g>
		</g>
		<g class="st1">
			<defs>
				<path id="SVGID_33_" class="st1" d="M411,294.6l-11.2-6.5c-1.8-1-2.9-3.2-2.9-6.4c0-6.3,4.4-13.9,9.9-17.1l11.3,6.5
					c-5.5,3.2-9.9,10.8-9.9,17.1C408.1,291.4,409.2,293.6,411,294.6z"/>
			</defs>
			<clipPath id="SVGID_34_">
				<use xlink:href="#SVGID_33_"  style="overflow:visible;"/>
			</clipPath>
			<g class="st55">
				<path class="st17" d="M411,294.6l-11.2-6.5c-1.8-1-2.9-3.2-2.9-6.4c0-0.6,0.1-1.3,0.1-1.9l11.2,6.5c-0.1,0.7-0.1,1.3-0.1,1.9
					C408.1,291.4,409.2,293.6,411,294.6L411,294.6z"/>
				<path class="st16" d="M408.3,286.3l-11.2-6.5c0.1-0.4,0.1-0.9,0.2-1.4l11.2,6.5C408.4,285.4,408.3,285.9,408.3,286.3
					L408.3,286.3z"/>
				<path class="st15" d="M408.5,285l-11.2-6.5c0.1-0.4,0.2-0.8,0.3-1.1l11.3,6.5C408.7,284.2,408.6,284.6,408.5,285L408.5,285z"/>
				<path class="st14" d="M408.8,283.8l-11.3-6.5c0.1-0.3,0.2-0.7,0.3-1l11.2,6.5C409,283.2,408.9,283.5,408.8,283.8L408.8,283.8z"
					/>
				<path class="st13" d="M409.1,282.8l-11.2-6.5c0.1-0.3,0.2-0.6,0.3-0.9l11.3,6.5C409.3,282.2,409.2,282.5,409.1,282.8
					L409.1,282.8z"/>
				<path class="st12" d="M409.4,281.9l-11.3-6.5c0.1-0.3,0.2-0.6,0.4-0.9l11.2,6.5C409.7,281.3,409.5,281.6,409.4,281.9
					L409.4,281.9z"/>
				<path class="st11" d="M409.8,281l-11.2-6.5c0.1-0.3,0.2-0.6,0.4-0.9l11.3,6.5C410,280.4,409.9,280.7,409.8,281L409.8,281z"/>
				<path class="st10" d="M410.2,280.2l-11.3-6.5c0.2-0.3,0.3-0.6,0.4-0.8l11.2,6.5C410.4,279.6,410.3,279.9,410.2,280.2
					L410.2,280.2z"/>
				<path class="st9" d="M410.6,279.3l-11.2-6.5c0.2-0.3,0.3-0.6,0.5-0.8l11.2,6.5C410.9,278.8,410.7,279,410.6,279.3L410.6,279.3z"
					/>
				<path class="st8" d="M411.1,278.5l-11.2-6.5c0.2-0.3,0.3-0.6,0.5-0.8l11.3,6.5C411.4,277.9,411.2,278.2,411.1,278.5L411.1,278.5
					z"/>
				<path class="st7" d="M411.6,277.7l-11.3-6.5c0.2-0.3,0.4-0.6,0.6-0.9l11.2,6.5C411.9,277.1,411.8,277.4,411.6,277.7L411.6,277.7
					z"/>
				<path class="st6" d="M412.1,276.8l-11.2-6.5c0.2-0.3,0.4-0.6,0.7-0.9l11.3,6.5C412.6,276.2,412.4,276.5,412.1,276.8L412.1,276.8
					z"/>
				<path class="st5" d="M412.8,275.9l-11.3-6.5c0.3-0.3,0.5-0.7,0.8-1l11.3,6.5C413.3,275.2,413.1,275.6,412.8,275.9L412.8,275.9z"
					/>
				<path class="st4" d="M413.6,274.9l-11.3-6.5c0.4-0.4,0.7-0.8,1.1-1.2l11.2,6.5C414.3,274.1,414,274.5,413.6,274.9L413.6,274.9z"
					/>
				<path class="st3" d="M414.7,273.8l-11.2-6.5c1-1,2.2-1.9,3.3-2.6l11.3,6.5C416.9,271.9,415.7,272.7,414.7,273.8L414.7,273.8z"/>
			</g>
		</g>
		<g>
			<g>
				<path class="st56" d="M804,32c6-3.5,10.9-0.7,10.9,6.2l0.1,39.6L387.3,324.7l-0.1-39.6c0-6.9,4.8-15.3,10.8-18.7L804,32z
					 M444.5,278.7c5.5-3.2,9.9-10.8,9.9-17.1c0-6.3-4.5-8.8-9.9-5.6c-5.5,3.2-9.9,10.8-9.9,17.1C434.6,279.3,439,281.8,444.5,278.7
					L444.5,278.7z M418.1,293.9c5.5-3.2,9.9-10.8,9.9-17.1c0-6.3-4.5-8.8-9.9-5.6c-5.5,3.2-9.9,10.8-9.9,17.1
					C408.1,294.6,412.6,297.1,418.1,293.9L418.1,293.9z M470.9,263.4c5.5-3.2,9.9-10.8,9.8-17.1c0-6.3-4.4-8.8-9.9-5.7
					c-5.5,3.2-9.9,10.8-9.9,17.1C461,264,465.5,266.6,470.9,263.4L470.9,263.4z"/>
			</g>
		</g>
		<g>
			<path class="st41" d="M470.9,240.7c5.5-3.2,9.9-0.6,9.9,5.7c0,6.3-4.4,13.9-9.8,17.1c-5.5,3.2-9.9,0.6-10-5.7
				C461,251.5,465.4,243.8,470.9,240.7z"/>
		</g>
		<g>
			<path class="st41" d="M444.4,255.9c5.5-3.2,9.9-0.7,9.9,5.6c0,6.3-4.4,14-9.9,17.1c-5.5,3.2-9.9,0.6-10-5.7
				C434.5,266.7,439,259.1,444.4,255.9z"/>
		</g>
		<g>
			<path class="st41" d="M418,271.2c5.5-3.2,9.9-0.6,9.9,5.6c0,6.3-4.4,14-9.9,17.1c-5.5,3.2-9.9,0.6-9.9-5.7
				C408.1,282,412.5,274.3,418,271.2z"/>
		</g>
		<g>
			<polygon class="st41" points="387.3,324.7 376.1,318.2 376,278.6 387.2,285.1 			"/>
		</g>
		<path class="st57" d="M806.4,31c0.6-0.2,1.2-0.3,1.8-0.4c0.1,0,0.1,0,0.1,0c0.6,0,1.2,0,1.8,0.1c0,0,0,0,0.1,0
			c0.6,0.1,1.1,0.3,1.6,0.6c0,0-0.1,0-0.1,0l-11.2-6.5c-0.2-0.1-0.4-0.2-0.5-0.3c-0.2-0.1-0.4-0.1-0.6-0.2c-0.1,0-0.3-0.1-0.4-0.1
			c0,0-0.1,0-0.1,0c0,0-0.1,0-0.1,0c-0.2,0-0.4-0.1-0.7-0.1c-0.2,0-0.5,0-0.7,0c-0.1,0-0.2,0-0.2,0c-0.1,0-0.1,0-0.2,0
			c-0.1,0-0.3,0-0.4,0c-0.3,0.1-0.6,0.1-1,0.2c-0.1,0-0.3,0.1-0.4,0.1c-0.1,0-0.3,0.1-0.4,0.1c-0.2,0.1-0.3,0.1-0.5,0.2
			c-0.5,0.2-1,0.5-1.5,0.8l-406,234.4c-0.7,0.4-1.4,0.9-2,1.4c-0.2,0.2-0.5,0.4-0.7,0.6c-0.3,0.3-0.6,0.5-0.9,0.8
			c-0.1,0.1-0.3,0.3-0.4,0.4c-0.1,0.1-0.3,0.3-0.4,0.4c-0.1,0.1-0.3,0.3-0.4,0.4c-0.3,0.4-0.6,0.7-0.9,1.1c-0.1,0.1-0.2,0.3-0.3,0.4
			c0,0.1-0.1,0.1-0.2,0.2c-0.1,0.1-0.2,0.2-0.3,0.4c-0.2,0.3-0.4,0.6-0.6,0.9c-0.2,0.3-0.4,0.6-0.6,0.9c0,0,0,0.1-0.1,0.1
			c0,0,0,0,0,0c-0.1,0.3-0.3,0.5-0.4,0.8c-0.2,0.3-0.3,0.6-0.5,0.9c-0.1,0.3-0.3,0.6-0.4,0.8c0,0,0,0,0,0c0,0,0,0,0,0.1
			c-0.1,0.3-0.3,0.6-0.4,1c-0.1,0.3-0.3,0.7-0.4,1c0,0.2-0.1,0.3-0.1,0.5c0,0.1-0.1,0.2-0.1,0.2c0,0.1-0.1,0.2-0.1,0.4
			c-0.1,0.4-0.2,0.8-0.3,1.2c-0.1,0.2-0.1,0.5-0.1,0.7c0,0.1,0,0.3,0,0.4c0,0.1-0.1,0.2-0.1,0.4c-0.1,0.7-0.1,1.4-0.1,2.1l11.2,6.5
			c0-0.8,0.1-1.6,0.2-2.5c0-0.1,0-0.3,0.1-0.4c0.1-0.8,0.3-1.6,0.5-2.4c0-0.1,0-0.1,0.1-0.2c0.3-0.9,0.6-1.7,0.9-2.6
			c0,0,0-0.1,0-0.1c0.4-0.8,0.8-1.7,1.3-2.5c0,0,0-0.1,0-0.1c0.5-0.8,1-1.6,1.5-2.3c0-0.1,0.1-0.1,0.1-0.2c0.5-0.7,1-1.3,1.6-1.9
			c0.1-0.1,0.2-0.2,0.4-0.4c0.4-0.5,0.9-0.9,1.4-1.3c0.2-0.2,0.4-0.4,0.6-0.5c0.7-0.5,1.4-1,2-1.4L804,32c0.7-0.4,1.4-0.7,2-0.9
			C806.2,31.1,806.3,31,806.4,31z"/>
	</g>
	<g>
		<path class="st58" d="M802.4,194.5c33.1-7.9,37.9,57.4,12.6,76.6c-4.4,3.3-17.9,0.3-18.8-4.6c-4-20,25.2-40.9,10.3-59.8
			c-0.1,0.1-1.8-1.4-2.8-2.8C801.3,200.6,794.4,197.2,802.4,194.5z"/>
		<g>
			<path class="st59" d="M673.9,319.5c0,0-14.8,7.4-22.5,5.7c-7.7-1.7-18-7.1-13.7-9.5c4.3-2.5,16-1.6,16.6-4.8
				c0.6-3.2-6.7-2.5-3.3-4.2c3.5-1.7,10.2-2.4,22.7,4.2C673.6,310.9,677.3,314.6,673.9,319.5z"/>
		</g>
		<g>
			<path class="st60" d="M751,243.6c0,0,11.8-4.4,11.8,9.2c0,0-1.8,18-16.1,44.2c0,0-13.4,25.9-20.3,27.2c-6.9,1.3-57-0.1-57-0.1
				s3-7.3-0.1-16.3c0,0,43.9-4.8,47.2-8.2C719.7,296.3,741.4,246.2,751,243.6z"/>
		</g>
		<path class="st61" d="M726.4,324.2c-5.4,1-43.5,0.2-57-0.1c0.8-1.5,1-4.1,1-4.1s47.9-5.7,51.1-9.1c3.2-3.4,25-53.5,34.6-56.1
			c0,0,3.4-1.2,6.5-0.3c-0.8,5.1-4.2,21-15.8,42.5C746.7,297,733.3,322.9,726.4,324.2z"/>
		<g class="st0">
			<g>
				<path d="M840.6,565c29.5,17,29.6,44.7,0.3,61.7c-29.3,17-76.9,17-106.4,0c-29.5-17-29.7-44.6-0.4-61.7
					C763.4,548,811.1,548,840.6,565z"/>
			</g>
		</g>
		<g>
			<g>
				<path d="M753.7,556.1c0,0-1,9.4-5.2,14.5c-4.2,5-23.3,16.4-22,21.7c1.3,5.2,14.9,5.8,23.6-2.7c8.7-8.5,11-9.8,14.6-10.6
					c3.7-0.7,8.9-5.2,5.2-13.3C769.9,565.7,758.3,562.2,753.7,556.1z"/>
			</g>
			<g>
				<g>
					<path class="st62" d="M749,342.6c0,0-15.8,77.3-7.1,120.1c0,0,4,33.8,5.9,43.1c1.9,9.3,1.6,59.8,1.6,59.8s14.2,6.1,21.4-0.6
						c0,0,9.2-52-0.9-85.2c0,0,11.9-63.3,12.1-84c0.3-20.6,2.9-38.4,2.9-38.4L749,342.6z"/>
				</g>
			</g>
			<g>
				<path class="st63" d="M741.9,462.7c0,0,4,33.8,5.9,43.1c1.9,9.3,1.6,59.8,1.6,59.8s2.4,1,5.6,1.7c1-15.1,2.9-41.3,3.7-47.2
					c1.2-8.4-8.4-54.7-9.1-71.9c-0.8-17.2,18.3-81.6,18.3-81.6l-5.3-18.4l-13.6-5.7C749,342.6,733.2,419.9,741.9,462.7z"/>
			</g>
		</g>
		<g>
			<path d="M796.9,575.4c0,0-0.7,9.5-4.8,14.6c-4.1,5.1-22.9,17-21.5,22.2c1.4,5.2,15.1,5.4,23.5-3.3c8.5-8.8,10.7-10.1,14.4-10.9
				c3.6-0.8,8.8-5.5,4.9-13.4C813.3,584.5,801.6,581.4,796.9,575.4z"/>
		</g>
		<g>
			<path class="st63" d="M813.3,368c0,0,15.2,21.8,7.9,66.3l-3.3,53.2c0,0,10.1,17,2.8,68.7l-7,31.1c0,0-8.6,6.3-18.1-6.6
				c0,0,0.7-76.5-2.9-88.3c-2.6-8.6-14.6-44.5-19.3-79.3c-1.7-12.7-21.3-33.6-20.3-44.6L813.3,368z"/>
		</g>
		<g>
			<path class="st62" d="M813.8,587.4l7-31.1c7.3-51.7-2.8-68.7-2.8-68.7l3.3-53.2c7.4-44.5-7.9-66.3-7.9-66.3l-1.8,0l-16.7,10.8
				c0,0,16.5,84.2,15.3,105.6c-1.2,21.4,4.8,46.4,4,59.7c-0.5,8.6-4.4,30.2-7,44.7C811.1,589.3,813.8,587.4,813.8,587.4z"/>
		</g>
		<g>
			<path class="st60" d="M823.4,274.8c0,0-13.5-25.4-68.8-31.7c0,0-8.8-3.7-7.9,24.8c0.1,4.1-4.1,11.1-7,14.8
				c-2.9,3.7-10.5,17.9,6.2,35c0,0,6.5,25.3-1.3,41.7c-6.9,14.6,29.2,28.9,60,25.9c3.8-0.4,14.2-4,10.9-17.2
				c-3.3-13.2-13.2-35.1-7-59.5C814.8,284.2,827.6,287.1,823.4,274.8z"/>
		</g>
		<g>
			<path class="st61" d="M823.4,273.9c4.1,12.4-8.6,9.5-14.8,33.8c-6.2,24.3,3.7,47.1,7,60.3c3.3,13.2-4.8,16.3-8.5,16.7
				c-5.1,0.5-11.2,1.1-16.4,0.7c10.8-23.6-4.5-67.5-5.2-91.1c-0.7-25.1,22-34.9,22-34.9C819.5,267.1,823.4,273.9,823.4,273.9z"/>
		</g>
		<g>
			<path class="st59" d="M743.9,343.2c0,0-16.1,3.8-23.2,0.4c-7.1-3.4-16-11-11.2-12.4c4.8-1.4,15.9,2,17.2-0.9c1.3-3-6-3.9-2.2-4.8
				c3.8-0.9,10.4,0,21.2,9.3C745.6,334.7,748.3,339.2,743.9,343.2z"/>
		</g>
		<g>
			<path class="st61" d="M820.3,270.9c0,0-11.7-4.9-18.6,13c-7,17.9-18.6,47.9-18.6,47.9l-2.9,4.1l-39.9-5.8c0,0,5.2,10.2-3.5,15.7
				c0,0,48.8,22.1,63,7.3C799.8,353.1,840.3,276.5,820.3,270.9z"/>
		</g>
		<path class="st60" d="M740.3,330.1l39.9,5.8l2.9-4.1c0,0,11.7-30,18.6-47.9c5.9-15.2,15.1-14,17.8-13.2
			c-1.3,23.1-25.9,69.9-25.9,69.9c-9.9,10.3-36.5,2.7-51.8-2.8C742.1,333.7,740.3,330.1,740.3,330.1z"/>
		<g>
			<g>
				<path class="st64" d="M759,231.2c0,0,8.9,12.2,3.4,24.2c-1.5,3.3-5.7,17,15.8,12.9c0,0,22.7-9.4,16.7-16.5
					c-4-4.8-7.8-11.4,0.4-33.6L759,231.2z"/>
			</g>
			<g>
				<path class="st65" d="M794.8,251.8c0.7,0.8,0.9,1.5,0.9,2.3c-20.4,2.5-33.2-12.8-33.2-12.8l27.9-21.1l0,0c0,0,1.3,1,3.1,2.6
					C787.6,241.3,791.1,247.4,794.8,251.8z"/>
			</g>
		</g>
		<g>
			<path class="st66" d="M765.6,191.4c0,0-5.8,1.5-7.3,18.3c-0.2,1.9-3.4,4.1-4.5,8.6c-1.1,4.6-3.6,23.3,7.1,26.1
				c7.8,2,27.5-1.4,35.5-19.8C804.3,206.3,790.1,180.7,765.6,191.4z"/>
		</g>
		<g>
			<path class="st66" d="M786.5,227.1c0,0,3.7-9.1,8.8-5.8c1.6,1,3.3,3.1,0.4,7.7c-2.9,4.6-8.6,8.5-12.8,7.7L786.5,227.1z"/>
		</g>
		<path class="st67" d="M802.4,194.5c4.1-1,7.8-0.8,11,0.2c2.9,7.9,0.8,13.8-3.1,19.8c-0.6-2.6-1.8-5.2-3.8-7.8
			c-0.1,0.1-1.8-1.4-2.8-2.8C801.3,200.6,794.4,197.2,802.4,194.5z"/>
		<path class="st58" d="M766.9,183.7c8.1-6.8,17.9-5.4,27.4-2.3c8.2,2.7,16.2,11.4,16.5,19.4c0.4,11.2-3.4,25.7-16.6,32.3
			c-4.9,2.5,3.5-9.5-3-10.1c-2.1-0.2-2.7-3.6-4.2-4.2c-1.1,0.5-9.3-3.9-18.2-7c-0.7-0.2-1.5-5.6-2.1-5.8c-0.8-0.3-1.5,4.6-2.3,4.3
			c-4.7-1.7-7.9-3.9-7.9-3.9C754.4,198.2,761.1,188.5,766.9,183.7z"/>
		<path class="st66" d="M789.3,219.5c-3,2.7-4.1,6.4-2.5,8.2c1.7,1.8,5.4,1,8.4-1.7c3-2.8,4.1-6.4,2.5-8.2
			C796.1,216,792.3,216.8,789.3,219.5z"/>
	</g>
</g>
</svg>
