<?xml version="1.0" encoding="utf-8"?>
<!-- Generator: Adobe Illustrator 22.0.1, SVG Export Plug-In . SVG Version: 6.00 Build 0)  -->
<svg version="1.1" id="a5860ba0-ef67-4914-ac96-07e2ebcccb4f"
	 xmlns="http://www.w3.org/2000/svg" xmlns:xlink="http://www.w3.org/1999/xlink" x="0px" y="0px" viewBox="0 0 1095.7 664"
	 style="enable-background:new 0 0 1095.7 664;" xml:space="preserve">
<style type="text/css">
	.st0{opacity:0.1;}
	.st1{enable-background:new    ;}
	.st2{clip-path:url(#SVGID_2_);enable-background:new    ;}
	.st3{fill:#B2C5CC;}
	.st4{fill:#ADC0C7;}
	.st5{fill:#A9BBC2;}
	.st6{fill:#A4B6BD;}
	.st7{fill:#A0B1B8;}
	.st8{fill:#9BACB3;}
	.st9{fill:#97A7AD;}
	.st10{fill:#93A2A8;}
	.st11{fill:#8E9DA3;}
	.st12{fill:#8A999E;}
	.st13{fill:#859499;}
	.st14{fill:#818F94;}
	.st15{fill:#7C8A8F;}
	.st16{fill:#78858A;}
	.st17{fill:#738085;}
	.st18{fill:#8AAFBF;}
	.st19{clip-path:url(#SVGID_4_);enable-background:new    ;}
	.st20{clip-path:url(#SVGID_6_);enable-background:new    ;}
	.st21{fill:#ABBEC5;}
	.st22{fill:#778488;}
	.st23{clip-path:url(#SVGID_8_);enable-background:new    ;}
	.st24{fill:#87ABBB;}
	.st25{fill:#84A7B7;}
	.st26{fill:#80A3B2;}
	.st27{fill:#7D9EAD;}
	.st28{fill:#7A9AA8;}
	.st29{fill:#7696A4;}
	.st30{fill:#73929F;}
	.st31{fill:#708D9A;}
	.st32{fill:#6C8996;}
	.st33{fill:#698591;}
	.st34{clip-path:url(#SVGID_10_);enable-background:new    ;}
	.st35{fill:#586F7A;}
	.st36{fill:#5B747E;}
	.st37{fill:#5F7883;}
	.st38{fill:#627C88;}
	.st39{fill:#65808C;}
	.st40{fill:#BFD4DB;}
	.st41{fill:#DEF6FF;}
	.st42{fill:#B2DDEA;}
	.st43{clip-path:url(#SVGID_12_);enable-background:new    ;}
	.st44{clip-path:url(#SVGID_14_);enable-background:new    ;}
	.st45{clip-path:url(#SVGID_16_);enable-background:new    ;}
	.st46{clip-path:url(#SVGID_18_);enable-background:new    ;}
	.st47{clip-path:url(#SVGID_20_);enable-background:new    ;}
	.st48{clip-path:url(#SVGID_22_);enable-background:new    ;}
	.st49{clip-path:url(#SVGID_24_);enable-background:new    ;}
	.st50{clip-path:url(#SVGID_26_);enable-background:new    ;}
	.st51{clip-path:url(#SVGID_28_);enable-background:new    ;}
	.st52{clip-path:url(#SVGID_30_);enable-background:new    ;}
	.st53{clip-path:url(#SVGID_32_);enable-background:new    ;}
	.st54{clip-path:url(#SVGID_34_);enable-background:new    ;}
	.st55{fill:#A9D6EA;}
	.st56{fill:#5FB7DD;}
	.st57{fill:#95C4DE;}
	.st58{fill:#131C24;}
	.st59{fill:#EFB185;}
	.st60{fill:#E6A376;}
	.st61{fill:#5FB9E6;}
	.st62{fill:#77D2FF;}
	.st63{fill:#111114;}
	.st64{fill:#0A0A0A;}
	.st65{fill:#EA49BD;}
	.st66{fill:#FF61CB;}
	.st67{fill:#DD9569;}
	.st68{fill:#341C09;}
	.st69{fill:#221101;}
</style>
<g>
	<g>
		<path class="st0" d="M849.2,517.2c43.1,24.9,43.3,65.3,0.5,90.2c-42.8,24.9-112.5,24.9-155.7,0c-43.1-24.9-43.4-65.3-0.5-90.1
			C736.4,492.3,806.1,492.3,849.2,517.2z"/>
	</g>
	<g>
		<g>
			<g class="st0">
				<polygon points="210.3,538.3 397.7,647.2 830.4,397.3 638.5,284.5 				"/>
			</g>
			<g class="st1">
				<defs>
					<path id="SVGID_1_" class="st1" d="M585.1,436.6c42.5-24.5,76.9-84.1,76.8-133c4,2.3,8,4.6,12,7c0.1,48.9-34.2,108.4-76.8,133
						C593.5,441.5,588.7,438.7,585.1,436.6z"/>
				</defs>
				<clipPath id="SVGID_2_">
					<use xlink:href="#SVGID_1_"  style="overflow:visible;"/>
				</clipPath>
				<g class="st2">
					<path class="st3" d="M597.1,443.6l-12-7c9-5.2,17.7-12,25.7-19.9l12,7C614.8,431.6,606.1,438.4,597.1,443.6L597.1,443.6z"/>
					<path class="st4" d="M622.8,423.7l-12-7c2.9-2.8,5.7-5.8,8.4-9l12,7C628.5,417.8,625.7,420.8,622.8,423.7L622.8,423.7z"/>
					<path class="st5" d="M631.2,414.7l-12-7c2.1-2.5,4.2-5,6.2-7.6l12,7C635.5,409.7,633.4,412.2,631.2,414.7L631.2,414.7z"/>
					<path class="st6" d="M637.5,407.1l-12-7c1.8-2.3,3.5-4.6,5.1-7l12,7C640.9,402.5,639.2,404.8,637.5,407.1L637.5,407.1z"/>
					<path class="st7" d="M642.6,400.1l-12-7c1.5-2.2,3-4.4,4.5-6.7l12,7C645.6,395.7,644.1,397.9,642.6,400.1L642.6,400.1z"/>
					<path class="st8" d="M647.1,393.5l-12-7c1.4-2.1,2.7-4.3,4-6.5l12,7C649.8,389.2,648.4,391.3,647.1,393.5L647.1,393.5z"/>
					<path class="st9" d="M651,386.9l-12-7c1.2-2.2,2.5-4.3,3.6-6.5l12,7C653.5,382.7,652.3,384.8,651,386.9L651,386.9z"/>
					<path class="st10" d="M654.7,380.5l-12-7c1.2-2.2,2.3-4.3,3.3-6.6l12,7C656.9,376.1,655.8,378.3,654.7,380.5L654.7,380.5z"/>
					<path class="st11" d="M658,373.9l-12-7c1.1-2.2,2.1-4.4,3.1-6.7l12,7C660.1,369.5,659,371.7,658,373.9L658,373.9z"/>
					<path class="st12" d="M661,367.2l-12-7c1-2.3,2-4.6,2.8-6.9l12,7C663,362.6,662,364.9,661,367.2L661,367.2z"/>
					<path class="st13" d="M663.9,360.3l-12-7c0.9-2.4,1.8-4.8,2.6-7.3l12,7C665.7,355.5,664.8,357.9,663.9,360.3L663.9,360.3z"/>
					<path class="st14" d="M666.5,353l-12-7c0.9-2.6,1.7-5.2,2.4-7.8l12,7C668.2,347.8,667.4,350.4,666.5,353L666.5,353z"/>
					<path class="st15" d="M668.9,345.2l-12-7c0.8-3,1.5-5.9,2.2-8.8l12,7C670.4,339.3,669.7,342.2,668.9,345.2L668.9,345.2z"/>
					<path class="st16" d="M671,336.3l-12-7c0.8-3.6,1.4-7.2,1.8-10.7l12,7C672.4,329.2,671.8,332.8,671,336.3L671,336.3z"/>
					<path class="st17" d="M672.9,325.6l-12-7c0.7-5.1,1-10.1,1-15.1c-0.1-24.3-8.6-41.4-22.5-49.4l12,7c13.8,8,22.4,25.1,22.5,49.4
						C673.9,315.5,673.5,320.6,672.9,325.6L672.9,325.6z"/>
				</g>
			</g>
			<g>
				<polygon class="st18" points="571.5,404.4 559.5,397.5 621.7,326.8 633.7,333.8 				"/>
			</g>
			<g class="st1">
				<defs>
					<path id="SVGID_3_" class="st1" d="M530.3,442c14,8.2,33.4,7,54.8-5.4l12,7c-21.4,12.4-40.8,13.5-54.8,5.4
						C538.7,446.8,533.9,444.1,530.3,442z"/>
				</defs>
				<clipPath id="SVGID_4_">
					<use xlink:href="#SVGID_3_"  style="overflow:visible;"/>
				</clipPath>
				<g class="st19">
					<path class="st12" d="M542.3,448.9l-12-7c0.1,0.1,0.3,0.2,0.4,0.3l12,6.9C542.6,449.1,542.4,449,542.3,448.9L542.3,448.9z"/>
					<path class="st11" d="M542.7,449.2l-12-6.9c1.2,0.7,2.5,1.3,3.9,1.9l12,7C545.2,450.5,544,449.9,542.7,449.2L542.7,449.2z"/>
					<path class="st10" d="M546.6,451.1l-12-7c1.3,0.6,2.7,1,4.1,1.4l12,7C549.3,452.1,547.9,451.6,546.6,451.1L546.6,451.1z"/>
					<path class="st9" d="M550.6,452.5l-12-7c1.4,0.4,2.8,0.7,4.3,1l12,7C553.5,453.3,552,452.9,550.6,452.5L550.6,452.5z"/>
					<path class="st8" d="M555,453.5l-12-7c1.5,0.3,3.1,0.4,4.7,0.5l12,7C558,453.9,556.5,453.8,555,453.5L555,453.5z"/>
					<path class="st7" d="M559.6,454l-12-7c1.7,0.1,3.4,0.1,5.1,0.1l12,7C563,454.2,561.3,454.1,559.6,454L559.6,454z"/>
					<path class="st6" d="M564.7,454.1l-12-7c1.9-0.1,3.8-0.3,5.7-0.6l12,7C568.5,453.8,566.6,454,564.7,454.1L564.7,454.1z"/>
					<path class="st5" d="M570.5,453.5l-12-7c2.2-0.3,4.5-0.8,6.8-1.4l12,7C574.9,452.7,572.7,453.2,570.5,453.5L570.5,453.5z"/>
					<path class="st4" d="M577.2,452.1l-12-7c3-0.8,6-1.8,9.1-3.1l12,7C583.2,450.2,580.2,451.3,577.2,452.1L577.2,452.1z"/>
					<path class="st3" d="M586.3,448.9l-12-7c3.5-1.5,7.1-3.2,10.8-5.4l12,7C593.4,445.7,589.8,447.5,586.3,448.9L586.3,448.9z"/>
				</g>
			</g>
			<g class="st1">
				<defs>
					<path id="SVGID_5_" class="st1" d="M661.9,303.6c-0.1-24.3-8.6-41.4-22.5-49.4l12,7c13.8,8,22.4,25.1,22.5,49.4
						C669.9,308.3,665.9,305.9,661.9,303.6z"/>
				</defs>
				<clipPath id="SVGID_6_">
					<use xlink:href="#SVGID_5_"  style="overflow:visible;"/>
				</clipPath>
				<g class="st20">
					<path class="st17" d="M672.9,325.6l-12-7c0.7-5.1,1-10.1,1-15.1c-0.1-24.3-8.6-41.4-22.5-49.4l12,7c13.8,8,22.4,25.1,22.5,49.4
						C673.9,315.5,673.5,320.6,672.9,325.6L672.9,325.6z"/>
				</g>
			</g>
			<g>
				<polygon class="st21" points="571.3,335.1 559.3,328.1 621.7,326.8 633.7,333.8 				"/>
			</g>
			<g>
				<polygon class="st22" points="571.5,404.4 559.5,397.5 559.3,328.1 571.3,335.1 				"/>
			</g>
			<g class="st1">
				<defs>
					<path id="SVGID_7_" class="st1" d="M639.4,254.2l12,7c-14-8.1-33.4-7-54.8,5.4l-12-7C606,247.2,625.4,246.1,639.4,254.2z"/>
				</defs>
				<clipPath id="SVGID_8_">
					<use xlink:href="#SVGID_7_"  style="overflow:visible;"/>
				</clipPath>
				<g class="st23">
					<path class="st24" d="M596.6,266.5l-12-7c3.7-2.1,7.2-3.9,10.8-5.4l12,7C603.9,262.6,600.3,264.4,596.6,266.5L596.6,266.5z"/>
					<path class="st25" d="M607.4,261.1l-12-7c3.1-1.3,6.1-2.3,9-3.1l12,7C613.5,258.8,610.5,259.9,607.4,261.1L607.4,261.1z"/>
					<path class="st26" d="M616.4,258l-12-7c2.3-0.6,4.6-1.1,6.8-1.5l12,7C621,256.9,618.7,257.4,616.4,258L616.4,258z"/>
					<path class="st27" d="M623.2,256.6l-12-7c2-0.3,3.9-0.5,5.7-0.6l12,7C627.1,256.1,625.2,256.3,623.2,256.6L623.2,256.6z"/>
					<path class="st28" d="M629,256l-12-7c1.8-0.1,3.4-0.1,5.1,0.1l12,7C632.4,255.9,630.7,255.9,629,256L629,256z"/>
					<path class="st29" d="M634.1,256l-12-7c1.6,0.1,3.1,0.3,4.6,0.5l12,7C637.2,256.3,635.6,256.1,634.1,256L634.1,256z"/>
					<path class="st30" d="M638.7,256.6l-12-7c1.5,0.3,2.9,0.6,4.3,1l12,7C641.6,257.2,640.2,256.8,638.7,256.6L638.7,256.6z"/>
					<path class="st31" d="M643,257.6l-12-7c1.4,0.4,2.8,0.9,4.1,1.4l12,7C645.8,258.5,644.4,258,643,257.6L643,257.6z"/>
					<path class="st32" d="M647.1,259l-12-7c1.3,0.6,2.6,1.2,3.9,1.9l12,7C649.7,260.2,648.4,259.6,647.1,259L647.1,259z"/>
					<path class="st33" d="M651,260.9l-12-7c0.1,0.1,0.3,0.2,0.4,0.2l12,7C651.2,261.1,651.1,261,651,260.9L651,260.9z"/>
				</g>
			</g>
			<g class="st1">
				<defs>
					<path id="SVGID_9_" class="st1" d="M542.3,448.9l-12-7c-13.8-8-22.4-25.1-22.5-49.4c-0.1-48.9,34.2-108.4,76.8-133l12,7
						c-42.6,24.6-76.9,84.1-76.8,133C519.9,423.8,528.5,440.9,542.3,448.9z"/>
				</defs>
				<clipPath id="SVGID_10_">
					<use xlink:href="#SVGID_9_"  style="overflow:visible;"/>
				</clipPath>
				<g class="st34">
					<path class="st35" d="M542.3,448.9l-12-7c-13.8-8-22.4-25.1-22.5-49.4c0-4.9,0.3-10,1-15.1l12,7c-0.7,5.1-1,10.1-1,15.1
						C519.9,423.8,528.5,440.9,542.3,448.9L542.3,448.9z"/>
					<path class="st36" d="M520.8,384.4l-12-7c0.5-3.5,1.1-7.1,1.8-10.7l12,7C521.9,377.3,521.2,380.9,520.8,384.4L520.8,384.4z"/>
					<path class="st37" d="M522.6,373.7l-12-7c0.6-2.9,1.4-5.9,2.2-8.8l12,7C524,367.9,523.3,370.8,522.6,373.7L522.6,373.7z"/>
					<path class="st38" d="M524.8,364.9l-12-7c0.7-2.6,1.5-5.2,2.4-7.9l12,7C526.3,359.7,525.5,362.3,524.8,364.9L524.8,364.9z"/>
					<path class="st39" d="M527.2,357.1l-12-7c0.8-2.4,1.7-4.9,2.6-7.3l12,7C528.9,352.2,528,354.6,527.2,357.1L527.2,357.1z"/>
					<path class="st33" d="M529.8,349.8l-12-7c0.9-2.3,1.8-4.6,2.8-6.9l12,7C531.6,345.2,530.7,347.5,529.8,349.8L529.8,349.8z"/>
					<path class="st32" d="M532.6,342.9l-12-7c1-2.2,2-4.5,3.1-6.7l12,7C534.6,338.4,533.6,340.6,532.6,342.9L532.6,342.9z"/>
					<path class="st31" d="M535.7,336.2l-12-7c1.1-2.2,2.2-4.4,3.3-6.5l12,7C537.9,331.8,536.8,334,535.7,336.2L535.7,336.2z"/>
					<path class="st30" d="M539,329.6l-12-7c1.1-2.2,2.4-4.3,3.6-6.5l12,7C541.4,325.3,540.2,327.5,539,329.6L539,329.6z"/>
					<path class="st29" d="M542.6,323.1l-12-7c1.3-2.2,2.6-4.4,4-6.5l12,6.9C545.2,318.8,543.9,321,542.6,323.1L542.6,323.1z"/>
					<path class="st28" d="M546.6,316.6l-12-6.9c1.4-2.3,2.9-4.5,4.5-6.7l12,7C549.5,312.2,548,314.4,546.6,316.6L546.6,316.6z"/>
					<path class="st27" d="M551.1,310l-12-7c1.7-2.4,3.4-4.7,5.1-7l12,7C554.4,305.3,552.7,307.6,551.1,310L551.1,310z"/>
					<path class="st26" d="M556.2,303l-12-7c2-2.6,4.1-5.1,6.2-7.6l12,7C560.3,297.9,558.2,300.4,556.2,303L556.2,303z"/>
					<path class="st25" d="M562.4,295.4l-12-7c2.7-3.1,5.5-6.1,8.4-9l12,7C568,289.3,565.2,292.3,562.4,295.4L562.4,295.4z"/>
					<path class="st24" d="M570.9,286.5l-12-7c8-7.9,16.7-14.7,25.7-19.9l12,7C587.6,271.7,578.9,278.5,570.9,286.5L570.9,286.5z"/>
				</g>
			</g>
			<g>
				<polygon class="st40" points="376.8,332.1 364.9,325.1 820.1,62.3 832.1,69.3 				"/>
			</g>
			<path class="st41" d="M832.1,69.3l0.9,311.4c0,7.4-5.1,16.2-11.5,19.9L389.3,650.2c-6.4,3.7-11.6,0.7-11.6-6.6l-0.9-311.5
				L832.1,69.3z"/>
			<path class="st42" d="M377.7,643.6l-0.9-311.5l-12-7l0.9,311.4c0,3.6,1.3,6.2,3.3,7.4c4,2.3,8,4.6,12,7
				C379,649.7,377.7,647.2,377.7,643.6z"/>
			<g class="st1">
				<defs>
					<path id="SVGID_11_" class="st1" d="M464.3,241.7c0-3.3-1.2-5.7-3.1-6.8l12,7c1.9,1.1,3.1,3.4,3.1,6.8l0,0l0,0l0,0l0,0l0,0
						c-2.5-1.5-5-2.9-7.6-4.4C467.3,243.4,465.8,242.6,464.3,241.7c4,2.3,8,4.6,12,7c0,6.7-4.7,14.8-10.5,18.2l-12-7
						C459.6,256.6,464.3,248.4,464.3,241.7z"/>
				</defs>
				<clipPath id="SVGID_12_">
					<use xlink:href="#SVGID_11_"  style="overflow:visible;"/>
				</clipPath>
				<g class="st43">
					<path class="st24" d="M465.8,266.9l-12-7c1.2-0.7,2.4-1.6,3.5-2.7l12,7C468.2,265.2,467,266.2,465.8,266.9L465.8,266.9z"/>
					<path class="st25" d="M469.3,264.2l-12-7c0.4-0.4,0.8-0.8,1.2-1.2l12,6.9C470.1,263.4,469.7,263.8,469.3,264.2L469.3,264.2z"/>
					<path class="st26" d="M470.5,262.9l-12-6.9c0.3-0.3,0.6-0.7,0.8-1.1l12,7C471,262.3,470.7,262.6,470.5,262.9L470.5,262.9z"/>
					<path class="st27" d="M471.3,261.9l-12-7c0.2-0.3,0.5-0.6,0.7-0.9l12,7C471.8,261.3,471.6,261.6,471.3,261.9L471.3,261.9z"/>
					<path class="st28" d="M472,260.9l-12-7c0.2-0.3,0.4-0.6,0.6-0.9l12,7C472.4,260.4,472.2,260.7,472,260.9L472,260.9z"/>
					<path class="st29" d="M472.6,260l-12-7c0.2-0.3,0.4-0.6,0.5-0.9l12,7C473,259.5,472.8,259.7,472.6,260L472.6,260z"/>
					<path class="st30" d="M473.2,259.1l-12-7c0.2-0.3,0.3-0.6,0.5-0.9l12,7C473.5,258.6,473.3,258.9,473.2,259.1L473.2,259.1z"/>
					<path class="st31" d="M473.7,258.3l-12-7c0.2-0.3,0.3-0.6,0.5-0.9l12,7C474,257.7,473.8,258,473.7,258.3L473.7,258.3z"/>
					<path class="st32" d="M474.1,257.4l-12-7c0.1-0.3,0.3-0.6,0.4-0.9l12,7C474.4,256.8,474.2,257.1,474.1,257.4L474.1,257.4z"/>
					<path class="st33" d="M474.5,256.5l-12-7c0.1-0.3,0.3-0.6,0.4-0.9l12,7C474.8,255.8,474.7,256.1,474.5,256.5L474.5,256.5z"/>
					<path class="st39" d="M474.9,255.5l-12-7c0.1-0.3,0.2-0.7,0.4-1l12,7C475.2,254.8,475,255.2,474.9,255.5L474.9,255.5z"/>
					<path class="st38" d="M475.3,254.5l-12-7c0.1-0.3,0.2-0.7,0.3-1.1l12,7C475.5,253.8,475.4,254.1,475.3,254.5L475.3,254.5z"/>
					<path class="st37" d="M475.6,253.4l-12-7c0.1-0.4,0.2-0.8,0.3-1.2l12,7C475.8,252.6,475.7,253,475.6,253.4L475.6,253.4z"/>
					<path class="st36" d="M475.9,252.2l-12-7c0.1-0.5,0.2-1,0.3-1.5l12,7C476.1,251.2,476,251.7,475.9,252.2L475.9,252.2z"/>
					<path class="st35" d="M476.1,250.7l-12-7c0.1-0.7,0.1-1.4,0.1-2.1c0-3.3-1.2-5.7-3.1-6.8l12,7c1.9,1.1,3.1,3.4,3.1,6.8
						C476.3,249.4,476.2,250,476.1,250.7L476.1,250.7z"/>
				</g>
			</g>
			<g class="st1">
				<defs>
					<path id="SVGID_13_" class="st1" d="M461.3,234.9c0.6,0.3,1.2,0.7,1.8,1.1c3.4,2,6.8,3.9,10.2,5.9c-1.9-1.1-4.6-1-7.5,0.7
						l-12-7C456.7,234,459.3,233.8,461.3,234.9z"/>
				</defs>
				<clipPath id="SVGID_14_">
					<use xlink:href="#SVGID_13_"  style="overflow:visible;"/>
				</clipPath>
				<g class="st44">
					<path class="st3" d="M465.7,242.6l-12-7c0.5-0.3,1-0.5,1.5-0.7l12,7C466.7,242.1,466.2,242.4,465.7,242.6L465.7,242.6z"/>
					<path class="st4" d="M467.2,241.9l-12-7c0.4-0.2,0.8-0.3,1.2-0.4l12,7C468.1,241.6,467.6,241.7,467.2,241.9L467.2,241.9z"/>
					<path class="st5" d="M468.5,241.5l-12-7c0.3-0.1,0.6-0.2,0.9-0.2l12,7C469.1,241.3,468.8,241.4,468.5,241.5L468.5,241.5z"/>
					<path class="st6" d="M469.4,241.3l-12-7c0.3,0,0.5-0.1,0.8-0.1l12,7C469.9,241.2,469.6,241.2,469.4,241.3L469.4,241.3z"/>
					<path class="st7" d="M470.2,241.2l-12-7c0.2,0,0.5,0,0.7,0l12,7C470.6,241.2,470.4,241.2,470.2,241.2L470.2,241.2z"/>
					<path class="st8" d="M470.9,241.2l-12-7c0.2,0,0.4,0,0.6,0.1l12,7C471.3,241.3,471.1,241.2,470.9,241.2L470.9,241.2z"/>
					<path class="st9" d="M471.5,241.3l-12-7c0.2,0.1,0.4,0.1,0.6,0.1l12,7C471.9,241.4,471.7,241.3,471.5,241.3L471.5,241.3z"/>
					<path class="st10" d="M472.1,241.4l-12-7c0.2,0.1,0.4,0.1,0.6,0.2l12,7C472.5,241.6,472.3,241.5,472.1,241.4L472.1,241.4z"/>
					<path class="st11" d="M472.6,241.6l-12-7c0.2,0.1,0.4,0.1,0.5,0.3l12,7C473,241.8,472.8,241.7,472.6,241.6L472.6,241.6z"/>
					<path class="st12" d="M473.2,241.9l-12-7c0,0,0,0,0.1,0L473.2,241.9C473.2,241.9,473.2,241.9,473.2,241.9L473.2,241.9z"/>
				</g>
			</g>
			<g class="st1">
				<defs>
					<path id="SVGID_15_" class="st1" d="M458.3,267.6l-12-7c-1.9-1.1-3.1-3.4-3.1-6.8c0-6.7,4.7-14.8,10.5-18.2l12,7
						c-5.8,3.4-10.6,11.5-10.5,18.2C455.2,264.2,456.4,266.5,458.3,267.6z"/>
				</defs>
				<clipPath id="SVGID_16_">
					<use xlink:href="#SVGID_15_"  style="overflow:visible;"/>
				</clipPath>
				<g class="st45">
					<path class="st17" d="M458.3,267.6l-12-7c-1.9-1.1-3.1-3.4-3.1-6.8c0-0.7,0.1-1.4,0.1-2.1l12,7c-0.1,0.7-0.1,1.4-0.1,2.1
						C455.2,264.2,456.4,266.5,458.3,267.6L458.3,267.6z"/>
					<path class="st16" d="M455.3,258.8l-12-7c0.1-0.5,0.1-1,0.2-1.5l12,7C455.5,257.8,455.4,258.3,455.3,258.8L455.3,258.8z"/>
					<path class="st15" d="M455.6,257.3l-12-7c0.1-0.4,0.2-0.8,0.3-1.2l12,7C455.8,256.5,455.7,256.9,455.6,257.3L455.6,257.3z"/>
					<path class="st14" d="M455.9,256.1l-12-7c0.1-0.4,0.2-0.7,0.3-1.1l12,7C456.1,255.4,456,255.8,455.9,256.1L455.9,256.1z"/>
					<path class="st13" d="M456.2,255.1l-12-7c0.1-0.3,0.2-0.7,0.4-1l12,7C456.4,254.4,456.3,254.7,456.2,255.1L456.2,255.1z"/>
					<path class="st12" d="M456.6,254.1l-12-7c0.1-0.3,0.2-0.6,0.4-0.9l12,7C456.8,253.4,456.7,253.7,456.6,254.1L456.6,254.1z"/>
					<path class="st11" d="M457,253.1l-12-7c0.1-0.3,0.3-0.6,0.4-0.9l12,7C457.2,252.5,457.1,252.8,457,253.1L457,253.1z"/>
					<path class="st10" d="M457.4,252.2l-12-7c0.1-0.3,0.3-0.6,0.5-0.9l12,7C457.7,251.6,457.5,251.9,457.4,252.2L457.4,252.2z"/>
					<path class="st9" d="M457.8,251.3l-12-7c0.1-0.3,0.3-0.6,0.5-0.9l12,7C458.1,250.7,458,251,457.8,251.3L457.8,251.3z"/>
					<path class="st8" d="M458.3,250.4l-12-7c0.2-0.3,0.4-0.6,0.6-0.9l12,7C458.7,249.8,458.5,250.1,458.3,250.4L458.3,250.4z"/>
					<path class="st7" d="M458.9,249.5l-12-7c0.2-0.3,0.4-0.6,0.6-0.9l12,7C459.3,248.9,459.1,249.2,458.9,249.5L458.9,249.5z"/>
					<path class="st6" d="M459.5,248.6l-12-7c0.2-0.3,0.4-0.6,0.7-1l12,7C459.9,248,459.7,248.3,459.5,248.6L459.5,248.6z"/>
					<path class="st5" d="M460.2,247.7l-12-7c0.3-0.3,0.6-0.7,0.9-1l12,7C460.7,247,460.5,247.3,460.2,247.7L460.2,247.7z"/>
					<path class="st4" d="M461,246.6l-12-7c0.4-0.4,0.7-0.8,1.1-1.2l12,7C461.8,245.8,461.4,246.2,461,246.6L461,246.6z"/>
					<path class="st3" d="M462.2,245.4l-12-7c1.1-1.1,2.3-2,3.5-2.7l12,7C464.5,243.4,463.3,244.3,462.2,245.4L462.2,245.4z"/>
				</g>
			</g>
			<g class="st1">
				<defs>
					<path id="SVGID_17_" class="st1" d="M437.6,258.7c3.5,2,7,4.1,10.6,6.1l0,0l0,0l0,0l0,0l0,0l0,0l0,0
						C444.7,262.8,441.1,260.8,437.6,258.7z"/>
				</defs>
				<clipPath id="SVGID_18_">
					<use xlink:href="#SVGID_17_"  style="overflow:visible;"/>
				</clipPath>
				<g class="st46">
					<path class="st35" d="M448.1,267l-12-7c0.1-0.7,0.1-1.4,0.1-2c0-3.3-1.2-5.7-3.1-6.8l12,7c1.9,1.1,3.1,3.4,3.1,6.7
						C448.2,265.6,448.2,266.3,448.1,267L448.1,267z"/>
				</g>
			</g>
			<g class="st1">
				<defs>
					<path id="SVGID_19_" class="st1" d="M436.2,257.9c0-3.3-1.2-5.7-3.1-6.8l12,7c1.9,1.1,3.1,3.4,3.1,6.7l0,0l0,0l0,0l0,0l0,0l0,0
						l0,0l0,0C444.2,262.6,440.2,260.3,436.2,257.9c4,2.3,8,4.6,12,7c0,6.7-4.7,14.9-10.5,18.2l-12-7
						C431.5,272.8,436.2,264.6,436.2,257.9z"/>
				</defs>
				<clipPath id="SVGID_20_">
					<use xlink:href="#SVGID_19_"  style="overflow:visible;"/>
				</clipPath>
				<g class="st47">
					<path class="st24" d="M437.7,283.1l-12-7c1.2-0.7,2.4-1.6,3.5-2.7l12,7C440.1,281.5,438.9,282.4,437.7,283.1L437.7,283.1z"/>
					<path class="st25" d="M441.2,280.4l-12-7c0.4-0.4,0.8-0.8,1.1-1.2l12,7C442,279.6,441.6,280,441.2,280.4L441.2,280.4z"/>
					<path class="st26" d="M442.3,279.2l-12-7c0.3-0.3,0.6-0.7,0.9-1l12,7C442.9,278.5,442.6,278.8,442.3,279.2L442.3,279.2z"/>
					<path class="st27" d="M443.2,278.1l-12-7c0.2-0.3,0.5-0.6,0.7-1l12,7C443.7,277.5,443.4,277.8,443.2,278.1L443.2,278.1z"/>
					<path class="st28" d="M443.9,277.2l-12-7c0.2-0.3,0.4-0.6,0.6-0.9l12,7C444.3,276.5,444.1,276.9,443.9,277.2L443.9,277.2z"/>
					<path class="st29" d="M444.5,276.3l-12-7c0.2-0.3,0.4-0.6,0.5-0.9l12,7C444.9,275.7,444.7,275.9,444.5,276.3L444.5,276.3z"/>
					<path class="st30" d="M445.1,275.3l-12-7c0.2-0.3,0.3-0.6,0.5-0.9l12,7C445.4,274.8,445.2,275.1,445.1,275.3L445.1,275.3z"/>
					<path class="st31" d="M445.6,274.5l-12-7c0.2-0.3,0.3-0.6,0.5-0.9l12,7C445.9,273.9,445.7,274.2,445.6,274.5L445.6,274.5z"/>
					<path class="st32" d="M446,273.6l-12-7c0.1-0.3,0.3-0.6,0.4-0.9l12,7C446.3,273,446.2,273.3,446,273.6L446,273.6z"/>
					<path class="st33" d="M446.4,272.6l-12-7c0.1-0.3,0.3-0.6,0.4-0.9l12,7C446.7,272,446.6,272.3,446.4,272.6L446.4,272.6z"/>
					<path class="st39" d="M446.8,271.7l-12-7c0.1-0.3,0.3-0.7,0.4-1l12,7C447.1,271,447,271.4,446.8,271.7L446.8,271.7z"/>
					<path class="st38" d="M447.2,270.7l-12-7c0.1-0.4,0.2-0.7,0.3-1.1l12,7C447.4,270,447.3,270.3,447.2,270.7L447.2,270.7z"/>
					<path class="st37" d="M447.5,269.6l-12-7c0.1-0.4,0.2-0.8,0.3-1.2l12,7C447.7,268.8,447.6,269.2,447.5,269.6L447.5,269.6z"/>
					<path class="st36" d="M447.8,268.4l-12-7c0.1-0.5,0.2-1,0.3-1.5l12,7C448,267.4,447.9,267.9,447.8,268.4L447.8,268.4z"/>
					<path class="st35" d="M448.1,267l-12-7c0.1-0.7,0.1-1.4,0.1-2c0-3.3-1.2-5.7-3.1-6.8l12,7c1.9,1.1,3.1,3.4,3.1,6.7
						C448.2,265.6,448.2,266.3,448.1,267L448.1,267z"/>
				</g>
			</g>
			<g class="st1">
				<defs>
					<path id="SVGID_21_" class="st1" d="M418.2,276.9c1.9,1.1,4.6,1,7.5-0.7c3.5,2,7,4.1,10.6,6.1l1.4,0.8
						c-2.9,1.7-5.6,1.8-7.5,0.7C426.6,281.7,421.8,279,418.2,276.9z"/>
				</defs>
				<clipPath id="SVGID_22_">
					<use xlink:href="#SVGID_21_"  style="overflow:visible;"/>
				</clipPath>
				<g class="st48">
					<path class="st33" d="M430.2,283.8l-12-7c0,0,0,0,0,0L430.2,283.8C430.2,283.9,430.2,283.9,430.2,283.8L430.2,283.8z"/>
					<path class="st32" d="M430.2,283.9l-12-7c0.2,0.1,0.3,0.2,0.5,0.3l12,7C430.6,284,430.4,284,430.2,283.9L430.2,283.9z"/>
					<path class="st31" d="M430.8,284.1l-12-7c0.2,0.1,0.4,0.1,0.5,0.2l12,7C431.1,284.3,430.9,284.2,430.8,284.1L430.8,284.1z"/>
					<path class="st30" d="M431.3,284.3l-12-7c0.2,0.1,0.4,0.1,0.6,0.1l12,7C431.7,284.4,431.5,284.4,431.3,284.3L431.3,284.3z"/>
					<path class="st29" d="M431.9,284.5l-12-7c0.2,0,0.4,0.1,0.6,0.1l12,7C432.3,284.5,432.1,284.5,431.9,284.5L431.9,284.5z"/>
					<path class="st28" d="M432.5,284.5l-12-7c0.2,0,0.5,0,0.7,0l12,7C433,284.6,432.8,284.6,432.5,284.5L432.5,284.5z"/>
					<path class="st27" d="M433.2,284.5l-12-6.9c0.3,0,0.5,0,0.8-0.1l12,7C433.8,284.5,433.5,284.5,433.2,284.5L433.2,284.5z"/>
					<path class="st26" d="M434,284.5l-12-7c0.3,0,0.6-0.1,0.9-0.2l12,7C434.6,284.4,434.3,284.4,434,284.5L434,284.5z"/>
					<path class="st25" d="M435,284.3l-12-7c0.4-0.1,0.8-0.2,1.2-0.4l12,7C435.8,284,435.4,284.2,435,284.3L435,284.3z"/>
					<path class="st24" d="M436.2,283.8l-12-7c0.5-0.2,1-0.4,1.5-0.7l12,7C437.2,283.4,436.7,283.6,436.2,283.8L436.2,283.8z"/>
				</g>
			</g>
			<g class="st1">
				<defs>
					<path id="SVGID_23_" class="st1" d="M433.2,251.2l12,7c-1.9-1.1-4.6-1-7.5,0.7l-12-7C428.6,250.2,431.2,250.1,433.2,251.2z"/>
				</defs>
				<clipPath id="SVGID_24_">
					<use xlink:href="#SVGID_23_"  style="overflow:visible;"/>
				</clipPath>
				<g class="st49">
					<path class="st3" d="M437.6,258.9l-12-7c0.5-0.3,1-0.5,1.5-0.7l12,7C438.6,258.4,438.1,258.6,437.6,258.9L437.6,258.9z"/>
					<path class="st4" d="M439.1,258.2l-12-7c0.4-0.2,0.8-0.3,1.2-0.4l12,7C439.9,257.8,439.5,258,439.1,258.2L439.1,258.2z"/>
					<path class="st5" d="M440.3,257.7l-12-7c0.3-0.1,0.6-0.2,0.9-0.2l12,7C441,257.6,440.7,257.6,440.3,257.7L440.3,257.7z"/>
					<path class="st6" d="M441.3,257.5l-12-7c0.3,0,0.5-0.1,0.8-0.1l12,7C441.8,257.5,441.5,257.5,441.3,257.5L441.3,257.5z"/>
					<path class="st7" d="M442.1,257.4l-12-7c0.2,0,0.5,0,0.7,0l12,7C442.5,257.4,442.3,257.4,442.1,257.4L442.1,257.4z"/>
					<path class="st8" d="M442.8,257.5l-12-7c0.2,0,0.4,0,0.6,0.1l12,7C443.2,257.5,443,257.5,442.8,257.5L442.8,257.5z"/>
					<path class="st9" d="M443.4,257.5l-12-7c0.2,0,0.4,0.1,0.6,0.1l12,7C443.8,257.6,443.6,257.6,443.4,257.5L443.4,257.5z"/>
					<path class="st10" d="M444,257.7l-12-7c0.2,0.1,0.4,0.1,0.6,0.2l12,7C444.4,257.8,444.2,257.7,444,257.7L444,257.7z"/>
					<path class="st11" d="M444.5,257.9l-12-7c0.2,0.1,0.4,0.2,0.5,0.3l12,7C444.9,258,444.7,257.9,444.5,257.9L444.5,257.9z"/>
					<path class="st12" d="M445.1,258.1l-12-7c0,0,0,0,0.1,0L445.1,258.1C445.1,258.1,445.1,258.1,445.1,258.1L445.1,258.1z"/>
				</g>
			</g>
			<g class="st1">
				<defs>
					<path id="SVGID_25_" class="st1" d="M430.2,283.8c-4-2.3-8-4.6-12-7c-1.9-1.1-3.1-3.4-3.1-6.8c0-6.7,4.7-14.8,10.5-18.2l12,7
						c-5.8,3.4-10.6,11.5-10.5,18.2C427.1,280.4,428.3,282.8,430.2,283.8z"/>
				</defs>
				<clipPath id="SVGID_26_">
					<use xlink:href="#SVGID_25_"  style="overflow:visible;"/>
				</clipPath>
				<g class="st50">
					<path class="st17" d="M430.2,283.8l-12-7c-1.9-1.1-3.1-3.4-3.1-6.8c0-0.7,0-1.4,0.1-2.1l12,7c-0.1,0.7-0.1,1.4-0.1,2.1
						C427.1,280.4,428.3,282.8,430.2,283.8L430.2,283.8z"/>
					<path class="st16" d="M427.2,275l-12-7c0.1-0.5,0.1-1,0.2-1.5l12,7C427.4,274,427.3,274.5,427.2,275L427.2,275z"/>
					<path class="st15" d="M427.5,273.6l-12-7c0.1-0.4,0.2-0.8,0.3-1.2l12,7C427.6,272.8,427.5,273.2,427.5,273.6L427.5,273.6z"/>
					<path class="st14" d="M427.8,272.4l-12-7c0.1-0.4,0.2-0.7,0.3-1.1l12,7C428,271.7,427.9,272,427.8,272.4L427.8,272.4z"/>
					<path class="st13" d="M428.1,271.3l-12-7c0.1-0.3,0.2-0.7,0.4-1l12,7C428.3,270.6,428.2,271,428.1,271.3L428.1,271.3z"/>
					<path class="st12" d="M428.4,270.3l-12-7c0.1-0.3,0.3-0.6,0.4-0.9l12,7C428.7,269.7,428.6,270,428.4,270.3L428.4,270.3z"/>
					<path class="st11" d="M428.8,269.4l-12-7c0.1-0.3,0.3-0.6,0.4-0.9l12,6.9C429.1,268.7,429,269.1,428.8,269.4L428.8,269.4z"/>
					<path class="st10" d="M429.2,268.4l-12-6.9c0.2-0.3,0.3-0.6,0.5-0.9l12,7C429.6,267.8,429.4,268.1,429.2,268.4L429.2,268.4z"/>
					<path class="st9" d="M429.7,267.6l-12-7c0.2-0.3,0.3-0.6,0.5-0.9l12,7C430,267,429.9,267.3,429.7,267.6L429.7,267.6z"/>
					<path class="st8" d="M430.2,266.7l-12-7c0.2-0.3,0.4-0.6,0.5-0.9l12,7C430.6,266.1,430.4,266.4,430.2,266.7L430.2,266.7z"/>
					<path class="st7" d="M430.7,265.8l-12-7c0.2-0.3,0.4-0.6,0.6-0.9l12,7C431.1,265.2,430.9,265.5,430.7,265.8L430.7,265.8z"/>
					<path class="st6" d="M431.3,264.9l-12-7c0.2-0.3,0.5-0.6,0.7-0.9l12,7C431.8,264.2,431.6,264.5,431.3,264.9L431.3,264.9z"/>
					<path class="st5" d="M432.1,263.9l-12-7c0.3-0.4,0.6-0.7,0.9-1l12,7C432.6,263.2,432.3,263.6,432.1,263.9L432.1,263.9z"/>
					<path class="st4" d="M432.9,262.9l-12-7c0.4-0.4,0.8-0.8,1.2-1.2l12,7C433.7,262,433.3,262.4,432.9,262.9L432.9,262.9z"/>
					<path class="st3" d="M434.1,261.6l-12-7c1.1-1.1,2.3-2,3.5-2.7l12,7C436.4,259.6,435.2,260.5,434.1,261.6L434.1,261.6z"/>
				</g>
			</g>
			<g class="st1">
				<defs>
					<path id="SVGID_27_" class="st1" d="M409.5,275c3.5,2,7,4.1,10.6,6.1l0,0l0,0l0,0l0,0l0,0l0,0l0,0
						C416.5,279.1,413,277,409.5,275z"/>
				</defs>
				<clipPath id="SVGID_28_">
					<use xlink:href="#SVGID_27_"  style="overflow:visible;"/>
				</clipPath>
				<g class="st51">
					<path class="st35" d="M419.9,283.2l-12-7c0.1-0.7,0.1-1.4,0.1-2.1c0-3.3-1.2-5.6-3.1-6.7l12,7c1.9,1.1,3.1,3.4,3.1,6.8
						C420.1,281.8,420,282.5,419.9,283.2L419.9,283.2z"/>
				</g>
			</g>
			<g class="st1">
				<defs>
					<path id="SVGID_29_" class="st1" d="M408.1,274.2c0-3.3-1.2-5.6-3.1-6.7l12,7c1.9,1.1,3.1,3.4,3.1,6.8l0,0l0,0l0,0l0,0l0,0l0,0
						l0,0l0,0C416.1,278.8,412.1,276.5,408.1,274.2c4,2.3,8,4.6,12,7c0,6.7-4.7,14.9-10.5,18.2l-12-7
						C403.4,289,408.1,280.9,408.1,274.2z"/>
				</defs>
				<clipPath id="SVGID_30_">
					<use xlink:href="#SVGID_29_"  style="overflow:visible;"/>
				</clipPath>
				<g class="st52">
					<path class="st24" d="M409.6,299.4l-12-7c1.2-0.7,2.4-1.6,3.5-2.7l12,7C412,297.7,410.8,298.6,409.6,299.4L409.6,299.4z"/>
					<path class="st25" d="M413.1,296.6l-12-7c0.4-0.4,0.8-0.8,1.1-1.2l12,7C413.8,295.8,413.5,296.2,413.1,296.6L413.1,296.6z"/>
					<path class="st26" d="M414.2,295.4l-12-7c0.3-0.3,0.6-0.7,0.9-1.1l12,7C414.8,294.7,414.5,295.1,414.2,295.4L414.2,295.4z"/>
					<path class="st27" d="M415.1,294.3l-12-7c0.2-0.3,0.5-0.6,0.7-0.9l12,7C415.6,293.7,415.3,294,415.1,294.3L415.1,294.3z"/>
					<path class="st28" d="M415.8,293.4l-12-7c0.2-0.3,0.4-0.6,0.6-0.9l12,7C416.2,292.8,416,293.1,415.8,293.4L415.8,293.4z"/>
					<path class="st29" d="M416.4,292.5l-12-7c0.2-0.3,0.4-0.6,0.5-0.9l12,7C416.8,291.9,416.6,292.2,416.4,292.5L416.4,292.5z"/>
					<path class="st30" d="M416.9,291.6l-12-7c0.2-0.3,0.3-0.6,0.5-0.9l12,7C417.3,291,417.1,291.3,416.9,291.6L416.9,291.6z"/>
					<path class="st31" d="M417.4,290.7l-12-7c0.2-0.3,0.3-0.6,0.4-0.9l12,7C417.7,290.1,417.6,290.4,417.4,290.7L417.4,290.7z"/>
					<path class="st32" d="M417.9,289.8l-12-7c0.2-0.3,0.3-0.6,0.4-0.9l12,7C418.2,289.2,418,289.5,417.9,289.8L417.9,289.8z"/>
					<path class="st33" d="M418.3,288.9l-12-7c0.1-0.3,0.3-0.6,0.4-0.9l12,7C418.6,288.3,418.5,288.6,418.3,288.9L418.3,288.9z"/>
					<path class="st39" d="M418.7,287.9l-12-7c0.1-0.3,0.2-0.7,0.4-1l12,7C418.9,287.3,418.8,287.6,418.7,287.9L418.7,287.9z"/>
					<path class="st38" d="M419.1,286.9l-12-7c0.1-0.3,0.2-0.7,0.3-1.1l12,6.9C419.3,286.2,419.2,286.6,419.1,286.9L419.1,286.9z"/>
					<path class="st37" d="M419.4,285.9l-12-6.9c0.1-0.4,0.2-0.8,0.3-1.2l12,7C419.6,285,419.5,285.5,419.4,285.9L419.4,285.9z"/>
					<path class="st36" d="M419.7,284.6l-12-7c0.1-0.5,0.2-1,0.3-1.5l12,7C419.9,283.7,419.8,284.2,419.7,284.6L419.7,284.6z"/>
					<path class="st35" d="M419.9,283.2l-12-7c0.1-0.7,0.1-1.4,0.1-2.1c0-3.3-1.2-5.6-3.1-6.7l12,7c1.9,1.1,3.1,3.4,3.1,6.8
						C420.1,281.8,420,282.5,419.9,283.2L419.9,283.2z"/>
				</g>
			</g>
			<g class="st1">
				<defs>
					<path id="SVGID_31_" class="st1" d="M405,267.4l12,7c-1.9-1.1-4.6-0.9-7.5,0.7l-12-7C400.4,266.5,403.1,266.3,405,267.4z"/>
				</defs>
				<clipPath id="SVGID_32_">
					<use xlink:href="#SVGID_31_"  style="overflow:visible;"/>
				</clipPath>
				<g class="st53">
					<path class="st3" d="M409.5,275.1l-12-7c0.5-0.3,1-0.5,1.5-0.7l12,7C410.5,274.6,410,274.9,409.5,275.1L409.5,275.1z"/>
					<path class="st4" d="M411,274.4l-12-7c0.4-0.2,0.8-0.3,1.3-0.4l12,7C411.8,274.1,411.4,274.2,411,274.4L411,274.4z"/>
					<path class="st5" d="M412.2,274l-12-7c0.3-0.1,0.6-0.1,0.9-0.2l12,7C412.8,273.8,412.5,273.9,412.2,274L412.2,274z"/>
					<path class="st6" d="M413.1,273.8l-12-7c0.3,0,0.5-0.1,0.8-0.1l12,7C413.7,273.7,413.4,273.7,413.1,273.8L413.1,273.8z"/>
					<path class="st7" d="M413.9,273.7l-12-7c0.2,0,0.5,0,0.7,0l12,7C414.4,273.7,414.2,273.7,413.9,273.7L413.9,273.7z"/>
					<path class="st8" d="M414.6,273.7l-12-7c0.2,0,0.4,0,0.6,0.1l12,7C415.1,273.7,414.8,273.7,414.6,273.7L414.6,273.7z"/>
					<path class="st9" d="M415.3,273.8l-12-7c0.2,0,0.4,0.1,0.6,0.1l12,6.9C415.7,273.8,415.5,273.8,415.3,273.8L415.3,273.8z"/>
					<path class="st10" d="M415.9,273.9l-12-6.9c0.2,0.1,0.4,0.1,0.5,0.2l12,7C416.2,274,416.1,274,415.9,273.9L415.9,273.9z"/>
					<path class="st11" d="M416.4,274.1l-12-7c0.2,0.1,0.4,0.2,0.5,0.3l12,7C416.8,274.3,416.6,274.2,416.4,274.1L416.4,274.1z"/>
					<path class="st12" d="M416.9,274.4l-12-7c0,0,0,0,0.1,0L416.9,274.4C417,274.4,417,274.4,416.9,274.4L416.9,274.4z"/>
				</g>
			</g>
			<g class="st1">
				<defs>
					<path id="SVGID_33_" class="st1" d="M402,300.1l-12-7c-1.9-1.1-3.1-3.4-3.1-6.8c0-6.7,4.7-14.8,10.5-18.2l12,7
						c-5.8,3.4-10.5,11.5-10.5,18.2C399,296.6,400.1,299,402,300.1z"/>
				</defs>
				<clipPath id="SVGID_34_">
					<use xlink:href="#SVGID_33_"  style="overflow:visible;"/>
				</clipPath>
				<g class="st54">
					<path class="st17" d="M402,300.1l-12-7c-1.9-1.1-3.1-3.4-3.1-6.8c0-0.7,0.1-1.4,0.2-2.1l12,7c-0.1,0.7-0.1,1.4-0.1,2
						C399,296.6,400.1,299,402,300.1L402,300.1z"/>
					<path class="st16" d="M399.1,291.3l-12-7c0.1-0.5,0.1-1,0.2-1.5l12,7C399.2,290.3,399.1,290.8,399.1,291.3L399.1,291.3z"/>
					<path class="st15" d="M399.3,289.8l-12-7c0.1-0.4,0.2-0.8,0.3-1.2l12,7C399.5,289,399.4,289.4,399.3,289.8L399.3,289.8z"/>
					<path class="st14" d="M399.6,288.6l-12-7c0.1-0.3,0.2-0.7,0.3-1.1l12,7C399.8,287.9,399.7,288.3,399.6,288.6L399.6,288.6z"/>
					<path class="st13" d="M400,287.5l-12-7c0.1-0.3,0.2-0.7,0.4-1l12,6.9C400.2,286.9,400.1,287.2,400,287.5L400,287.5z"/>
					<path class="st12" d="M400.3,286.5l-12-6.9c0.1-0.3,0.2-0.6,0.4-0.9l12,7C400.6,285.9,400.4,286.2,400.3,286.5L400.3,286.5z"/>
					<path class="st11" d="M400.7,285.6l-12-7c0.1-0.3,0.3-0.6,0.4-0.9l12,7C401,285,400.8,285.3,400.7,285.6L400.7,285.6z"/>
					<path class="st10" d="M401.1,284.7l-12-7c0.1-0.3,0.3-0.6,0.4-0.9l12,7C401.4,284.1,401.3,284.4,401.1,284.7L401.1,284.7z"/>
					<path class="st9" d="M401.6,283.8l-12-7c0.2-0.3,0.3-0.6,0.5-0.9l12,7C401.9,283.2,401.7,283.5,401.6,283.8L401.6,283.8z"/>
					<path class="st8" d="M402.1,282.9l-12-7c0.2-0.3,0.3-0.6,0.5-0.9l12,7C402.4,282.3,402.2,282.6,402.1,282.9L402.1,282.9z"/>
					<path class="st7" d="M402.6,282l-12-7c0.2-0.3,0.4-0.6,0.6-0.9l12,7C403,281.4,402.8,281.7,402.6,282L402.6,282z"/>
					<path class="st6" d="M403.2,281.1l-12-7c0.2-0.3,0.5-0.6,0.7-0.9l12,7C403.7,280.5,403.4,280.8,403.2,281.1L403.2,281.1z"/>
					<path class="st5" d="M403.9,280.2l-12-7c0.3-0.3,0.6-0.7,0.9-1l12,7C404.5,279.4,404.2,279.8,403.9,280.2L403.9,280.2z"/>
					<path class="st4" d="M404.8,279.1l-12-7c0.4-0.4,0.8-0.8,1.1-1.2l12,7C405.5,278.3,405.2,278.7,404.8,279.1L404.8,279.1z"/>
					<path class="st3" d="M405.9,277.9l-12-7c1.1-1.1,2.3-2,3.5-2.8l12,7C408.2,275.9,407,276.8,405.9,277.9L405.9,277.9z"/>
				</g>
			</g>
			<g>
				<g>
					<path class="st55" d="M820.4,20.5c6.4-3.7,11.6-0.7,11.6,6.6l0.1,42.1L376.8,332.1l-0.1-42.1c0-7.3,5.1-16.3,11.5-19.9
						L820.4,20.5z M437.7,283.1c5.8-3.4,10.5-11.5,10.5-18.2c0-6.7-4.8-9.4-10.6-6c-5.8,3.4-10.6,11.5-10.5,18.2
						C427.1,283.8,431.9,286.5,437.7,283.1L437.7,283.1z M409.6,299.4c5.8-3.4,10.5-11.5,10.5-18.2c0-6.7-4.8-9.4-10.6-6
						c-5.8,3.4-10.5,11.5-10.5,18.2C399,300,403.7,302.7,409.6,299.4L409.6,299.4z M465.8,266.9c5.8-3.4,10.5-11.5,10.5-18.2
						c0-6.7-4.7-9.4-10.5-6c-5.8,3.4-10.6,11.5-10.5,18.2C455.2,267.5,460,270.2,465.8,266.9L465.8,266.9z"/>
				</g>
			</g>
			<g>
				<path class="st56" d="M465.7,242.6c5.8-3.4,10.5-0.7,10.5,6c0,6.7-4.7,14.8-10.5,18.2c-5.8,3.4-10.6,0.6-10.6-6
					C455.2,254.1,459.9,246,465.7,242.6z"/>
			</g>
			<g>
				<path class="st56" d="M437.6,258.9c5.8-3.4,10.6-0.7,10.6,6c0,6.7-4.7,14.9-10.5,18.2c-5.8,3.3-10.6,0.6-10.6-6
					C427.1,270.4,431.8,262.3,437.6,258.9z"/>
			</g>
			<g>
				<path class="st56" d="M409.5,275.1c5.8-3.4,10.6-0.7,10.6,6c0,6.7-4.7,14.9-10.5,18.2c-5.8,3.4-10.6,0.7-10.6-6
					C398.9,286.6,403.7,278.5,409.5,275.1z"/>
			</g>
			<g>
				<polygon class="st56" points="376.8,332.1 364.9,325.1 364.7,283 376.7,290 				"/>
			</g>
			<path class="st57" d="M822.9,19.4c0.7-0.2,1.3-0.4,1.9-0.4c0.1,0,0.1,0,0.1,0c0.7-0.1,1.3,0,1.9,0.1c0,0,0.1,0,0.1,0
				c0.6,0.1,1.2,0.3,1.7,0.6c0,0-0.1,0-0.1,0l-12-7c-0.2-0.1-0.4-0.2-0.6-0.3c-0.2-0.1-0.4-0.2-0.6-0.2c-0.1-0.1-0.3-0.1-0.4-0.1
				c0,0-0.1,0-0.1,0c-0.1,0-0.1,0-0.1,0c-0.2,0-0.5-0.1-0.7-0.1c-0.2,0-0.5,0-0.8,0c-0.1,0-0.2,0-0.3,0c-0.1,0-0.1,0-0.2,0
				c-0.1,0-0.3,0-0.4,0c-0.3,0.1-0.7,0.1-1,0.2c-0.1,0-0.3,0.1-0.4,0.1c-0.1,0-0.3,0.1-0.4,0.1c-0.2,0.1-0.3,0.1-0.5,0.2
				c-0.5,0.2-1.1,0.5-1.6,0.8L376.2,263.1c-0.7,0.4-1.5,0.9-2.2,1.5c-0.2,0.2-0.5,0.4-0.7,0.6c-0.3,0.3-0.6,0.5-1,0.9
				c-0.1,0.1-0.3,0.3-0.4,0.4c-0.1,0.1-0.3,0.3-0.4,0.4c-0.1,0.2-0.3,0.3-0.4,0.5c-0.3,0.4-0.6,0.8-0.9,1.1
				c-0.1,0.1-0.2,0.3-0.3,0.4c0,0.1-0.1,0.1-0.2,0.2c-0.1,0.1-0.2,0.3-0.3,0.4c-0.2,0.3-0.5,0.7-0.7,1c-0.2,0.3-0.4,0.6-0.6,1
				c0,0,0,0.1-0.1,0.1c0,0,0,0,0,0.1c-0.2,0.3-0.3,0.6-0.5,0.8c-0.2,0.3-0.3,0.7-0.5,1c-0.1,0.3-0.3,0.6-0.4,0.9c0,0,0,0,0,0
				c0,0,0,0,0,0.1c-0.1,0.3-0.3,0.7-0.4,1c-0.1,0.3-0.3,0.7-0.4,1.1c-0.1,0.2-0.1,0.3-0.2,0.5c0,0.1-0.1,0.2-0.1,0.2
				c0,0.1-0.1,0.3-0.1,0.4c-0.1,0.4-0.2,0.9-0.3,1.3c-0.1,0.3-0.1,0.5-0.1,0.8c0,0.1,0,0.3-0.1,0.4c0,0.1-0.1,0.3-0.1,0.4
				c-0.1,0.8-0.1,1.5-0.1,2.2l12,7c0-0.9,0.1-1.8,0.2-2.6c0-0.1,0.1-0.3,0.1-0.4c0.1-0.8,0.3-1.7,0.6-2.5c0-0.1,0-0.1,0.1-0.2
				c0.3-0.9,0.6-1.8,1-2.7c0,0,0-0.1,0-0.1c0.4-0.9,0.8-1.8,1.3-2.6c0,0,0-0.1,0-0.1c0.5-0.8,1-1.7,1.6-2.4c0.1-0.1,0.1-0.2,0.2-0.2
				c0.5-0.7,1.1-1.4,1.7-2c0.1-0.1,0.2-0.3,0.4-0.4c0.5-0.5,1-0.9,1.5-1.4c0.2-0.2,0.4-0.4,0.6-0.6c0.7-0.6,1.4-1.1,2.2-1.5
				L820.4,20.5c0.7-0.4,1.5-0.7,2.1-1C822.7,19.5,822.8,19.5,822.9,19.4z"/>
			<g>
				<polygon class="st55" points="434.8,343.7 434.8,354.3 787.3,150.8 787.3,140.2 				"/>
			</g>
			<g>
				<polygon class="st55" points="434.8,386.8 434.8,397.3 787.3,193.8 787.3,183.2 				"/>
			</g>
			<g>
				<polygon class="st55" points="434.8,429.8 434.8,440.4 787.3,236.8 787.3,226.3 				"/>
			</g>
			<g>
				<polygon class="st55" points="434.8,472.8 434.8,483.4 787.3,279.9 787.3,269.3 				"/>
			</g>
			<g>
				<polygon class="st55" points="434.8,515.9 434.8,526.5 787.3,322.9 787.3,312.3 				"/>
			</g>
			<g>
				<polygon class="st55" points="434.8,558.9 434.8,569.5 787.3,365.9 787.3,355.4 				"/>
			</g>
		</g>
		<g>
			<path class="st58" d="M702,323.5c0,0-3.9-9.2-16.1-9.3C686,314.2,689,325.6,702,323.5z"/>
			<g>
				<path class="st59" d="M690.2,309.4c0,0-10.1,12.9-11,16.3c-0.9,3.4-5.2,17.8,1.9,27.6c3.8,5.3,6-2.1,7.1-11.7
					c0.5-4.3-0.1-7.7,5.7-12.4c4.2-3.4,8.9-10.2,10.7-13.7C706.3,311.9,690.2,309.4,690.2,309.4z"/>
				<path class="st60" d="M704.3,316.2c-1.8,3.6-6.9,9.7-7.7,15c-1,6.3-7.9,6-8.4,10.3c-0.8,7.5-2.5,13.7-4.9,13.5
					c1.1-5.6-5.5-10,1.7-23.1c2.6-4.8,11.2-14.7,16.1-18.7C703.9,314.7,705,314.8,704.3,316.2z"/>
				<path class="st59" d="M700.3,313.2c0,0-2.2,18.3-3.6,23.7c-1.5,5.5-4.8,8.6-5.4,7.4c-0.7-1.2,2.8-17.6-3.2-17.2
					C684.9,327.4,699.4,315.8,700.3,313.2z"/>
			</g>
			<path class="st61" d="M744.7,165.6c0,0-18.4-4.3-26,32.2c-7.6,36.5-7.6,50.8-13,63.3c-5.4,12.5-19.7,53.1-19.7,53.1
				s11.6,0.6,16.1,9.3c0,0,30.1-50.1,36.1-72.2S763.8,175.7,744.7,165.6z"/>
			<path class="st62" d="M705.7,261.1c5.4-12.5,5.4-26.7,13-63.3c4.1-19.8,11.5-27.6,17.3-30.6c17.3,11.5-1.8,63.4-7.6,85.1
				c-4.4,16.5-21.9,50.2-30.5,66.3c-6.2-4.5-12-4.4-12-4.4S700.3,273.6,705.7,261.1z"/>
			<path class="st63" d="M763.1,518.7c0,0,4.9,11.4,0,14.3c-4.9,3-5.5,6.2-13.4,5.6c-7.8-0.7-6.7,2-9.4,4.9
				c-2.7,2.9-30.3,15-35.6,9.1c-5.2-5.9,9.4-12.7,14.6-16.1c5.2-3.4,17.6-17.1,17.9-21C737.7,511.6,763.1,518.7,763.1,518.7z"/>
			<path class="st64" d="M763.1,533.1c-4.9,3-5.5,6.2-13.4,5.6c-7.8-0.7-6.7,2-9.4,4.9c-2.7,2.9-30.3,15-35.6,9.1
				c-1.8-2-1.2-4.1,0.4-6.2c1.9,0.3,4.6,0.8,8.1,1.4c8.1,1.4,18.6-8,22.7-11.5c4-3.5,9.2-2.1,16.2-3.3c7-1.2,6-11.8,6-11.8l5.2-1.8
				C764.3,522,767.2,530.6,763.1,533.1z"/>
			<path class="st63" d="M812.4,555.7c0,0,2.1,13.5-3.1,20.8c-5.2,7.3-16.6,19.9-21.5,19.3c-4.9-0.5-5.7-2.8-5.7-2.8
				s-2.1-10.9,1.5-21.9c3.6-10.9,3.9-15.4,3.9-15.4H812.4z"/>
			<path class="st64" d="M809.3,576.5c-4.6,6.4-13.9,16.9-19.4,19c7.3-9.4-3.7-7.4,4.6-11.9c11.3-6.1,4.1-11.3,9.1-12.7
				c5-1.4,1.4-13.9,1.4-13.9l2.7-1.2h4.7C812.4,555.7,814.5,569.2,809.3,576.5z"/>
			<path class="st65" d="M752.5,336.6c0,0-23.3-2.5-31-19.7c0,0-2.1,38,2.6,82c4.7,44,8.6,121.5,8.6,121.5s15,14.2,30.6,0
				c0,0,4.4-51.1,0-79.5c0,0,2.9-49.6-1.9-74.4C756.5,341.7,752.5,336.6,752.5,336.6z"/>
			<path class="st66" d="M732.7,520.4c0,0-3.9-77.5-8.6-121.5c-4.7-44-3.1-87.8-3.1-87.8c5.7,12.6,20.2,23.1,27.3,24.7
				c-0.5,16.8-2.1,66.4-1.9,82.8c0.2,15.7,3.3,80.6,4.6,107.8C740.7,527.9,732.7,520.4,732.7,520.4z"/>
			<path class="st65" d="M807.2,334c0,0,2.2,25.7,2.7,65.8c0.5,40,3.4,55.1,4.4,61.2c1,6.1,4.4,73.1,2.4,92.7c0,0-12.6,19.5-32.6,0
				c0,0-3.4-68.7-6.8-84.3c-3.4-15.6-22.4-91.6-30.1-118.8c-3.4-12-4.2-16.6-4.2-16.6S776.6,358.1,807.2,334z"/>
			<path class="st66" d="M784.1,553.7c0,0-3.4-68.7-6.8-84.3c-3.4-15.6-22.4-91.6-30.1-118.8c-3.4-12-11.2-21.3-11.2-21.3
				s22,15.4,41.1,15.4c0.8,5.9,8.9,61.9,10.8,86.4c1.9,24.3,18.5,109.8,14,131.2C797,562.5,791,560.4,784.1,553.7z"/>
			<path class="st62" d="M785.3,174.2c0,0,34.2,20.6,34.9,23.4c0.7,2.8,9.5,10-5.9,40.3c0,0-20,32.6-13.6,67.1
				c3.7,20,7.6,30.6,7.6,30.6s-17.4,22.3-60.6,2.8c-8.7-3.9-22.9-17.2-26.7-27.3c0,0,6.2-28.6,3-62.9c-3.1-34.2-3.2-78.4,16.5-82.9
				C740.5,165.4,745.8,159.8,785.3,174.2z"/>
			<g>
				<path class="st59" d="M782.4,144.4c0,0-8.2,18,2,27.7c5.7,5.4-3.2,21.8-22.6,23.6c0,0-8.9-0.8-8.5-4c0.9-7.4-2.6-10.9-6.4-15.8
					C743,170.9,782.4,144.4,782.4,144.4z"/>
				<path class="st67" d="M784.4,172.1c0.7,0.6,1.2,1.4,1.4,2.4c-8.3-6.2-22.2-4.6-22.2-4.6l15.1-22.9c0.7-0.5,1.2-0.9,1.7-1.2
					l0.8,1.7C779.4,153,776.8,164.8,784.4,172.1z"/>
				<g>
					<path class="st59" d="M784.9,134.6c0,0-1.3,22.3-14.7,34.4c-11.8,10.7-26.3,18.8-31.6,3.5c-4.2-12.2-15.2-43.1-5.2-51.2
						c13-10.5,16.6-21.4,34-17.9C767.5,103.5,787.7,109.2,784.9,134.6z"/>
					<path class="st60" d="M784.9,134.6c0,0,1.2,18.8-14.6,34.7c-3.4,3.4-7.9,6.4-11.4,8.6c6.1-6.2,6.6-7.9,11-15
						c4.4-7.1-8.6-2.6-1.9-20c2.3-5.9-11.9,3.5-15.3,3.9c-20.4,2.6-20.6-9.2-21.8-14.1c0.1-2.2,0.3-4.3,0.8-6.3l1.3-4
						c0.2-0.4,0.4-0.7,0.5-1.1c1.8-3.1,3.6-5.9,5.5-8.3c8.7-1.2,33.5-4.5,34-4.4c0.4,0,5.5,5.1,10.3,10
						C784.8,122.9,785.6,128.1,784.9,134.6z"/>
					<path class="st68" d="M779.3,156.9c0,0,14.1-17.6,5-38.4c0,0-5.8-16.9-25.4-16.2c-9.4,0.3-25.4,4.3-29.6,24
						c-1.3,6.2,0.5,18,22.4,8.6c3.1-1.4,11.6-3.8,15.1-1.6c3.5,2.3,4.6,7.5,3.8,12.1c-0.7,4.1,2.8,4,3.1,3.1c0.3-0.9,3-12.6,7.8-9
						C786,142.8,779.6,156.1,779.3,156.9z"/>
					<path class="st69" d="M779.3,156.9c0.3-0.8,6.7-14.1,2.4-17.4c-4.8-3.7-7.5,8-7.8,9c-0.3,0.9-3.8,1-3.1-3.1
						c0.8-4.6-0.3-9.8-3.8-12.1c-3.2-2.1-10.6,0.4-15.1,1.6c3.4-3,10.8-5,12.5-11.8c2.3-9,6.7-13.7,11.3-16
						c6.5,4.8,8.7,11.4,8.7,11.4C793.4,139.3,779.3,156.9,779.3,156.9z"/>
				</g>
				<path class="st68" d="M718.3,123.9c0,0,9.2,23.1,34.5,11.4c0,0,12.7-5.6,16.1-18.7c0.7-2.8,3.1-7.6,7.6-8.8
					c0,0-8.6-8.9-26.7-4.8c-8.5,2-16.1,11.7-18.1,13.4C729.8,118.1,725.3,124.6,718.3,123.9z"/>
			</g>
			<path class="st61" d="M820.2,197.6c0.7,2.8,9.5,10-5.9,40.3c0,0-20,32.6-13.6,67.1c3.7,20,7.6,30.6,7.6,30.6s-8.7,11-28.8,10.7
				c-4.9-29.6,0.9-82,3.7-118c1.8-23.2,13.1-35.5,22.2-41.7C812.9,191.6,819.9,196.3,820.2,197.6z"/>
			<path class="st60" d="M746.6,203.8c0,0,0.8-14.4,3.5-17c2.6-2.6-0.2-7-3-3.6c-2.8,3.4-3.7,8.3-3.7,8.3s-2.7-16.6,2.1-18.6
				c4.7-2-13.2-0.4-15.8,7.5c-2.6,7.8-6.8,15.9,7.3,31.3C736.9,211.6,743.7,210.3,746.6,203.8z"/>
			<path class="st61" d="M803,196.4c9.5-5.4,28-1.1,18.3,22.6c-9.7,23.7-51.6,78.2-64.5,76.9c-13-1.3-8.2-27.2,2-42.3
				C769.2,238.4,794.2,201.5,803,196.4z"/>
			<path class="st61" d="M753.1,295.1c0,0-24.2-30.3-21.4-89c0,0,7,3.6,15.6-3.4C747.3,202.7,784.2,304.7,753.1,295.1z"/>
		</g>
	</g>
</g>
</svg>
