<?xml version="1.0" encoding="utf-8"?>
<!-- Generator: Adobe Illustrator 22.0.1, SVG Export Plug-In . SVG Version: 6.00 Build 0)  -->
<svg version="1.1" id="a5860ba0-ef67-4914-ac96-07e2ebcccb4f"
	 xmlns="http://www.w3.org/2000/svg" xmlns:xlink="http://www.w3.org/1999/xlink" x="0px" y="0px" viewBox="0 0 1095.7 664"
	 style="enable-background:new 0 0 1095.7 664;" xml:space="preserve">
<style type="text/css">
	.st0{display:none;opacity:0.1;}
	.st1{display:inline;}
	.st2{fill:#3EE2FD;}
	.st3{fill:#1CBEC6;}
	.st4{opacity:0.7;}
	.st5{fill:#00FFE0;}
	.st6{fill:#F1B287;}
	.st7{fill:#EFB185;}
	.st8{fill:#E6A376;}
	.st9{fill:#779F29;}
	.st10{fill:#9CBC35;}
	.st11{opacity:0.1;}
	.st12{fill:#111114;}
	.st13{fill:#24323D;}
	.st14{fill:#2B3C4B;}
	.st15{fill:#314656;}
	.st16{fill:#2A3944;}
	.st17{fill:#DD9569;}
	.st18{fill:#221101;}
	.st19{fill:#341C09;}
	.st20{fill:#DEF0F9;}
	.st21{fill:url(#SVGID_1_);}
	.st22{fill:#FFE85F;}
	.st23{fill:#4D9B12;}
	.st24{fill:#73C139;}
	.st25{enable-background:new    ;}
	.st26{fill:#95C4DE;}
	.st27{fill:#A9D6EA;}
	.st28{fill:#DEF6FF;}
	.st29{opacity:0.5;fill:#DEF6FF;}
	.st30{fill:#C0C5D1;}
	.st31{fill:url(#SVGID_2_);}
	.st32{fill:#649DD5;}
	.st33{fill:#8FC1EA;}
	.st34{opacity:0.8;}
	.st35{fill:#FF4CAA;}
	.st36{fill:#E53399;}
	.st37{fill:#C1DBE5;}
	.st38{fill:#EA49BD;}
	.st39{fill:#FE61CA;}
	.st40{fill:#0A1014;}
	.st41{fill:#131C24;}
	.st42{fill:#1D1D21;}
	.st43{fill:#161619;}
	.st44{fill:#1D2833;}
	.st45{fill:#FEFFFF;}
	.st46{fill:#F2B78F;}
	.st47{fill:#B4B9BC;}
	.st48{fill:#7D8183;}
	.st49{fill:#E3E5E5;}
	.st50{fill:#BDBBBB;}
	.st51{fill:#D2D0D0;}
	.st52{fill:#D5DFE6;}
	.st53{fill:#E9F0F4;}
	.st54{fill:#8CB230;}
</style>
<g>
	<g>
		<g class="st0">
			<polygon class="st1" points="384.6,557.5 535.8,645.4 885.1,443.8 730.2,352.7 			"/>
		</g>
		<g class="st0">
			<polygon class="st1" points="591.7,316.7 707.3,383.8 974.1,229.8 855.7,160.2 			"/>
		</g>
		<g>
			<g>
				<polygon class="st2" points="788.1,199.5 788.1,206.7 709.5,252.1 709.5,244.8 				"/>
			</g>
			<g>
				<polygon class="st2" points="952.9,124.3 953.1,176.1 841.3,240.6 841.2,188.8 				"/>
			</g>
			<g>
				<path class="st3" d="M829.8,182.7l131.6-76l0.3,115l-131.6,76L829.8,182.7z M953.1,176.1l-0.1-51.8l-111.7,64.5l0.2,51.8
					L953.1,176.1L953.1,176.1z"/>
			</g>
			<g>
				<polygon class="st3" points="961.4,86 961.4,94.7 829.8,170.7 829.7,162 				"/>
			</g>
			<g>
				<polygon class="st2" points="788.3,264.8 788.4,316.1 709.8,361.5 709.7,310.1 				"/>
			</g>
			<g>
				<path class="st3" d="M700.8,200.4l100.4-58l0.5,176.7l-100.4,58L700.8,200.4z M788.4,316.1l-0.1-51.3l-78.6,45.4l0.2,51.4
					L788.4,316.1L788.4,316.1z M788,170.8l0-7.3l-78.6,45.4l0,7.3L788,170.8L788,170.8z M788.1,206.7l0-7.3l-78.6,45.4l0,7.3
					L788.1,206.7L788.1,206.7z M788.2,223l0-7.3l-78.6,45.4l0,7.2L788.2,223L788.2,223z M788.1,187.1l0-7.2l-78.6,45.4l0,7.2
					L788.1,187.1L788.1,187.1z"/>
			</g>
			<g class="st4">
				<g>
					<path class="st2" d="M690.3,170.5L973.5,7l0.6,222.1L691,392.6L690.3,170.5z M801.7,319.2l-0.5-176.7l-100.4,58l0.5,176.8
						L801.7,319.2L801.7,319.2z M961.7,221.7l-0.3-115l-131.6,76l0.3,115L961.7,221.7L961.7,221.7z M961.2,40.3l-0.1-19.6L697,173.2
						l0.1,19.6L961.2,40.3L961.2,40.3z M961.3,58.8l0-8.7l-131.6,76l0,8.7L961.3,58.8L961.3,58.8z M961.3,75.1l0-8.7l-131.6,76
						l0,8.7L961.3,75.1L961.3,75.1z M961.4,94.7l0-8.7l-131.6,76l0,8.7L961.4,94.7L961.4,94.7z"/>
				</g>
			</g>
			<g>
				<polygon class="st3" points="961.3,66.4 961.3,75.1 829.7,151.1 829.7,142.4 				"/>
			</g>
			<g>
				<polygon class="st2" points="700.8,185.2 844.3,102.4 844.2,93.1 700.8,176 				"/>
			</g>
			<g>
				<path class="st5" d="M961.2,40.3l-0.1-19.6L697,173.2l0.1,19.6L961.2,40.3z M956,28.6l0,9.2l-56.8,32.8l0-9.2L956,28.6L956,28.6
					z M844.2,93.1l0,9.2l-143.5,82.8l0-9.2L844.2,93.1L844.2,93.1z"/>
			</g>
			<g>
				<polygon class="st2" points="956,28.6 956,37.9 899.2,70.7 899.2,61.4 				"/>
			</g>
			<g>
				<polygon class="st3" points="961.3,50.1 961.3,58.8 829.6,134.8 829.6,126.1 				"/>
			</g>
			<g>
				<polygon class="st2" points="788.1,215.8 788.2,223 709.6,268.4 709.5,261.2 				"/>
			</g>
			<g>
				<polygon class="st2" points="788,179.9 788.1,187.1 709.5,232.5 709.5,225.3 				"/>
			</g>
			<g>
				<polygon class="st2" points="788,163.5 788,170.8 709.4,216.2 709.4,208.9 				"/>
			</g>
		</g>
		<g>
			<g>
				<polygon class="st2" points="654.7,411.3 654.7,420.5 554.6,478.3 554.6,469 				"/>
			</g>
			<g>
				<polygon class="st2" points="864.5,315.5 864.7,381.5 722.5,463.6 722.3,397.7 				"/>
			</g>
			<g>
				<path class="st3" d="M707.8,389.9l167.6-96.8l0.4,146.5l-167.6,96.8L707.8,389.9z M864.7,381.5l-0.2-65.9l-142.2,82.1l0.2,65.9
					L864.7,381.5L864.7,381.5z"/>
			</g>
			<g>
				<polygon class="st3" points="875.3,266.8 875.3,277.9 707.7,374.6 707.7,363.5 				"/>
			</g>
			<g>
				<polygon class="st2" points="654.9,494.4 655.1,559.7 555,617.5 554.8,552.1 				"/>
			</g>
			<g>
				<path class="st3" d="M543.6,412.5l127.8-73.8l0.6,225l-127.8,73.8L543.6,412.5z M655.1,559.7l-0.2-65.4l-100.1,57.8l0.2,65.4
					L655.1,559.7L655.1,559.7z M654.6,374.8l0-9.3l-100.1,57.8l0,9.2L654.6,374.8L654.6,374.8z M654.7,420.5l0-9.2L554.6,469l0,9.2
					L654.7,420.5L654.7,420.5z M654.8,441.3l0-9.2l-100.1,57.8l0,9.2L654.8,441.3L654.8,441.3z M654.6,395.5l0-9.2l-100.1,57.8
					l0,9.2L654.6,395.5L654.6,395.5z"/>
			</g>
			<g class="st4">
				<g>
					<path class="st2" d="M530.2,374.3l360.5-208.1l0.8,282.8L531,657.1L530.2,374.3z M672,563.7l-0.6-225l-127.8,73.8l0.6,225
						L672,563.7L672,563.7z M875.7,439.6l-0.4-146.5l-167.6,96.8l0.4,146.5L875.7,439.6L875.7,439.6z M875.1,208.6l-0.1-24.9
						L538.7,377.9l0.1,24.9L875.1,208.6L875.1,208.6z M875.1,232.2l0-11.1l-167.6,96.8l0,11.1L875.1,232.2L875.1,232.2z
						 M875.2,252.9l0-11.1l-167.6,96.7l0,11.1L875.2,252.9L875.2,252.9z M875.3,277.9l0-11.1l-167.6,96.8l0,11.1L875.3,277.9
						L875.3,277.9z"/>
				</g>
			</g>
			<g>
				<polygon class="st3" points="875.2,241.9 875.2,252.9 707.6,349.7 707.6,338.6 				"/>
			</g>
			<g>
				<polygon class="st2" points="543.5,393.1 726.2,287.6 726.2,275.9 543.5,381.3 				"/>
			</g>
			<g>
				<path class="st5" d="M875.1,208.6l-0.1-24.9L538.7,377.9l0.1,24.9L875.1,208.6z M868.4,193.7l0,11.8l-72.3,41.8l0-11.8
					L868.4,193.7L868.4,193.7z M726.2,275.9l0,11.8L543.5,393.1l0-11.8L726.2,275.9L726.2,275.9z"/>
			</g>
			<g>
				<polygon class="st2" points="868.4,193.7 868.4,205.5 796.1,247.3 796.1,235.5 				"/>
			</g>
			<g>
				<polygon class="st3" points="875.1,221.1 875.1,232.2 707.6,328.9 707.5,317.8 				"/>
			</g>
			<g>
				<polygon class="st2" points="654.7,432 654.8,441.3 554.7,499 554.7,489.8 				"/>
			</g>
			<g>
				<polygon class="st2" points="654.6,386.3 654.6,395.5 554.6,453.3 554.5,444.1 				"/>
			</g>
			<g>
				<polygon class="st2" points="654.5,365.5 654.6,374.8 554.5,432.5 554.5,423.3 				"/>
			</g>
		</g>
	</g>
	<g>
		<path class="st6" d="M864.8,273.9c0,0-10.6-4.6-11.6-7.4c-1-2.8-5.2-2.2-3.7,0.9c1.5,3.2,4.8,5.5,4.8,5.5s-13-3.7-12.9-7.8
			c0.2-4.1-4.8,9.5,0.1,14.1c4.8,4.6,9.3,10.4,25.3,5.4C866.8,284.6,868.5,278.3,864.8,273.9z"/>
		<g>
			<path class="st7" d="M915.6,200.6c0,0-6.5-11.7-8.8-13.4c-2.3-1.8-11.8-9.5-21.4-7.2c-5.2,1.2-0.3,5.2,6.6,9
				c3.1,1.7,5.8,2.3,7.5,8.2c1.2,4.2,4.9,9.9,7,12.4C908.7,212,915.6,200.6,915.6,200.6z"/>
			<path class="st8" d="M906.1,209.1c-2.1-2.5-5.1-8.3-8.9-10.6c-4.5-2.8-2-7.9-5.2-9.6c-5.4-3-9.6-6.2-8.7-7.9
				c3.9,2.6,9.3-1,16.9,8.5c2.8,3.5,7.5,13.1,9.1,18C907.4,209.3,906.9,210.1,906.1,209.1z"/>
			<path class="st7" d="M909.6,207c0,0-13.1-7.4-16.8-10.2c-3.6-2.8-5-6.3-3.9-6.4c1.1-0.1,12.4,7.6,13.9,3
				C903.7,191,908,205.6,909.6,207z"/>
		</g>
		<path class="st9" d="M1015.5,223.2c0,0,5.4,15.8-16.2,18.7c-21.7,2.9-62.6,3.4-71.1-4.1c-8.4-7.5-23.6-30.7-23.6-30.7
			s10.8-0.9,11.1-10l28.5,24.7C944.2,221.7,1011.9,212.1,1015.5,223.2z"/>
		<path class="st10" d="M1015.5,223.2c-3.6-11.1-71.3-1.5-71.3-1.5L915.6,197c-0.1,3.4-1.7,5.7-3.6,7.2c5,7.3,14.2,20.3,20.1,25.5
			c8.4,7.5,49.4,6.9,71.1,4.1c6.3-0.8,10.3-2.8,12.8-5.1C1016.3,225.6,1015.5,223.2,1015.5,223.2z"/>
		<g class="st11">
			<path d="M1036.4,495.2c32.9,19,33.1,49.8,0.4,68.8c-32.7,19-85.9,19-118.8,0c-32.9-19-33.1-49.8-0.4-68.8
				C950.3,476.2,1003.5,476.2,1036.4,495.2z"/>
		</g>
		<path class="st12" d="M983.1,496.8c0,0-7.9,1.2-6,5.8c1.9,4.6,11,11.5,12.2,14.4c1.2,2.9,8.6,13.2,11,12.2c2.4-1,8.6,0.5,7.9-11.3
			C1007.6,506.1,993.7,496.3,983.1,496.8z"/>
		<path class="st12" d="M968,540c0,0,3.8,11.3-5.8,13.9c-9.6,2.6-6.7-3.4-27.6,1.9c-20.9,5.3-23.3-5.5-22.8-7.9
			c0.5-2.4,14.4-6.7,18.9-7.9c4.5-1.2,13.2-3.4,13.2-3.4h24.7L968,540z"/>
		<path class="st13" d="M1007.4,342c0,0,0.1,68.1,0.1,75.8s8.6,68.1,3.4,94.5c0,0-14.8,14.9-28,0c0,0-4.2-75.6-8-92.7
			c-3.8-17.1-2.5-69.3-2.5-69.3L1007.4,342z"/>
		<path class="st14" d="M981.4,351.7c0,0-3.4,44-6.9,87.6c0,0-2.2,86.5-4.2,99c0,0-27.9,6.9-30.7-6.2c0,0,0.7-76.2,0-92.1
			c-0.7-15.9-2.4-60.3,3.9-85.9C949.8,328.4,981.4,351.7,981.4,351.7z"/>
		<path class="st15" d="M970.3,538.3c2-12.5,4.2-99,4.2-99c2.4-29.3,4.6-58.8,5.9-75l-17.2,4.2c0,0-12.4,32.6-10.5,81.5
			c1.5,37.9,2.1,75.1,2.3,90C962.6,540.2,970.3,538.3,970.3,538.3z"/>
		<path class="st16" d="M1011,512.3c5.1-26.4-3.4-86.8-3.4-94.5c0-7.3-0.1-69.4-0.1-75.3l-15,11.5c0,0-4.8,48.7,0,76.4
			c4.3,25.2,1.5,74.3,3.6,88.4C1004.4,518.9,1011,512.3,1011,512.3z"/>
		<path class="st10" d="M1011.6,218.4c0,0,14.4,7.2,6.2,31.7c-8.1,24.5-13.9,40.3-13.4,49.4c0.5,9.1,3.8,39.8,5.8,46
			c0,0,2.4,20.1-43.6,32.1c0,0-37.9,3.8-31.7-21.1c6.2-24.9,8.6-65.2,7.7-74.8c-1-9.6-6.7-28.8,17.3-41.7
			C983.8,227,996.2,217.4,1011.6,218.4z"/>
		<path class="st9" d="M942.5,281.7c1,9.6-1.4,49.9-7.7,74.8c-4.3,17.3,12.6,20.7,23.3,21.2c3.5-11.1-2.4-31,5.6-55.3
			c9.9-30,8.5-49.9,3.2-65.9c-3.4-10.4-9.7-10.7-14.1-12.1C937,257,941.7,273.2,942.5,281.7z"/>
		<path class="st10" d="M1010.2,345.5c-1.9-6.2-5.3-36.9-5.8-46c-0.5-9.1,5.5-24.9,13.4-49.4c7.5-23.2-1.3-29.3-6.2-31.7
			c-2.5,12-44.1,17.1-43.1,25.1c1.1,8.9,12.2,17.3,12.9,33.3c0.6,16-1.4,39.6-4.2,51.5c-2.4,10.3-1.2,35.1,1.1,45.8
			C1012.1,362,1010.2,345.5,1010.2,345.5z"/>
		<g>
			<path class="st7" d="M994.6,206.3c0,0-1.5,12.8,2.9,20.8c4,7.3-26.1,13.9-26.8,7.2c-0.1-0.7,5.7-11.7-1.6-24.8
				C965.2,202.6,994.6,206.3,994.6,206.3z"/>
			<path class="st17" d="M997.3,227.5c-3.3-5.9-3.3-14.5-3-18.5l-22,10.9c0,0,0,0,0,0c0.8,0.2,15.6,4,18.9,14.6
				C995.6,232.7,998.7,230.2,997.3,227.5z"/>
			<path class="st7" d="M962.8,172.3c0,0-4.7,11.6-3.7,21.6c1,10.8-0.6,12.9,0.1,17.7c0.3,2,0.4,5.1,2.4,7.1
				c3.3,3.2,10.2,4.4,19.4,1c11.2-4.1,23-19.5,18.2-33.4C994.5,172.4,979.7,161,962.8,172.3z"/>
			<path class="st8" d="M998.8,201.3c-4.5-12.5-15.7-27.4-15.5-28.2c0.1-0.5-3.6-2.8-7.9-5.3c-3.9,0.2-8.2,1.6-12.5,4.6
				c0,0-1.3,3.1-2.3,7.5c2.7,3,8.1,6.4,8.9,8.9c1.9,6,0.8,15-0.9,19c-1.8,4,5.4,9.9,3.9,13.4c-0.1,0.2-0.1,0.3,0,0.5
				c2.6-0.2,5.5-0.8,8.7-1.9C988.2,217.1,995.6,209.8,998.8,201.3z"/>
			<path class="st18" d="M959.5,167.6c0,0-1.6,9.9,8.2,14.7c5.9,2.9,5.4,12.4,5.1,14.1c-0.3,1.8-2,9.8-1.3,10.8c1.4,2,6-4.2,8.2-3.8
				c5.6,1.1,3.4,6.3-1.7,11.7c-5.4,5.8,8.8,8.2,15.4,3.4c3.5-2.5,4.8-4.1,9.3-13.2c6.7-13.3,7-29.2-8.7-37.7
				C978.3,159.2,969.3,171.4,959.5,167.6z"/>
			<path class="st19" d="M993.4,218.6c3.5-2.5,4.8-4.1,9.3-13.2c6.7-13.3,7-29.2-8.7-37.7c-15.7-8.5-24.7,3.7-34.5-0.2
				c0,0-0.3,1.7,0.1,4c5,0.8,18.6,3.5,22.1,9.3c4.3,7.2,9.1,4.9,8.7,13.8c-0.3,8.6,1.9,19.9-12.6,24.8
				C983.2,223.4,990.8,220.5,993.4,218.6z"/>
		</g>
		<path class="st20" d="M972.3,230.2l-9.8,8.3c0,0,30.5,8.8,39.5-6.2c1.3-2.1-0.3-9.2-5.6-10.5C996.3,221.7,995.3,233.9,972.3,230.2
			z"/>
		<path class="st9" d="M961.3,244.8c0,0,12.2,10.6-4.6,23.4c-16.7,12.9-46.1,33.2-56.7,31.1c-10.6-2.2-39.3-11.7-39.3-11.7
			s7.8-7.1,3.6-14.9l38.9,4.4C903.2,277.1,953,237.2,961.3,244.8z"/>
		<path class="st10" d="M961.3,244.8c-8.4-7.6-58.1,32.3-58.1,32.3l-38.9-4.4c0.9,1.7,1.2,3.4,1.2,4.9c12.6,2.7,36.1,7.5,41.5,6.8
			c6.6-0.9,47.6-28.8,57.3-35.5C963.1,246.4,961.3,244.8,961.3,244.8z"/>
	</g>
</g>
<g>
	<polygon class="st11" points="255.6,470.7 395.2,551.3 311,600.2 171.4,519.6 	"/>
	<g>
		<g class="st11">
			<g>
				<path d="M506.4,346.7c15.6,9,15.6,23.5,0.2,32.5c-15.4,9-40.5,9-56,0c-15.5-9-15.6-23.5-0.2-32.4
					C465.8,337.8,490.9,337.8,506.4,346.7z"/>
			</g>
		</g>
		<linearGradient id="SVGID_1_" gradientUnits="userSpaceOnUse" x1="486.1257" y1="324.7945" x2="486.8968" y2="407.1414">
			<stop  offset="0" style="stop-color:#FFDF02"/>
			<stop  offset="0.1253" style="stop-color:#F9D402"/>
			<stop  offset="0.4425" style="stop-color:#ECBD01"/>
			<stop  offset="0.7411" style="stop-color:#E4AF00"/>
			<stop  offset="1" style="stop-color:#E1AA00"/>
		</linearGradient>
		<path class="st21" d="M525.7,317.7l-79.2,1.2L456,368h0.1c0.7,3.9,3.6,7.7,8.7,10.7c11.8,6.8,30.8,6.8,42.5,0
			c5.1-3,8-6.8,8.6-10.7h0L525.7,317.7z"/>
		<g>
			<g>
				<path class="st22" d="M514,301.4c15.6,9,15.6,23.5,0.2,32.5c-15.4,8.9-40.5,8.9-56,0c-15.5-9-15.6-23.5-0.2-32.4
					C473.4,292.5,498.5,292.5,514,301.4z"/>
			</g>
		</g>
		<g>
			<g>
				<path class="st23" d="M505.4,305.8c11.4,6.6,11.4,17.2,0.1,23.7c-11.2,6.5-29.6,6.5-40.9,0c-11.3-6.6-11.4-17.1-0.1-23.7
					C475.7,299.3,494,299.3,505.4,305.8z"/>
			</g>
		</g>
		<g>
			<g>
				<g>
					<path class="st24" d="M457.2,310.1c0,0-31.6-39.9-0.5-111.8c0,0,27.3,34.4,11.6,122.6C468.3,320.9,462.2,318.7,457.2,310.1z"/>
				</g>
			</g>
			<g>
				<path class="st23" d="M457.1,198.9c0.6,27.7,2.2,75.7,6,118.5c3,2.7,5.3,3.6,5.3,3.6C482.9,238.7,460.2,203.3,457.1,198.9z"/>
			</g>
			<g>
				<g>
					<path class="st24" d="M472.8,305.2c0,0-25.3-44.2,16.1-110.6c0,0,21.9,38.1-6.7,123C482.1,317.6,476.5,314.4,472.8,305.2z"/>
				</g>
			</g>
			<g>
				<path class="st23" d="M488.8,194.6c-3.5,27.4-11.3,75.1-13.9,118c2.6,3.1,4.7,4.3,4.7,4.3C510.7,242.8,491.3,199.5,488.8,194.6z
					"/>
			</g>
			<g>
				<g>
					<g>
						<path class="st24" d="M474.4,322.7c0,0-37.9-13.4-47.3-74.4c0,0,32.7,11.5,59.3,76.9C486.3,325.3,481.3,326.3,474.4,322.7z"/>
					</g>
				</g>
				<g>
					<path class="st23" d="M427.5,248.5c12,18.2,33.2,49.6,53.8,76.6c3.1,0.5,5.1,0.2,5.1,0.2C461.5,264.2,431.5,250.1,427.5,248.5z
						"/>
				</g>
			</g>
			<g>
				<g>
					<g>
						<path class="st24" d="M491.2,316.8c0,0-20.3-23.2-3.7-67.5c0,0,17.5,19.9,10.7,73.6C498.2,323,494.5,321.8,491.2,316.8z"/>
					</g>
				</g>
				<g>
					<path class="st23" d="M487.7,249.6c1.2,16.7,3.6,45.7,7.1,71.4c1.9,1.5,3.4,2,3.4,2C504.5,272.9,489.8,252.2,487.7,249.6z"/>
				</g>
			</g>
			<g>
				<g>
					<path class="st24" d="M500.2,301.9c0,0-19.4-35.2,14.1-87.1c0,0,16.8,30.3-6.9,96.9C507.4,311.8,503,309.2,500.2,301.9z"/>
				</g>
			</g>
			<g>
				<g>
					<path class="st23" d="M514.5,215.3c-3.1,21.6-8.2,59.2-10.8,93c2,2.5,3.7,3.5,3.7,3.5C529.4,249.7,516.4,219.2,514.5,215.3z"/>
				</g>
			</g>
			<g>
				<g>
					<g>
						<path class="st24" d="M505.2,308.5c0,0-4.6-29.6,32.1-57.5c0,0,4,25.5-29.6,66.2C507.7,317.3,505.3,314.3,505.2,308.5z"/>
					</g>
				</g>
				<g>
					<path class="st23" d="M537.4,251.4c-7.8,14.3-20.9,39.4-31.3,62.5c0.7,2.3,1.7,3.4,1.7,3.4C539,279.3,537.7,254.6,537.4,251.4z
						"/>
				</g>
			</g>
		</g>
	</g>
	<g>
		<g class="st11">
			<polygon points="36.1,461.6 153.7,529.9 425.2,373.2 304.7,302.4 			"/>
		</g>
		<g class="st25">
			<g>
				<polygon class="st26" points="144.8,450.6 144.9,463.6 208.3,500.4 208.2,487.4 				"/>
			</g>
			<g>
				<polygon class="st27" points="208.2,487.4 208.3,500.4 358.4,413.8 358.4,400.7 				"/>
			</g>
			<g>
				<polygon class="st28" points="144.8,450.6 208.2,487.4 358.4,400.7 295,363.9 				"/>
			</g>
			<g>
				<polygon class="st29" points="144.8,450.6 358.4,400.7 358.4,400.7 295,363.9 				"/>
			</g>
		</g>
		<g class="st25">
			<g>
				<polygon class="st26" points="203.4,463.2 192.1,456.6 191.8,339.5 203,346 				"/>
			</g>
			<g>
				<polygon class="st30" points="203,346 191.8,339.5 293.8,280.6 305,287.1 				"/>
			</g>
			<g>
				<polygon class="st27" points="305,287.1 305.4,404.3 203.4,463.2 203,346 				"/>
			</g>
		</g>
		<polygon class="st26" points="100.6,476.6 89.8,473.5 43.2,243.7 54,246.7 		"/>
		<polygon class="st27" points="54,246.7 43.2,243.7 346.3,68.7 357.1,71.8 		"/>
		<polygon class="st28" points="357.1,71.8 403.7,301.6 100.6,476.6 54,246.7 		"/>
		<linearGradient id="SVGID_2_" gradientUnits="userSpaceOnUse" x1="299.4412" y1="110.5119" x2="162.7365" y2="424.7552">
			<stop  offset="0" style="stop-color:#1A6BB2"/>
			<stop  offset="1" style="stop-color:#1B4B92"/>
		</linearGradient>
		<polygon class="st31" points="349,90.1 390.4,297.1 109.8,459.4 66.7,249.8 		"/>
		<g>
			<g class="st25">
				<g>
					<polygon class="st32" points="313.6,136.7 315.4,144.6 271,170.2 269.2,162.3 					"/>
				</g>
				<g>
					<g>
						<path class="st32" d="M230.6,263.3L333.4,204l22.3,98.9L253,362.3L230.6,263.3z M339.2,263.3l-10.1-44.5L242,269.2l10,44.5
							L339.2,263.3L339.2,263.3z"/>
					</g>
				</g>
				<g>
					<polygon class="st32" points="325.6,169.4 327.2,176.9 224.5,236.2 222.8,228.7 					"/>
				</g>
				<g>
					<polygon class="st32" points="192.9,259.1 194.3,265.3 132.9,300.7 131.5,294.5 					"/>
				</g>
				<g>
					<polygon class="st32" points="189.7,245 191.1,251.3 129.8,286.7 128.4,280.4 					"/>
				</g>
				<g>
					<path class="st33" d="M119.1,272.7l78.3-45.2l34.3,152l-78.3,45.2L119.1,272.7z M219.3,376.2l-10-44.2L148,367.4l10,44.2
						L219.3,376.2L219.3,376.2z M201.3,296.2l-1.4-6.2l-61.4,35.4l1.4,6.2L201.3,296.2L201.3,296.2z M191.1,251.3l-1.4-6.2
						l-61.4,35.4l1.4,6.2L191.1,251.3L191.1,251.3z M198.1,282.1l-1.4-6.2l-61.3,35.4l1.4,6.2L198.1,282.1L198.1,282.1z
						 M194.3,265.3l-1.4-6.2l-61.4,35.4l1.4,6.2L194.3,265.3L194.3,265.3z"/>
				</g>
				<g>
					<polygon class="st32" points="329.4,186.3 331,193.7 228.3,253 226.6,245.6 					"/>
				</g>
				<g>
					<polygon class="st32" points="226.4,187 228.2,195 116.2,259.6 114.4,251.7 					"/>
				</g>
				<g class="st34">
					<g>
						<path class="st32" d="M325,118.9L104,246.5l43.1,191l221-127.6L325,118.9z M331,193.7l-37.6,21.7L228.3,253l-1.7-7.5l0,0
							l102.7-59.3L331,193.7L331,193.7z M325.6,169.4l1.7,7.5l-102.7,59.3l-1.7-7.5L325.6,169.4L325.6,169.4z M324.1,162.9
							l-102.7,59.3l-1.7-7.5l102.7-59.3L324.1,162.9L324.1,162.9z M110.5,249.2l206.2-119.1l3.8,16.8L114.3,266L110.5,249.2
							L110.5,249.2z M153.4,424.7l-34.3-152l78.3-45.2l34.3,152L153.4,424.7L153.4,424.7z M230.6,263.3L333.4,204l22.3,98.9
							L253,362.3L230.6,263.3L230.6,263.3z"/>
					</g>
				</g>
				<g>
					<polygon class="st33" points="339.2,263.3 329.2,218.8 242,269.2 252,313.7 					"/>
				</g>
				<g>
					<polygon class="st32" points="322.4,155.4 324.1,162.9 221.3,222.2 219.7,214.7 					"/>
				</g>
				<g>
					<polygon class="st32" points="209.4,332 219.3,376.2 158,411.6 148,367.4 					"/>
				</g>
				<g>
					<path class="st33" d="M110.5,249.2l206.2-119.1l3.8,16.8L114.3,266L110.5,249.2z M228.2,195l-1.8-8l-112,64.7l1.8,7.9
						L228.2,195L228.2,195z M315.4,144.6l-1.8-7.9l-44.3,25.6l1.8,8L315.4,144.6L315.4,144.6z"/>
				</g>
			</g>
			<g>
				<polygon class="st32" points="196.7,275.9 198.1,282.1 136.7,317.5 135.3,311.3 				"/>
			</g>
			<g>
				<polygon class="st32" points="199.9,289.9 201.3,296.2 139.9,331.6 138.5,325.3 				"/>
			</g>
		</g>
		<g>
			<polygon class="st35" points="140.7,207.3 152.8,267.1 119.1,286.2 103.7,281.5 93.3,278.1 85.4,239.3 			"/>
			<polygon class="st36" points="93.3,278.1 113,269.5 119.1,286.2 			"/>
			<polygon class="st28" points="133.4,223.9 134.1,227.4 99.7,247.8 98.9,243.8 			"/>
			<polygon class="st28" points="136,234.8 136.8,238.4 102.3,258.7 101.5,254.7 			"/>
			<polygon class="st28" points="139.4,245.1 140.1,248.7 105.7,269 104.8,265 			"/>
		</g>
	</g>
	<g class="st11">
		<path d="M418.4,442.2c22.3,12.9,22.4,33.7,0.3,46.6c-22.1,12.9-58.1,12.9-80.4,0c-22.3-12.9-22.4-33.7-0.3-46.6
			C360.1,429.3,396.1,429.3,418.4,442.2z"/>
	</g>
	<g>
		<g>
			<g>
				<path class="st20" d="M383.2,234.6c0,0-0.9-10.3-15.5-9.5c-14.6,0.7-29.2,3.4-29.2,3.4L314.5,205c0,0-6.3,1.3-7.4,5.6
					c0,0,16.7,28.5,28.6,33.1C335.7,243.6,388.2,257.1,383.2,234.6z"/>
			</g>
			<g>
				<path class="st7" d="M313.2,205.3c0,0-1.2-7.4-3.3-10c-2.1-2.6-4.1-3.8-5-4.1c-0.9-0.3,1,3.1,1.6,4.2c0.6,1.1,0.3,4.2-5.6-0.9
					c-6-5.1-5.1-3.3-5.1-2.6c-0.1,0.7,4,13.3,11.6,17.9C307.3,209.8,308.7,207,313.2,205.3z"/>
			</g>
			<g>
				<path class="st37" d="M335.7,243.6c-11.9-4.6-28.6-33.1-28.6-33.1c0.3-1.2,1.1-2.1,1.9-2.9c4,5.4,15.7,21.1,23.3,29.3
					c9.3,10,51,2,51.1,1.6C381.4,255.4,335.7,243.6,335.7,243.6z"/>
			</g>
		</g>
		<g>
			<path class="st12" d="M377.1,433.8c0,0-5.8,1.4-4,4.6c1.7,3.2,8.9,7.7,9.9,9.8c1.1,2,7.2,9.1,8.9,8.3c1.7-0.9,6.4-0.2,5.1-8.8
				C395.8,439.1,384.9,432.8,377.1,433.8z"/>
		</g>
		<g>
			<path class="st12" d="M384.8,452.3c0,0,4.4,7.6-2.2,10.9c-6.6,3.3-5.4-1.5-19.8,5.3c-14.4,6.8-17.7-0.7-17.7-2.5
				c0-1.8,9.5-6.9,12.6-8.5c3.2-1.5,9.1-4.3,9.1-4.3l18-3.5L384.8,452.3z"/>
		</g>
		<g>
			<g>
				<path class="st38" d="M385,318.2c0,0,4.5,50.2,5,55.8c0.5,5.6,10.7,49.6,8.7,69.4c0,0-10,11.9-20.6,1.8c0,0-8-55.5-11.9-67.8
					c-3.9-12.3-6.4-50.9-6.4-50.9L385,318.2z"/>
			</g>
		</g>
		<g>
			<path class="st38" d="M367.6,313.7c0,0,3.8,32.4,7.5,64.5c0,0,10.8,63.1,11.1,72.5c0,0-19.3,9-23.2-0.1c0,0-10.4-55.4-13.1-66.8
				c-2.8-11.5-12.7-47.1-11.8-66.6C339,297.7,367.6,313.7,367.6,313.7z"/>
		</g>
		<g>
			<g>
				<path class="st39" d="M386.2,450.7c-0.3-9.4-11.1-72.5-11.1-72.5c-2.5-21.6-5.5-47-6.8-58.9l-13.2,5.4c0,0-2.6,29.2,5.7,64.5
					c6.5,27.3,12.2,54.2,14.5,65C380.9,453.2,386.2,450.7,386.2,450.7z"/>
			</g>
		</g>
		<g>
			<path class="st39" d="M398.7,443.4c2.1-19.8-8.2-63.8-8.7-69.4c-0.5-5.4-2.8-48.4-3.2-52.8l-12.1,6.8c0,0-0.3,36.2,5,56.3
				c4.8,18.3,6,54.7,8.4,64.9C394.2,448.7,398.7,443.4,398.7,443.4z"/>
		</g>
		<g>
			<path class="st20" d="M378.8,225.2c0,0,11.2,4.1,7.2,22.8c-4,18.7-6.9,30.8-5.8,37.4c1.1,6.7,5.6,31.3,7.5,35.7
				c0,0,1.7,7.6-26.6,14.7c0,0-25.6,5.9-23.1-12.9c2.5-18.9-3.3-38.5-4.8-45.4c-1.5-7-7.3-20.6,9.2-32.1
				C359.1,233.8,367.5,225.7,378.8,225.2z"/>
		</g>
		<g>
			<g>
				<path class="st7" d="M365.3,217.7c0,0-0.1,9.5,3.8,15c3.5,5-18.1,12.4-19.1,7.5c-0.1-0.5,3.2-9.1-3.2-18.1
					C343.5,217.4,365.3,217.7,365.3,217.7z"/>
			</g>
			<g>
				<path class="st17" d="M369.1,233.1c-2.9-4.1-3.6-10.4-3.8-13.4l-15.3,9.8c0,0,0,0,0,0c0.6,0.1,11.8,1.6,15.1,9.2
					C368.3,237,370.4,234.9,369.1,233.1z"/>
			</g>
			<g>
				<path class="st7" d="M339.2,195.4c0,0-2.5,8.9-1,16.2c1.6,7.8,0.6,9.6,1.5,13c0.4,1.5,0.7,3.7,2.4,5c2.7,2.1,7.8,2.4,14.4-0.9
					c7.9-4,15.3-16.3,10.6-26.1C362.5,192.8,350.7,185.7,339.2,195.4z"/>
			</g>
			<g>
				<path class="st8" d="M368,213.7c-4.3-8.8-13.8-18.9-13.8-19.5c0-0.4-2.9-1.8-6.2-3.2c-2.9,0.5-5.9,1.9-8.8,4.4
					c0,0-0.7,2.4-1.1,5.7c2.2,2,6.5,4,7.3,5.8c1.9,4.2,1.9,11,0.9,14.1c-1,3.1,4.8,6.8,4,9.5c0,0.1,0,0.2,0,0.4c1.9-0.4,4-1,6.2-2.1
					C361.6,226.2,366.4,220.2,368,213.7z"/>
			</g>
			<g>
				<path class="st18" d="M336.4,192.2c0,0-0.4,7.4,7.2,10.2c4.6,1.6,5,8.6,4.9,10c-0.1,1.3-0.7,7.3,0,8c1.2,1.3,4-3.6,5.7-3.4
					c4.2,0.3,3,4.3-0.2,8.8c-3.5,4.7,7.1,5.3,11.6,1.2c2.4-2.1,3.2-3.4,5.8-10.4c3.8-10.3,2.7-22-9.5-27
					C349.5,184.5,343.9,194.2,336.4,192.2z"/>
			</g>
			<g>
				<path class="st19" d="M365.5,226.9c2.4-2.1,3.2-3.4,5.8-10.4c3.8-10.3,2.7-22-9.5-27c-12.2-4.9-17.9,4.8-25.4,2.7
					c0,0-0.1,1.3,0.4,2.9c3.7,0.2,13.9,1,17,5c3.8,4.9,7.1,2.8,7.6,9.4c0.5,6.4,3,14.5-7.2,19.3
					C358.4,231.2,363.7,228.4,365.5,226.9z"/>
			</g>
		</g>
		<g>
			<path class="st37" d="M350.9,237.2l-6.5,6.9c0,0,23.2,3.9,28.5-7.8c0.7-1.7-1-6.7-5-7.3C367.9,228.9,368.2,238,350.9,237.2z"/>
		</g>
		<g>
			<path class="st37" d="M336.4,322.3c2.5-18.9-1.5-37.9-3-44.8c-1.5-6.9-7.2-20.3,8.8-31.8c6.3,2.9,15.8,9.7,12.4,23.4
				c-4.2,16.9-2.2,52.3-1.7,67.6C345.6,336.7,334.8,333.8,336.4,322.3z"/>
		</g>
		<path class="st7" d="M298.2,213.9c0,0,0.7-5.5-1-7.4c-1.7-1.9-5.5-9.5-7.1-10.5c-1.6-1-1,2-0.5,4c0.5,2,0.2,5.9-0.5,5.5
			c-0.7-0.5-3.9,1.8-3.3,4.7c0.6,2.8,5.2,7.4,5.3,8C291.2,218.8,298.2,213.9,298.2,213.9z"/>
		<g>
			<path class="st20" d="M350.1,258.3c0,0,1.9-9.1-10.9-12.3c-12.8-3.2-26.1-4.7-26.1-4.7l-14.7-26.7c0,0-5.8-0.5-7.9,2.9
				c0,0,6.9,29,16,36.1C306.6,253.6,348.5,279.1,350.1,258.3z"/>
		</g>
	</g>
	<g>
		<path class="st40" d="M354.5,534c0,0-8.1,6.8-6.4,13.9c0,0,2.7,2.9,5.3-2.2C355.9,540.6,358.5,533.8,354.5,534z"/>
		<path class="st12" d="M348,548.6c0,0,12.3,4.2,14.4,0.2c2.1-4,4.3-7.2,5.8-8.6c1.5-1.5,11.6-18.5,8.3-21.2
			c-3.4-2.7-8.2,2.1-9.6,3.3c-1.5,1.2-16.9,13.2-16.9,13.2L348,548.6z"/>
		<path class="st41" d="M246.3,473c0,0,43,24.7,52.8,33.1c8.1,6.9,52.8,28.4,52.8,28.4s-2.1,4.2-3.6,13.9c0,0-40.9-0.6-66.6-24.2
			c0,0-86.4-18-79-62.5C202.7,461.5,231.1,466.6,246.3,473z"/>
		<path class="st42" d="M368.2,540.2c1.3-1.3,9.5-14.9,8.9-19.8c-1.5-0.2-3.8,0-5.1,3.2c-2,4.9-8.2,16.2-9.4,17.6
			c-1,1.2-6.5,6.6-5.6,9.3c2.5,0.1,4.6-0.2,5.4-1.7C364.5,544.9,366.7,541.7,368.2,540.2z"/>
		<path class="st43" d="M329.4,570.1c0,0,13.9,2.2,15.4-1.5c1.5-3.6,3.2-6.6,4.4-8c1.2-1.4,8.6-16.9,5.5-19
			c-3.1-2.1-6.9,2.5-8.1,3.6c-1.2,1.2-13.9,12.6-13.9,12.6L329.4,570.1z"/>
		<path class="st42" d="M349.2,560.6c1.1-1.2,7-13.7,6.1-17.9c-1.3-0.1-3.3,0.3-4.2,3.2c-1.4,4.4-5.8,14.6-6.7,16
			c-0.7,1.1-5.1,6.3-4.1,8.5c2.1-0.1,4-0.6,4.5-1.9C346.3,565,348,562,349.2,560.6z"/>
		<path class="st9" d="M227.7,393c0,0-8.2,1-7.8,10.3c0.3,9.3,8.9,49.3,18.7,57.2c9.8,7.9,9.6-11,9.6-11S242.2,391,227.7,393z"/>
		<path class="st44" d="M239.1,469.1c0,0-7.2,21.2-10.8,25.8c0,0,43,24.7,52.8,33.1c8.1,6.9,53.8,27.9,53.8,27.9s-3.1,4.6-4.6,14.3
			c0,0-40.9-0.6-66.6-24.2c0,0-86.3-18-79-62.5C184.6,483.4,213.2,494.7,239.1,469.1z"/>
		<path class="st10" d="M204.4,396.2c0,0-23.3,13.1-23.9,14.7c-0.5,1.6-3.2,2.8,4.5,21c0,0,7.2,16,2.1,35.8
			c-3,11.4-2.5,15.3-2.5,15.3s9.1,19.4,34.9,9.9c5.2-1.9,19.8-15.8,22.4-21.5c0,0-8.2-10.1-5-29.8c3.2-19.7,5.1-45.3-6.1-48.7
			C230.7,393,227.9,389.5,204.4,396.2z"/>
		<path class="st45" d="M211.6,389.9c0,0,15,7.9,8.3,19.3l7.1,3.9C227.1,413,234,393.2,211.6,389.9z"/>
		<path class="st7" d="M202,381.9c0,0,6.3,9.6,1.3,16.1c-2.8,3.6,3.8,12.2,15,11.5c0,0,5-1.2,4.5-3.1c-1.2-4.1,0.5-6.5,2.3-9.7
			C227,393.6,202,381.9,202,381.9z"/>
		<path class="st17" d="M203.3,398c-0.3,0.4-0.5,0.9-0.6,1.5c4.2-4.3,12.3-4.6,12.3-4.6L204.3,383c-0.4-0.2-0.8-0.4-1.1-0.5
			l-0.3,1.1C204.5,386.6,207,393.2,203.3,398z"/>
		<path class="st46" d="M222.9,406.5c-1.1-6.6,0.5-6.5,2.3-9.7c0.5-0.9-1-2.4-3.5-4.1c-0.6,0.5-1.2,1.1-1.8,2.1
			c-4.4,6.7-4.3,12-3.8,14.8c0.8,0,1.6,0.1,2.3,0C219.7,409.3,223.2,408.5,222.9,406.5z"/>
		<g>
			<path class="st7" d="M199.7,376.5c0,0,2.7,12.7,11.5,18.5c7.7,5.1,16.8,8.5,18.4-0.8c1.3-7.4,4.9-26.1-1.6-29.8
				c-8.4-4.8-11.4-10.8-21.1-7.2C206.9,357.1,195.8,362.2,199.7,376.5z"/>
			<path class="st8" d="M199.7,376.5c0,0,1,10.9,11.5,18.6c2.2,1.7,5.1,3,7.3,3.9c-4.1-3-4.5-3.9-7.6-7.6c-3.2-3.7,4.7-2.3-0.7-11.7
				c-1.8-3.2,7.1,0.9,9.1,0.9c11.9-0.3,11-7.1,11.3-10c-0.2-1.3-0.6-2.5-1-3.5l-1.1-2.2c-0.1-0.2-0.3-0.4-0.4-0.6
				c-1.3-1.6-2.6-3.1-3.9-4.3c-5.1,0.1-19.6,0.4-19.9,0.5c-0.2,0-2.7,3.4-5,6.7C198.7,369.8,198.7,372.9,199.7,376.5z"/>
			<path class="st19" d="M204.9,388.8c0,0-9.6-8.9-6.3-21.6c0,0,1.8-10.2,13.2-11.6c5.4-0.6,15.9-0.3,20,10.6
				c1.3,3.4,0.4,10.9-13,7.4c-1.9-0.5-7-1.2-8.8,0.5c-1.8,1.6-2,4.7-1.1,7.3c0.8,2.3-1.2,2.5-1.5,2c-0.3-0.5-2.9-7-5.3-4.4
				C199.8,381.4,204.7,388.4,204.9,388.8z"/>
			<path class="st18" d="M204.9,388.8c-0.2-0.4-5.1-7.5-2.9-9.8c2.4-2.5,5,4,5.3,4.4c0.3,0.5,2.3,0.2,1.5-2
				c-0.9-2.6-0.7-5.6,1.1-7.3c1.6-1.5,6.1-0.7,8.8-0.5c-2.2-1.4-6.7-1.9-8.2-5.6c-2.1-5-5.1-7.3-7.9-8.2c-3.3,3.3-4,7.3-4,7.3
				C195.2,380,204.9,388.8,204.9,388.8z"/>
		</g>
		<path class="st45" d="M204.9,394.9c0,0,2.3,11.4,15.1,14.3l-3.7,9C216.3,418.1,193.3,406.6,204.9,394.9z"/>
		<path class="st19" d="M231.8,366.3c0,0,2,12.2-13.6,7.8c0,0-7.8-2.1-10.9-9.3c-0.7-1.5-2.5-4.1-5.1-4.4c0,0,4.1-5.9,14.9-5.1
			c5.1,0.4,10.3,5.3,11.6,6.1C229.9,362.2,227.8,367.3,231.8,366.3z"/>
		<path class="st7" d="M283.2,456.9c0,0,11.2,2.1,18.9-1.1c7.7-3.2,5.8-3.4,5.2-4.6c-1.3-2.5-11.4-1.8-13.3-2.3
			c-1.9-0.5,1.6-2,2.3-3.3c0.8-1.3,2.5-2.8,1.9-3.2c-0.6-0.4-2.2-0.9-5,1.4c-2.9,2.3-10,5.4-10,5.4L283.2,456.9z"/>
		<path class="st9" d="M284.8,448.1c0,0-0.6,2.1-0.6,5c0,3.4,1.6,5.8,1.6,5.8s-36.6,7.4-45.9,2.6c0,0-9-13.9,4.8-17.6L284.8,448.1z"
			/>
		<g>
			<g>
				<g class="st25">
					<g>
						<polygon class="st47" points="214.9,494.9 214.7,496.8 242,516.1 242.1,514.3 						"/>
					</g>
					<g>
						<polygon class="st48" points="242.1,514.3 242,516.1 292.8,492.7 292.9,490.8 						"/>
					</g>
					<g>
						<polygon class="st49" points="214.9,494.9 242.1,514.3 292.9,490.8 265.7,471.4 						"/>
					</g>
				</g>
			</g>
			<g>
				<g class="st25">
					<g>
						<polygon class="st50" points="250.2,482 248.2,480.1 239.8,514.2 241.8,516 						"/>
					</g>
					<g>
						<polygon class="st51" points="303.3,457.5 301.3,455.6 248.2,480.1 250.2,482 						"/>
					</g>
					<g>
						<polygon class="st52" points="250.2,482 241.8,516 294.9,491.5 303.3,457.5 						"/>
					</g>
					<g>
						<polygon class="st53" points="250.2,482 250.2,482 294.9,491.5 303.3,457.5 						"/>
					</g>
				</g>
			</g>
		</g>
		<path class="st7" d="M230.4,489.6c0,0,12.4,10.2,24.5,7.8c0,0,0-3.2-5.4-4.3c-5.4-1.2-7.5-5.3-7.4-5.9c0-0.6,4.3-1,6.2-1.1
			c1.9-0.1,4.2-2.7-0.4-3c-4.6-0.3-12.5-2-17-1.1C230.8,482.1,226.4,486.9,230.4,489.6z"/>
		<path class="st9" d="M188.3,408.5c0,0-8.1-1.5-10.6,7.4c-2.5,8.9-6.3,49.7,0.7,60.2c7,10.5,52.7,16.1,52.7,16.1
			c-3.3-6.9,1.4-12.7,1.4-12.7l-39.4-16.5C193.1,463.1,202.7,410.9,188.3,408.5z"/>
		<path class="st54" d="M193.1,463.1l39.4,16.5c0,0-1.3,1.7-2.1,4.3c-9-2.9-42-7.8-41.3-14.9c4-36.7,4.3-55.9,4.3-55.9l1.5,4.4
			C198.7,432.9,193.1,463.1,193.1,463.1z"/>
	</g>
</g>
</svg>
