<?xml version="1.0" encoding="utf-8"?>
<!-- Generator: Adobe Illustrator 22.0.1, SVG Export Plug-In . SVG Version: 6.00 Build 0)  -->
<svg version="1.1" id="_x30_3030b4a-9996-4111-83fa-29dc66776d7b"
	 xmlns="http://www.w3.org/2000/svg" xmlns:xlink="http://www.w3.org/1999/xlink" x="0px" y="0px" viewBox="0 0 1000.8 738.8"
	 style="enable-background:new 0 0 1000.8 738.8;" xml:space="preserve">
<style type="text/css">
	.st0{display:none;opacity:0.5;fill:#FFC212;}
	.st1{fill:none;stroke:#FFFFFF;stroke-width:2;stroke-linecap:round;stroke-linejoin:round;}
	.st2{fill:none;stroke:#FFFFFF;stroke-width:2;stroke-linecap:round;stroke-linejoin:round;stroke-dasharray:12.4145,12.4145;}
	.st3{fill:none;stroke:#FFFFFF;stroke-width:2;stroke-linecap:round;stroke-linejoin:round;stroke-dasharray:12.4146,12.4146;}
	.st4{fill:none;stroke:#FFFFFF;stroke-width:2;stroke-linecap:round;stroke-linejoin:round;stroke-dasharray:11.9088,11.9088;}
	.st5{fill:none;stroke:#FFFFFF;stroke-width:2;stroke-linecap:round;stroke-linejoin:round;stroke-dasharray:13.0883,13.0883;}
	.st6{fill:#F7F7F7;}
	.st7{fill:#7551E9;}
	.st8{fill:#FF017E;}
	.st9{fill:#FFFFFF;}
	.st10{fill:#FFC212;}
	.st11{fill:#533ABA;}
	.st12{fill:#3E2AB5;}
	.st13{fill:#1D1D93;}
	.st14{fill:#D8126C;}
	.st15{fill:#FFC212;stroke:#F7F7F7;stroke-miterlimit:10;}
	.st16{display:none;}
	.st17{display:inline;fill:#F7F7F7;}
</style>
<rect x="-0.6" y="1.2" class="st0" width="1001.4" height="737.7"/>
<g>
	<g>
		<g>
			<g>
				<line class="st1" x1="759.8" y1="592.5" x2="765" y2="589.5"/>
				<line class="st2" x1="775.8" y1="583.3" x2="877.9" y2="524.4"/>
				<line class="st1" x1="883.3" y1="521.3" x2="888.5" y2="518.3"/>
			</g>
		</g>
		<g>
			<g>
				<line class="st1" x1="645.6" y1="237.6" x2="650.8" y2="234.6"/>
				<line class="st2" x1="661.5" y1="228.4" x2="763.7" y2="169.4"/>
				<line class="st1" x1="769.1" y1="166.3" x2="774.3" y2="163.3"/>
			</g>
		</g>
		<g>
			<g>
				<line class="st1" x1="13.2" y1="450.6" x2="18.4" y2="447.6"/>
				<line class="st3" x1="29.2" y1="441.4" x2="131.3" y2="382.4"/>
				<line class="st1" x1="136.7" y1="379.3" x2="141.9" y2="376.3"/>
			</g>
		</g>
		<g>
			<g>
				<line class="st1" x1="613.6" y1="385.7" x2="618.8" y2="382.7"/>
				<line class="st3" x1="629.6" y1="376.5" x2="731.7" y2="317.6"/>
				<line class="st1" x1="737.1" y1="314.5" x2="742.3" y2="311.5"/>
			</g>
		</g>
		<g>
			<g>
				<line class="st1" x1="357.9" y1="378.2" x2="352.7" y2="381.2"/>
				<path class="st4" d="M342.4,387.2l-71.1,41.4c-2.9,1.7-2.8,5.8,0,7.5l217.8,124.8c1.3,0.8,3,0.8,4.3,0L683,451.5"/>
				<polyline class="st1" points="688.2,448.5 693.4,445.5 698.6,448.6 				"/>
				<line class="st5" x1="709.8" y1="455.2" x2="794.3" y2="505.3"/>
				<line class="st1" x1="799.9" y1="508.6" x2="805.1" y2="511.7"/>
			</g>
		</g>
	</g>
	<g>
		<polygon class="st6" points="584.3,560.3 555.7,576.8 530.9,562.5 559.5,546 		"/>
		<polygon class="st6" points="924.7,567.2 881.5,592.1 844.1,570.5 887.3,545.6 		"/>
		<polygon class="st6" points="676.2,582.6 647.6,599.1 622.8,584.8 651.4,568.3 		"/>
		<polygon class="st6" points="421.5,328 392.9,344.6 368.1,330.3 396.7,313.7 		"/>
		<polygon class="st6" points="182.1,543.9 153.5,560.4 128.7,546.1 157.3,529.6 		"/>
		<polygon class="st6" points="104.2,447.6 75.6,464.1 50.9,449.8 79.5,433.3 		"/>
	</g>
	<path class="st6" d="M199.8,258.3c-1.5-0.9-3-1.6-4.4-2.1c-3-11.6-11.8-24.2-22.3-31.4c-5.6-16.4-18.6-33.3-33.7-42.4
		c-17.2-10.4-31.7-7.2-35.6,6.5c-12-6.6-21.6-2.5-21.6,9.7c0,12.6,10.2,28.9,22.8,36.4l94.9,57c9.3,5.6,16.9,2.6,16.9-6.7
		C216.7,276.1,209.1,264,199.8,258.3z"/>
	<g>
		<polygon class="st6" points="757.1,323.5 729.8,307.7 753.5,294 780.8,309.8 		"/>
		<polygon class="st6" points="757.1,261.8 729.8,246.1 753.5,232.4 780.8,248.2 		"/>
		<polygon class="st7" points="756.7,258.6 735.5,246.3 753.9,235.7 775.1,247.9 		"/>
		<polygon class="st7" points="757.1,261.8 757.1,323.5 780.8,309.8 780.8,248.2 		"/>
		<polygon class="st8" points="729.8,246.1 729.8,307.7 757.1,323.5 757.1,261.8 		"/>
		<g>
			<g>
				<polygon class="st9" points="737.2,259.2 732.9,256.7 732.9,252.4 737.2,254.9 				"/>
				<polygon class="st9" points="745,263.7 740.7,261.2 740.7,256.9 745,259.4 				"/>
				<polygon class="st9" points="752.9,268.2 748.6,265.8 748.6,261.5 752.9,263.9 				"/>
			</g>
			<g>
				<polygon class="st9" points="737.2,267.5 732.9,265 732.9,260.7 737.2,263.2 				"/>
				<polygon class="st9" points="745,272 740.7,269.5 740.7,265.2 745,267.7 				"/>
				<polygon class="st9" points="752.9,276.5 748.6,274 748.6,269.7 752.9,272.2 				"/>
			</g>
			<g>
				<polygon class="st8" points="737.2,275.7 732.9,273.2 732.9,268.9 737.2,271.4 				"/>
				<polygon class="st9" points="745,280.2 740.7,277.7 740.7,273.4 745,275.9 				"/>
				<polygon class="st9" points="752.9,284.8 748.6,282.3 748.6,278 752.9,280.4 				"/>
			</g>
			<g>
				<polygon class="st9" points="737.2,284 732.9,281.5 732.9,277.2 737.2,279.7 				"/>
				<polygon class="st9" points="745,288.5 740.7,286 740.7,281.7 745,284.2 				"/>
				<polygon class="st9" points="752.9,293 748.6,290.5 748.6,286.2 752.9,288.7 				"/>
			</g>
			<g>
				<polygon class="st9" points="737.2,292.2 732.9,289.7 732.9,285.4 737.2,287.9 				"/>
				<polygon class="st8" points="745,296.7 740.7,294.3 740.7,289.9 745,292.4 				"/>
				<polygon class="st9" points="752.9,301.3 748.6,298.8 748.6,294.5 752.9,297 				"/>
			</g>
		</g>
		<g>
			<g>
				<polygon class="st9" points="774.9,271.2 779.2,268.7 779.2,264.4 774.9,266.9 				"/>
				<polygon class="st7" points="767.1,275.7 771.4,273.2 771.4,268.9 767.1,271.4 				"/>
				<polygon class="st9" points="759.3,280.2 763.6,277.7 763.6,273.4 759.3,275.9 				"/>
			</g>
			<g>
				<polygon class="st9" points="774.9,279.4 779.2,276.9 779.2,272.6 774.9,275.1 				"/>
				<polygon class="st9" points="767.1,283.9 771.4,281.4 771.4,277.1 767.1,279.6 				"/>
				<polygon class="st9" points="759.3,288.5 763.6,286 763.6,281.7 759.3,284.1 				"/>
			</g>
			<g>
				<polygon class="st9" points="774.9,287.7 779.2,285.2 779.2,280.9 774.9,283.4 				"/>
				<polygon class="st7" points="767.1,292.2 771.4,289.7 771.4,285.4 767.1,287.9 				"/>
				<polygon class="st9" points="759.3,296.7 763.6,294.2 763.6,289.9 759.3,292.4 				"/>
			</g>
			<g>
				<polygon class="st9" points="774.9,295.9 779.2,293.4 779.2,289.1 774.9,291.6 				"/>
				<polygon class="st9" points="767.1,300.4 771.4,298 771.4,293.6 767.1,296.1 				"/>
				<polygon class="st9" points="759.3,305 763.6,302.5 763.6,298.2 759.3,300.7 				"/>
			</g>
			<g>
				<polygon class="st9" points="774.9,304.2 779.2,301.7 779.2,297.4 774.9,299.9 				"/>
				<polygon class="st9" points="767.1,308.7 771.4,306.2 771.4,301.9 767.1,304.4 				"/>
				<polygon class="st9" points="759.3,313.2 763.6,310.7 763.6,306.4 759.3,308.9 				"/>
			</g>
		</g>
	</g>
	<g>
		<polygon class="st6" points="276.5,403.6 303.8,387.8 280.2,374.2 252.9,389.9 		"/>
		<polygon class="st10" points="276.5,342 303.8,326.2 280.2,312.5 252.9,328.3 		"/>
		<polygon class="st7" points="276.9,338.7 298.2,326.4 279.8,315.8 258.5,328.1 		"/>
		<polygon class="st6" points="276.5,342 276.5,403.6 252.9,389.9 252.9,328.3 		"/>
		<polygon class="st8" points="303.8,326.2 303.8,387.8 276.5,403.6 276.5,342 		"/>
		<g>
			<g>
				<polygon class="st9" points="296.5,339.3 300.8,336.8 300.8,332.5 296.5,335 				"/>
				<polygon class="st9" points="288.6,343.8 292.9,341.4 292.9,337.1 288.6,339.5 				"/>
				<polygon class="st9" points="280.8,348.4 285.1,345.9 285.1,341.6 280.8,344.1 				"/>
			</g>
			<g>
				<polygon class="st9" points="296.5,347.6 300.8,345.1 300.8,340.8 296.5,343.3 				"/>
				<polygon class="st9" points="288.6,352.1 292.9,349.6 292.9,345.3 288.6,347.8 				"/>
				<polygon class="st9" points="280.8,356.6 285.1,354.1 285.1,349.8 280.8,352.3 				"/>
			</g>
			<g>
				<polygon class="st8" points="296.5,355.8 300.8,353.3 300.8,349 296.5,351.5 				"/>
				<polygon class="st9" points="288.6,360.4 292.9,357.9 292.9,353.6 288.6,356 				"/>
				<polygon class="st9" points="280.8,364.9 285.1,362.4 285.1,358.1 280.8,360.6 				"/>
			</g>
			<g>
				<polygon class="st9" points="296.5,364.1 300.8,361.6 300.8,357.3 296.5,359.8 				"/>
				<polygon class="st9" points="288.6,368.6 292.9,366.1 292.9,361.8 288.6,364.3 				"/>
				<polygon class="st9" points="280.8,373.1 285.1,370.6 285.1,366.3 280.8,368.8 				"/>
			</g>
			<g>
				<polygon class="st9" points="296.5,372.3 300.8,369.9 300.8,365.5 296.5,368 				"/>
				<polygon class="st8" points="288.6,376.9 292.9,374.4 292.9,370.1 288.6,372.6 				"/>
				<polygon class="st9" points="280.8,381.4 285.1,378.9 285.1,374.6 280.8,377.1 				"/>
			</g>
		</g>
		<g>
			<g>
				<polygon class="st8" points="258.7,351.3 254.4,348.8 254.4,344.5 258.7,347 				"/>
				<polygon class="st8" points="266.6,355.8 262.3,353.3 262.3,349 266.6,351.5 				"/>
				<polygon class="st8" points="274.4,360.3 270.1,357.8 270.1,353.5 274.4,356 				"/>
			</g>
			<g>
				<polygon class="st8" points="258.7,359.5 254.4,357 254.4,352.7 258.7,355.2 				"/>
				<polygon class="st8" points="266.6,364.1 262.3,361.6 262.3,357.3 266.6,359.7 				"/>
				<polygon class="st8" points="274.4,368.6 270.1,366.1 270.1,361.8 274.4,364.3 				"/>
			</g>
			<g>
				<polygon class="st8" points="258.7,367.8 254.4,365.3 254.4,361 258.7,363.5 				"/>
				<polygon class="st8" points="266.6,372.3 262.3,369.8 262.3,365.5 266.6,368 				"/>
				<polygon class="st8" points="274.4,376.8 270.1,374.3 270.1,370 274.4,372.5 				"/>
			</g>
			<g>
				<polygon class="st8" points="258.7,376 254.4,373.6 254.4,369.2 258.7,371.7 				"/>
				<polygon class="st8" points="266.6,380.6 262.3,378.1 262.3,373.8 266.6,376.3 				"/>
				<polygon class="st8" points="274.4,385.1 270.1,382.6 270.1,378.3 274.4,380.8 				"/>
			</g>
			<g>
				<polygon class="st8" points="258.7,384.3 254.4,381.8 254.4,377.5 258.7,380 				"/>
				<polygon class="st8" points="266.6,388.8 262.3,386.3 262.3,382 266.6,384.5 				"/>
				<polygon class="st8" points="274.4,393.3 270.1,390.8 270.1,386.5 274.4,389 				"/>
			</g>
		</g>
	</g>
	<g>
		<polygon class="st10" points="672.4,287.3 721.4,259 679,234.5 630,262.8 		"/>
		<polygon class="st8" points="672.8,192 715.6,167.3 678.5,145.9 635.7,170.6 		"/>
		<polygon class="st6" points="690.1,177.7 708.2,167.3 692.6,158.2 674.5,168.7 		"/>
		<polygon class="st6" points="690.1,161.8 708.2,151.4 692.6,142.4 674.5,152.8 		"/>
		<polygon class="st6" points="635.7,170.6 635.7,262.5 672.8,283.9 672.8,192 		"/>
		<polygon class="st7" points="715.6,167.3 715.6,259.2 672.8,283.9 672.8,192 		"/>
		<polygon class="st6" points="630,262.8 630,301.4 672.4,325.9 672.4,287.3 		"/>
		<polygon class="st7" points="721.4,259 721.4,297.6 672.4,325.9 672.4,287.3 		"/>
		<g>
			<polygon class="st8" points="662.5,197.9 669.6,202 669.6,194.9 662.5,190.8 			"/>
			<polygon class="st8" points="650.3,190.8 657.4,194.9 657.4,187.8 650.3,183.7 			"/>
			<polygon class="st8" points="638.1,183.7 645.2,187.8 645.2,180.7 638.1,176.6 			"/>
			<polygon class="st8" points="662.5,210.6 669.6,214.7 669.6,207.6 662.5,203.5 			"/>
			<polygon class="st8" points="650.3,203.5 657.4,207.6 657.4,200.5 650.3,196.4 			"/>
			<polygon class="st8" points="638.1,196.4 645.2,200.4 645.2,193.4 638.1,189.3 			"/>
			<polygon class="st6" points="662.5,223.3 669.6,227.3 669.6,220.3 662.5,216.2 			"/>
			<polygon class="st8" points="650.3,216.2 657.4,220.2 657.4,213.2 650.3,209.1 			"/>
			<polygon class="st8" points="638.1,209 645.2,213.1 645.2,206.1 638.1,202 			"/>
			<polygon class="st8" points="662.5,235.9 669.6,240 669.6,233 662.5,228.9 			"/>
			<polygon class="st8" points="650.3,228.8 657.4,232.9 657.4,225.8 650.3,221.8 			"/>
			<polygon class="st8" points="638.1,221.7 645.2,225.8 645.2,218.7 638.1,214.7 			"/>
			<polygon class="st8" points="662.5,248.6 669.6,252.7 669.6,245.6 662.5,241.6 			"/>
			<polygon class="st8" points="650.3,241.5 657.4,245.6 657.4,238.5 650.3,234.4 			"/>
			<polygon class="st6" points="638.1,234.4 645.2,238.5 645.2,231.4 638.1,227.3 			"/>
			<polygon class="st8" points="662.5,261.3 669.6,265.4 669.6,258.3 662.5,254.2 			"/>
			<polygon class="st6" points="650.3,254.2 657.4,258.3 657.4,251.2 650.3,247.1 			"/>
			<polygon class="st8" points="638.1,247.1 645.2,251.2 645.2,244.1 638.1,240 			"/>
			<polygon class="st8" points="662.5,274 669.6,278.1 669.6,271 662.5,266.9 			"/>
			<polygon class="st8" points="650.3,266.9 657.4,271 657.4,263.9 650.3,259.8 			"/>
			<path class="st8" d="M641.7,308.1l15.7,9.1v-14.9c0-5.7-3.1-11-8-13.9l0,0c-3.4-2-7.7,0.5-7.7,4.4V308.1z"/>
			<polygon class="st8" points="638.1,259.8 645.2,263.8 645.2,256.8 638.1,252.7 			"/>
		</g>
		<g>
			<polygon class="st6" points="685.6,197.9 678.5,202 678.5,194.9 685.6,190.8 			"/>
			<polygon class="st6" points="697.7,190.8 690.7,194.9 690.7,187.8 697.7,183.7 			"/>
			<polygon class="st6" points="709.9,183.7 702.9,187.8 702.9,180.7 709.9,176.6 			"/>
			<polygon class="st6" points="685.6,210.6 678.5,214.7 678.5,207.6 685.6,203.5 			"/>
			<polygon class="st6" points="697.7,203.5 690.7,207.6 690.7,200.5 697.7,196.4 			"/>
			<polygon class="st6" points="709.9,196.4 702.9,200.4 702.9,193.4 709.9,189.3 			"/>
			<polygon class="st6" points="685.6,223.3 678.5,227.3 678.5,220.3 685.6,216.2 			"/>
			<polygon class="st7" points="697.7,216.2 690.7,220.2 690.7,213.2 697.7,209.1 			"/>
			<polygon class="st6" points="709.9,209 702.9,213.1 702.9,206.1 709.9,202 			"/>
			<polygon class="st6" points="685.6,235.9 678.5,240 678.5,233 685.6,228.9 			"/>
			<polygon class="st7" points="697.7,228.8 690.7,232.9 690.7,225.8 697.7,221.8 			"/>
			<polygon class="st6" points="709.9,221.7 702.9,225.8 702.9,218.7 709.9,214.7 			"/>
			<polygon class="st6" points="685.6,248.6 678.5,252.7 678.5,245.6 685.6,241.6 			"/>
			<polygon class="st6" points="697.7,241.5 690.7,245.6 690.7,238.5 697.7,234.4 			"/>
			<polygon class="st6" points="709.9,234.4 702.9,238.5 702.9,231.4 709.9,227.3 			"/>
			<polygon class="st6" points="685.6,261.3 678.5,265.4 678.5,258.3 685.6,254.2 			"/>
			<polygon class="st6" points="697.7,254.2 690.7,258.3 690.7,251.2 697.7,247.1 			"/>
			<polygon class="st6" points="709.9,247.1 702.9,251.2 702.9,244.1 709.9,240 			"/>
			<polygon class="st6" points="685.6,274 678.5,278.1 678.5,271 685.6,266.9 			"/>
			<polygon class="st7" points="697.7,266.9 690.7,271 690.7,263.9 697.7,259.8 			"/>
			<polygon class="st7" points="709.9,259.8 702.9,263.8 702.9,256.8 709.9,252.7 			"/>
		</g>
		<polygon class="st6" points="690.1,161.8 690.1,177.7 674.5,168.7 674.5,152.8 		"/>
		<polygon class="st8" points="684.9,164.1 684.9,174.8 679.8,171.9 679.8,161.2 		"/>
		<polygon class="st8" points="708.2,151.4 708.2,167.3 690.1,177.7 690.1,161.8 		"/>
		<polygon class="st6" points="704.3,157.1 704.3,166.1 694.1,172 694.1,163 		"/>
	</g>
	<g>
		<path class="st11" d="M939.9,502.4l-7.6-4.5l4.7-1.2c0,0,3.1,0.3,3.2,0.4c0.2,0.1,1.2,0.7,1.2,0.9
			C941.4,498.3,939.9,502.4,939.9,502.4z"/>
		<path class="st11" d="M975.1,482.1l-7.6-4.5l4.7-1.2c0,0,3.1,0.3,3.2,0.4c0.2,0.1,1.2,0.7,1.2,0.9
			C976.7,478,975.1,482.1,975.1,482.1z"/>
		<path class="st8" d="M955.2,486.3c0,3.3,2.7,4.5,6,2.5c3.3-1.9,6-6.2,6-9.5c0-3.3-2.7-4.5-6-2.5
			C957.9,478.7,955.2,482.9,955.2,486.3z"/>
		<path class="st8" d="M919.9,506.6c0,3.3,2.7,4.5,6,2.5c3.3-1.9,6-6.2,6-9.5c0-3.3-2.7-4.5-6-2.5
			C922.6,499.1,919.9,503.3,919.9,506.6z"/>
		<path class="st7" d="M888.5,505.1c0,2,1.1,2.5,1.1,2.5l15.1,8.8c0.1,0.1,0.3,0.1,0.4,0.2l1,0.6c1.1,0.6,2.2,0.8,3.2,0.9
			c0.5,0.1,0.9,0.1,1.3,0c0,0,0,0,0,0l0.6-2.4l11.9-15.7l4.5-2.7c0,0,15.6-5.9,16.2-6.2c0.6-0.3,22.5-13.4,22.5-13.4l10.6-7l7.2-8
			l-0.1,0l-20.3-11.7h0c-0.5-0.5-1-0.4-1-0.4s-1.9,0.3-4.8,1.4c-3,1.1-6,1-6,1c-5.7-2.1-15.3,0.9-27.2,9.9c-11.9,9-18,19.1-19,20
			c-0.9,0.9-5,3-10.4,7.8c-5.4,4.8-6.1,7-6.3,8.6C889.1,500.5,888.5,503.1,888.5,505.1z"/>
		<path class="st6" d="M974.6,468.5l-5.7,4.8l-38.8,21.5l-0.5-1.4c0,0,2.8-5.4,8.7-11c5.9-5.6,9.2-9,17.4-13.1c0,0,3.9-2.1,9.1-3.2
			C970.1,465.1,974.6,468.5,974.6,468.5z"/>
		<path class="st6" d="M910.3,481.6l14.7,8.5c1,0.6,2.3,0.3,3-0.7c2.2-3.2,5.2-6.4,7.7-9c2-2,1.5-5.2-0.9-6.6l-10.1-5.8
			c-1.5-0.9-3.4-0.7-4.7,0.5c-4.6,4.1-8.2,8.5-10.2,11.1C909.4,480.3,909.6,481.2,910.3,481.6z"/>
		<polygon class="st8" points="921.4,509.7 927.9,513.5 934.3,505.7 936.4,500.1 930.5,496.6 925.5,503 		"/>
		<polygon class="st8" points="962.8,492.9 956.6,489.3 966,476.4 972.4,480.1 		"/>
		<path class="st7" d="M961.5,489.9c0,3.3,2.7,4.5,6,2.5c3.3-1.9,6-6.2,6-9.5c0-3.3-2.7-4.5-6-2.5
			C964.2,482.4,961.5,486.6,961.5,489.9z"/>
		<path class="st7" d="M926.2,510.3c0,3.3,2.7,4.5,6,2.5c3.3-1.9,6-6.2,6-9.5c0-3.3-2.7-4.5-6-2.5
			C928.9,502.7,926.2,507,926.2,510.3z"/>
		<path class="st7" d="M909.2,517c0,0.4,0,0.7,0.1,1c0.5,0.1,0.9,0.1,1.3,0c0,0,0,0,0,0c2.1-0.1,3.8-0.9,4.1-1.1l0.1,0c0,0,0,0,0,0
			l6.7-3.8c0,0,0,0,0,0c2.2-1.3,3.1-2.9,3.3-3.6c0-0.2,0.1-0.4,0.1-0.6c1-3.7,3.8-7.6,7.3-9.6c4.2-2.4,7.6-1,7.6,3.2v0l17.7-10.2
			c0,0,0,0,0,0c1.7-1,2.3-2.5,2.4-2.8c0,0,0-0.1,0-0.1c0.7-3.9,3.8-8.3,7.5-10.4c4.2-2.4,7.6-1,7.6,3.2v0l5.4-3.1c0,0,5-2.7,5.3-3.8
			c0.4-1-0.3-9.3-0.7-11.2c-0.2-0.9-0.6-1.3-1-1.5l-0.1,0c-0.3-0.1-0.6-0.1-0.6-0.1s-1.9,0.3-4.8,1.4c-3,1.1-6,1-6,1
			c-5.7-2.1-15.3,0.9-27.2,9.9c-11.9,9-18,19.1-19,20c-0.9,0.9-5,3-10.4,7.8c-5.4,4.8-6.1,7.1-6.3,8.6
			C909.8,512.5,909.2,515.1,909.2,517z M952.9,478.7l0.8-5.6c0.1-1,0.7-1.8,1.6-2.3c9.8-5.2,14.9-3.6,16.4-2.8
			c0.2,0.1,0.1,0.6-0.3,0.8l-17.5,10.6C953.4,479.7,952.8,479.2,952.9,478.7z M930.3,493c7.7-9.9,14.8-15.6,18.3-18.1
			c0.5-0.4,1.3-0.8,1.7-0.7c0.3,0.1,0.4,0.7,0.4,1.1c0,0.4,0,0.7,0,0.7l-0.6,4.4c-0.1,0.9-0.6,1.6-1.3,2l-18.2,11
			C930.1,493.8,930,493.4,930.3,493z"/>
		<path class="st6" d="M907.2,514.4c0,0.8-0.7,1.1-1.5,0.6c-0.8-0.5-1.5-1.6-1.5-2.4c0-0.8,0.7-1.1,1.5-0.6
			C906.5,512.5,907.2,513.6,907.2,514.4z"/>
		<path class="st6" d="M893.1,506.2c0,0.8-0.7,1.1-1.5,0.6c-0.8-0.5-1.5-1.6-1.5-2.4c0-0.8,0.7-1.1,1.5-0.6
			C892.4,504.3,893.1,505.4,893.1,506.2z"/>
	</g>
	<g>
		<g>
			<path class="st7" d="M108,441.8L108,441.8c-1.6,0-3-1.3-3-3v-48.7h5.9v48.7C111,440.5,109.6,441.8,108,441.8z"/>
			<circle class="st9" cx="108" cy="384.4" r="27.5"/>
			<path class="st7" d="M134.3,392.4c-3.4,11.3-13.9,19.5-26.3,19.5c-15.2,0-27.5-12.3-27.5-27.5c0-13.5,9.7-24.7,22.6-27
				c-6.3,4.3-10.5,11.5-10.5,19.7c0,13.1,10.6,23.7,23.7,23.7C123.5,400.7,129.9,397.5,134.3,392.4z"/>
		</g>
		<g>
			<path class="st7" d="M540.9,325L540.9,325c-1.9,0-3.4-1.5-3.4-3.4v-55.6h6.8v55.6C544.3,323.5,542.8,325,540.9,325z"/>
			
				<ellipse transform="matrix(0.9342 -0.3568 0.3568 0.9342 -57.0019 210.0449)" class="st9" cx="540.9" cy="259.5" rx="31.3" ry="31.3"/>
			<path class="st7" d="M570.9,268.7c-3.9,12.8-15.9,22.2-30,22.2c-17.3,0-31.3-14-31.3-31.3c0-15.4,11.1-28.2,25.7-30.8
				c-7.2,4.8-12,13.1-12,22.4c0,14.9,12.1,27,27,27C558.5,278.2,565.9,274.5,570.9,268.7z"/>
		</g>
		<g>
			<path class="st7" d="M931.9,403.7L931.9,403.7c-1.1,0-2.1-0.9-2.1-2.1v-34.1h4.1v34.1C934,402.7,933,403.7,931.9,403.7z"/>
			
				<ellipse transform="matrix(0.2577 -0.9662 0.9662 0.2577 340.4588 1170.2382)" class="st9" cx="931.9" cy="363.5" rx="19.2" ry="19.2"/>
			<path class="st7" d="M950.3,369.1c-2.4,7.9-9.7,13.6-18.4,13.6c-10.6,0-19.2-8.6-19.2-19.2c0-9.4,6.8-17.3,15.8-18.9
				c-4.4,3-7.3,8-7.3,13.7c0,9.2,7.4,16.5,16.5,16.5C942.7,374.9,947.2,372.7,950.3,369.1z"/>
		</g>
	</g>
	<g>
		<path class="st6" d="M904.4,399.9l-5.9-3.4l-80.2-46.3c-25.6-14.8-55.7-14.7-84.4,0.7c-1,0.5-1.9,1-2.8,1.6
			c-14.2,8.2-21.8,16.7-22.9,24.9c-0.2,1.4-0.2,2.7,0,4.1c1,7.4,7.3,14.7,18.9,21.4l86.1,49.7c26.5,15.3,57.7,14.7,87.2-2.3
			c14.9-8.6,22.5-17.5,23-26.1v-1.6C923,414.6,916.7,407,904.4,399.9z M876.8,436.6c-9.6,5.5-20.1,6.4-31.9-0.4l-89.4-51.6
			c-11.8-6.8-10.3-12.9-0.7-18.4c1-0.6,2-1.1,3-1.5c8.7-4.1,18.3-4.1,28.9,2l78.8,45.5l10.6,6.1C887.9,425,886.3,431.1,876.8,436.6z
			"/>
		<path class="st12" d="M923.4,386.3v37.8c-0.5,8.6-8.1,17.5-23,26.1c-18.6,10.8-37.9,14.9-56.3,12.7c-10.7-1.3-21.1-4.8-30.9-10.4
			l-86.1-49.7c-11.6-6.7-17.9-13.9-18.9-21.4v-38.8l25.7,8.2l4.6,1.5l19.2,12.2l28.2,18c0,0,25,13.3,29.9,15.8
			c4.8,2.5,27.2,10.6,28.3,10.7c1.1,0,13.4,3.8,14.5,3.8c0.3,0,3-0.3,6.7-0.7c9.3-1.1,25-3,25-3l6-10.7l2.2-1.9l13.5-11.7
			L923.4,386.3z"/>
		<path class="st13" d="M923.4,386.3v37.8c-0.5,8.6-8.1,17.5-23,26.1c-18.6,10.8-37.9,14.9-56.3,12.7V409c1.1,0,13.4,3.8,14.5,3.8
			c0.3,0,3-0.3,6.7-0.7c9.3-1.1,25-3,25-3l6-10.7l2.2-1.9l13.5-11.7L923.4,386.3z"/>
		<path class="st8" d="M769.3,314.3l-30.8,15.9v18.4c0,0,60.7,44.4,63.7,46.1c3,1.7,38.6,19.6,38.6,19.6l34-2l22.9-7.4
			c0,0,5-16,3-18.9c-2-3-20.9-24.2-20.9-24.2L769.3,314.3z"/>
		<polygon class="st14" points="781.2,317.2 781.2,388.9 747.1,350.6 735.5,329.1 750.7,319.8 		"/>
		<path class="st15" d="M727.1,365.5c-26.5-15.3-25.5-33.3,4-50.4c29.5-17,60.7-17.6,87.2-2.3l86.1,49.7c26.5,15.3,25.5,33.3-4,50.4
			c-29.5,17-60.7,17.6-87.2,2.3L727.1,365.5z M844.9,398.8c11.8,6.8,22.3,6,31.9,0.4c9.6-5.5,11.1-11.6-0.8-18.4l-89.4-51.6
			c-11.8-6.8-22.3-6-31.9-0.4c-9.6,5.5-11.1,11.6,0.8,18.4L844.9,398.8z"/>
	</g>
	<g>
		<path class="st8" d="M369.9,384.9c-5.5,3.2-15.2,2.8-21.6-0.9c-6.4-3.7-7.1-9.3-1.5-12.4c5.5-3.2,15.2-2.8,21.6,0.9
			C374.7,376.1,375.4,381.7,369.9,384.9z"/>
		<g>
			<path class="st6" d="M323.6,348L323.6,348l0.1,0.1c0.4,0.4,0.8,0.7,1.3,1l15.9,12.5c0.1,0.1,0.2,0.1,0.3,0.2v0l10.8,5.6l1.6-4.8
				l-2.4-3.2l-2.6-3.9l-0.8,0.1l8.5-17c1.2,0.6,2.8,1.3,3.1,0.8c0.4-0.7,5-4.7,5-6.1c0-1.4,5.6-16.4,5.6-16.4v-0.4l-4.7,3.6
				c1.5-4,2.3-7.9,2.3-11.6c0-0.1,0-0.2,0-0.3l2.8,1.2l3.9-4.6l-2.2-3.2l-10.6-5.5l0,0c-4.4-2.2-10.7-1.5-17.8,2.8
				c-13.2,8-23.9,25.1-23.9,38.3C319.9,342.2,321.3,345.7,323.6,348z M335.1,333c0.9-0.7,4-4.5,4-4.8c0.1-0.3,10.4-12.8,10.4-12.8
				l-1.7-3.8c3.5-0.6,5.9,1.4,5.9,5.5c0,5.5-4.4,12.6-9.9,15.9C340,335.3,336.8,335.1,335.1,333z"/>
			<path class="st8" d="M334.5,353.7L334.5,353.7l0.1,0.1c0.4,0.4,0.8,0.7,1.3,1l15.9,12.5c1.4,1.1,4.3-0.6,5.7-3.4l16-31.8
				c0.4-0.8,0.8-1.6,1.2-2.4l0.2-0.3l0,0c2.4-5.1,3.8-10.4,3.8-15.1c0-13.2-10.7-17.5-23.9-9.6c-13.2,8-23.9,25.1-23.9,38.3
				C330.8,347.8,332.1,351.4,334.5,353.7z M344.8,334.7c0-5.5,4.4-12.6,9.9-15.9c5.5-3.3,9.9-1.5,9.9,4c0,5.5-4.4,12.6-9.9,15.9
				C349.2,341.9,344.8,340.2,344.8,334.7z"/>
		</g>
	</g>
	<g>
		<g>
			<path class="st6" d="M424.2,464.9l41.2-23.8l23.6,13.7l-41.2,23.8l48.5,28l51.9-30l23.6,13.7l-81.9,47.3L324.4,442l81.9-47.3
				l23.6,13.7l-51.9,30L424.2,464.9z"/>
		</g>
		<polygon class="st13" points="489.9,500.4 489.9,537.6 571.8,490.3 571.8,453.2 		"/>
		<polygon class="st12" points="489.1,417.7 489.1,454.8 447.8,478.6 447.8,441.5 		"/>
		<polygon class="st12" points="430,371.2 430,408.4 378.1,438.3 378.1,401.2 		"/>
		<g>
			<path class="st15" d="M424.2,427.8l41.2-23.8l23.6,13.7l-41.2,23.8l48.5,28l51.9-30l23.6,13.7l-81.9,47.3l-165.5-95.6l81.9-47.3
				l23.6,13.7l-51.9,30L424.2,427.8z"/>
		</g>
		<polygon class="st8" points="324.4,404.9 324.4,442 489.9,537.6 489.9,500.4 		"/>
	</g>
	<g>
		<g>
			<path class="st15" d="M473.1,197.8l30-17.3v163.8l49.4-28.5V343l-79.5,45.9V197.8z"/>
		</g>
		<g class="st16">
			<path class="st17" d="M443,180.4l30-17.3v163.8l49.4-28.5v27.3L443,371.5V180.4z"/>
		</g>
		<polygon class="st8" points="443,180.4 473.1,197.8 473.1,388.9 443,371.5 		"/>
		<polygon class="st6" points="503.1,180.4 473,163 443,180.4 473.1,197.8 		"/>
		<polygon class="st13" points="552.6,315.7 522.4,298.3 503.1,309.5 503.1,344.3 		"/>
	</g>
	<g>
		<g>
			<path class="st6" d="M613.5,236.9l30,17.3v163.8l49.4,28.5v27.3l-79.5-45.9V236.9z"/>
		</g>
		<g>
			<path class="st15" d="M583.5,254.1l30,17.3v163.8l49.4,28.5v27.3l-79.5-45.9V254.1z"/>
		</g>
		<polygon class="st8" points="583.5,254.1 613.5,236.9 643.5,254.3 613.5,271.5 		"/>
		<polygon class="st13" points="663,463.8 692.9,446.6 692.9,473.9 663,491.1 		"/>
		<polygon class="st14" points="643.5,418.1 613.5,435.3 663,463.8 692.9,446.6 		"/>
		<polygon class="st12" points="613.5,271.5 613.5,435.3 643.5,418.1 643.5,254.3 		"/>
	</g>
	<g>
		<g>
			<path class="st6" d="M191.9,461.3l-30-17.3V252.8l30,17.3v81.9l34.1,19.7v-81.9l30.6,17.7v191.1L226,481v-81.9l-34.1-19.7V461.3z
				"/>
		</g>
		<polygon class="st8" points="155.4,291.3 191.9,270.2 161.8,252.8 125.4,274 		"/>
		<polygon class="st12" points="155.4,291.3 155.4,373.3 191.9,352.1 191.9,270.2 		"/>
		<polygon class="st12" points="155.4,482.5 191.9,461.3 191.9,379.4 155.4,400.6 		"/>
		<polygon class="st14" points="189.6,393 155.4,373.3 191.9,352.1 226,371.8 		"/>
		<g>
			<g>
				<path class="st15" d="M155.4,482.5l-30-17.3V274l30,17.3v81.9l34.1,19.7V311l30.6,17.7v191.1l-30.6-17.7v-81.9l-34.1-19.7V482.5
					z"/>
			</g>
		</g>
		<polygon class="st13" points="220.1,519.8 256.6,498.7 256.6,307.5 220.1,328.7 		"/>
		<polygon class="st8" points="226,289.9 189.6,311 220.1,328.7 256.6,307.5 		"/>
	</g>
	<g>
		<g>
			<path class="st7" d="M817.4,518.5c-5.5,3.2-15.2,2.8-21.6-0.9s-7.1-9.3-1.5-12.4c5.5-3.2,15.2-2.8,21.6,0.9
				C822.3,509.8,823,515.3,817.4,518.5z"/>
			<g>
				<path class="st7" d="M827.2,482.4c0-8.4-6.8-19.3-15.2-24.3c-4.5-2.7-8.5-3.2-11.3-1.8l0,0l-6.7,3.5l-1.4,2l2.5,2.9l1.8-0.8
					c0,0.1,0,0.1,0,0.2c0,2.3,0.5,4.8,1.5,7.4l-3-2.3v0.3c0,0,3.5,9.5,3.5,10.4s2.9,3.4,3.2,3.9c0.2,0.3,1.2-0.2,2-0.5l5.4,10.8
					l-0.5,0l-1.6,2.5l-1.5,2.1l1,3.1l6.9-3.6v0c0.1,0,0.1-0.1,0.2-0.1l10.1-8c0.3-0.2,0.6-0.4,0.8-0.6l0.1-0.1l0,0
					C826.3,487.7,827.2,485.4,827.2,482.4z M812,479.6c-3.5-2.1-6.3-6.6-6.3-10.1c0-2.6,1.6-3.9,3.8-3.5l-1.1,2.4c0,0,6.5,8,6.6,8.1
					c0,0.1,2,2.6,2.6,3C816.5,481,814.4,481.1,812,479.6z"/>
				<path class="st6" d="M820.3,486c0-8.4-6.8-19.3-15.2-24.3c-8.4-5-15.2-2.3-15.2,6.1c0,3,0.9,6.3,2.4,9.6l0,0l0.1,0.2
					c0.2,0.5,0.5,1,0.8,1.5l10.2,20.2c0.9,1.8,2.7,2.9,3.6,2.2l10.1-8c0.3-0.2,0.6-0.4,0.8-0.6l0.1-0.1l0,0
					C819.4,491.3,820.3,489,820.3,486z M805.1,483.2c-3.5-2.1-6.3-6.6-6.3-10.1s2.8-4.6,6.3-2.5c3.5,2.1,6.3,6.6,6.3,10.1
					S808.6,485.3,805.1,483.2z"/>
			</g>
		</g>
		<g>
			<path class="st7" d="M643,557.8c-5.5,3.2-15.2,2.8-21.6-0.9c-6.4-3.7-7.1-9.3-1.5-12.4c5.5-3.2,15.2-2.8,21.6,0.9
				C647.8,549,648.5,554.6,643,557.8z"/>
			<g>
				<path class="st7" d="M652.7,521.7c0-8.4-6.8-19.3-15.2-24.3c-4.5-2.7-8.5-3.2-11.3-1.8l0,0l-6.7,3.5l-1.4,2l2.5,2.9l1.8-0.8
					c0,0.1,0,0.1,0,0.2c0,2.3,0.5,4.8,1.5,7.4l-3-2.3v0.3c0,0,3.5,9.5,3.5,10.4c0,0.9,2.9,3.4,3.2,3.9c0.2,0.3,1.2-0.2,2-0.5
					l5.4,10.8l-0.5,0l-1.6,2.5l-1.5,2.1l1,3.1l6.9-3.6v0c0.1,0,0.1-0.1,0.2-0.1l10.1-8c0.3-0.2,0.6-0.4,0.8-0.6l0.1-0.1l0,0
					C651.9,527,652.7,524.7,652.7,521.7z M637.5,518.9c-3.5-2.1-6.3-6.6-6.3-10.1c0-2.6,1.6-3.9,3.8-3.5l-1.1,2.4c0,0,6.5,8,6.6,8.1
					c0,0.1,2,2.6,2.6,3C642,520.3,639.9,520.3,637.5,518.9z"/>
				<path class="st6" d="M645.8,525.3c0-8.4-6.8-19.3-15.2-24.3c-8.4-5-15.2-2.3-15.2,6.1c0,3,0.9,6.3,2.4,9.6l0,0l0.1,0.2
					c0.2,0.5,0.5,1,0.8,1.5l10.2,20.2c0.9,1.8,2.7,2.9,3.6,2.2l10.1-8c0.3-0.2,0.6-0.4,0.8-0.6l0.1-0.1l0,0
					C645,530.6,645.8,528.3,645.8,525.3z M630.6,522.5c-3.5-2.1-6.3-6.6-6.3-10.1s2.8-4.6,6.3-2.5c3.5,2.1,6.3,6.6,6.3,10.1
					C636.9,523.4,634.1,524.6,630.6,522.5z"/>
			</g>
		</g>
		<g>
			<path class="st7" d="M107,546.4c-5.5,3.2-15.2,2.8-21.6-0.9c-6.4-3.7-7.1-9.3-1.5-12.4c5.5-3.2,15.2-2.8,21.6,0.9
				C111.9,537.7,112.6,543.3,107,546.4z"/>
			<g>
				<path class="st7" d="M116.8,510.4c0-8.4-6.8-19.3-15.2-24.3c-4.5-2.7-8.5-3.2-11.3-1.8l0,0l-6.7,3.5l-1.4,2l2.5,2.9l1.8-0.8
					c0,0.1,0,0.1,0,0.2c0,2.3,0.5,4.8,1.5,7.4l-3-2.3v0.3c0,0,3.5,9.5,3.5,10.4c0,0.9,2.9,3.4,3.2,3.9c0.2,0.3,1.2-0.2,2-0.5
					l5.4,10.8l-0.5,0l-1.6,2.5l-1.5,2.1l1,3.1l6.9-3.6v0c0.1,0,0.1-0.1,0.2-0.1l10.1-8c0.3-0.2,0.6-0.4,0.8-0.6l0.1-0.1l0,0
					C115.9,515.6,116.8,513.4,116.8,510.4z M101.6,507.5c-3.5-2.1-6.3-6.6-6.3-10.1c0-2.6,1.6-3.9,3.8-3.5l-1.1,2.4
					c0,0,6.5,8,6.6,8.1c0,0.1,2,2.6,2.6,3C106.1,508.9,104,509,101.6,507.5z"/>
				<path class="st6" d="M109.9,513.9c0-8.4-6.8-19.3-15.2-24.3c-8.4-5-15.2-2.3-15.2,6.1c0,3,0.9,6.3,2.4,9.6l0,0l0.1,0.2
					c0.2,0.5,0.5,1,0.8,1.5l10.2,20.2c0.9,1.8,2.7,2.9,3.6,2.2l10.1-8c0.3-0.2,0.6-0.4,0.8-0.6l0.1-0.1l0,0
					C109,519.2,109.9,517,109.9,513.9z M94.7,511.1c-3.5-2.1-6.3-6.6-6.3-10.1c0-3.5,2.8-4.6,6.3-2.5c3.5,2.1,6.3,6.6,6.3,10.1
					C101,512.1,98.2,513.2,94.7,511.1z"/>
			</g>
		</g>
	</g>
	<g>
		<g>
			<path class="st6" d="M578.5,415.7c0-0.2,0-0.3,0-0.5v-25.3l-34.2-3.3V412l0,0c-0.3,2.9,1.7,6,5.9,8.4c7.1,4.1,18,4.6,24.1,1
				C577,419.9,578.3,417.9,578.5,415.7L578.5,415.7L578.5,415.7z"/>
			
				<ellipse transform="matrix(0.121 -0.9927 0.9927 0.121 107.5499 899.0082)" class="st7" cx="561.4" cy="388.8" rx="9.7" ry="17.2"/>
		</g>
		<g>
			<path class="st6" d="M276.8,508.2c0-0.2,0-0.3,0-0.5v-22.6l-30.6-2.9v22.6l0,0c-0.3,2.6,1.5,5.4,5.2,7.5c6.4,3.7,16,4.1,21.6,0.9
				C275.4,511.9,276.6,510.1,276.8,508.2L276.8,508.2L276.8,508.2z"/>
			<path class="st8" d="M273,490.8c-5.5,3.2-15.2,2.8-21.6-0.9c-6.4-3.7-7.1-9.3-1.5-12.4c5.5-3.2,15.2-2.8,21.6,0.9
				C277.9,482,278.6,487.6,273,490.8z"/>
		</g>
		<g>
			<path class="st6" d="M736.4,541.9c0-0.1,0-0.3,0-0.4v-22.2l-30-2.9v22.2l0,0c-0.2,2.5,1.5,5.3,5.1,7.4c6.3,3.6,15.7,4,21.2,0.9
				C735,545.5,736.2,543.8,736.4,541.9L736.4,541.9L736.4,541.9z"/>
			<path class="st8" d="M732.7,524.8c-5.4,3.1-14.9,2.7-21.2-0.9c-6.3-3.6-6.9-9.1-1.5-12.2c5.4-3.1,14.9-2.7,21.2,0.9
				C737.5,516.2,738.2,521.7,732.7,524.8z"/>
		</g>
	</g>
	<g>
		<path class="st7" d="M341.8,551.1L341.8,551.1c-1.6,0-3-1.3-3-3v-48.7h5.9v48.7C344.8,549.8,343.5,551.1,341.8,551.1z"/>
		<circle class="st9" cx="341.8" cy="493.6" r="27.5"/>
		<path class="st7" d="M368.1,501.6c-3.4,11.3-13.9,19.5-26.3,19.5c-15.2,0-27.5-12.3-27.5-27.5c0-13.5,9.7-24.7,22.6-27
			c-6.3,4.3-10.5,11.5-10.5,19.7c0,13.1,10.6,23.7,23.7,23.7C357.3,510,363.8,506.7,368.1,501.6z"/>
	</g>
	<g>
		<path class="st11" d="M453.3,576.1l7.6-4.5l-4.7-1.2c0,0-3.1,0.3-3.2,0.4c-0.2,0.1-1.2,0.7-1.2,0.9
			C451.8,572,453.3,576.1,453.3,576.1z"/>
		<path class="st11" d="M418,555.7l7.6-4.5l-4.7-1.2c0,0-3.1,0.3-3.2,0.4c-0.2,0.1-1.2,0.7-1.2,0.9C416.5,551.6,418,555.7,418,555.7
			z"/>
		<path class="st8" d="M438,559.9c0,3.3-2.7,4.5-6,2.5c-3.3-1.9-6-6.2-6-9.5c0-3.3,2.7-4.5,6-2.5C435.3,552.3,438,556.6,438,559.9z"
			/>
		<path class="st8" d="M473.3,580.3c0,3.3-2.7,4.5-6,2.5c-3.3-1.9-6-6.2-6-9.5c0-3.3,2.7-4.5,6-2.5
			C470.6,572.7,473.3,576.9,473.3,580.3z"/>
		<path class="st7" d="M504.7,578.7c0,2-1.1,2.5-1.1,2.5l-15.1,8.8c-0.1,0.1-0.3,0.1-0.4,0.2l-1,0.6c-1.1,0.6-2.2,0.8-3.2,0.9
			c-0.5,0.1-0.9,0.1-1.3,0c0,0,0,0,0,0l-0.6-2.4L470,573.5l-4.5-2.7c0,0-15.6-5.9-16.2-6.2c-0.6-0.3-22.5-13.4-22.5-13.4l-10.6-7
			l-7.2-8l0.1,0l20.3-11.7h0c0.5-0.5,1-0.4,1-0.4s1.9,0.3,4.8,1.4c3,1.1,6,1,6,1c5.7-2.1,15.3,0.9,27.2,9.9c11.9,9,18,19.1,19,20
			c0.9,0.9,5,3,10.4,7.8c5.4,4.8,6.1,7,6.3,8.6C504.1,574.2,504.7,576.7,504.7,578.7z"/>
		<path class="st6" d="M418.5,542.2l5.7,4.8l38.8,21.5l0.5-1.4c0,0-2.8-5.4-8.7-11c-5.9-5.6-9.2-9-17.4-13.1c0,0-3.9-2.1-9.1-3.2
			C423.1,538.8,418.5,542.2,418.5,542.2z"/>
		<path class="st6" d="M482.8,555.3l-14.7,8.5c-1,0.6-2.3,0.3-3-0.7c-2.2-3.2-5.2-6.4-7.7-9c-2-2-1.5-5.2,0.9-6.6l10.1-5.8
			c1.5-0.9,3.4-0.7,4.7,0.5c4.6,4.1,8.2,8.5,10.2,11.1C483.8,553.9,483.6,554.9,482.8,555.3z"/>
		<polygon class="st8" points="471.7,583.4 465.3,587.1 458.8,579.3 456.8,573.7 462.7,570.2 467.6,576.6 		"/>
		<polygon class="st8" points="430.4,566.5 436.6,562.9 427.2,550 420.8,553.8 		"/>
		<path class="st7" d="M431.7,563.6c0,3.3-2.7,4.5-6,2.5c-3.3-1.9-6-6.2-6-9.5c0-3.3,2.7-4.5,6-2.5C429,556,431.7,560.2,431.7,563.6
			z"/>
		<path class="st7" d="M466.9,583.9c0,3.3-2.7,4.5-6,2.5c-3.3-1.9-6-6.2-6-9.5c0-3.3,2.7-4.5,6-2.5
			C464.2,576.4,466.9,580.6,466.9,583.9z"/>
		<path class="st7" d="M483.3,584.6c-0.2-1.5-0.9-3.8-6.3-8.6c-5.4-4.8-9.4-6.9-10.4-7.8c-0.9-0.9-7.1-10.9-19-20
			c-11.9-9-21.5-12-27.2-9.9c0,0-3,0.1-6-1c-3-1.1-4.8-1.4-4.8-1.4s-0.3-0.1-0.6,0.1l-0.1,0c-0.4,0.1-0.8,0.5-1,1.5
			c-0.4,1.9-1.1,10.1-0.7,11.2c0.4,1.1,5.3,3.8,5.3,3.8l5.4,3.1v0c0-4.2,3.4-5.7,7.6-3.2c3.7,2.1,6.8,6.6,7.5,10.4c0,0,0,0,0,0.1
			c0.1,0.4,0.7,1.8,2.4,2.8c0,0,0,0,0,0l17.7,10.2v0c0-4.2,3.4-5.7,7.6-3.2c3.4,2,6.3,5.9,7.3,9.6c0.1,0.2,0.1,0.4,0.1,0.6
			c0.2,0.7,1.1,2.3,3.3,3.6c0,0,0,0,0,0l6.7,3.8c0,0,0,0,0,0l0.1,0c0.4,0.2,2,1,4.1,1.1c0,0,0,0,0,0c0.4,0,0.9,0,1.3,0
			c0.1-0.3,0.1-0.6,0.1-1C484,588.7,483.4,586.2,483.3,584.6z M439.2,553l-17.5-10.6c-0.3-0.2-0.5-0.7-0.3-0.8
			c1.5-0.8,6.5-2.4,16.4,2.8c0.9,0.5,1.5,1.3,1.6,2.3l0.8,5.6C440.4,552.9,439.7,553.3,439.2,553z M462.7,567.2l-18.2-11
			c-0.7-0.4-1.2-1.2-1.3-2l-0.6-4.4c0,0,0-0.3,0-0.7c0-0.5,0.1-1,0.4-1.1c0.4-0.1,1.1,0.3,1.7,0.7c3.6,2.5,10.7,8.2,18.3,18.1
			C463.2,567,463,567.4,462.7,567.2z"/>
		<path class="st6" d="M486,588.1c0,0.8,0.7,1.1,1.5,0.6c0.8-0.5,1.5-1.6,1.5-2.4s-0.7-1.1-1.5-0.6S486,587.2,486,588.1z"/>
		<path class="st6" d="M500.1,579.9c0,0.8,0.7,1.1,1.5,0.6c0.8-0.5,1.5-1.6,1.5-2.4s-0.7-1.1-1.5-0.6
			C500.8,578,500.1,579,500.1,579.9z"/>
	</g>
	<g>
		<path class="st11" d="M85.2,349.5l-7.6-4.5l4.7-1.2c0,0,3.1,0.3,3.2,0.4c0.2,0.1,1.2,0.7,1.2,0.9
			C86.7,345.4,85.2,349.5,85.2,349.5z"/>
		<path class="st11" d="M120.5,329.1l-7.6-4.5l4.7-1.2c0,0,3.1,0.3,3.2,0.4c0.2,0.1,1.2,0.7,1.2,0.9S120.5,329.1,120.5,329.1z"/>
		<path class="st8" d="M100.5,333.3c0,3.3,2.7,4.5,6,2.5c3.3-1.9,6-6.2,6-9.5c0-3.3-2.7-4.5-6-2.5
			C103.2,325.8,100.5,330,100.5,333.3z"/>
		<path class="st8" d="M65.2,353.7c0,3.3,2.7,4.5,6,2.5c3.3-1.9,6-6.2,6-9.5c0-3.3-2.7-4.5-6-2.5C67.9,346.1,65.2,350.4,65.2,353.7z
			"/>
		<path class="st6" d="M33.8,352.1c0,2,1.1,2.5,1.1,2.5l15.1,8.8c0.1,0.1,0.3,0.1,0.4,0.2l1,0.6c1.1,0.6,2.2,0.8,3.2,0.9
			c0.5,0.1,0.9,0.1,1.3,0c0,0,0,0,0,0l0.6-2.4L68.5,347l4.5-2.7c0,0,15.6-5.9,16.2-6.2c0.6-0.3,22.5-13.4,22.5-13.4l10.6-7l7.2-8
			l-0.1,0l-20.3-11.7h0c-0.5-0.5-1-0.4-1-0.4s-1.9,0.3-4.8,1.4c-3,1.1-6,1-6,1c-5.7-2.1-15.3,0.9-27.2,9.9c-11.9,9-18,19.1-19,20
			c-0.9,0.9-5,3-10.4,7.8c-5.4,4.8-6.1,7-6.3,8.6C34.4,347.6,33.8,350.1,33.8,352.1z"/>
		<path class="st7" d="M119.9,315.6l-5.7,4.8l-38.8,21.5l-0.5-1.4c0,0,2.8-5.4,8.7-11c5.9-5.6,9.2-9,17.4-13.1c0,0,3.9-2.1,9.1-3.2
			C115.4,312.2,119.9,315.6,119.9,315.6z"/>
		<path class="st7" d="M55.6,328.7l14.7,8.5c1,0.6,2.3,0.3,3-0.7c2.4-3.5,5.7-7,8.3-9.6c1.6-1.6,1.3-4.3-0.7-5.5
			c-3.4-1.9-8.1-4.7-10.9-6.3c-1.5-0.9-3.4-0.7-4.7,0.5c-4.6,4.1-8.2,8.5-10.2,11.1C54.7,327.3,54.9,328.3,55.6,328.7z"/>
		<polygon class="st8" points="66.7,356.8 73.2,360.6 79.6,352.7 81.7,347.1 75.8,343.7 70.8,350 		"/>
		<polygon class="st8" points="108.1,340 101.9,336.4 111.3,323.4 117.7,327.2 		"/>
		<path class="st6" d="M106.8,337c0,3.3,2.7,4.5,6,2.5c3.3-1.9,6-6.2,6-9.5c0-3.3-2.7-4.5-6-2.5C109.5,329.4,106.8,333.7,106.8,337z
			"/>
		<path class="st6" d="M71.5,357.4c0,3.3,2.7,4.5,6,2.5c3.3-1.9,6-6.2,6-9.5c0-3.3-2.7-4.5-6-2.5C74.2,349.8,71.5,354,71.5,357.4z"
			/>
		<path class="st6" d="M54.5,364.1c0,0.4,0,0.7,0.1,1c0.5,0.1,0.9,0.1,1.3,0c0,0,0,0,0,0c2.1-0.1,3.8-0.9,4.1-1.1l0.1,0c0,0,0,0,0,0
			l6.7-3.8c0,0,0,0,0,0c2.2-1.3,3.1-2.9,3.3-3.6c0-0.2,0.1-0.4,0.1-0.6c1-3.7,3.8-7.6,7.3-9.6c4.2-2.4,7.6-1,7.6,3.2v0l17.7-10.2
			c0,0,0,0,0,0c1.7-1,2.3-2.5,2.4-2.8c0,0,0-0.1,0-0.1c0.7-3.9,3.8-8.3,7.5-10.4c4.2-2.4,7.6-1,7.6,3.2v0l5.4-3.1c0,0,5-2.7,5.3-3.8
			c0.4-1-0.3-9.3-0.7-11.2c-0.2-0.9-0.6-1.3-1-1.5l-0.1,0c-0.3-0.1-0.6-0.1-0.6-0.1s-1.9,0.3-4.8,1.4c-3,1.1-6,1-6,1
			c-5.7-2.1-15.3,0.9-27.2,9.9c-11.9,9-18,19.1-19,20s-5,3-10.4,7.8c-5.4,4.8-6.1,7.1-6.3,8.6C55.1,359.6,54.5,362.1,54.5,364.1z
			 M98.2,325.7l0.8-5.6c0.1-1,0.7-1.8,1.6-2.3c9.8-5.2,14.9-3.6,16.4-2.8c0.2,0.1,0.1,0.6-0.3,0.8l-17.5,10.6
			C98.7,326.7,98.1,326.3,98.2,325.7z M75.6,340.1c7.7-9.9,14.8-15.6,18.3-18.1c0.5-0.4,1.3-0.8,1.7-0.7c0.3,0.1,0.4,0.7,0.4,1.1
			c0,0.4,0,0.7,0,0.7l-0.6,4.4c-0.1,0.9-0.6,1.6-1.3,2l-18.2,11C75.5,340.9,75.3,340.5,75.6,340.1z"/>
		<path class="st7" d="M52.5,361.5c0,0.8-0.7,1.1-1.5,0.6c-0.8-0.5-1.5-1.6-1.5-2.4c0-0.8,0.7-1.1,1.5-0.6
			C51.8,359.6,52.5,360.7,52.5,361.5z"/>
		<path class="st7" d="M38.4,353.3c0,0.8-0.7,1.1-1.5,0.6s-1.5-1.6-1.5-2.4c0-0.8,0.7-1.1,1.5-0.6C37.7,351.4,38.4,352.5,38.4,353.3
			z"/>
	</g>
	<g>
		<polygon class="st10" points="207.4,603.4 158.5,575.1 200.9,550.6 249.9,578.9 		"/>
		<polygon class="st8" points="207,508.2 164.2,483.5 201.3,462.1 244.1,486.8 		"/>
		<polygon class="st6" points="189.7,493.9 171.6,483.4 187.3,474.4 205.3,484.8 		"/>
		<polygon class="st6" points="189.7,478 171.6,467.6 187.3,458.5 205.3,469 		"/>
		<polygon class="st6" points="244.1,486.8 244.1,578.7 207,600.1 207,508.2 		"/>
		<polygon class="st7" points="164.2,483.5 164.2,575.4 207,600.1 207,508.2 		"/>
		<polygon class="st6" points="249.9,578.9 249.9,617.5 207.4,642 207.4,603.4 		"/>
		<polygon class="st7" points="158.5,575.1 158.5,613.7 207.4,642 207.4,603.4 		"/>
		<g>
			<polygon class="st8" points="217.3,514.1 210.3,518.1 210.3,511.1 217.3,507 			"/>
			<polygon class="st8" points="229.5,507 222.4,511 222.4,504 229.5,499.9 			"/>
			<polygon class="st8" points="241.7,499.8 234.6,503.9 234.6,496.9 241.7,492.8 			"/>
			<polygon class="st8" points="217.3,526.7 210.3,530.8 210.3,523.8 217.3,519.7 			"/>
			<polygon class="st8" points="229.5,519.6 222.4,523.7 222.4,516.6 229.5,512.6 			"/>
			<polygon class="st8" points="241.7,512.5 234.6,516.6 234.6,509.5 241.7,505.5 			"/>
			<polygon class="st6" points="217.3,539.4 210.3,543.5 210.3,536.4 217.3,532.4 			"/>
			<polygon class="st8" points="229.5,532.3 222.4,536.4 222.4,529.3 229.5,525.2 			"/>
			<polygon class="st8" points="241.7,525.2 234.6,529.3 234.6,522.2 241.7,518.1 			"/>
			<polygon class="st8" points="217.3,552.1 210.3,556.2 210.3,549.1 217.3,545 			"/>
			<polygon class="st8" points="229.5,545 222.4,549.1 222.4,542 229.5,537.9 			"/>
			<polygon class="st8" points="241.7,537.9 234.6,542 234.6,534.9 241.7,530.8 			"/>
			<polygon class="st8" points="217.3,564.8 210.3,568.9 210.3,561.8 217.3,557.7 			"/>
			<polygon class="st8" points="229.5,557.7 222.4,561.8 222.4,554.7 229.5,550.6 			"/>
			<polygon class="st6" points="241.7,550.6 234.6,554.6 234.6,547.6 241.7,543.5 			"/>
			<polygon class="st8" points="217.3,577.5 210.3,581.5 210.3,574.5 217.3,570.4 			"/>
			<polygon class="st6" points="229.5,570.4 222.4,574.4 222.4,567.4 229.5,563.3 			"/>
			<polygon class="st8" points="241.7,563.2 234.6,567.3 234.6,560.3 241.7,556.2 			"/>
			<polygon class="st8" points="217.3,590.1 210.3,594.2 210.3,587.2 217.3,583.1 			"/>
			<polygon class="st8" points="229.5,583 222.4,587.1 222.4,580 229.5,576 			"/>
			<path class="st8" d="M238.2,624.3l-15.7,9.1v-14.9c0-5.7,3.1-11,8-13.9l0,0c3.4-2,7.7,0.5,7.7,4.4V624.3z"/>
			<polygon class="st8" points="241.7,575.9 234.6,580 234.6,572.9 241.7,568.9 			"/>
		</g>
		<g>
			<polygon class="st6" points="194.3,514.1 201.3,518.1 201.3,511.1 194.3,507 			"/>
			<polygon class="st6" points="182.1,507 189.1,511 189.1,504 182.1,499.9 			"/>
			<polygon class="st6" points="169.9,499.8 177,503.9 177,496.9 169.9,492.8 			"/>
			<polygon class="st6" points="194.3,526.7 201.3,530.8 201.3,523.8 194.3,519.7 			"/>
			<polygon class="st6" points="182.1,519.6 189.1,523.7 189.1,516.6 182.1,512.6 			"/>
			<polygon class="st6" points="169.9,512.5 177,516.6 177,509.5 169.9,505.5 			"/>
			<polygon class="st6" points="194.3,539.4 201.3,543.5 201.3,536.4 194.3,532.4 			"/>
			<polygon class="st7" points="182.1,532.3 189.1,536.4 189.1,529.3 182.1,525.2 			"/>
			<polygon class="st6" points="169.9,525.2 177,529.3 177,522.2 169.9,518.1 			"/>
			<polygon class="st6" points="194.3,552.1 201.3,556.2 201.3,549.1 194.3,545 			"/>
			<polygon class="st7" points="182.1,545 189.1,549.1 189.1,542 182.1,537.9 			"/>
			<polygon class="st6" points="169.9,537.9 177,542 177,534.9 169.9,530.8 			"/>
			<polygon class="st6" points="194.3,564.8 201.3,568.9 201.3,561.8 194.3,557.7 			"/>
			<polygon class="st6" points="182.1,557.7 189.1,561.8 189.1,554.7 182.1,550.6 			"/>
			<polygon class="st6" points="169.9,550.6 177,554.6 177,547.6 169.9,543.5 			"/>
			<polygon class="st6" points="194.3,577.5 201.3,581.5 201.3,574.5 194.3,570.4 			"/>
			<polygon class="st6" points="182.1,570.4 189.1,574.4 189.1,567.4 182.1,563.3 			"/>
			<polygon class="st6" points="169.9,563.2 177,567.3 177,560.3 169.9,556.2 			"/>
			<polygon class="st6" points="194.3,590.1 201.3,594.2 201.3,587.2 194.3,583.1 			"/>
			<polygon class="st7" points="182.1,583 189.1,587.1 189.1,580 182.1,576 			"/>
			<polygon class="st7" points="169.9,575.9 177,580 177,572.9 169.9,568.9 			"/>
		</g>
		<polygon class="st6" points="189.7,478 189.7,493.9 205.3,484.8 205.3,469 		"/>
		<polygon class="st8" points="194.9,480.3 194.9,491 200.1,488 200.1,477.3 		"/>
		<polygon class="st8" points="171.6,467.6 171.6,483.4 189.7,493.9 189.7,478 		"/>
		<polygon class="st6" points="175.5,473.3 175.5,482.2 185.7,488.1 185.7,479.2 		"/>
	</g>
	<g>
		<polygon class="st6" points="781.2,642 751.6,624.9 777.3,610.1 806.9,627.2 		"/>
		<polygon class="st10" points="781.2,575.2 751.6,558 777.3,543.2 806.9,560.3 		"/>
		<polygon class="st7" points="780.8,571.6 757.7,558.3 777.7,546.8 800.8,560.1 		"/>
		<polygon class="st6" points="781.2,575.2 781.2,642 806.9,627.2 806.9,560.3 		"/>
		<polygon class="st8" points="751.6,558 751.6,624.9 781.2,642 781.2,575.2 		"/>
		<g>
			<g>
				<polygon class="st9" points="759.6,572.3 754.9,569.6 754.9,564.9 759.6,567.6 				"/>
				<polygon class="st9" points="768.1,577.2 763.4,574.5 763.4,569.8 768.1,572.5 				"/>
				<polygon class="st9" points="776.6,582.1 771.9,579.4 771.9,574.7 776.6,577.4 				"/>
			</g>
			<g>
				<polygon class="st9" points="759.6,581.2 754.9,578.5 754.9,573.9 759.6,576.6 				"/>
				<polygon class="st9" points="768.1,586.1 763.4,583.5 763.4,578.8 768.1,581.5 				"/>
				<polygon class="st9" points="776.6,591.1 771.9,588.4 771.9,583.7 776.6,586.4 				"/>
			</g>
			<g>
				<polygon class="st8" points="759.6,590.2 754.9,587.5 754.9,582.8 759.6,585.5 				"/>
				<polygon class="st9" points="768.1,595.1 763.4,592.4 763.4,587.7 768.1,590.4 				"/>
				<polygon class="st9" points="776.6,600 771.9,597.3 771.9,592.6 776.6,595.3 				"/>
			</g>
			<g>
				<polygon class="st9" points="759.6,599.2 754.9,596.5 754.9,591.8 759.6,594.5 				"/>
				<polygon class="st9" points="768.1,604.1 763.4,601.4 763.4,596.7 768.1,599.4 				"/>
				<polygon class="st9" points="776.6,609 771.9,606.3 771.9,601.6 776.6,604.3 				"/>
			</g>
			<g>
				<polygon class="st9" points="759.6,608.1 754.9,605.4 754.9,600.7 759.6,603.4 				"/>
				<polygon class="st8" points="768.1,613 763.4,610.3 763.4,605.6 768.1,608.3 				"/>
				<polygon class="st9" points="776.6,617.9 771.9,615.2 771.9,610.6 776.6,613.2 				"/>
			</g>
		</g>
		<g>
			<g>
				<polygon class="st8" points="800.5,585.3 805.2,582.6 805.2,577.9 800.5,580.6 				"/>
				<polygon class="st8" points="792,590.2 796.7,587.5 796.7,582.8 792,585.5 				"/>
				<polygon class="st8" points="783.5,595.1 788.2,592.4 788.2,587.7 783.5,590.4 				"/>
			</g>
			<g>
				<polygon class="st8" points="800.5,594.2 805.2,591.5 805.2,586.8 800.5,589.5 				"/>
				<polygon class="st8" points="792,599.1 796.7,596.4 796.7,591.8 792,594.4 				"/>
				<polygon class="st8" points="783.5,604 788.2,601.3 788.2,596.7 783.5,599.4 				"/>
			</g>
			<g>
				<polygon class="st8" points="800.5,603.2 805.2,600.5 805.2,595.8 800.5,598.5 				"/>
				<polygon class="st8" points="792,608.1 796.7,605.4 796.7,600.7 792,603.4 				"/>
				<polygon class="st8" points="783.5,613 788.2,610.3 788.2,605.6 783.5,608.3 				"/>
			</g>
			<g>
				<polygon class="st8" points="800.5,612.1 805.2,609.4 805.2,604.8 800.5,607.4 				"/>
				<polygon class="st8" points="792,617 796.7,614.3 796.7,609.7 792,612.4 				"/>
				<polygon class="st8" points="783.5,621.9 788.2,619.2 788.2,614.6 783.5,617.3 				"/>
			</g>
			<g>
				<polygon class="st8" points="800.5,621.1 805.2,618.4 805.2,613.7 800.5,616.4 				"/>
				<polygon class="st8" points="792,626 796.7,623.3 796.7,618.6 792,621.3 				"/>
				<polygon class="st8" points="783.5,630.9 788.2,628.2 788.2,623.5 783.5,626.2 				"/>
			</g>
		</g>
	</g>
	<g>
		<path class="st8" d="M866.6,282.1c-0.7-0.4-1.3-0.7-1.9-0.9c-1.3-5.1-5.2-10.7-9.8-13.8c-2.5-7.2-8.2-14.7-14.8-18.7
			c-7.6-4.6-14-3.2-15.7,2.9c-5.3-2.9-9.5-1.1-9.5,4.3c0,5.5,4.5,12.7,10,16.1l41.8,25.1c4.1,2.5,7.5,1.1,7.5-3
			S870.8,284.6,866.6,282.1z"/>
		<path class="st6" d="M451.3,272.3c-1.1-0.6-2.1-1.1-3-1.4c-2.1-8-8.1-16.7-15.4-21.7c-3.9-11.3-12.8-23-23.2-29.2
			c-11.9-7.1-21.8-4.9-24.6,4.5c-8.3-4.6-14.9-1.7-14.9,6.7c0,8.7,7,19.9,15.7,25.1l65.4,39.3c6.4,3.9,11.7,1.8,11.7-4.7
			C463,284.5,457.7,276.1,451.3,272.3z"/>
		<path class="st6" d="M846.1,278.1c-1-0.6-2-1.1-3-1.4c-2-7.9-8-16.3-15.1-21.2c-3.8-11.1-12.6-22.5-22.8-28.7
			c-11.7-7-21.4-4.8-24.1,4.4c-8.1-4.5-14.6-1.7-14.6,6.6c0,8.5,6.9,19.5,15.4,24.6l64.2,38.6c6.3,3.8,11.4,1.8,11.4-4.6
			C857.5,290.1,852.4,281.9,846.1,278.1z"/>
		<path class="st15" d="M307.3,252.4c-1.1-0.7-2.2-1.2-3.3-1.5c-2.2-8.6-8.7-17.8-16.5-23.2c-4.2-12.1-13.7-24.6-24.9-31.3
			c-12.7-7.6-23.4-5.3-26.3,4.8c-8.9-4.9-15.9-1.8-15.9,7.2c0,9.3,7.5,21.3,16.8,26.9l70,42.1c6.9,4.1,12.5,1.9,12.5-5
			S314.2,256.5,307.3,252.4z"/>
		<path class="st6" d="M351.5,592.7c-1.1-0.7-2.2-1.2-3.3-1.5c-2.2-8.6-8.7-17.8-16.5-23.2c-4.2-12.1-13.7-24.6-24.9-31.3
			c-12.7-7.6-23.4-5.3-26.3,4.8c-8.9-4.9-15.9-1.8-15.9,7.2c0,9.3,7.5,21.3,16.8,26.9l70,42.1c6.9,4.1,12.5,1.9,12.5-5
			C364,605.8,358.4,596.8,351.5,592.7z"/>
		<path class="st15" d="M930.7,242.3c-1.1-0.7-2.2-1.2-3.3-1.5c-2.2-8.6-8.7-17.8-16.5-23.2c-4.2-12.1-13.7-24.6-24.9-31.3
			c-12.7-7.6-23.4-5.3-26.3,4.8c-8.9-4.9-15.9-1.8-15.9,7.2c0,9.3,7.5,21.3,16.8,26.9l70,42.1c6.9,4.1,12.5,1.9,12.5-5
			C943.2,255.4,937.6,246.5,930.7,242.3z"/>
	</g>
</g>
</svg>
