<?xml version="1.0" encoding="utf-8"?>
<!-- Generator: Adobe Illustrator 22.0.1, SVG Export Plug-In . SVG Version: 6.00 Build 0)  -->
<svg version="1.1" xmlns="http://www.w3.org/2000/svg" xmlns:xlink="http://www.w3.org/1999/xlink" x="0px" y="0px"
	 viewBox="0 0 500 500" style="enable-background:new 0 0 500 500;" xml:space="preserve">
<style type="text/css">
	.st0{display:none;}
	.st1{display:inline;fill:#7DB4E2;}
	.st2{fill:#FFC366;}
	.st3{fill:#F5A53D;}
	.st4{fill:#7DB4E2;}
	.st5{opacity:0.57;fill:#9A9897;}
	.st6{fill:#EAC8A8;}
	.st7{fill:#FFFFFF;}
	.st8{fill:#003E78;}
	.st9{fill:#9A9897;}
	.st10{fill:#F7E8DF;}
	.st11{fill:#FBB03B;}
	.st12{display:inline;}
</style>
<g id="BACKGROUND" class="st0">
	<rect y="0" class="st1" width="500" height="500"/>
</g>
<g id="OBJECTS">
	<g>
		<polygon class="st2" points="104.6,226.2 113.5,244.3 133.5,247.2 119,261.4 122.4,281.3 104.6,271.9 86.7,281.3 90.1,261.4 
			75.6,247.2 95.6,244.3 		"/>
		<polygon class="st3" points="86.7,281.3 104.6,256.1 122.4,281.3 104.6,271.9 		"/>
		<polygon class="st3" points="104.6,256.1 90.1,261.4 75.6,247.2 		"/>
		<polygon class="st3" points="104.6,227 104.6,256.1 113.5,244.3 		"/>
		<polygon class="st3" points="133.5,247.2 104.6,256.1 119,261.4 		"/>
	</g>
	<g>
		<polygon class="st2" points="175.9,226.2 184.9,244.3 204.9,247.2 190.4,261.4 193.8,281.3 175.9,271.9 158,281.3 161.5,261.4 
			147,247.2 167,244.3 		"/>
		<polygon class="st3" points="158,281.3 175.9,256.1 193.8,281.3 175.9,271.9 		"/>
		<polygon class="st3" points="175.9,256.1 161.5,261.4 147,247.2 		"/>
		<polygon class="st3" points="175.9,227 175.9,256.1 184.9,244.3 		"/>
		<polygon class="st3" points="204.9,247.2 175.9,256.1 190.4,261.4 		"/>
	</g>
	<g>
		<polygon class="st2" points="247.3,226.2 256.3,244.3 276.3,247.2 261.8,261.4 265.2,281.3 247.3,271.9 229.4,281.3 232.8,261.4 
			218.4,247.2 238.4,244.3 		"/>
		<polygon class="st3" points="229.4,281.3 247.3,256.1 265.2,281.3 247.3,271.9 		"/>
		<polygon class="st3" points="247.3,256.1 232.8,261.4 218.4,247.2 		"/>
		<polygon class="st3" points="247.3,227 247.3,256.1 256.3,244.3 		"/>
		<polygon class="st3" points="276.3,247.2 247.3,256.1 261.8,261.4 		"/>
	</g>
	<g>
		<polygon class="st2" points="318.7,226.2 327.6,244.3 347.6,247.2 333.2,261.4 336.6,281.3 318.7,271.9 300.8,281.3 304.2,261.4 
			289.7,247.2 309.7,244.3 		"/>
		<polygon class="st3" points="300.8,281.3 318.7,256.1 336.6,281.3 318.7,271.9 		"/>
		<polygon class="st3" points="318.7,256.1 304.2,261.4 289.7,247.2 		"/>
		<polygon class="st3" points="318.7,227 318.7,256.1 327.6,244.3 		"/>
		<polygon class="st3" points="347.6,247.2 318.7,256.1 333.2,261.4 		"/>
	</g>
	<polygon class="st4" points="419,247.2 399,244.3 390.1,226.2 381.1,244.3 361.1,247.2 375.6,261.4 372.2,281.3 390.1,271.9 
		407.9,281.3 404.5,261.4 	"/>
	<g>
		<polygon class="st2" points="386.1,234.9 395,253 415,255.9 400.5,270 403.9,289.9 386.1,280.5 368.2,289.9 371.6,270 
			357.1,255.9 377.1,253 		"/>
		<polygon class="st3" points="368.2,289.9 386.1,264.8 403.9,289.9 386.1,280.5 		"/>
		<polygon class="st3" points="386.1,264.8 371.6,270 357.1,255.9 		"/>
		<polygon class="st3" points="386.1,235.7 386.1,264.8 395,253 		"/>
		<polygon class="st3" points="415,255.9 386.1,264.8 400.5,270 		"/>
	</g>
	<path class="st5" d="M478.1,450.4c-0.1-0.2-0.3-0.4-0.5-0.5c-0.2-0.2-0.3-0.3-0.5-0.5c-0.2-0.7-0.5-1.4-0.9-2.1
		c0.9-1.1,1.5-2.5,1.5-4.1V340.6c0-0.5-0.1-0.9-0.2-1.4V333c0-5.8-4.8-10.6-10.6-10.6h-7.7c-1.8,0-3.5,0.5-5,1.3c-1.9-3-5.2-5-9-5
		h-7.7c-2.7,0-5.1,1-6.9,2.6c-1.9-3-5.2-5-9-5h-7.7c-3.3,0-6.3,1.6-8.3,4v-50c0-5.8-4.8-10.6-10.6-10.6h-7.7
		c-5.8,0-10.6,4.8-10.6,10.6v82c0,1.1,0.2,2.1,0.5,3.1v17.9h-0.2v-11.8c0-3.7-3.1-6.8-6.8-6.8h-7.6c-3.7,0-6.8,3.1-6.8,6.8
		c0,14.6-0.1,29.1-0.1,43.7c0,7.3,0.1,14.6,0.2,21.8c0,20.5,17.1,12.9,22.8,20.2c0.1,0.1,0.2,0.2,0.3,0.3c-0.3,0.6-0.6,1.2-0.8,1.9
		c-1.6,1.4-2.7,3.5-2.7,5.9v45.1h52.7h51.3h0v-45.1C479.7,453.4,479.1,451.7,478.1,450.4z"/>
	<g>
		<path class="st6" d="M474.3,339.2V333c0-5.8-4.8-10.6-10.6-10.6H456c-1.8,0-3.5,0.5-5,1.3c-1.9-3-5.2-5-9-5h-7.7
			c-2.7,0-5.1,1-6.9,2.6c-1.9-3-5.2-5-9-5h-7.7c-3.3,0-6.3,1.6-8.3,4v-50c0-5.8-4.8-10.6-10.6-10.6h-7.7c-5.8,0-10.6,4.8-10.6,10.6
			v82c0,1.1,0.2,2.1,0.5,3.1v17.9h-0.2v-11.8c0-3.7-3.1-6.8-6.8-6.8h-7.6c-3.7,0-6.8,3.1-6.8,6.8c0,14.6-0.1,29.1-0.1,43.7
			c0,7.3,0.1,14.6,0.2,21.8c0,20.5,17.1,12.9,22.8,20.2c1.2,1.5,3,2.5,5,2.5h87.6c3.5,0,6.3-2.8,6.3-6.3V340.6
			C474.4,340.1,474.4,339.6,474.3,339.2z"/>
		<path class="st7" d="M409.2,493.8h-19.6c-8.5,0-15.4-6.9-15.4-15.4v-24.2c0-8.5,6.9-15.4,15.4-15.4h19.6c8.5,0,15.4,6.9,15.4,15.4
			v24.2C424.6,486.9,417.6,493.8,409.2,493.8z"/>
		<path class="st7" d="M459.2,493.8h-19.6c-8.5,0-15.4-6.9-15.4-15.4v-24.2c0-8.5,6.9-15.4,15.4-15.4h19.6c8.5,0,15.4,6.9,15.4,15.4
			v24.2C474.6,486.9,467.6,493.8,459.2,493.8z"/>
		<path class="st8" d="M476.3,500.3v-45.1c0-4.1-3.2-7.5-7-7.5h-90c-3.9,0-7,3.4-7,7.5v45.1H476.3z"/>
		<path class="st9" d="M469.3,447.7H425v52.6h51.3v-45.1C476.3,451.1,473.2,447.7,469.3,447.7z"/>
		<path class="st10" d="M392.8,281.5H384c-3.1,0-5.7-2.6-5.7-5.7v-7.3c0-3.1,2.6-5.7,5.7-5.7h8.8c3.1,0,5.7,2.6,5.7,5.7v7.3
			C398.5,278.9,395.9,281.5,392.8,281.5z"/>
		<circle class="st11" cx="462" cy="466.7" r="7"/>
	</g>
	<path class="st2" d="M415.1,211.3c-1.6,2.1-15.3,17.6-17.1,16.2c-1.8-1.3,9.1-18.9,10.7-21c1.6-2.1,4.3-2.7,6.1-1.4
		C416.5,206.4,416.6,209.2,415.1,211.3z"/>
	<path class="st2" d="M428.4,226.9c-2.4,1.1-22,7.8-22.9,5.7c-0.9-2,17.2-12,19.6-13.1c2.4-1.1,5.1-0.3,6,1.7
		C432,223.4,430.8,225.9,428.4,226.9z"/>
	<path class="st2" d="M355.1,219c2.3,1.3,19.1,13.3,18,15.2c-1.1,1.9-19.8-7-22.1-8.3c-2.3-1.3-3.2-4-2.1-5.9
		C350.1,218.1,352.8,217.7,355.1,219z"/>
	<path class="st2" d="M369.2,204.1c1.3,2.3,10.1,21,8.2,22.1c-1.9,1.1-13.8-15.8-15.1-18.1c-1.3-2.3-0.8-5,1.1-6.1
		C365.2,200.8,367.9,201.8,369.2,204.1z"/>
</g>
<g id="DESIGNED_BY_FREEPIK" class="st0">
	<g class="st12">
		<g>
			<g id="XMLID_225_">
				<g id="XMLID_244_">
					<path id="XMLID_252_" class="st7" d="M261.4,464.9c-0.5,0.5-0.9,1.1-1.3,1.6l-0.5-0.3c-0.1-0.3-0.4-0.6-0.7-0.5
						c-0.4,0-0.6,0.4-0.6,0.8c0,0.4,0.4,0.6,0.8,0.6c0.1,0,0.1,0,0.2-0.1l0.5,0.3c-0.3,0.6-0.5,1.3-0.6,2l0.8,0.1
						c0.3-1.5,1-2.8,2-3.9L261.4,464.9z"/>
					<path id="XMLID_251_" class="st7" d="M267.7,462.3c-0.2,0-0.4,0-0.6,0l-0.1-0.7c0.2-0.2,0.3-0.4,0.3-0.7
						c-0.1-0.4-0.5-0.8-0.9-0.7c-0.4,0.1-0.8,0.5-0.7,0.9c0,0.3,0.2,0.5,0.5,0.6l0.1,0.7c-0.8,0.1-1.6,0.4-2.3,0.7l0.4,0.8
						c1.1-0.5,2.2-0.8,3.4-0.8c0.6,0,1.1,0.1,1.7,0.2l0.2-0.8C268.9,462.4,268.3,462.3,267.7,462.3z"/>
					<path id="XMLID_250_" class="st7" d="M275.1,465.2c0.4,0,0.6-0.4,0.6-0.8c0-0.4-0.4-0.6-0.8-0.6c-0.4,0-0.6,0.3-0.6,0.7
						l-0.5,0.4c-0.5-0.5-1-0.9-1.6-1.3l-0.5,0.7c1.3,0.8,2.3,2,2.9,3.3l0.8-0.4c-0.3-0.6-0.6-1.2-1.1-1.7l0.5-0.4
						C275,465.2,275.1,465.2,275.1,465.2z"/>
					<path id="XMLID_249_" class="st7" d="M267,473.8c-0.4,0-0.9,0-1.3,0c-1,0-2-0.1-2.8-0.2c-0.4-0.1-1-0.2-1.4-0.3
						c1.2,2.1,3.5,3.5,6.1,3.5c3.2,0,6-2.2,6.7-5.1c-0.8,0.5-1.7,0.9-2.8,1.3C270.2,473.5,268.6,473.7,267,473.8z"/>
					<path id="XMLID_245_" class="st7" d="M267.7,464c-3.8,0-6.9,3-6.9,6.7c0,0.5,0.1,1,0.2,1.4c0.8,0.5,3.1,1,6.1,0.8
						c3.3-0.2,6-1.1,7.6-2.4c0-0.2,0-0.4-0.1-0.7C274.1,466.5,271.1,464,267.7,464z M265.2,471.4c-1.2,0-2.1-0.9-2.1-2.1
						c0-1.2,0.9-2.1,2.1-2.1c1.2,0,2.1,0.9,2.1,2.1C267.3,470.4,266.4,471.4,265.2,471.4z M270.6,470.4c-0.8,0-1.5-0.7-1.5-1.5
						c0-0.8,0.7-1.5,1.5-1.5c0.8,0,1.5,0.7,1.5,1.5C272.1,469.7,271.4,470.4,270.6,470.4z"/>
				</g>
				<path id="XMLID_242_" class="st7" d="M285.8,466.1c-0.3-0.1-0.9-0.3-1.6-0.3c-0.6,0.1-1,0.4-1,1.1v1h2.5v1.9h-2.5v6.2h-2.2v-6.2
					h-1.5V468h1.5v-1c0-1.9,1-3.2,2.9-3.2c0.7,0,1.3,0.1,1.8,0.3L285.8,466.1z"/>
				<path id="XMLID_240_" class="st7" d="M291.1,469.9c-0.2,0-0.4-0.1-0.6-0.1c-1,0-1.7,0.6-1.7,1.8v4.4h-2.2V468h2.1v0.9
					c0.5-0.8,1.3-1.1,2.3-1.1c0.5,0,1,0.1,1.2,0.4L291.1,469.9z"/>
				<path id="XMLID_237_" class="st7" d="M299.8,472c0,0.3,0,0.6,0,0.7H294c0.2,1.2,1.1,1.7,2.1,1.7c0.7,0,1.5-0.3,2.1-0.8l1.3,1.4
					c-0.9,0.8-2.1,1.2-3.5,1.2c-2.5,0-4.2-1.7-4.2-4.2c0-2.6,1.7-4.3,4.1-4.3C298.2,467.8,299.8,469.5,299.8,472z M294,471.3h3.6
					c-0.2-1-0.8-1.6-1.8-1.6C294.8,469.6,294.2,470.3,294,471.3z"/>
				<path id="XMLID_234_" class="st7" d="M308.5,472c0,0.3,0,0.6,0,0.7h-5.8c0.2,1.2,1.1,1.7,2.1,1.7c0.7,0,1.5-0.3,2.1-0.8l1.3,1.4
					c-0.9,0.8-2.1,1.2-3.5,1.2c-2.5,0-4.2-1.7-4.2-4.2c0-2.6,1.7-4.3,4.1-4.3C306.8,467.8,308.4,469.5,308.5,472z M302.7,471.3h3.6
					c-0.2-1-0.8-1.6-1.8-1.6C303.5,469.6,302.9,470.3,302.7,471.3z"/>
				<path id="XMLID_231_" class="st7" d="M317.9,472c0,2.4-1.7,4.3-3.9,4.3c-1.1,0-1.9-0.4-2.4-1.1v4.2h-2.2V468h2.1v0.9
					c0.5-0.7,1.3-1.1,2.4-1.1C316.2,467.8,317.9,469.6,317.9,472z M311.5,472c0,1.3,0.8,2.2,2.1,2.2c1.3,0,2.1-1,2.1-2.2
					c0-1.2-0.8-2.2-2.1-2.2C312.3,469.8,311.5,470.7,311.5,472z"/>
				<path id="XMLID_228_" class="st7" d="M321.4,465.3c0,0.8-0.6,1.4-1.4,1.4c-0.8,0-1.4-0.6-1.4-1.4c0-0.8,0.6-1.4,1.4-1.4
					C320.8,463.9,321.4,464.5,321.4,465.3z M321.1,476.1h-2.2V468h2.2V476.1z"/>
				<path id="XMLID_226_" class="st7" d="M324.8,470.9l3.1-2.9h2.7l-3.9,3.8l4,4.3h-2.7l-3.1-3.3v3.3h-2.2V464h2.2V470.9z"/>
			</g>
			<g>
				<path class="st7" d="M175.7,476v-1.2c-0.6,0.8-1.6,1.4-2.7,1.4c-2.1,0-3.6-1.6-3.6-4.2c0-2.6,1.5-4.2,3.6-4.2
					c1.1,0,2.1,0.5,2.7,1.4V465h1.2V476H175.7z M175.7,473.8v-3.6c-0.4-0.7-1.4-1.3-2.4-1.3c-1.6,0-2.6,1.3-2.6,3.1
					c0,1.8,1,3.1,2.6,3.1C174.3,475.1,175.3,474.5,175.7,473.8z"/>
				<path class="st7" d="M178.6,472c0-2.3,1.7-4.2,3.9-4.2c2.4,0,3.8,1.9,3.8,4.3v0.3h-6.5c0.1,1.5,1.2,2.8,2.9,2.8
					c0.9,0,1.8-0.4,2.5-1l0.6,0.8c-0.8,0.8-1.9,1.2-3.2,1.2C180.3,476.2,178.6,474.5,178.6,472z M182.5,468.8
					c-1.7,0-2.6,1.4-2.6,2.7h5.3C185.1,470.3,184.3,468.8,182.5,468.8z"/>
				<path class="st7" d="M187.3,475l0.6-0.9c0.5,0.6,1.5,1.1,2.6,1.1c1.2,0,1.9-0.6,1.9-1.4c0-1.9-5-0.7-5-3.7c0-1.2,1.1-2.3,3-2.3
					c1.4,0,2.3,0.5,3,1.2l-0.6,0.9c-0.5-0.6-1.4-1-2.4-1c-1.1,0-1.8,0.5-1.8,1.3c0,1.8,5,0.6,5,3.7c0,1.3-1.1,2.4-3.2,2.4
					C189.2,476.2,188.1,475.8,187.3,475z"/>
				<path class="st7" d="M195.1,466c0-0.5,0.4-0.8,0.8-0.8c0.5,0,0.8,0.4,0.8,0.8c0,0.5-0.4,0.8-0.8,0.8
					C195.4,466.9,195.1,466.5,195.1,466z M195.3,476v-8h1.2v8H195.3z"/>
				<path class="st7" d="M198.6,478.1l0.6-0.9c0.7,0.8,1.5,1.1,2.6,1.1c1.3,0,2.6-0.6,2.6-2.4v-1.1c-0.6,0.8-1.6,1.4-2.7,1.4
					c-2.1,0-3.6-1.6-3.6-4.1c0-2.6,1.5-4.2,3.6-4.2c1.1,0,2,0.5,2.7,1.4V468h1.2v7.8c0,2.7-1.9,3.5-3.8,3.5
					C200.4,479.3,199.5,479,198.6,478.1z M204.4,473.7v-3.5c-0.4-0.7-1.4-1.3-2.4-1.3c-1.6,0-2.6,1.3-2.6,3.1c0,1.8,1,3.1,2.6,3.1
					C203,475,203.9,474.4,204.4,473.7z"/>
				<path class="st7" d="M213.1,476v-5.2c0-1.4-0.7-1.9-1.8-1.9c-1,0-1.9,0.6-2.4,1.2v5.9h-1.2v-8h1.2v1.2c0.6-0.7,1.7-1.4,2.9-1.4
					c1.7,0,2.6,0.8,2.6,2.6v5.6H213.1z"/>
				<path class="st7" d="M216,472c0-2.3,1.7-4.2,3.9-4.2c2.4,0,3.8,1.9,3.8,4.3v0.3h-6.5c0.1,1.5,1.2,2.8,2.9,2.8
					c0.9,0,1.8-0.4,2.5-1l0.6,0.8c-0.8,0.8-1.9,1.2-3.2,1.2C217.7,476.2,216,474.5,216,472z M219.9,468.8c-1.7,0-2.6,1.4-2.6,2.7
					h5.3C222.5,470.3,221.7,468.8,219.9,468.8z"/>
				<path class="st7" d="M231.1,476v-1.2c-0.6,0.8-1.6,1.4-2.7,1.4c-2.1,0-3.6-1.6-3.6-4.2c0-2.6,1.5-4.2,3.6-4.2
					c1.1,0,2.1,0.5,2.7,1.4V465h1.2V476H231.1z M231.1,473.8v-3.6c-0.4-0.7-1.4-1.3-2.4-1.3c-1.6,0-2.6,1.3-2.6,3.1
					c0,1.8,1,3.1,2.6,3.1C229.7,475.1,230.7,474.5,231.1,473.8z"/>
				<path class="st7" d="M238.3,476V465h1.2v4.3c0.6-0.9,1.6-1.4,2.7-1.4c2.1,0,3.6,1.7,3.6,4.2c0,2.6-1.5,4.2-3.6,4.2
					c-1.1,0-2.1-0.6-2.7-1.4v1.2H238.3z M242,475.1c1.6,0,2.6-1.3,2.6-3.1c0-1.8-1-3.1-2.6-3.1c-1,0-2,0.6-2.4,1.3v3.6
					C240,474.5,241,475.1,242,475.1z"/>
				<path class="st7" d="M247.2,478c0.2,0.1,0.5,0.1,0.7,0.1c0.5,0,0.9-0.2,1.2-0.8l0.5-1.2l-3.4-8.1h1.3l2.7,6.6l2.7-6.6h1.4
					l-4,9.6c-0.5,1.2-1.3,1.6-2.4,1.6c-0.3,0-0.7,0-0.9-0.1L247.2,478z"/>
			</g>
		</g>
	</g>
</g>
</svg>
