<?xml version="1.0" encoding="utf-8"?>
<!-- Generator: Adobe Illustrator 22.0.1, SVG Export Plug-In . SVG Version: 6.00 Build 0)  -->
<svg version="1.1" xmlns="http://www.w3.org/2000/svg" xmlns:xlink="http://www.w3.org/1999/xlink" x="0px" y="0px"
	 viewBox="0 0 800 800" style="enable-background:new 0 0 800 800;" xml:space="preserve">
<style type="text/css">
	.st0{display:none;fill:url(#SVGID_1_);}
	.st1{display:none;}
	.st2{display:inline;}
	.st3{fill:#9E9478;}
	.st4{opacity:0.4;fill:url(#SVGID_2_);}
	.st5{fill:#6E5C0E;}
	.st6{opacity:0.2;fill:#FAFFB7;}
	.st7{fill:#796007;}
	.st8{fill:#BD9115;}
	.st9{fill:#FFBD06;}
	.st10{clip-path:url(#XMLID_6_);}
	.st11{opacity:0.8;}
	.st12{fill:#FFB908;}
	.st13{fill:#FFE165;}
	.st14{fill:#F7B848;}
	.st15{fill:#FBD258;}
	.st16{fill:#FDC44F;}
	.st17{fill:#FCBE5A;}
	.st18{fill:#C97D2F;}
	.st19{fill:#FFEDA3;}
	.st20{fill:#FDC74A;}
	.st21{fill:#FBC74A;}
	.st22{fill:#FDD55B;}
	.st23{fill:#FBC256;}
	.st24{fill:#FBB352;}
	.st25{fill:#FDD35A;}
	.st26{fill:#FCCF53;}
	.st27{fill:#FCD055;}
	.st28{fill:#FCD057;}
	.st29{fill:#FFCA56;}
	.st30{fill:#FDCB61;}
	.st31{fill:#F5AD58;}
	.st32{fill:#FFCE62;}
	.st33{fill:#FBB960;}
	.st34{fill:#FABC5F;}
	.st35{fill:#FBC158;}
	.st36{opacity:0.2;}
	.st37{opacity:0.3;fill:#FAFFB7;}
	.st38{opacity:0.4;fill:#FAFFB7;}
	.st39{opacity:0.7;fill:#FAFFB7;}
	.st40{fill:#FFFFFF;}
	.st41{opacity:0.4;fill:#FFFFFF;}
	.st42{fill:none;stroke:#D3C5A0;stroke-width:2;stroke-linecap:round;stroke-linejoin:round;stroke-miterlimit:10;}
	.st43{clip-path:url(#XMLID_7_);}
	.st44{fill:none;stroke:#D3C5A0;stroke-width:2;stroke-miterlimit:10;}
	.st45{fill:#FFFFFF;stroke:#D3C5A0;stroke-width:2;stroke-linecap:round;stroke-linejoin:round;stroke-miterlimit:10;}
	.st46{clip-path:url(#XMLID_8_);}
	.st47{fill:none;stroke:#D3C5A0;stroke-width:2;stroke-linecap:round;stroke-miterlimit:10;}
	.st48{fill:#D3C5A0;}
	.st49{fill:none;stroke:#D3C5A0;stroke-width:2;stroke-linejoin:round;stroke-miterlimit:10;}
	.st50{fill:#FFFFFF;stroke:#D3C5A0;stroke-width:1.7861;stroke-linecap:round;stroke-linejoin:round;stroke-miterlimit:10;}
	.st51{clip-path:url(#SVGID_4_);}
	.st52{clip-path:url(#SVGID_6_);}
</style>
<g id="Background">
	<radialGradient id="SVGID_1_" cx="400" cy="400" r="400" gradientUnits="userSpaceOnUse">
		<stop  offset="0.5197" style="stop-color:#FFFFFF"/>
		<stop  offset="0.6812" style="stop-color:#FBFBF5"/>
		<stop  offset="0.9931" style="stop-color:#F4F6E6"/>
	</radialGradient>
	<rect class="st0" width="800" height="800"/>
</g>
<g id="Objects">
	<g class="st1">
		<g class="st2">
			<path class="st3" d="M288.5,781.6v-0.3c-0.3,0.4-0.7,0.7-1,1c-0.3,0.3-0.7,0.4-1.1,0.6c-0.4,0.1-0.8,0.2-1.3,0.2
				c-0.6,0-1.2-0.1-1.7-0.4c-0.5-0.3-1-0.6-1.4-1.1c-0.4-0.5-0.7-1.1-0.9-1.7c-0.2-0.7-0.3-1.4-0.3-2.1c0-1.6,0.4-2.9,1.2-3.8
				c0.8-0.9,1.8-1.4,3.1-1.4c0.7,0,1.4,0.1,1.9,0.4c0.5,0.3,1,0.7,1.5,1.2v-3.8c0-0.5,0.1-0.9,0.3-1.2c0.2-0.3,0.5-0.4,0.9-0.4
				c0.4,0,0.7,0.1,0.9,0.4c0.2,0.3,0.3,0.6,0.3,1.1v11.4c0,0.5-0.1,0.9-0.3,1.1c-0.2,0.2-0.5,0.4-0.9,0.4c-0.4,0-0.6-0.1-0.9-0.4
				C288.6,782.4,288.5,782.1,288.5,781.6z M283.4,777.8c0,0.7,0.1,1.3,0.3,1.8c0.2,0.5,0.5,0.9,0.9,1.1c0.4,0.3,0.8,0.4,1.2,0.4
				c0.5,0,0.9-0.1,1.2-0.4c0.4-0.2,0.7-0.6,0.9-1.1c0.2-0.5,0.3-1.1,0.3-1.8c0-0.7-0.1-1.3-0.3-1.8c-0.2-0.5-0.5-0.9-0.9-1.1
				c-0.4-0.3-0.8-0.4-1.3-0.4c-0.5,0-0.9,0.1-1.3,0.4c-0.4,0.3-0.7,0.7-0.9,1.2C283.5,776.5,283.4,777.1,283.4,777.8z"/>
			<path class="st3" d="M299.9,778.5h-5.1c0,0.6,0.1,1.1,0.4,1.6c0.2,0.4,0.5,0.8,0.9,1c0.4,0.2,0.8,0.3,1.3,0.3
				c0.3,0,0.6,0,0.9-0.1c0.3-0.1,0.5-0.2,0.7-0.3c0.2-0.2,0.5-0.3,0.7-0.5c0.2-0.2,0.5-0.4,0.8-0.7c0.1-0.1,0.3-0.2,0.6-0.2
				c0.3,0,0.5,0.1,0.6,0.2c0.2,0.1,0.2,0.3,0.2,0.6c0,0.2-0.1,0.5-0.3,0.8c-0.2,0.3-0.5,0.6-0.8,0.9c-0.4,0.3-0.8,0.5-1.4,0.7
				c-0.6,0.2-1.2,0.3-1.9,0.3c-1.7,0-3-0.5-3.9-1.4c-0.9-0.9-1.4-2.2-1.4-3.9c0-0.8,0.1-1.5,0.3-2.1c0.2-0.7,0.6-1.2,1-1.7
				c0.4-0.5,1-0.8,1.6-1.1c0.6-0.3,1.3-0.4,2.1-0.4c1,0,1.9,0.2,2.6,0.6c0.7,0.4,1.3,1,1.6,1.7c0.4,0.7,0.5,1.4,0.5,2.1
				c0,0.7-0.2,1.1-0.6,1.3C301.1,778.4,300.6,778.5,299.9,778.5z M294.9,777h4.7c-0.1-0.9-0.3-1.6-0.7-2c-0.4-0.4-1-0.7-1.6-0.7
				c-0.6,0-1.2,0.2-1.6,0.7C295.2,775.4,294.9,776.1,294.9,777z"/>
			<path class="st3" d="M311.7,779.7c0,0.7-0.2,1.3-0.5,1.8c-0.3,0.5-0.9,0.9-1.5,1.2c-0.7,0.3-1.5,0.4-2.5,0.4
				c-0.9,0-1.7-0.1-2.4-0.4c-0.7-0.3-1.2-0.6-1.5-1.1c-0.3-0.4-0.5-0.9-0.5-1.3c0-0.3,0.1-0.5,0.3-0.7c0.2-0.2,0.5-0.3,0.8-0.3
				c0.3,0,0.5,0.1,0.6,0.2s0.3,0.3,0.4,0.6c0.3,0.5,0.6,0.8,1,1c0.4,0.2,0.9,0.3,1.5,0.3c0.5,0,0.9-0.1,1.3-0.3
				c0.3-0.2,0.5-0.5,0.5-0.8c0-0.5-0.2-0.8-0.5-1c-0.3-0.2-0.9-0.4-1.7-0.6c-0.9-0.2-1.6-0.5-2.2-0.7c-0.6-0.2-1-0.6-1.3-1
				c-0.3-0.4-0.5-0.9-0.5-1.5c0-0.5,0.2-1,0.5-1.5c0.3-0.5,0.8-0.8,1.4-1.1c0.6-0.3,1.3-0.4,2.2-0.4c0.7,0,1.3,0.1,1.8,0.2
				c0.5,0.1,1,0.3,1.3,0.6c0.4,0.2,0.6,0.5,0.8,0.8c0.2,0.3,0.3,0.6,0.3,0.8c0,0.3-0.1,0.5-0.3,0.7c-0.2,0.2-0.5,0.3-0.9,0.3
				c-0.3,0-0.5-0.1-0.7-0.2c-0.2-0.2-0.4-0.4-0.6-0.7c-0.2-0.3-0.4-0.5-0.7-0.6c-0.3-0.2-0.6-0.2-1.1-0.2c-0.5,0-0.9,0.1-1.2,0.3
				c-0.3,0.2-0.5,0.4-0.5,0.7c0,0.3,0.1,0.5,0.3,0.7c0.2,0.2,0.5,0.3,0.9,0.4c0.4,0.1,0.9,0.3,1.6,0.4c0.8,0.2,1.5,0.4,2,0.7
				c0.5,0.3,0.9,0.6,1.2,1C311.6,778.8,311.7,779.2,311.7,779.7z"/>
			<path class="st3" d="M314.4,771.3c-0.4,0-0.7-0.1-0.9-0.3c-0.3-0.2-0.4-0.5-0.4-0.9c0-0.4,0.1-0.7,0.4-0.9
				c0.3-0.2,0.6-0.4,0.9-0.4c0.3,0,0.6,0.1,0.9,0.3c0.3,0.2,0.4,0.5,0.4,0.9c0,0.4-0.1,0.7-0.4,0.9
				C315,771.2,314.7,771.3,314.4,771.3z M315.7,774v7.5c0,0.5-0.1,0.9-0.4,1.2c-0.2,0.3-0.6,0.4-0.9,0.4c-0.4,0-0.7-0.1-0.9-0.4
				c-0.2-0.3-0.4-0.7-0.4-1.2v-7.4c0-0.5,0.1-0.9,0.4-1.2c0.2-0.3,0.5-0.4,0.9-0.4c0.4,0,0.7,0.1,0.9,0.4
				C315.5,773.2,315.7,773.6,315.7,774z"/>
			<path class="st3" d="M327,774.4v7.5c0,0.9-0.1,1.6-0.3,2.2c-0.2,0.6-0.5,1.1-0.9,1.5c-0.4,0.4-0.9,0.7-1.6,0.9
				c-0.7,0.2-1.5,0.3-2.4,0.3c-0.9,0-1.7-0.1-2.4-0.4c-0.7-0.3-1.2-0.6-1.6-1c-0.4-0.4-0.6-0.8-0.6-1.2c0-0.3,0.1-0.6,0.3-0.8
				c0.2-0.2,0.5-0.3,0.8-0.3c0.4,0,0.7,0.2,1,0.5c0.1,0.2,0.3,0.3,0.4,0.5c0.1,0.2,0.3,0.3,0.5,0.4c0.2,0.1,0.4,0.2,0.7,0.3
				c0.3,0.1,0.5,0.1,0.9,0.1c0.7,0,1.2-0.1,1.6-0.3c0.4-0.2,0.6-0.4,0.8-0.8c0.1-0.3,0.2-0.7,0.3-1.1c0-0.4,0-1,0.1-1.8
				c-0.4,0.6-0.9,1-1.4,1.3c-0.5,0.3-1.1,0.4-1.9,0.4c-0.9,0-1.6-0.2-2.3-0.7c-0.6-0.4-1.1-1.1-1.5-1.9c-0.3-0.8-0.5-1.7-0.5-2.8
				c0-0.8,0.1-1.5,0.3-2.1c0.2-0.6,0.5-1.2,0.9-1.6c0.4-0.4,0.8-0.8,1.4-1c0.5-0.2,1.1-0.3,1.7-0.3c0.7,0,1.4,0.1,1.9,0.4
				c0.5,0.3,1,0.7,1.5,1.3V774c0-0.4,0.1-0.8,0.3-1c0.2-0.2,0.5-0.4,0.9-0.4c0.5,0,0.8,0.2,1,0.5C326.9,773.4,327,773.8,327,774.4z
				 M319.5,777.7c0,1.1,0.2,1.8,0.7,2.4c0.5,0.5,1.1,0.8,1.8,0.8c0.4,0,0.8-0.1,1.2-0.3c0.4-0.2,0.7-0.6,0.9-1
				c0.2-0.5,0.4-1,0.4-1.7c0-1.1-0.2-1.9-0.7-2.5c-0.5-0.6-1.1-0.9-1.8-0.9c-0.7,0-1.3,0.3-1.8,0.8
				C319.7,775.9,319.5,776.7,319.5,777.7z"/>
			<path class="st3" d="M331.2,774v0.3c0.5-0.6,1-1,1.5-1.3c0.5-0.3,1.2-0.4,1.9-0.4c0.7,0,1.3,0.2,1.8,0.4c0.5,0.3,0.9,0.7,1.2,1.3
				c0.2,0.3,0.3,0.7,0.3,1c0.1,0.4,0.1,0.8,0.1,1.4v4.8c0,0.5-0.1,0.9-0.4,1.2c-0.2,0.3-0.5,0.4-0.9,0.4c-0.4,0-0.7-0.1-0.9-0.4
				c-0.2-0.3-0.4-0.7-0.4-1.2v-4.3c0-0.9-0.1-1.5-0.4-2c-0.2-0.5-0.7-0.7-1.4-0.7c-0.5,0-0.9,0.1-1.3,0.4s-0.7,0.7-0.8,1.1
				c-0.1,0.4-0.2,1.1-0.2,2.2v3.2c0,0.5-0.1,0.9-0.4,1.2c-0.2,0.3-0.6,0.4-0.9,0.4c-0.4,0-0.7-0.1-0.9-0.4c-0.2-0.3-0.4-0.7-0.4-1.2
				V774c0-0.5,0.1-0.9,0.3-1.1c0.2-0.2,0.5-0.4,0.9-0.4c0.2,0,0.4,0.1,0.6,0.2c0.2,0.1,0.3,0.3,0.4,0.5
				C331.1,773.4,331.2,773.7,331.2,774z"/>
			<path class="st3" d="M346.9,778.5h-5.1c0,0.6,0.1,1.1,0.4,1.6c0.2,0.4,0.5,0.8,0.9,1c0.4,0.2,0.8,0.3,1.3,0.3
				c0.3,0,0.6,0,0.9-0.1c0.3-0.1,0.5-0.2,0.7-0.3c0.2-0.2,0.5-0.3,0.7-0.5c0.2-0.2,0.5-0.4,0.8-0.7c0.1-0.1,0.3-0.2,0.6-0.2
				c0.3,0,0.5,0.1,0.6,0.2c0.2,0.1,0.2,0.3,0.2,0.6c0,0.2-0.1,0.5-0.3,0.8c-0.2,0.3-0.5,0.6-0.8,0.9c-0.4,0.3-0.8,0.5-1.4,0.7
				c-0.6,0.2-1.2,0.3-1.9,0.3c-1.7,0-3-0.5-3.9-1.4c-0.9-0.9-1.4-2.2-1.4-3.9c0-0.8,0.1-1.5,0.3-2.1c0.2-0.7,0.6-1.2,1-1.7
				c0.4-0.5,1-0.8,1.6-1.1s1.3-0.4,2.1-0.4c1,0,1.9,0.2,2.6,0.6c0.7,0.4,1.3,1,1.6,1.7c0.4,0.7,0.5,1.4,0.5,2.1
				c0,0.7-0.2,1.1-0.6,1.3C348.1,778.4,347.6,778.5,346.9,778.5z M341.9,777h4.7c-0.1-0.9-0.3-1.6-0.7-2c-0.4-0.4-1-0.7-1.6-0.7
				c-0.6,0-1.2,0.2-1.6,0.7C342.2,775.4,341.9,776.1,341.9,777z"/>
			<path class="st3" d="M357.5,781.6v-0.3c-0.3,0.4-0.7,0.7-1,1c-0.3,0.3-0.7,0.4-1.1,0.6c-0.4,0.1-0.8,0.2-1.3,0.2
				c-0.6,0-1.2-0.1-1.7-0.4c-0.5-0.3-1-0.6-1.4-1.1c-0.4-0.5-0.7-1.1-0.9-1.7c-0.2-0.7-0.3-1.4-0.3-2.1c0-1.6,0.4-2.9,1.2-3.8
				c0.8-0.9,1.8-1.4,3.1-1.4c0.7,0,1.4,0.1,1.9,0.4c0.5,0.3,1,0.7,1.5,1.2v-3.8c0-0.5,0.1-0.9,0.3-1.2c0.2-0.3,0.5-0.4,0.9-0.4
				c0.4,0,0.7,0.1,0.9,0.4c0.2,0.3,0.3,0.6,0.3,1.1v11.4c0,0.5-0.1,0.9-0.3,1.1c-0.2,0.2-0.5,0.4-0.9,0.4c-0.4,0-0.6-0.1-0.9-0.4
				C357.6,782.4,357.5,782.1,357.5,781.6z M352.4,777.8c0,0.7,0.1,1.3,0.3,1.8c0.2,0.5,0.5,0.9,0.9,1.1c0.4,0.3,0.8,0.4,1.2,0.4
				c0.5,0,0.9-0.1,1.2-0.4c0.4-0.2,0.7-0.6,0.9-1.1c0.2-0.5,0.3-1.1,0.3-1.8c0-0.7-0.1-1.3-0.3-1.8c-0.2-0.5-0.5-0.9-0.9-1.1
				c-0.4-0.3-0.8-0.4-1.3-0.4c-0.5,0-0.9,0.1-1.3,0.4c-0.4,0.3-0.7,0.7-0.9,1.2C352.5,776.5,352.4,777.1,352.4,777.8z"/>
			<path class="st3" d="M368.1,770.2v4c0.5-0.5,1-0.9,1.5-1.2c0.5-0.3,1.1-0.4,1.9-0.4c0.9,0,1.6,0.2,2.3,0.6c0.6,0.4,1.2,1,1.5,1.8
				c0.4,0.8,0.5,1.7,0.5,2.8c0,0.8-0.1,1.5-0.3,2.2c-0.2,0.7-0.5,1.2-0.9,1.7c-0.4,0.5-0.8,0.9-1.4,1.1c-0.5,0.3-1.1,0.4-1.8,0.4
				c-0.4,0-0.8,0-1.1-0.1c-0.4-0.1-0.7-0.2-0.9-0.4c-0.2-0.2-0.5-0.3-0.6-0.5c-0.2-0.2-0.4-0.4-0.7-0.7v0.3c0,0.5-0.1,0.9-0.4,1.1
				c-0.2,0.3-0.5,0.4-0.9,0.4c-0.4,0-0.7-0.1-0.9-0.4c-0.2-0.3-0.3-0.6-0.3-1.1v-11.3c0-0.5,0.1-0.9,0.3-1.2
				c0.2-0.3,0.5-0.4,0.9-0.4c0.4,0,0.7,0.1,0.9,0.4C368,769.3,368.1,769.7,368.1,770.2z M368.2,777.9c0,1,0.2,1.8,0.7,2.4
				c0.5,0.6,1.1,0.8,1.9,0.8c0.7,0,1.2-0.3,1.7-0.9c0.5-0.6,0.7-1.4,0.7-2.4c0-0.7-0.1-1.3-0.3-1.8c-0.2-0.5-0.5-0.9-0.8-1.1
				c-0.4-0.3-0.8-0.4-1.3-0.4c-0.5,0-0.9,0.1-1.3,0.4c-0.4,0.3-0.7,0.7-0.9,1.2C368.3,776.6,368.2,777.2,368.2,777.9z"/>
			<path class="st3" d="M379.1,783.4l0.2-0.6l-3.2-8c-0.2-0.5-0.3-0.8-0.3-1c0-0.2,0.1-0.4,0.2-0.6c0.1-0.2,0.3-0.3,0.5-0.5
				c0.2-0.1,0.4-0.2,0.6-0.2c0.4,0,0.7,0.1,0.8,0.4c0.2,0.2,0.4,0.6,0.5,1l2.2,6.4l2.1-5.9c0.2-0.5,0.3-0.9,0.4-1.1
				c0.1-0.3,0.3-0.5,0.4-0.5c0.1-0.1,0.4-0.1,0.6-0.1c0.2,0,0.4,0.1,0.6,0.2c0.2,0.1,0.3,0.2,0.4,0.4c0.1,0.2,0.1,0.4,0.1,0.6
				c0,0.1-0.1,0.3-0.1,0.5c-0.1,0.2-0.1,0.4-0.2,0.7l-3.4,8.9c-0.3,0.8-0.6,1.4-0.9,1.8c-0.3,0.4-0.6,0.8-1.1,1
				c-0.5,0.2-1.1,0.4-1.9,0.4c-0.8,0-1.3-0.1-1.7-0.2c-0.4-0.2-0.6-0.5-0.6-0.9c0-0.3,0.1-0.5,0.3-0.7c0.2-0.2,0.4-0.2,0.8-0.2
				c0.1,0,0.3,0,0.4,0.1c0.2,0,0.3,0.1,0.4,0.1c0.3,0,0.5,0,0.7-0.1c0.2-0.1,0.3-0.2,0.5-0.5C378.8,784.2,379,783.8,379.1,783.4z"/>
		</g>
		<g class="st2">
			<path class="st3" d="M416.7,772.8h0.6V772c0-0.8,0.1-1.5,0.3-1.9c0.2-0.5,0.6-0.8,1-1c0.5-0.2,1.2-0.3,2-0.3
				c1.5,0,2.3,0.4,2.3,1.1c0,0.2-0.1,0.4-0.2,0.6c-0.2,0.2-0.3,0.3-0.6,0.3c-0.1,0-0.3,0-0.5-0.1c-0.2,0-0.5-0.1-0.6-0.1
				c-0.5,0-0.8,0.1-0.9,0.4c-0.1,0.3-0.2,0.7-0.2,1.2v0.6h0.6c1,0,1.5,0.3,1.5,0.9c0,0.4-0.1,0.7-0.4,0.8c-0.3,0.1-0.6,0.2-1.1,0.2
				h-0.6v6.9c0,0.5-0.1,0.9-0.4,1.2c-0.2,0.3-0.6,0.4-0.9,0.4c-0.4,0-0.7-0.1-0.9-0.4c-0.2-0.3-0.4-0.7-0.4-1.2v-6.9h-0.7
				c-0.4,0-0.7-0.1-0.9-0.3c-0.2-0.2-0.3-0.4-0.3-0.7C415.4,773.1,415.8,772.8,416.7,772.8"/>
			<path class="st3" d="M425.2,779.3v2.2c0,0.5-0.1,0.9-0.4,1.2c-0.2,0.3-0.6,0.4-0.9,0.4c-0.4,0-0.7-0.1-0.9-0.4
				c-0.2-0.3-0.4-0.7-0.4-1.2v-7.2c0-1.2,0.4-1.7,1.3-1.7c0.4,0,0.7,0.1,0.9,0.4c0.2,0.3,0.3,0.7,0.3,1.2c0.3-0.5,0.6-0.9,0.9-1.2
				c0.3-0.3,0.8-0.4,1.3-0.4c0.5,0,1.1,0.1,1.6,0.4c0.5,0.3,0.8,0.6,0.8,1.1c0,0.3-0.1,0.6-0.3,0.8c-0.2,0.2-0.5,0.3-0.7,0.3
				c-0.1,0-0.3-0.1-0.7-0.2c-0.4-0.1-0.7-0.2-1-0.2c-0.4,0-0.7,0.1-0.9,0.3c-0.2,0.2-0.4,0.5-0.6,0.9c-0.1,0.4-0.2,0.9-0.3,1.4
				C425.2,777.9,425.2,778.6,425.2,779.3"/>
			<path class="st3" d="M437.1,778.5H432c0,0.6,0.1,1.1,0.4,1.6c0.2,0.4,0.5,0.8,0.9,1c0.4,0.2,0.8,0.3,1.3,0.3c0.3,0,0.6,0,0.8-0.1
				c0.3-0.1,0.5-0.2,0.7-0.3c0.2-0.2,0.5-0.3,0.7-0.5c0.2-0.2,0.5-0.4,0.8-0.7c0.1-0.1,0.3-0.2,0.6-0.2c0.3,0,0.5,0.1,0.6,0.2
				c0.2,0.1,0.2,0.3,0.2,0.6c0,0.2-0.1,0.5-0.3,0.8c-0.2,0.3-0.5,0.6-0.8,0.9c-0.4,0.3-0.8,0.5-1.4,0.7c-0.6,0.2-1.2,0.3-1.9,0.3
				c-1.7,0-3-0.5-3.9-1.4c-0.9-1-1.4-2.2-1.4-3.9c0-0.8,0.1-1.5,0.3-2.1c0.2-0.7,0.6-1.2,1-1.7c0.4-0.5,1-0.8,1.6-1.1
				c0.6-0.3,1.3-0.4,2.1-0.4c1,0,1.9,0.2,2.6,0.6c0.7,0.4,1.3,1,1.6,1.7c0.4,0.7,0.5,1.4,0.5,2.1c0,0.6-0.2,1.1-0.6,1.3
				C438.3,778.4,437.8,778.5,437.1,778.5 M432,777h4.7c-0.1-0.9-0.3-1.5-0.7-2c-0.4-0.4-1-0.7-1.6-0.7c-0.6,0-1.2,0.2-1.6,0.7
				C432.4,775.4,432.1,776.1,432,777"/>
			<path class="st3" d="M447.9,778.5h-5.1c0,0.6,0.1,1.1,0.4,1.6c0.2,0.4,0.5,0.8,0.9,1c0.4,0.2,0.8,0.3,1.3,0.3
				c0.3,0,0.6,0,0.8-0.1c0.3-0.1,0.5-0.2,0.8-0.3c0.2-0.2,0.5-0.3,0.7-0.5c0.2-0.2,0.5-0.4,0.8-0.7c0.1-0.1,0.3-0.2,0.6-0.2
				c0.3,0,0.5,0.1,0.7,0.2c0.2,0.1,0.2,0.3,0.2,0.6c0,0.2-0.1,0.5-0.3,0.8c-0.2,0.3-0.5,0.6-0.8,0.9c-0.4,0.3-0.8,0.5-1.4,0.7
				c-0.6,0.2-1.2,0.3-1.9,0.3c-1.7,0-3-0.5-3.9-1.4c-0.9-1-1.4-2.2-1.4-3.9c0-0.8,0.1-1.5,0.3-2.1c0.2-0.7,0.6-1.2,1-1.7
				c0.4-0.5,1-0.8,1.6-1.1c0.6-0.3,1.4-0.4,2.1-0.4c1,0,1.9,0.2,2.6,0.6c0.7,0.4,1.3,1,1.6,1.7c0.4,0.7,0.5,1.4,0.5,2.1
				c0,0.6-0.2,1.1-0.6,1.3C449.1,778.4,448.6,778.5,447.9,778.5 M442.8,777h4.7c-0.1-0.9-0.3-1.5-0.7-2c-0.4-0.4-1-0.7-1.6-0.7
				c-0.6,0-1.2,0.2-1.6,0.7C443.2,775.4,442.9,776.1,442.8,777"/>
			<path class="st3" d="M453.6,774v0.3c0.5-0.6,1-1,1.5-1.3c0.5-0.3,1.1-0.4,1.8-0.4c0.8,0,1.5,0.2,2.2,0.6c0.7,0.4,1.2,1,1.6,1.8
				c0.4,0.8,0.6,1.7,0.6,2.8c0,0.8-0.1,1.5-0.3,2.2c-0.2,0.7-0.5,1.2-0.9,1.7c-0.4,0.4-0.9,0.8-1.4,1c-0.5,0.2-1.1,0.4-1.7,0.4
				c-0.7,0-1.4-0.1-1.9-0.4c-0.5-0.3-1-0.7-1.4-1.3v3.9c0,1.1-0.4,1.7-1.2,1.7c-0.5,0-0.8-0.1-1-0.4c-0.2-0.3-0.2-0.7-0.2-1.3V774
				c0-0.5,0.1-0.9,0.3-1.1c0.2-0.2,0.5-0.4,0.9-0.4c0.4,0,0.7,0.1,0.9,0.4C453.5,773.2,453.6,773.5,453.6,774 M458.7,777.8
				c0-0.7-0.1-1.3-0.3-1.8c-0.2-0.5-0.5-0.9-0.9-1.1c-0.4-0.3-0.8-0.4-1.2-0.4c-0.7,0-1.3,0.3-1.8,0.8c-0.5,0.6-0.7,1.4-0.7,2.5
				c0,1,0.2,1.8,0.7,2.4c0.5,0.6,1.1,0.9,1.8,0.9c0.4,0,0.8-0.1,1.2-0.4c0.4-0.3,0.7-0.6,0.9-1.1
				C458.6,779.1,458.7,778.5,458.7,777.8"/>
			<path class="st3" d="M463.9,771.3c-0.4,0-0.7-0.1-0.9-0.3c-0.3-0.2-0.4-0.5-0.4-0.9c0-0.4,0.1-0.7,0.4-0.9
				c0.3-0.2,0.6-0.4,0.9-0.4c0.3,0,0.6,0.1,0.9,0.3c0.3,0.2,0.4,0.5,0.4,0.9c0,0.4-0.1,0.7-0.4,0.9
				C464.5,771.2,464.2,771.3,463.9,771.3 M465.2,774v7.5c0,0.5-0.1,0.9-0.4,1.2c-0.3,0.3-0.6,0.4-0.9,0.4c-0.4,0-0.7-0.1-0.9-0.4
				c-0.2-0.3-0.4-0.7-0.4-1.2v-7.4c0-0.5,0.1-0.9,0.4-1.2c0.2-0.3,0.5-0.4,0.9-0.4c0.4,0,0.7,0.1,0.9,0.4
				C465,773.2,465.2,773.6,465.2,774"/>
			<path class="st3" d="M473.5,781.9l-2.3-3.8l-1.4,1.3v2.1c0,0.5-0.1,0.9-0.4,1.1c-0.3,0.3-0.6,0.4-0.9,0.4c-0.4,0-0.7-0.1-0.9-0.4
				c-0.2-0.3-0.3-0.7-0.3-1.2v-11.1c0-0.6,0.1-1,0.3-1.3c0.2-0.3,0.5-0.5,1-0.5c0.4,0,0.7,0.1,0.9,0.4c0.2,0.3,0.4,0.7,0.4,1.2v6.3
				l2.9-3.1c0.4-0.4,0.6-0.6,0.8-0.8c0.2-0.1,0.4-0.2,0.7-0.2c0.3,0,0.6,0.1,0.8,0.3c0.2,0.2,0.3,0.5,0.3,0.8c0,0.4-0.4,0.9-1.1,1.5
				l-1.4,1.3l2.7,4.2c0.2,0.3,0.3,0.5,0.4,0.7c0.1,0.2,0.1,0.3,0.1,0.5c0,0.4-0.1,0.7-0.3,1c-0.2,0.2-0.5,0.4-0.9,0.4
				c-0.3,0-0.6-0.1-0.7-0.3C474.1,782.7,473.8,782.3,473.5,781.9"/>
			<path class="st3" d="M479.2,783.1c-0.4,0-0.7-0.1-1-0.4c-0.3-0.2-0.4-0.6-0.4-1.1c0-0.4,0.1-0.7,0.4-1c0.3-0.3,0.6-0.4,1-0.4
				c0.4,0,0.7,0.1,1,0.4c0.3,0.3,0.4,0.6,0.4,1c0,0.5-0.1,0.8-0.4,1.1C479.9,783,479.5,783.1,479.2,783.1"/>
			<path class="st3" d="M492.1,779.9c0,0.3-0.1,0.7-0.3,1c-0.2,0.4-0.5,0.7-0.9,1.1c-0.4,0.3-0.9,0.6-1.5,0.8
				c-0.6,0.2-1.3,0.3-2,0.3c-1.6,0-2.9-0.5-3.8-1.4c-0.9-0.9-1.3-2.2-1.3-3.8c0-1.1,0.2-2,0.6-2.8c0.4-0.8,1-1.4,1.8-1.9
				c0.8-0.4,1.7-0.7,2.8-0.7c0.7,0,1.3,0.1,1.9,0.3c0.6,0.2,1,0.5,1.4,0.8c0.4,0.3,0.7,0.6,0.9,1c0.2,0.4,0.3,0.7,0.3,1
				c0,0.3-0.1,0.6-0.3,0.8c-0.2,0.2-0.5,0.3-0.8,0.3c-0.2,0-0.4-0.1-0.5-0.2c-0.1-0.1-0.3-0.3-0.5-0.5c-0.3-0.5-0.6-0.8-1-1.1
				c-0.3-0.2-0.8-0.4-1.3-0.4c-0.8,0-1.4,0.3-1.9,0.9c-0.5,0.6-0.7,1.4-0.7,2.5c0,0.5,0.1,0.9,0.2,1.3c0.1,0.4,0.3,0.8,0.5,1
				c0.2,0.3,0.5,0.5,0.8,0.7c0.3,0.2,0.7,0.2,1.1,0.2c0.5,0,1-0.1,1.3-0.4c0.4-0.2,0.7-0.6,1-1.1c0.2-0.3,0.3-0.5,0.5-0.7
				c0.2-0.2,0.4-0.3,0.7-0.3c0.3,0,0.6,0.1,0.8,0.4C492,779.3,492.1,779.6,492.1,779.9"/>
			<path class="st3" d="M503.2,777.8c0,0.8-0.1,1.5-0.4,2.1c-0.2,0.7-0.6,1.2-1,1.7c-0.5,0.5-1,0.8-1.6,1.1
				c-0.6,0.2-1.3,0.4-2.1,0.4c-0.8,0-1.5-0.1-2.1-0.4c-0.6-0.2-1.2-0.6-1.6-1.1c-0.5-0.5-0.8-1-1.1-1.7c-0.2-0.6-0.4-1.4-0.4-2.1
				c0-0.8,0.1-1.5,0.4-2.2c0.2-0.7,0.6-1.2,1-1.7c0.5-0.5,1-0.8,1.6-1.1c0.6-0.2,1.3-0.4,2.1-0.4c0.8,0,1.5,0.1,2.1,0.4
				c0.6,0.3,1.2,0.6,1.6,1.1c0.5,0.5,0.8,1,1,1.7C503.1,776.3,503.2,777,503.2,777.8 M500.6,777.8c0-1.1-0.2-1.9-0.7-2.5
				c-0.5-0.6-1.1-0.9-1.9-0.9c-0.5,0-1,0.1-1.3,0.4c-0.4,0.3-0.7,0.6-0.9,1.2c-0.2,0.5-0.3,1.1-0.3,1.8c0,0.7,0.1,1.3,0.3,1.8
				c0.2,0.5,0.5,0.9,0.9,1.2c0.4,0.3,0.8,0.4,1.4,0.4c0.8,0,1.4-0.3,1.9-0.9C500.4,779.7,500.6,778.9,500.6,777.8"/>
			<path class="st3" d="M513.1,778v3.4c0,0.5-0.1,1-0.4,1.2c-0.3,0.3-0.6,0.4-1,0.4c-0.4,0-0.7-0.1-1-0.4c-0.2-0.3-0.4-0.7-0.4-1.2
				v-4.1c0-0.7,0-1.2-0.1-1.5c0-0.4-0.2-0.7-0.4-0.9c-0.2-0.2-0.5-0.4-0.9-0.4c-0.9,0-1.4,0.3-1.7,0.9c-0.3,0.6-0.4,1.4-0.4,2.5v3.5
				c0,0.5-0.1,0.9-0.4,1.2c-0.2,0.3-0.6,0.4-1,0.4c-0.4,0-0.7-0.1-1-0.4c-0.3-0.3-0.4-0.7-0.4-1.2V774c0-0.5,0.1-0.9,0.3-1.1
				c0.2-0.3,0.5-0.4,0.9-0.4c0.4,0,0.7,0.1,0.9,0.4c0.2,0.2,0.4,0.6,0.4,1v0.2c0.5-0.5,0.9-0.9,1.4-1.2c0.5-0.3,1.1-0.4,1.7-0.4
				c0.7,0,1.2,0.1,1.7,0.4c0.5,0.3,0.9,0.7,1.2,1.2c0.4-0.5,0.9-0.9,1.4-1.2c0.5-0.3,1.1-0.4,1.7-0.4c0.7,0,1.3,0.1,1.8,0.4
				c0.5,0.3,0.9,0.7,1.1,1.2c0.2,0.5,0.3,1.2,0.3,2.2v5.1c0,0.5-0.1,1-0.4,1.2c-0.2,0.3-0.6,0.4-1,0.4c-0.4,0-0.7-0.1-1-0.4
				c-0.3-0.3-0.4-0.7-0.4-1.2v-4.4c0-0.6,0-1-0.1-1.3c0-0.3-0.2-0.6-0.4-0.8c-0.2-0.2-0.5-0.3-1-0.3c-0.3,0-0.7,0.1-1,0.3
				c-0.3,0.2-0.5,0.5-0.7,0.8C513.2,776.1,513.1,776.9,513.1,778"/>
		</g>
		<g class="st2">
			<path class="st3" d="M392.4,777.2C392.4,777.2,392.4,777.2,392.4,777.2C392.4,777.2,392.4,777.2,392.4,777.2z"/>
			<path class="st3" d="M392.6,778C392.6,778,392.6,778,392.6,778c0-0.2-0.1-0.5-0.1-0.7C392.5,777.5,392.5,777.8,392.6,778z"/>
			<path class="st3" d="M393.4,780.4C393.4,780.4,393.4,780.4,393.4,780.4C393.4,780.4,393.4,780.4,393.4,780.4z"/>
			<path class="st3" d="M393.3,780.3c0,0,0-0.1-0.1-0.1C393.3,780.2,393.3,780.2,393.3,780.3z"/>
			<path class="st3" d="M392.8,778.9c0.1,0.4,0.3,0.8,0.5,1.2C393.1,779.7,392.9,779.3,392.8,778.9
				C392.8,778.9,392.8,778.9,392.8,778.9z"/>
			<path class="st3" d="M402.5,767.3c0.5,0,0.9,0,1.3,0.1l0.1-0.8c0,0-1.2-0.4-2.7-0.2l-0.1-0.4c0.5-0.1,0.8-0.5,0.8-1
				c0-0.6-0.5-1.1-1.1-1.1s-1.1,0.5-1.1,1.1c0,0.5,0.4,0.9,0.8,1l0.1,0.5c-1.6,0.2-2.9,0.9-2.9,0.9l0.2,0.7c1-0.3,1.8-0.5,2.6-0.6
				C401.4,767.3,402,767.3,402.5,767.3z"/>
			<path class="st3" d="M393.4,771.1L393.4,771.1c0-0.1,0.1-0.1,0.1-0.2l-0.3-0.2l-0.5-0.4c0,0-0.8,0.7-1.4,2c0,0-0.1-0.1-0.1-0.1
				c-0.2-0.2-0.4-0.3-0.8-0.3c0,0,0,0,0,0c-0.2,0-0.3-0.1-0.4-0.1c0.1-0.1,0.1-0.3,0.1-0.4c0-0.4-0.3-0.7-0.7-0.7
				c-0.4,0-0.7,0.3-0.7,0.7c0,0.4,0.3,0.7,0.7,0.7c0.1,0,0.1,0,0.2,0c0.2,0.2,0.4,0.3,0.8,0.3c0.2,0,0.3,0,0.4,0.2
				c0.1,0.1,0.1,0.3,0.2,0.4c0,0,0,0,0,0c-0.4,1.2-0.3,2.7-0.3,2.7l1.1,0c0-0.5,0.1-1.5,0.4-2.2
				C392.7,772.1,393.4,771.1,393.4,771.1z"/>
			<path class="st3" d="M411.7,768.1c-0.4,0-0.7,0.3-0.7,0.7c0,0.1,0,0.1,0,0.2c-0.2,0.2-0.3,0.4-0.3,0.8c0,0.2,0,0.3-0.2,0.4
				c-0.1,0.1-0.2,0.1-0.3,0.1c-0.8-1.1-1.8-1.8-1.8-1.8l-0.8,0.8c0.6,0.5,1.2,1.2,1.7,2c0.4,0.6,0.8,1.3,1.1,2l1-0.5
				c0,0-0.5-1.2-1.1-2.2c0.1,0,0.2-0.1,0.3-0.2c0.2-0.2,0.3-0.4,0.3-0.8c0-0.2,0.1-0.3,0.1-0.4c0.1,0.1,0.3,0.1,0.4,0.1
				c0.4,0,0.7-0.3,0.7-0.7C412.3,768.4,412,768.1,411.7,768.1z"/>
			<path class="st3" d="M409,777.3c-1.4,0.7-3.7,1.6-6.8,2c-1.2,0.2-2.4,0.2-3.4,0.2c-1.4,0-2.6-0.1-3.6-0.2
				c-1.1-0.1-1.9-0.3-2.4-0.4c0.1,0.4,0.3,0.8,0.5,1.2c0,0,0,0,0,0c0,0,0,0.1,0.1,0.1c0,0,0,0.1,0.1,0.1c0,0,0,0,0,0
				c0.3,0.6,0.7,1.1,1.1,1.5c1.4,1.6,2.9,1.8,2.9,1.8l0,0l0,0c0,0,1.3,0.4,3.3,0.4c1.9,0,3.9-0.4,5.7-1.2c1.3-0.7,2.6-1.7,3.3-2.7
				c0.5-0.7,0.8-1.5,1-2.3c0.1-0.4,0.2-1.1,0.1-1.8C410.5,776.5,409.9,776.9,409,777.3z"/>
			<path class="st3" d="M393.9,771.4c0,0.1-0.7,0.9-1.1,2.3c-0.4,1-0.3,2.4-0.3,2.5v0c0,0.3,0,0.7,0.1,1c0,0,0,0,0,0
				c0,0,0,0.1,0,0.1c0,0.2,0.1,0.5,0.1,0.7c0.7,0.2,4.9,1.2,9.5,0.5c2.9-0.4,5.1-1.3,6.5-1.9c1.1-0.5,1.8-1,2.1-1.2
				c-0.3-1-1-2.6-1.7-3.6c-2-2.9-4.2-3.6-5.3-3.8c-0.4-0.1-0.8-0.1-1.2-0.1c-0.4,0-1,0-1.7,0.1c-0.7,0.1-1.6,0.3-2.5,0.6
				c-1.3,0.5-2.6,1.2-3.5,2l0,0C394.5,770.7,394.2,771,393.9,771.4z M406.1,770.8c1,0,1.7,0.8,1.7,1.7c0,1-0.8,1.7-1.7,1.7
				c-1,0-1.7-0.8-1.7-1.7C404.4,771.6,405.2,770.8,406.1,770.8z M397.9,770.7c1.6,0,2.8,1.3,2.8,2.8c0,1.6-1.3,2.8-2.8,2.8
				c-1.6,0-2.8-1.3-2.8-2.8C395.1,772,396.3,770.7,397.9,770.7z"/>
		</g>
	</g>
	<g>
		
			<radialGradient id="SVGID_2_" cx="400.1115" cy="700.1196" r="137.6746" gradientTransform="matrix(0.8228 0 0 0.13 70.7883 609.1041)" gradientUnits="userSpaceOnUse">
			<stop  offset="6.902310e-03" style="stop-color:#66563D"/>
			<stop  offset="0.1107" style="stop-color:#6E5F47;stop-opacity:0.8955"/>
			<stop  offset="0.286" style="stop-color:#837661;stop-opacity:0.719"/>
			<stop  offset="0.5114" style="stop-color:#A49B8C;stop-opacity:0.492"/>
			<stop  offset="0.775" style="stop-color:#D3CEC7;stop-opacity:0.2265"/>
			<stop  offset="1" style="stop-color:#FFFFFF;stop-opacity:0"/>
		</radialGradient>
		<path class="st4" d="M241.3,700.1c0-14.6,71.1-26.4,158.7-26.4c87.7,0,158.7,11.8,158.7,26.4c0,14.6-71.1,26.4-158.7,26.4
			C312.3,726.5,241.3,714.7,241.3,700.1z"/>
		<g>
			<g>
				<g>
					<path class="st5" d="M449.2,644.6l-49.7-1.6l-49.7,1.6c-1.3,3.6,4.6,11.8,11.7,15.3c7.1,3.6,19,8.9,38,8.9
						c19,0,30.9-5.3,38-8.9C444.6,656.4,450.5,648.1,449.2,644.6z"/>
					<path class="st6" d="M352.5,640.8c0.9,12.6,15.7,17.8,24.1,20.8c5.6,2,35,4.8,21.1-3.9c-16.3-10.3-9.4-19-9.4-19L352.5,640.8z"
						/>
				</g>
				<path class="st7" d="M345.2,616.5v5.1c0,2.2,1.8,4.1,4,4.1h99.5c2.2,0,4-1.8,4-4.1v-5.1H345.2z"/>
				<path class="st7" d="M345.2,628.7v5.1c0,2.2,1.8,4.1,4,4.1H449c2.2,0,4-1.8,4-4.1v-5.1H345.2z"/>
				<path class="st7" d="M345.2,602.3v5.1c0,2.2,1.8,4.1,4,4.1h99.5c2.2,0,4-1.8,4-4.1v-5.1H345.2z"/>
				<path class="st8" d="M453,616.8c0,2.1-1.1,3.2-3.3,3.2H349.3c-2.2,0-4.3-1.1-4.3-3.2v-1.9c0-2.1,2-3.9,4.3-3.9h100.4
					c2.2,0,3.3,1.9,3.3,3.9V616.8z"/>
				<path class="st8" d="M453,629c0,2.1-1.1,4-3.3,4H349.3c-2.2,0-4.3-1.9-4.3-4v-1.9c0-2.1,2-3.1,4.3-3.1h100.4
					c2.2,0,3.3,1.1,3.3,3.1V629z"/>
				<path class="st8" d="M453,643.2c0,2.1-1.1,2.8-3.3,2.8H349.3c-2.2,0-4.3-0.7-4.3-2.8v-1.9c0-2.1,2-4.3,4.3-4.3h100.4
					c2.2,0,3.3,2.3,3.3,4.3V643.2z"/>
				<path class="st7" d="M454,593.1c0,2.1-1.8,3.9-4.1,3.9H349.1c-2.3,0-4.1-1.7-4.1-3.9v-15.2c0-2.1,1.8-3.9,4.1-3.9h100.8
					c2.3,0,4.1,1.7,4.1,3.9V593.1z"/>
				<path class="st8" d="M453,601.6c0,2.1-1.1,2.4-3.3,2.4H349.3c-2.2,0-4.3-0.3-4.3-2.4v-1.9c0-2.1,2-3.7,4.3-3.7h100.4
					c2.2,0,3.3,1.6,3.3,3.7V601.6z"/>
				<path class="st6" d="M406,600.2c0,1-0.8,1.8-1.8,1.8h-54.4c-1,0-1.8-0.8-1.8-1.8v-0.4c0-1,0.8-1.8,1.8-1.8h54.4
					c1,0,1.8,0.8,1.8,1.8V600.2z"/>
				<path class="st6" d="M406,615.2c0,1-0.8,1.8-1.8,1.8h-54.4c-1,0-1.8-0.8-1.8-1.8v-0.4c0-1,0.8-1.8,1.8-1.8h54.4
					c1,0,1.8,0.8,1.8,1.8V615.2z"/>
				<path class="st6" d="M406,629.2c0,1-0.8,1.8-1.8,1.8h-54.4c-1,0-1.8-0.8-1.8-1.8v-0.4c0-1,0.8-1.8,1.8-1.8h54.4
					c1,0,1.8,0.8,1.8,1.8V629.2z"/>
				<path class="st6" d="M406,641.2c0,1-0.8,1.8-1.8,1.8h-54.4c-1,0-1.8-0.8-1.8-1.8v-0.4c0-1,0.8-1.8,1.8-1.8h54.4
					c1,0,1.8,0.8,1.8,1.8V641.2z"/>
			</g>
			<g>
				<path id="XMLID_3_" class="st9" d="M499.3,441.3c30-44,30.8-100.8,10-141.3c-20.8-40.6-68.4-64.2-109.4-64.2
					s-88.5,23.7-109.4,64.2c-20.8,40.6-20,97.4,10,141.3c30,44,38.4,76.4,38.8,98.7c0.7,35.8-9.5,45.3,60.5,45.3s59.9-9.5,60.5-45.3
					C461,517.7,469.3,485.3,499.3,441.3z"/>
				<g>
					<defs>
						<path id="XMLID_1_" d="M499.3,441.3c30-44,30.8-100.8,10-141.3c-20.8-40.6-68.4-64.2-109.4-64.2s-88.5,23.7-109.4,64.2
							c-20.8,40.6-20,97.4,10,141.3c30,44,38.4,76.4,38.8,98.7c0.7,35.8-9.5,45.3,60.5,45.3s59.9-9.5,60.5-45.3
							C461,517.7,469.3,485.3,499.3,441.3z"/>
					</defs>
					<clipPath id="XMLID_6_">
						<use xlink:href="#XMLID_1_"  style="overflow:visible;"/>
					</clipPath>
					<g class="st10">
						<g class="st11">
							<polygon class="st12" points="364.8,316.8 369.2,362.9 410.2,330.6 							"/>
							<polygon class="st13" points="238.7,316.5 200.4,331.4 250.1,372.3 							"/>
							<polygon class="st14" points="278,561 314.2,574.6 326.1,517.7 							"/>
							<polygon class="st15" points="364,317.3 364.8,316.8 368.4,312.6 							"/>
							<polygon class="st16" points="267,517.2 278,561 326.1,517.7 							"/>
							<polygon class="st14" points="250.1,372.3 284.1,401.5 294.5,357.3 							"/>
							<polygon class="st12" points="284.1,401.5 254.2,464.2 311.1,458.9 							"/>
							<polygon class="st13" points="250.1,372.3 227.3,407.3 284.1,401.5 							"/>
							<polygon class="st17" points="311.1,458.9 267,517.2 326.1,517.7 							"/>
							<polygon class="st14" points="238.7,316.5 250.1,372.3 294.5,357.3 							"/>
							<polygon class="st14" points="274.2,303.5 238.7,316.5 294.5,357.3 							"/>
							<polygon class="st18" points="254.2,464.2 267,517.2 311.1,458.9 							"/>
							<polygon class="st14" points="399.6,424.7 434.3,463.6 457.7,411.7 							"/>
							<polygon class="st14" points="376.5,561.6 314.2,574.6 402.9,606.9 							"/>
							<polygon class="st19" points="345.3,411.5 311.1,458.9 349.7,455.6 							"/>
							<polygon class="st20" points="274.2,303.5 364,317.3 368.4,312.6 							"/>
							<polygon class="st19" points="274.2,303.5 294.5,357.3 336.8,345.5 							"/>
							<polygon class="st14" points="284.1,401.5 311.1,458.9 345.3,411.5 							"/>
							<polygon class="st12" points="294.5,357.3 284.1,401.5 345.3,411.5 							"/>
							<polygon class="st14" points="336.8,345.5 294.5,357.3 345.3,411.5 							"/>
							<polygon class="st21" points="274.2,303.5 336.8,345.5 346.9,333.6 							"/>
							<polygon class="st12" points="274.2,303.5 368.4,312.6 402.9,275.6 							"/>
							<polygon class="st16" points="349.7,455.6 311.1,458.9 353.9,492.6 							"/>
							<polygon class="st22" points="311.1,458.9 326.1,517.7 353.9,492.6 							"/>
							<polygon class="st23" points="153.8,275.6 274.2,303.5 402.9,275.6 							"/>
							<polygon class="st20" points="274.2,303.5 346.9,333.6 364,317.3 							"/>
							<polygon class="st24" points="369.2,362.9 345.3,411.5 399.6,424.7 							"/>
							<polygon class="st25" points="364.8,316.8 364,317.3 369.2,362.9 							"/>
							<polygon class="st16" points="336.8,345.5 345.3,411.5 369.2,362.9 							"/>
							<polygon class="st26" points="346.9,333.6 336.8,345.5 369.2,362.9 							"/>
							<polygon class="st27" points="364,317.3 346.9,333.6 369.2,362.9 							"/>
							<polygon class="st17" points="353.9,492.6 326.1,517.7 376.5,561.6 							"/>
							<polygon class="st16" points="326.1,517.7 314.2,574.6 376.5,561.6 							"/>
							<polygon class="st22" points="349.7,455.6 353.9,492.6 383.5,464.2 							"/>
							<polygon class="st28" points="368.4,312.6 364.8,316.8 410.2,330.6 							"/>
							<polygon class="st12" points="345.3,411.5 349.7,455.6 399.6,424.7 							"/>
							<polygon class="st19" points="349.7,455.6 383.5,464.2 399.6,424.7 							"/>
							<polygon class="st29" points="402.9,275.6 368.4,312.6 410.2,330.6 							"/>
							<polygon class="st17" points="383.5,464.2 353.9,492.6 425,507.8 							"/>
							<polygon class="st30" points="410.2,330.6 416.7,387.4 441.8,347.7 							"/>
							<polygon class="st31" points="416.7,387.4 399.6,424.7 457.7,411.7 							"/>
							<polygon class="st32" points="410.2,330.6 369.2,362.9 416.7,387.4 							"/>
							<polygon class="st17" points="369.2,362.9 399.6,424.7 416.7,387.4 							"/>
							<polygon class="st13" points="376.5,561.6 402.9,606.9 415.1,551.7 							"/>
							<polygon class="st14" points="376.5,561.6 415.1,551.7 425,507.8 							"/>
							<polygon class="st22" points="353.9,492.6 376.5,561.6 425,507.8 							"/>
							<polygon class="st22" points="457.7,411.7 434.3,463.6 471.9,458.9 							"/>
							<polygon class="st17" points="383.5,464.2 425,507.8 434.3,463.6 							"/>
							<polygon class="st22" points="399.6,424.7 383.5,464.2 434.3,463.6 							"/>
							<polygon class="st33" points="476.1,320.6 441.8,347.7 478.2,367.6 							"/>
							<polygon class="st34" points="441.8,347.7 416.7,387.4 457.7,411.7 							"/>
							<polygon class="st14" points="471.9,458.9 434.3,463.6 478.9,486.3 							"/>
							<polygon class="st16" points="434.3,463.6 425,507.8 478.9,486.3 							"/>
							<polygon class="st12" points="415.1,551.7 402.9,606.9 459.2,553.6 							"/>
							<polygon class="st13" points="424.9,507.8 414.8,551.9 460.1,553.9 							"/>
							<polygon class="st17" points="441.8,347.7 457.7,411.7 478.2,367.6 							"/>
							<polygon class="st23" points="402.9,275.6 410.2,330.6 476.1,320.6 							"/>
							<polygon class="st35" points="410.2,330.6 441.8,347.7 476.1,320.6 							"/>
							<polygon class="st19" points="459.2,553.6 402.9,606.9 491.4,572.4 							"/>
							<polygon class="st14" points="425,507.8 459.2,553.6 478.9,486.3 							"/>
							<polygon class="st22" points="478.2,367.6 507.7,387.4 509.4,341.7 							"/>
							<polygon class="st17" points="476.1,320.6 478.2,367.6 509.4,341.7 							"/>
							<polygon class="st17" points="478.2,367.6 457.7,411.7 507.7,387.4 							"/>
							<polygon class="st16" points="507.7,387.4 457.7,411.7 512.4,438.2 							"/>
							<polygon class="st17" points="457.7,411.7 471.9,458.9 512.4,438.2 							"/>
							<polygon class="st16" points="478.9,486.3 459.2,553.6 512.4,536.8 							"/>
							<polygon class="st13" points="459.2,553.6 491.4,572.4 512.4,536.8 							"/>
							<polygon class="st19" points="478.9,486.3 512.4,536.8 528.1,464.8 							"/>
							<polygon class="st12" points="512.4,438.2 528.1,464.8 550.6,433.3 							"/>
							<polygon class="st22" points="471.4,458.4 478.6,486.4 529,464.4 							"/>
							<polygon class="st14" points="512.4,438.2 471.9,458.9 528.1,464.8 							"/>
							<polygon class="st12" points="507.7,387.4 534.7,404.8 540.2,365.4 							"/>
							<polygon class="st19" points="507.7,387.4 512.4,438.2 534.7,404.8 							"/>
							<polygon class="st14" points="509.4,341.7 507.7,387.4 540.2,365.4 							"/>
							<polygon class="st14" points="509.4,341.7 540.2,365.4 567.7,314.3 							"/>
							<polygon class="st14" points="528.1,464.8 512.4,536.8 563,504.7 							"/>
							<polygon class="st22" points="402.9,275.6 476.1,320.6 567.7,314.3 							"/>
							<polygon class="st14" points="476.1,320.6 509.4,341.7 567.7,314.3 							"/>
							<polygon class="st13" points="402.9,275.6 567.7,314.3 652,275.6 507,262 							"/>
							<polyline class="st14" points="402.9,275.6 412.9,228.6 359.6,234.4 403.9,275.2 							"/>
							<polyline class="st32" points="403.9,275.3 359.6,234.4 302.8,276 404,276 							"/>
							<polygon class="st12" points="412.1,233.3 402.9,275.6 492.5,264.3 442.8,227 							"/>
						</g>
						<g class="st36">
							<polygon class="st12" points="478.8,405 439.4,380.7 440.4,432.9 							"/>
							<polygon class="st13" points="555.2,304.7 566.4,265.1 503.8,280.1 							"/>
							<polygon class="st14" points="336.6,188.4 303.8,209 342,252.9 							"/>
							<polygon class="st15" points="478.8,404.1 478.8,405 479.9,410.4 							"/>
							<polygon class="st16" points="378.1,206 336.6,188.4 342,252.9 							"/>
							<polygon class="st14" points="503.8,280.1 459.9,289.5 488.9,324.5 							"/>
							<polygon class="st12" points="459.9,289.5 428.1,227.9 397.9,276.4 							"/>
							<polygon class="st13" points="503.8,280.1 489.7,240.7 459.9,289.5 							"/>
							<polygon class="st17" points="397.9,276.4 378.1,206 342,252.9 							"/>
							<polygon class="st14" points="555.2,304.7 503.8,280.1 488.9,324.5 							"/>
							<polygon class="st14" points="544,340.8 555.2,304.7 488.9,324.5 							"/>
							<polygon class="st18" points="428.1,227.9 378.1,206 397.9,276.4 							"/>
							<polygon class="st14" points="371.8,367.6 319.8,371.8 347,421.7 							"/>
							<polygon class="st14" points="276.6,266.5 303.8,209 224.5,260.2 							"/>
							<polygon class="st19" points="415,332.2 397.9,276.4 377.2,309.2 							"/>
							<polygon class="st20" points="544,340.8 478.8,404.1 479.9,410.4 							"/>
							<polygon class="st19" points="544,340.8 488.9,324.5 472.8,365.4 							"/>
							<polygon class="st14" points="459.9,289.5 397.9,276.4 415,332.2 							"/>
							<polygon class="st12" points="488.9,324.5 459.9,289.5 415,332.2 							"/>
							<polygon class="st14" points="472.8,365.4 488.9,324.5 415,332.2 							"/>
							<polygon class="st21" points="544,340.8 472.8,365.4 476.2,380.6 							"/>
							<polygon class="st12" points="544,340.8 479.9,410.4 488.6,460.3 							"/>
							<polygon class="st16" points="377.2,309.2 397.9,276.4 345.2,290.2 							"/>
							<polygon class="st22" points="397.9,276.4 342,252.9 345.2,290.2 							"/>
							<polygon class="st23" points="639,261.7 544,340.8 488.6,460.3 							"/>
							<polygon class="st20" points="544,340.8 476.2,380.6 478.8,404.1 							"/>
							<polygon class="st24" points="439.4,380.7 415,332.2 371.8,367.6 							"/>
							<polygon class="st25" points="478.8,405 478.8,404.1 439.4,380.7 							"/>
							<polygon class="st16" points="472.8,365.4 415,332.2 439.4,380.7 							"/>
							<polygon class="st26" points="476.2,380.6 472.8,365.4 439.4,380.7 							"/>
							<polygon class="st27" points="478.8,404.1 476.2,380.6 439.4,380.7 							"/>
							<polygon class="st17" points="345.2,290.2 342,252.9 276.6,266.5 							"/>
							<polygon class="st16" points="342,252.9 303.8,209 276.6,266.5 							"/>
							<polygon class="st22" points="377.2,309.2 345.2,290.2 350,330.9 							"/>
							<polygon class="st28" points="479.9,410.4 478.8,405 440.4,432.9 							"/>
							<polygon class="st12" points="415,332.2 377.2,309.2 371.8,367.6 							"/>
							<polygon class="st19" points="377.2,309.2 350,330.9 371.8,367.6 							"/>
							<polygon class="st29" points="488.6,460.3 479.9,410.4 440.4,432.9 							"/>
							<polygon class="st17" points="350,330.9 345.2,290.2 290.2,337.7 							"/>
							<polygon class="st30" points="440.4,432.9 391.1,403.7 407.6,447.8 							"/>
							<polygon class="st31" points="391.1,403.7 371.8,367.6 347,421.7 							"/>
							<polygon class="st32" points="440.4,432.9 439.4,380.7 391.1,403.7 							"/>
							<polygon class="st17" points="439.4,380.7 371.8,367.6 391.1,403.7 							"/>
							<polygon class="st13" points="276.6,266.5 224.5,260.2 261.2,303.3 							"/>
							<polygon class="st14" points="276.6,266.5 261.2,303.3 290.2,337.7 							"/>
							<polygon class="st22" points="345.2,290.2 276.6,266.5 290.2,337.7 							"/>
							<polygon class="st22" points="347,421.7 319.8,371.8 300.8,404.6 							"/>
							<polygon class="st17" points="350,330.9 290.2,337.7 319.8,371.8 							"/>
							<polygon class="st22" points="371.8,367.6 350,330.9 319.8,371.8 							"/>
							<polygon class="st33" points="408.5,491.4 407.6,447.8 369.8,464.7 							"/>
							<polygon class="st34" points="407.6,447.8 391.1,403.7 347,421.7 							"/>
							<polygon class="st14" points="300.8,404.6 319.8,371.8 274.8,393.7 							"/>
							<polygon class="st16" points="319.8,371.8 290.2,337.7 274.8,393.7 							"/>
							<polygon class="st12" points="261.2,303.3 224.5,260.2 233,337.3 							"/>
							<polygon class="st13" points="290.2,337.6 261.1,302.9 232.3,337.8 							"/>
							<polygon class="st17" points="407.6,447.8 347,421.7 369.8,464.7 							"/>
							<polygon class="st23" points="488.6,460.3 440.4,432.9 408.5,491.4 							"/>
							<polygon class="st35" points="440.4,432.9 407.6,447.8 408.5,491.4 							"/>
							<polygon class="st19" points="233,337.3 224.5,260.2 198.6,351.6 							"/>
							<polygon class="st14" points="290.2,337.7 233,337.3 274.8,393.7 							"/>
							<polygon class="st22" points="369.8,464.7 336.2,476.3 371.6,505.2 							"/>
							<polygon class="st17" points="408.5,491.4 369.8,464.7 371.6,505.2 							"/>
							<polygon class="st17" points="369.8,464.7 347,421.7 336.2,476.3 							"/>
							<polygon class="st16" points="336.2,476.3 347,421.7 292.8,449.4 							"/>
							<polygon class="st17" points="347,421.7 300.8,404.6 292.8,449.4 							"/>
							<polygon class="st16" points="274.8,393.7 233,337.3 214.3,389.9 							"/>
							<polygon class="st13" points="233,337.3 198.6,351.6 214.3,389.9 							"/>
							<polygon class="st19" points="274.8,393.7 214.3,389.9 262.1,445.8 							"/>
							<polygon class="st12" points="292.8,449.4 262.1,445.8 273.8,482.8 							"/>
							<polygon class="st22" points="301.6,404.5 274.9,393.3 261.9,446.7 							"/>
							<polygon class="st14" points="292.8,449.4 300.8,404.6 262.1,445.8 							"/>
							<polygon class="st12" points="336.2,476.3 306,487.3 334.2,515.5 							"/>
							<polygon class="st19" points="336.2,476.3 292.8,449.4 306,487.3 							"/>
							<polygon class="st14" points="371.6,505.2 336.2,476.3 334.2,515.5 							"/>
							<polygon class="st14" points="371.6,505.2 334.2,515.5 358.3,568.3 							"/>
							<polygon class="st14" points="262.1,445.8 214.3,389.9 209.3,449.5 							"/>
							<polygon class="st22" points="488.6,460.3 408.5,491.4 358.3,568.3 							"/>
							<polygon class="st14" points="408.5,491.4 371.6,505.2 358.3,568.3 							"/>
							<polygon class="st13" points="488.6,460.3 358.3,568.3 338.2,658.8 436.6,551.4 							"/>
							<polyline class="st14" points="488.6,460.3 520,496.6 547.6,450.6 488.3,461.3 							"/>
							<polyline class="st32" points="488.3,461.3 547.6,450.6 548.7,380.3 487.6,460.9 							"/>
							<polygon class="st12" points="516.8,493.2 488.6,460.3 443.5,538.5 503.3,521.4 							"/>
						</g>
					</g>
				</g>
			</g>
			<g>
				<path class="st37" d="M352.3,255.3c-22.5,8.7-68.7,43.5-68,100.4c1,84.2,43.8,99.4,56.8,142c13,42.6,14.6,50,32.7,47.3
					c18.1-2.6,17.5-61.5,30.9-87.9c13.5-26.4,112.8-91.4,58.3-167.4C429.5,243.1,378.6,245.1,352.3,255.3z"/>
				<path class="st38" d="M462.8,480.5c-12.3-5.6-21.7,27.4-24,51.7c-2.4,24.3-29.4,34.3-29.7,41.6c-0.5,12.2,42.6,4.1,42.6-21.3
					C451.7,507.8,474,485.6,462.8,480.5z"/>
				<path class="st38" d="M346.2,283.7c-20.6,1.8-59.9,42.6-54.8,87.2c5.1,44.6,29.4,76.1,46.7,87.2c17.2,11.2,19.3-31.4,29.4-58.8
					C377.6,371.9,417.2,277.6,346.2,283.7z"/>
				<path class="st39" d="M315.8,326.4c-7.6,7.9-16.7,41.4-5.9,66.8c10.9,25.4,14.5,22.5,26.4-4.1
					C358.2,340.5,353.1,287.8,315.8,326.4z"/>
				<polygon class="st40" points="321.8,392 321.5,362 292.1,356.1 322.1,355.8 328.1,326.4 328.3,356.4 357.7,362.4 327.7,362.6 
									"/>
				<polygon class="st40" points="446.9,574.8 438.2,561.1 422.9,566.8 436.7,558 431,542.8 439.7,556.5 454.9,550.8 441.2,559.5 
									"/>
			</g>
			<polygon class="st41" points="370.6,662.2 365.9,654.8 357.7,657.9 365.1,653.2 362,645 366.8,652.3 375,649.3 367.6,654 			"/>
		</g>
		<g>
			<path class="st42" d="M179.1,430.2c1.3-3.1,2.1-6.4,2.1-9.8l-4.3,0c0-2.9-0.6-5.7-1.7-8.2l3.8-1.6c-1.3-3.1-3.2-5.9-5.6-8.3
				l-2.9,2.9c-2-2-4.4-3.6-7-4.6l1.6-3.8c-3.1-1.3-6.3-1.9-9.7-1.9c0,0,0,0,0,0l0,1.2l0,2.9c-2.9,0-5.7,0.5-8.2,1.6l-1.6-3.8
				c-3.1,1.3-5.9,3.2-8.3,5.6l2.9,2.9c-2,2-3.6,4.4-4.6,7l-4.3-1.6c-1.3,3.1-2.4,6.4-2.4,9.7v0l4.8,0c0,2.9,0.7,5.7,1.8,8.2
				l-3.7,1.6c1.3,3.1,3.2,5.9,5.6,8.3l2.9-2.9c2,2,4.4,3.6,7,4.7l-1.6,4.3c3.1,1.3,6.4,2.4,9.8,2.4H155v-4.8v-0.3
				c2,0,5.9-0.6,8.3-1.6l1.8,3.8c3.1-1.3,6-3.2,8.4-5.5l-2.9-2.9c2-2,3.6-4.3,4.7-7L179.1,430.2z M155.5,405
				c8.5,0,15.4,6.9,15.4,15.4c0,8.5-6.9,15.4-15.4,15.4c-8.5,0-15.4-6.9-15.4-15.4C140.1,411.9,147,405,155.5,405z"/>
			<path class="st42" d="M708.4,425.5c0.9-2.2,1.4-4.5,1.4-6.9l-3,0c0-2-0.4-4-1.2-5.7l2.7-1.1c-0.9-2.2-2.2-4.1-3.9-5.8l-2,2.1
				c-1.4-1.4-3-2.5-4.9-3.2l1.1-2.6c-2.2-0.9-4.4-1.2-6.8-1.2c0,0,0,0,0,0l0,0.8l0,2c-2,0-4,0.4-5.8,1.1l-1.1-2.7
				c-2.2,0.9-4.1,2.2-5.8,3.9l2,2c-1.4,1.4-2.5,3.1-3.3,4.9l-3.6-1.1c-0.9,2.2-2.3,4.5-2.3,6.8v0l4,0c0,2,0.8,4,1.6,5.8l-2.5,1.1
				c0.9,2.2,2.3,4.1,4,5.8l2.1-2c1.4,1.4,3.1,2.5,4.9,3.3l-1.1,2.9c2.2,0.9,4.5,1.6,6.9,1.6H691v-3.1v-0.2c1,0,4.4-0.4,6.1-1.1
				l1.4,2.7c2.2-0.9,4.3-2.2,5.9-3.9l-2-2c1.4-1.4,2.5-3,3.3-4.9L708.4,425.5z M691.9,410.9c4.3,0,7.8,3.5,7.8,7.8
				c0,4.3-3.5,7.8-7.8,7.8c-4.3,0-7.8-3.5-7.8-7.8C684,414.4,687.5,410.9,691.9,410.9z"/>
			<g>
				<defs>
					<path id="XMLID_4_" d="M589.7,164.1c2.2,20.9-13,39.7-33.9,41.9c-20.9,2.2-39.7-13-41.9-33.9c-2.2-20.9,13-39.7,33.9-41.9
						C568.7,128,587.4,143.2,589.7,164.1z"/>
				</defs>
				<clipPath id="XMLID_7_">
					<use xlink:href="#XMLID_4_"  style="overflow:visible;"/>
				</clipPath>
				<g class="st43">
					<path class="st42" d="M546.2,186.4c-0.4,0.7,0,2.4-0.7,3.2c-0.9,1.1-2.4,1.4-2.4,3.1c0,0.4-0.3,0.7-0.6,0.8
						c-0.9,1.8-2,3.3-2.1,5.4c0.6,1.7,2,3.2,2.3,5c0.1,0.6,0,1.1-0.2,1.5c0,0.1,0,0.1-0.1,0.1c-0.1,0.3-0.5,0.4-0.8,0.4
						c-0.3,0-0.7,0-1.1-0.1c-0.2-0.1-0.4-0.4-0.4-0.6c-3.8-1.5-6.4-4.9-6.6-9.2c-0.1-2.4,0.7-5.3-1.7-7.1c-0.6-0.4-1.6-1-1.9-1.8
						c-0.9-2.1-0.1-3.1,0.5-4.9c-0.6-1.3-3.5-2.4-4.4-3.9c-1-1.7-2-2.6-2.4-4.5c-0.4-2.6-4.3-2.4-5.9-3.9c-1-0.9-2.7-2.2-3.1-3.6
						c-0.8-2.5-1-5.5-1-8.1c0-2.8-1.3-5-1.6-7.7c-0.2-1.9,0-6.5,1.9-7.6c0.3-0.2,0.7-0.1,0.9,0.1c1.9-2.2,4.6-3.6,5.5-6.4
						c1.1-3.1,3.7-5.4,6.4-7.3c2.5-1.7,7.8-4,9.4-1.3c0.2,0,0.4,0.1,0.6,0.3c0.4,0.4,0.6,0.9,0.9,1.6c0.6,0.8,0.9,1.8,1,3
						c0.9,1.7,1.4,3.7,0.2,5.4c-0.4,0.6-1,1.1-1.5,1.4c-0.8,0.9-1.9,1.2-3.2,1.3c-1,0.4-2,0.8-3.1,1.1c-0.4,0.1-0.8,0.2-1.2,0.2
						c-0.4,0.8-0.4,1.5,0,2.3c0.3,1.1,0.8,2.7,0,3.8c-1,1.2-1.9,1.2-3.4,1.4c-1,1.5-0.5,2.4,1.3,2.8c0.5,0.1,1,0.3,1.5,0.4
						c0,0,0,0,0,0c1-0.3,1.9-0.8,2.7-1.5c1-0.9,2.3-2.4,3.8-2.5c3.7-0.3,4.5,3.1,3.6,6c-0.9,2.8,0,5.4,1.4,8c1,1.9,2.3,2.9,2.6,5
						c0.4,2.8-4.5,3.7-6.2,3.7c-1.3,0-7.2-2.7-6.6,1.1c0.3,1.7-0.2,2.8-1,4.2c0,0.2-0.1,0.5-0.2,0.8c-0.4,1.2,2.3,1,3.1,0.9
						c1-0.2,1.9-0.5,2.7-0.5c0.5-0.2,1-0.3,1.3-0.2c0.5,0.2,1,0.5,1.5,0.7c2.1,0.6,4,0.9,4.6,2.8c0.5,0.3,1,0.7,1.6,1.1
						C545.1,183,547.1,184.6,546.2,186.4z"/>
					<path class="st42" d="M580.7,178.4c0,0.2-0.1,0.4-0.2,0.6c-0.2,0.4-0.8,0.6-1.2,0.3c-1-1-2.4-1.5-3.9-1.4
						c-1.6,0.1-0.4,1.3,0,2.1c0.5,1.2,0.2,2.3-0.8,3.2c-1.2,1-2.6,1.2-4,0.7c-0.5-0.2-0.9-0.7-1.2-1.2c-0.5,2.8,0.2,9.9-0.5,12.5
						c-0.5,2-1.1,3.7-3,4.6c-1.6,0.7-4.1-5.6-4.5-6.7c-0.5-1.1,0-2.7,0.1-3.8c0.6-3.6-2.6-2.9-5.3-3.8c-3-0.9-4.5-7.8-1.4-10
						c2.3-1.6,4-0.8,6.6-0.5c2.5,0.3,5.4,0.3,7.5-1.4c1-0.7,1.9-1.5,2.8-2.5c1.1-1.7,1.2-3.2,0.3-4.7c0,0-0.1,0-0.1,0
						c-0.3,0-0.6-0.1-0.9-0.2c-0.6,0.8-1.3,2.9-2.4,2.6c-0.4-0.1-1,0-1.4-0.2c0,0-0.2-0.1-0.3-0.2c0.2,1.4,0.6,2.8-1,3.6
						c-1.7,0.7-1.7-4-3.1-1.9c-0.1,0.1-0.2,0.2-0.3,0.2c-0.5,1.1-1.4,3.2-2.7,3c-1.2-0.2-3.1-0.9-4.1-1.7c-1.1-0.9-0.4-1.9,0.2-2.6
						c0.3-0.4,1-0.6,1.5-0.6c1.5-2.6,1.6-3.4,0.4-2.3c-0.1,0.1-0.2,0.1-0.4,0.1c-3.7,0.1-3.9-4-3.6-6.9c0.1-0.7,0.9-1.4,1.6-1.2
						c1.1,0.3,1.8,0.9,2.9,1.4c5.7,2.5,6.8-5.2,6-8.5c0-0.1,0-0.2,0-0.3c-0.5-1.6-1.2-3-1.2,0.3c0,1.2,0.1,2.9-0.9,3.8
						c-2.5,2.2-4.8,1-5.7-1.9c-0.6-2,0.2-4,0.6-5.9c0.6-2.3-0.5-4.6-0.2-6.9c0.2-1.4,1.9-2.8,3-3.6c2.4-2,4.1-4.7,5.2-7.6
						c0.2-0.5,0.8-0.5,1.1-0.3c0.3,0,0.5,0.1,0.6,0.3c2.5,1.2,5.1,2.3,7.2,4.1c1.9,1.6,4.9,1.8,6.4,3.9c1.6,2.2,3.4,4.2,4.8,6.5
						c1.5,2.4,1.9,5.3,2.5,8C589.5,159.5,589.1,173.6,580.7,178.4z"/>
				</g>
				
					<use xlink:href="#XMLID_4_"  style="overflow:visible;fill:none;stroke:#D3C5A0;stroke-width:2;stroke-linecap:round;stroke-linejoin:round;stroke-miterlimit:10;"/>
			</g>
			<g>
				<polygon class="st44" points="121.9,465.7 103.9,473.4 108.5,476.8 98.7,490.1 101.7,492.3 105,494.7 114.5,481.2 119.2,484.6 
									"/>
			</g>
			<g>
				<polygon class="st44" points="491.2,138.2 505.7,122.5 499.6,121.2 503.5,103.6 499.6,102.7 495.3,101.8 491.7,119.4 
					485.5,118.2 				"/>
			</g>
			<g>
				<path class="st42" d="M638.8,262.1L628,232c-1-2.9-4.1-4.4-6.8-3.4l-41.2,14.8c-1.4,0.5-2.4,1.6-3,2.8c0.3-0.3,0.7-0.5,1.1-0.6
					l10.4-3.8l0.5,1.4l31.8-11.4c2.5-0.9,5.2,0.7,6.1,3.2l9.7,27c0.4,1.1,0.4,2.2,0.1,3.2c0.3,1.4-0.2,2.8-1.1,3.8l0.1,0
					C638.4,268,639.9,264.9,638.8,262.1z"/>
				<path class="st42" d="M622,237.2c2.2-0.8,4.8,0.3,5.6,2.4l9,25.1c0.1,0.1,0.1,0.3,0.1,0.5c0.3-1,0.3-2.1-0.1-3.2l-9.7-27
					c-0.9-2.6-3.7-4.1-6.1-3.2l-31.8,11.4l1.8,5.1L622,237.2z"/>
				<path class="st42" d="M636.8,265.2c0-0.2-0.1-0.3-0.1-0.5l-9-25.1c-0.8-2.2-3.4-3.2-5.6-2.4l-31.1,11.2l-1.8-5.1l-0.5-1.4
					l-10.4,3.8c-0.4,0.2-0.8,0.4-1.1,0.6c-1.4,1.1-2.1,2.9-1.4,4.7l11.4,31.7c0.8,2.2,3.2,3.3,5.4,2.5l41.6-14.9
					c0.7-0.2,1.3-0.6,1.8-1.2C636.6,268,637.1,266.6,636.8,265.2z"/>
			</g>
			<g>
				<path class="st42" d="M167,219.5l-1.8-18.1c-0.2-1.7-1.6-3-3.3-2.8l-24.7,2.4c-0.8,0.1-1.6,0.5-2,1.1c0.2-0.1,0.5-0.2,0.7-0.2
					l6.3-0.6l0.1,0.8l19.1-1.9c1.5-0.1,2.8,1.1,2.9,2.6l1.6,16.2c0.1,0.7-0.1,1.3-0.4,1.7c0,0.8-0.5,1.5-1.2,1.9l0,0
					C166,222.7,167.2,221.2,167,219.5z"/>
				<path class="st42" d="M161.3,203.5c1.3-0.1,2.6,0.8,2.7,2.1l1.5,15c0,0.1,0,0.2,0,0.3c0.3-0.5,0.5-1.1,0.4-1.7l-1.6-16.2
					c-0.1-1.5-1.4-2.8-2.9-2.6l-19.1,1.9l0.3,3.1L161.3,203.5z"/>
				<path class="st42" d="M165.5,220.9c0-0.1,0-0.2,0-0.3l-1.5-15c-0.1-1.3-1.4-2.3-2.7-2.1l-18.7,1.8l-0.3-3.1l-0.1-0.8L136,202
					c-0.3,0-0.5,0.1-0.7,0.2c-0.9,0.4-1.5,1.3-1.4,2.4l1.9,19c0.1,1.3,1.3,2.3,2.6,2.1l24.9-2.4c0.4,0,0.8-0.2,1.1-0.4
					C165,222.4,165.4,221.7,165.5,220.9z"/>
			</g>
			<path class="st45" d="M607.8,453.7c-0.8-2.1-17.7-18-24.5-24.4c0.2-0.3,0.4-0.6,0.6-0.9c0.5-0.8,0.2-2.1-0.4-2.8l-0.8-0.8
				c0.8-1.3,1.5-2.7,2-4.2c2.3-6.9,0.7-14.5-4.3-19.8c-3.6-3.9-8.5-6.1-13.8-6.3c-5.3-0.2-10.4,1.7-14.2,5.3
				c-2.4,2.3-4.2,5.1-5.3,8.2c-2.3,6.9-0.7,14.5,4.3,19.8c3.6,3.9,8.5,6.1,13.8,6.3c3.5,0.1,6.9-0.7,9.9-2.2l0.8,0.9
				c0.6,0.7,1.9,1,2.8,0.6c0.3-0.2,0.6-0.3,0.8-0.5c5.9,7.2,20.6,25.3,22.6,26.2c2.1,1,4.3-1.2,4.3-1.2S608.6,455.9,607.8,453.7z
				 M566.4,398.7c4.2,0.1,8,1.9,10.8,4.9c3.9,4.2,5.2,10.1,3.4,15.5c-0.8,2.4-2.2,4.7-4.1,6.4c-6.3,5.8-16.1,5.5-22-0.8
				c-3.9-4.2-5.2-10.1-3.4-15.5c0.8-2.4,2.2-4.7,4.1-6.4C558.3,400.1,562.3,398.6,566.4,398.7z"/>
			<g>
				<g>
					<defs>
						<path id="XMLID_2_" d="M377.2,184.1c-21.2,6-33.7,27.4-27.4,49.3l76.7-21.9C420.2,189.6,398.4,178.1,377.2,184.1z
							 M359.1,219.3c1-11.8,9-21.5,21-24.9c12-3.4,23.9,0.6,31,10.1L359.1,219.3z"/>
					</defs>
					<use xlink:href="#XMLID_2_"  style="overflow:visible;fill:#FFFFFF;"/>
					<clipPath id="XMLID_8_">
						<use xlink:href="#XMLID_2_"  style="overflow:visible;"/>
					</clipPath>
					<g class="st46">
						<line class="st47" x1="377.7" y1="184.1" x2="379.1" y2="189.1"/>
						<line class="st47" x1="371.7" y1="186.2" x2="373.8" y2="190.9"/>
						<line class="st47" x1="366.4" y1="188.9" x2="369.2" y2="193.2"/>
						<line class="st47" x1="361.5" y1="192.4" x2="364.9" y2="196.3"/>
						<line class="st47" x1="357.2" y1="196.6" x2="361.1" y2="199.9"/>
						<line class="st47" x1="353.6" y1="201.3" x2="357.9" y2="204"/>
						<line class="st47" x1="350.6" y1="206.6" x2="355.3" y2="208.6"/>
						<line class="st47" x1="348.5" y1="212.2" x2="353.4" y2="213.5"/>
						<line class="st47" x1="347.2" y1="218" x2="352.3" y2="218.6"/>
						<line class="st47" x1="346.8" y1="224" x2="351.9" y2="223.8"/>
						<line class="st47" x1="383.3" y1="182.9" x2="383.9" y2="188"/>
						<line class="st47" x1="389.2" y1="182.4" x2="389.1" y2="187.5"/>
						<line class="st47" x1="395.2" y1="182.8" x2="394.4" y2="187.9"/>
						<line class="st47" x1="401.1" y1="184.1" x2="399.5" y2="189"/>
						<line class="st47" x1="406.7" y1="186.2" x2="404.4" y2="190.8"/>
						<line class="st47" x1="411.9" y1="189.1" x2="409" y2="193.3"/>
						<line class="st47" x1="416.7" y1="192.7" x2="413.2" y2="196.5"/>
						<line class="st47" x1="420.9" y1="197" x2="416.9" y2="200.2"/>
						<line class="st47" x1="424.4" y1="201.9" x2="419.9" y2="204.5"/>
					</g>
					<use xlink:href="#XMLID_2_"  style="overflow:visible;fill:none;stroke:#D3C5A0;stroke-width:2;stroke-miterlimit:10;"/>
				</g>
				<g>
					<line class="st47" x1="420.8" y1="212.6" x2="419.5" y2="207.8"/>
					<line class="st47" x1="413.8" y1="214.6" x2="412.4" y2="209.8"/>
					<line class="st47" x1="406.7" y1="216.6" x2="405.4" y2="211.8"/>
					<line class="st47" x1="399.7" y1="218.6" x2="398.4" y2="213.8"/>
					<line class="st47" x1="392.7" y1="220.6" x2="391.3" y2="215.9"/>
					<line class="st47" x1="385.6" y1="222.6" x2="384.3" y2="217.9"/>
					<line class="st47" x1="378.6" y1="224.6" x2="377.2" y2="219.9"/>
					<line class="st47" x1="371.6" y1="226.6" x2="370.2" y2="221.9"/>
					<line class="st47" x1="364.5" y1="228.6" x2="363.1" y2="223.9"/>
					<line class="st47" x1="357.5" y1="230.7" x2="356.1" y2="225.9"/>
				</g>
			</g>
			<polygon class="st48" points="272.4,415.4 266.5,418.7 263.4,413.1 260.6,414.7 263.7,420.3 258.1,423.4 259.7,426.3 
				265.3,423.1 268.6,429 271.4,427.4 268.1,421.5 274,418.2 			"/>
			<polygon class="st48" points="641.9,487.7 644,494.1 637.9,496.1 638.9,499.2 645,497.2 647,503.3 650.1,502.3 648.1,496.2 
				654.6,494.1 653.6,491 647.1,493.1 645,486.7 			"/>
			<polygon class="st48" points="518.9,89.7 521,96.1 514.9,98.1 515.9,101.2 522,99.2 524,105.3 527.1,104.3 525.1,98.2 
				531.6,96.1 530.6,93 524.1,95.1 522,88.7 			"/>
			<polygon class="st48" points="98.3,415.6 97.3,420.9 92.3,420 91.8,422.5 96.9,423.4 95.9,428.4 98.5,428.9 99.4,423.9 
				104.7,424.8 105.2,422.3 99.9,421.3 100.8,416 			"/>
			<polygon class="st48" points="489.4,220.4 483.5,223.7 480.4,218.1 477.6,219.7 480.7,225.3 475.1,228.4 476.7,231.3 
				482.3,228.1 485.6,234 488.4,232.4 485.1,226.5 491,223.2 			"/>
			<g>
				<path class="st48" d="M544.3,457.9l-5.4,2.4l0.2,2.8l-3.5,1.5l-1-15.7l4.1-1.8l10.9,11.2l-3.5,1.5L544.3,457.9z M538.6,457.5
					l3.7-1.6l-4.2-4.5L538.6,457.5z"/>
			</g>
			<g>
				<path class="st48" d="M230.5,178.6l3.1-1.8l2.6,4.6l4.6-2.6l-2.6-4.6l3.1-1.8l6.8,12.2l-3.1,1.8l-2.9-5.2l-4.6,2.6l2.9,5.2
					l-3.1,1.8L230.5,178.6z"/>
				<path class="st48" d="M255,186.4l3.1-1.8l0.8,1.3l-5.2,2.9l-0.8-1.3l1.3-3.7c0.1-0.3,0.2-0.6,0.2-0.9c0-0.3-0.1-0.5-0.2-0.7
					c-0.2-0.3-0.4-0.5-0.8-0.6c-0.3-0.1-0.7,0-1.1,0.2c-0.3,0.2-0.6,0.4-0.8,0.7c-0.3,0.3-0.5,0.7-0.8,1.2l-0.9-1.6
					c0.3-0.4,0.7-0.7,1-1c0.4-0.3,0.7-0.6,1.1-0.8c0.8-0.5,1.6-0.7,2.3-0.6c0.7,0.1,1.2,0.5,1.6,1.2c0.2,0.4,0.3,0.8,0.3,1.2
					c0,0.4-0.2,1.1-0.5,2.1L255,186.4z"/>
				<path class="st48" d="M255.7,164.1c2-1.1,3.8-1.4,5.5-0.9c1.7,0.5,3.2,1.7,4.3,3.7c1.1,2,1.4,3.8,0.9,5.6
					c-0.5,1.7-1.7,3.2-3.7,4.3c-2,1.1-3.8,1.4-5.5,0.9c-1.7-0.5-3.2-1.7-4.3-3.7c-1.1-2-1.4-3.8-0.9-5.6
					C252.5,166.6,253.8,165.2,255.7,164.1z M257,166.4c-1,0.5-1.5,1.3-1.6,2.3c-0.1,1,0.2,2.1,0.9,3.4c0.7,1.3,1.5,2.1,2.5,2.5
					c0.9,0.4,1.9,0.3,2.8-0.2c1-0.5,1.5-1.3,1.6-2.3c0.1-1-0.2-2.1-0.9-3.4c-0.7-1.3-1.5-2.1-2.5-2.5
					C258.9,165.8,257.9,165.8,257,166.4z"/>
			</g>
			<g>
				<g>
					<path class="st48" d="M638.1,305.5c0,0.5,0,1.1-0.1,1.6c-0.1,0.5-0.3,1-0.5,1.6c-0.7,1.5-1.7,2.5-3,3c-1.3,0.5-2.6,0.4-4.1-0.3
						c-1.5-0.7-2.4-1.7-2.9-2.9c-0.4-1.3-0.3-2.7,0.4-4.2c0.2-0.5,0.5-1,0.9-1.4c0.3-0.4,0.7-0.8,1.1-1.1l1.9,0.9
						c-0.5,0.3-0.9,0.6-1.3,1c-0.3,0.4-0.6,0.8-0.8,1.2c-0.4,0.8-0.4,1.6-0.1,2.4c0.3,0.7,1,1.3,1.9,1.8c0.9,0.4,1.8,0.5,2.6,0.3
						c0.8-0.2,1.3-0.8,1.7-1.6c0.2-0.5,0.4-1,0.4-1.4c0.1-0.5,0-1-0.1-1.6L638.1,305.5z"/>
					<path class="st48" d="M630.3,299.6l1.1-2.4l3.5,1.6l1.6-3.5l-3.5-1.6l1.1-2.4l9.2,4.2l-1.1,2.4l-3.9-1.8l-1.6,3.5l3.9,1.8
						l-1.1,2.4L630.3,299.6z"/>
					<path class="st48" d="M646.7,291.6c0.3-0.3,0.5-0.5,0.9-0.6c0.3-0.1,0.7,0,1,0.1c0.5,0.2,0.8,0.6,0.9,1.2c0.1,0.5,0,1.2-0.4,2
						c-0.1,0.3-0.3,0.5-0.4,0.8c-0.2,0.3-0.4,0.5-0.6,0.7l-1.1-0.5c0.2-0.2,0.5-0.4,0.6-0.6c0.2-0.2,0.3-0.5,0.4-0.7
						c0.2-0.4,0.2-0.7,0.2-0.9c0-0.3-0.2-0.4-0.4-0.5c-0.2-0.1-0.5-0.1-0.7,0c-0.2,0.1-0.4,0.4-0.6,0.8l-0.3,0.6l-0.9-0.4l0.3-0.6
						c0.2-0.3,0.2-0.6,0.2-0.8c0-0.2-0.2-0.4-0.4-0.5c-0.2-0.1-0.4-0.1-0.6,0c-0.2,0.1-0.4,0.3-0.5,0.6c-0.1,0.2-0.2,0.5-0.2,0.7
						c-0.1,0.3-0.1,0.5-0.1,0.8l-1-0.5c0-0.3,0.1-0.6,0.2-0.9c0.1-0.3,0.2-0.6,0.3-0.8c0.3-0.7,0.7-1.2,1.1-1.4
						c0.4-0.2,0.8-0.3,1.3,0c0.3,0.1,0.5,0.3,0.7,0.6C646.7,291,646.7,291.3,646.7,291.6z"/>
				</g>
				<g>
					<path class="st48" d="M689.3,304.3c0,0.5,0,1.1-0.1,1.6c-0.1,0.5-0.3,1-0.5,1.6c-0.7,1.5-1.7,2.5-3,3c-1.3,0.5-2.6,0.4-4.1-0.3
						c-1.5-0.7-2.4-1.7-2.9-2.9c-0.4-1.3-0.3-2.7,0.4-4.2c0.2-0.5,0.5-1,0.9-1.4c0.3-0.4,0.7-0.8,1.1-1.1l1.9,0.9
						c-0.5,0.3-0.9,0.6-1.3,1c-0.3,0.4-0.6,0.8-0.8,1.2c-0.4,0.8-0.4,1.6-0.1,2.4c0.3,0.7,1,1.3,1.9,1.8c0.9,0.4,1.8,0.5,2.6,0.3
						c0.8-0.2,1.3-0.8,1.7-1.6c0.2-0.5,0.4-1,0.4-1.4c0.1-0.5,0-1-0.1-1.6L689.3,304.3z"/>
					<path class="st48" d="M681.6,298.4l1.1-2.4l3.5,1.6l1.6-3.5l-3.5-1.6l1.1-2.4l9.2,4.2l-1.1,2.4l-3.9-1.8l-1.6,3.5l3.9,1.8
						l-1.1,2.4L681.6,298.4z"/>
					<path class="st48" d="M697.9,290.4c0.3-0.3,0.5-0.5,0.9-0.6c0.3-0.1,0.7,0,1,0.1c0.5,0.2,0.8,0.6,0.9,1.2c0.1,0.5,0,1.2-0.4,2
						c-0.1,0.3-0.3,0.5-0.4,0.8c-0.2,0.3-0.4,0.5-0.6,0.7l-1.1-0.5c0.2-0.2,0.5-0.4,0.6-0.6c0.2-0.2,0.3-0.5,0.4-0.7
						c0.2-0.4,0.2-0.7,0.2-0.9c0-0.3-0.2-0.4-0.4-0.5c-0.2-0.1-0.5-0.1-0.7,0c-0.2,0.1-0.4,0.4-0.6,0.8l-0.3,0.6l-0.9-0.4l0.3-0.6
						c0.2-0.3,0.2-0.6,0.2-0.8c0-0.2-0.2-0.4-0.4-0.5c-0.2-0.1-0.4-0.1-0.6,0c-0.2,0.1-0.4,0.3-0.5,0.6c-0.1,0.2-0.2,0.5-0.2,0.7
						c-0.1,0.2-0.1,0.5-0.1,0.8l-1-0.5c0-0.3,0.1-0.6,0.2-0.9c0.1-0.3,0.2-0.6,0.3-0.8c0.3-0.7,0.7-1.2,1.1-1.4
						c0.4-0.2,0.8-0.3,1.3,0c0.3,0.1,0.5,0.3,0.7,0.6C698,289.8,698,290.1,697.9,290.4z"/>
				</g>
				<polygon class="st44" points="672.2,375.4 648.2,377.1 634.8,357.2 645.3,335.5 669.3,333.8 682.8,353.8 				"/>
				<line class="st44" x1="644.3" y1="334.4" x2="634.4" y2="316.8"/>
				<line class="st44" x1="670.1" y1="334.7" x2="678.8" y2="316.9"/>
				<path class="st44" d="M652.8,367.7c-6.7-3.3-9.5-11.4-6.2-18.1c3.3-6.7,11.4-9.5,18.1-6.2c6.7,3.3,9.5,11.4,6.2,18.1
					C667.7,368.1,659.6,370.9,652.8,367.7z"/>
			</g>
			<polyline class="st49" points="497.2,485.1 502.5,486.9 501.8,505.2 513.4,477 548.3,488.6 			"/>
			<polyline class="st49" points="359.2,148.1 364.5,149.9 363.8,168.2 375.4,140 410.3,151.6 			"/>
			<g>
				<path class="st45" d="M318.4,123h-17.8c-2,0-3.6,1.6-3.6,3.6v0.8c0,2,1.6,3.6,3.6,3.6h1.4v49.1c0,4.1,3.4,7.4,7.5,7.4
					c4.1,0,7.5-3.3,7.5-7.4V131h1.4c2,0,3.6-1.6,3.6-3.6v-0.8C322,124.6,320.4,123,318.4,123z"/>
				<path class="st48" d="M304.7,163.4v15.9c0,2.8,2.1,5,4.8,5c2.7,0,4.8-2.2,4.8-5v-15.9H304.7z"/>
				<path class="st48" d="M310.6,152c-1.7,0-3.3,1.1-3.4,2.9c-0.1,1.6,1.2,3.4,2.9,3.4c1.7,0,3.3-1.1,3.4-2.9
					C313.7,153.8,312.4,152,310.6,152z"/>
				<path class="st48" d="M311.8,143.1c-1,0-1.8,0.6-1.9,1.6c-0.1,0.9,0.7,1.9,1.6,1.9c1,0,1.8-0.6,1.9-1.6
					C313.5,144.1,312.7,143.1,311.8,143.1z"/>
				<path class="st48" d="M310.6,114.7c-1.2,0-2.3,0.8-2.4,2.1c-0.1,1.1,0.8,2.4,2.1,2.4c1.2,0,2.3-0.8,2.4-2.1
					C312.8,116,311.9,114.7,310.6,114.7z"/>
				<path class="st48" d="M311.2,135.1c-1.2,0-2.2,0.8-2.3,2c-0.1,1.1,0.8,2.3,2,2.3c1.2,0,2.2-0.8,2.3-2
					C313.3,136.3,312.4,135.1,311.2,135.1z"/>
				<path class="st48" d="M307.1,126.7c-1.2,0-2.2,0.8-2.3,2c-0.1,1.1,0.8,2.3,2,2.3c1.2,0,2.2-0.8,2.3-2
					C309.2,127.9,308.3,126.7,307.1,126.7z"/>
			</g>
			<g>
				<g>
					<path class="st45" d="M268.9,473.9c0,0-3.6-12.7,4.6-18.9l0.3-3.8l6.4-1l0.3,2.6c0,0,4.2-0.8,7.8,5.8"/>
					<path class="st50" d="M262.9,468.7c0,0,0.1-11.7,2.6-15.4l4.9,2c0,0-0.5,11.1,1.9,16.7"/>
					<path class="st50" d="M297.2,476.1c0.9-0.1,0.4-9.4,4.9-10.5l-1.5-3c0,0-3.5,0.8-4.7,2c0,0,0.5-3.3,2.3-4.3l-1.6-2.7l-15.9,6.1
						l3.1,12L297.2,476.1z"/>
					<path class="st50" d="M260.9,486.4c0,0-4.7-12.8-0.9-17.6c3.8-4.8,10.5-4.4,15.7-0.4l-12,24.4
						C263.7,492.8,261.8,489.5,260.9,486.4z"/>
					<path class="st50" d="M291.3,455c-4.7,0-15.6,0.9-17.9,11.1c0,0-8.4,3-10.8,14.4c-1.7,7.6-3.1,19.9,13.9,29.8
						c13.4,7.7,23.3,6.7,26.1-5.4c3.3-14.1,6.7-31-12.9-33.4c0,0-5.5-2-4.2-6.2c1.1-3.8,8.2-4.7,8.2-4.7L291.3,455z"/>
				</g>
				<path class="st50" d="M289.7,471.4c0,0,4.2,5.9,2,12.6c-2.1,6.7-10.5,22.3-5.2,30.6"/>
				<path class="st50" d="M290.8,486.6c-2.5,2.8-7.2,3-9.8,5.4c-2.6,2.3-1.9,6-1.9,6"/>
				<path class="st50" d="M292.3,480.7c0,0,0.1,6.7,4.7,8.3c3.8,1.3,2.6,7.5,2.6,7.5"/>
				<path class="st50" d="M296.1,488.6c2.1,1.2,4.4,0.5,5.9-1.4"/>
				<path class="st50" d="M271.8,494.9c3.7-0.4,7.6-2.3,12.5-4.8c-3.7,1-9.6,2.3-11.3,0.5"/>
			</g>
			<g>
				<path class="st45" d="M566.5,603.1c0,0,9.2,2.1,8.4-13.9c-0.6-11.3-7.9-30.3-38.4-32.9c-30.5-2.6-46.1,17.7-48.2,28.5
					c-2.1,10.8,2.5,20.4,23.8,18.3c0,0-3.9,5.2,0.8,8.9c4.7,3.7,16.8,0,16.8,0s12.6,3.6,15.8,7.8c3.2,4.2,3.2,13.2,5.8,17.2h5.3
					c0,0-3.4-16.3-2.4-19.5c0,0,8.5-0.5,13.1-4.6C574.4,606.8,566.5,603.1,566.5,603.1z"/>
				<g>
					<defs>
						<path id="SVGID_3_" d="M566.5,603.1c0,0,9.2,2.1,8.4-13.9c-0.6-11.3-7.9-30.3-38.4-32.9c-30.5-2.6-46.1,17.7-48.2,28.5
							c-2.1,10.8,2.5,20.4,23.8,18.3c0,0-3.9,5.2,0.8,8.9c4.7,3.7,16.8,0,16.8,0s12.6,4.6,15.8,8.8c3.2,4.2,3.2,13.2,5.8,18.2h5.3
							c0,0-3.4-17.3-2.4-20.5c0,0,8.5-1,13.1-5.1C574.4,607.3,566.5,603.1,566.5,603.1z"/>
					</defs>
					<clipPath id="SVGID_4_">
						<use xlink:href="#SVGID_3_"  style="overflow:visible;"/>
					</clipPath>
					<g class="st51">
						<path class="st42" d="M572,603.7c0,0-14.2-1.7-25.8,3c-11.6,4.7-22.6,8.9-22.6,8.9"/>
						<path class="st42" d="M542.4,608.3c0,0,3.9,9.5,17,9.5"/>
						<path class="st42" d="M545.4,612.5c0,0-6.3,5.3-14,4.2"/>
						<path class="st42" d="M508.9,605.2c0,0,5.8-5.3,13.1-6.8c7.4-1.6,21.9-7.1,23.3-12.2"/>
						<path class="st42" d="M502.6,604.3c0,0-4.2-2.3-0.5-10c3.7-7.6-5.8-6.6-5.8-6.6"/>
						<path class="st42" d="M520,607.3c6.8-6.2,24.1-4.4,32.1-11"/>
						<path class="st42" d="M503.5,592c6.3,1.3,8.6-2.6,6-7.9"/>
						<path class="st42" d="M520.7,598.1c-2.2-4.1-1.6-7.2,1.8-10.3"/>
						<path class="st42" d="M534.7,594.1c-0.9-3.5-0.1-7.4,2.6-10"/>
						<path class="st42" d="M559.4,598.3c1.6-6.8,8.5-7.5,10.5-12.6"/>
						<path class="st42" d="M547.8,597.8c-1.1-3,0.1-5.9,3.2-7.9"/>
						<path class="st42" d="M565.7,590.4c-5.4-2.5-6.2-6.4-2.6-11"/>
						<path class="st42" d="M557.3,571.5c-7.3,10.9-13.7-2.9-20.5,3.2"/>
						<path class="st42" d="M549.4,574.7c0.2-3.9-1.9-6.1-5.8-6.3"/>
						<path class="st42" d="M526.8,566.3c-4.6,3.3-0.6,8.9-2.6,13.1"/>
						<path class="st42" d="M524.2,573.1c-4-2.1-7.2-1.3-8.4,3.2"/>
						<path class="st42" d="M504.7,559.4c6.7,9-7.8,11.4-5.3,18.9"/>
						<path class="st42" d="M503.1,570.5c3.5,1.3,5.5,3.7,4.7,7.4"/>
						<path class="st42" d="M486.3,577.8c3.8,0.3,7.1,2.2,9.5,5.3"/>
						<path class="st42" d="M489.5,600.4c1.8-1.1,3.2-2.8,3.7-4.7"/>
						<path class="st42" d="M514.2,567.8c3.3-6,13.2-7.3,11.6-15.8"/>
						<path class="st42" d="M526.8,566.8c3.3,1.9,6.8,2.4,9.5,0.5"/>
						<path class="st42" d="M526.8,566.3c6-3.1,10.4-9.1,7.4-15.2"/>
						<path class="st42" d="M533.6,587.8c-3-0.8-4.3-3.3-3.7-6.8"/>
						<path class="st42" d="M565.7,582c1.8-5.7,7-6.3,6.8-12.1"/>
						<path class="st42" d="M557.8,559.9c-2.4,1.9-4.4,4.6-5.8,7.4"/>
						<path class="st42" d="M549.9,558.4c-3,1.9-6.7,2.1-8.9,0.5"/>
						<path class="st42" d="M550.5,588.9c-1.3-3.4-0.2-6.1,3.2-7.4"/>
						<path class="st42" d="M551,589.9c1.2,0.3,2.4,0,3.2-0.8"/>
						<path class="st42" d="M520.7,598.1c-1.6-1.2-3.5-1.9-5.5-1.8"/>
					</g>
					
						<use xlink:href="#SVGID_3_"  style="overflow:visible;fill:none;stroke:#D3C5A0;stroke-width:2;stroke-linecap:round;stroke-linejoin:round;stroke-miterlimit:10;"/>
				</g>
			</g>
			<g>
				<path class="st42" d="M449.6,118.5c0,0,5.7,3.4,8.6-7.5c2.1-7.7,1.3-21.9-18.5-30.3c-19.8-8.4-34.7,1.8-38.4,8.6
					c-3.8,6.8-2.7,14.1,11.9,17.4c0,0-3.8,2.6-1.4,6.1c2.4,3.5,11.2,3.6,11.2,3.6s7.6,5.2,8.8,8.7c1.2,3.5-0.7,9.4,0.1,12.8l3.5,1.1
					c0,0,1.3-11.7,2.7-13.6c0,0,5.8,1.5,9.8-0.2C454.1,122.7,449.6,118.5,449.6,118.5z"/>
				<g>
					<defs>
						<path id="SVGID_5_" d="M449.6,118.5c0,0,5.7,3.4,8.6-7.5c2.1-7.7,1.3-21.9-18.5-30.3c-19.8-8.4-34.7,1.8-38.4,8.6
							c-3.8,6.8-2.7,14.1,11.9,17.4c0,0-3.8,2.6-1.4,6.1c2.4,3.5,11.2,3.6,11.2,3.6s7.5,5.6,8.7,9.1c1.2,3.5-0.9,9.8,0,13.3l3.5,1.1
							c0,0,1.4-12.2,2.8-14c0,0,5.9,1.2,9.9-0.5C454,122.9,449.6,118.5,449.6,118.5z"/>
					</defs>
					<clipPath id="SVGID_6_">
						<use xlink:href="#SVGID_5_"  style="overflow:visible;"/>
					</clipPath>
					<g class="st52">
						<path class="st42" d="M453.2,120.1c0,0-9.1-4.2-17.9-3.6c-8.8,0.7-17,1.1-17,1.1"/>
						<path class="st42" d="M432.4,116.8c0,0,0.5,7.2,9.3,10"/>
						<path class="st42" d="M433.5,120.2c0,0-5.3,2.2-10.3-0.2"/>
						<path class="st42" d="M410.7,107.4c0,0,5-2.3,10.3-1.7c5.3,0.5,16.2,0,18.2-3.1"/>
						<path class="st42" d="M406.7,105.5c0,0-2.3-2.5,1.8-6.8c4.1-4.3-2.4-5.7-2.4-5.7"/>
						<path class="st42" d="M417.6,111.2c5.8-2.7,17,2.3,23.8-0.4"/>
						<path class="st42" d="M409.9,97.4c4,2.2,6.3,0.2,5.7-4"/>
						<path class="st42" d="M420.1,105.2c-0.6-3.2,0.5-5.1,3.5-6.4"/>
						<path class="st42" d="M430.3,105.6c0.2-2.5,1.5-5,3.9-6.1"/>
						<path class="st42" d="M445.9,113.8c2.6-4.2,7.3-3.2,9.8-6.1"/>
						<path class="st42" d="M438.3,110.9c-0.1-2.3,1.4-4,3.8-4.6"/>
						<path class="st42" d="M451.8,109.9c-3.1-2.8-2.8-5.6,0.6-7.9"/>
						<path class="st42" d="M450.3,95.4c-7.2,5.7-8.5-4.9-14.4-2.3"/>
						<path class="st42" d="M444.4,95.8c1-2.6,0.1-4.5-2.5-5.5"/>
						<path class="st42" d="M431.1,85.3c-3.8,1.2-2.3,5.8-4.6,8.2"/>
						<path class="st42" d="M427.8,89.3c-2.2-2.3-4.5-2.5-6.3,0.3"/>
						<path class="st42" d="M417.8,75.9c2.5,7.4-7.7,5.9-7.6,11.5"/>
						<path class="st42" d="M414.4,83c2.1,1.7,2.9,3.7,1.6,5.9"/>
						<path class="st42" d="M401.5,84.2c2.5,1,4.3,3,5.2,5.6"/>
						<path class="st42" d="M398.7,100c1.4-0.3,2.7-1.2,3.5-2.4"/>
						<path class="st42" d="M422.3,83.6c3.5-3.3,10.4-2,11.1-8"/>
						<path class="st42" d="M431,85.6c1.8,2,4,3.1,6.2,2.4"/>
						<path class="st42" d="M431.1,85.3c4.7-0.8,8.9-3.8,8.2-8.6"/>
						<path class="st42" d="M431,101.2c-1.8-1.2-2.1-3.1-1-5.4"/>
						<path class="st42" d="M453.7,104.3c2.4-3.4,6-2.7,7.2-6.6"/>
						<path class="st42" d="M453.2,87.8c-2,0.8-4,2.1-5.5,3.7"/>
						<path class="st42" d="M448.2,85c-2.4,0.6-4.9,0-6.1-1.6"/>
						<path class="st42" d="M442,105.5c-0.2-2.6,1.2-4.1,3.7-4.2"/>
						<path class="st42" d="M442.1,106.3c0.8,0.5,1.6,0.5,2.3,0.2"/>
						<path class="st42" d="M420.1,105.2c-0.8-1.2-2-2-3.3-2.4"/>
					</g>
					
						<use xlink:href="#SVGID_5_"  style="overflow:visible;fill:none;stroke:#D3C5A0;stroke-width:2;stroke-linecap:round;stroke-linejoin:round;stroke-miterlimit:10;"/>
				</g>
			</g>
			<g>
				<path class="st42" d="M175.8,293.3L172,292l-22.6,64.1l40.7,14.3c0,0-0.1,4.7,3.8,6"/>
				<path class="st42" d="M193.6,376.4c3.9,1.4,6.6-2.4,6.6-2.4l39.7,14l22.6-64.1l-3.8-1.3"/>
				<path class="st42" d="M195.9,369c0,0-13.9-6.2-40.9-16.8c7.3-20.6,15.7-44.6,21.3-60.4c1.7,0.6,2.6,1,4.2,1.6"/>
				<path class="st42" d="M195.8,369c0,0,15.4,4.1,42.2,12.5c7.3-20.6,15.7-44.6,21.3-60.4c-1.6-0.6-3.2-1.1-4.8-1.6"/>
				<path class="st42" d="M196.4,370.2c0,0-8.6-8.7-35.6-19.3c7.3-20.6,15.7-44.6,21.3-60.4c27.3,9.6,34.3,22.9,34.3,22.9
					L196.4,370.2z"/>
				<path class="st42" d="M196.4,370.2c0,0,11.2-1.8,37.9,6.7c7.3-20.6,15.7-44.6,21.3-60.4c-25.5-9-39.2-3.1-39.2-3.1L196.4,370.2z
					"/>
			</g>
			<g>
				<path class="st42" d="M229.6,570.5l69.9,18.6c0.9,0.2,1.4,1.2,1.2,2.1l-12.1,45.4c-0.2,0.9-1.2,1.4-2.1,1.2l-69.9-18.6
					c-0.9-0.2-1.4-1.2-1.2-2.1l12.1-45.4C227.8,570.8,228.7,570.2,229.6,570.5z"/>
				<path class="st42" d="M242.5,522.1l69.9,18.6c0.9,0.2,1.4,1.2,1.2,2.1l-12.1,45.4c-0.2,0.9-1.2,1.4-2.1,1.2l-69.9-18.6
					c-0.9-0.2-1.4-1.2-1.2-2.1l12.1-45.4C240.7,522.4,241.6,521.9,242.5,522.1z"/>
				
					<rect x="252.9" y="525.3" transform="matrix(0.2574 -0.9663 0.9663 0.2574 -335.922 674.5352)" class="st42" width="36" height="61"/>
				<path class="st42" d="M286.7,614.9c-0.3,1.1-1.4,1.7-2.4,1.4l-55.1-14.7c-1.1-0.3-1.7-1.4-1.4-2.4l4.6-17.4
					c0.3-1.1,1.4-1.7,2.4-1.4l55.1,14.7c1.1,0.3,1.7,1.4,1.4,2.4L286.7,614.9z"/>
				<path class="st42" d="M265.2,625.7c-0.3,1.1-1.4,1.7-2.4,1.4l-20.3-5.4c-1.1-0.3-1.7-1.4-1.4-2.4l1.8-6.8
					c0.3-1.1,1.4-1.7,2.4-1.4l20.3,5.4c1.1,0.3,1.7,1.4,1.4,2.4L265.2,625.7z"/>
				<line class="st42" x1="255" y1="613.7" x2="252.4" y2="623.3"/>
				<line class="st42" x1="244.8" y1="535.4" x2="303.7" y2="551.1"/>
				<line class="st42" x1="244.2" y1="541.5" x2="251.9" y2="543.5"/>
				<line class="st42" x1="251.9" y1="543.5" x2="247.6" y2="560"/>
				<line class="st42" x1="246.6" y1="559.7" x2="238.9" y2="557.6"/>
				<line class="st42" x1="231.1" y1="586.6" x2="290.1" y2="602.3"/>
				<line class="st42" x1="229.3" y1="593.4" x2="288.3" y2="609.1"/>
				<g>
					<line class="st42" x1="240.7" y1="581.9" x2="235.3" y2="602.2"/>
					<line class="st42" x1="249.4" y1="584.2" x2="244" y2="604.5"/>
					<line class="st42" x1="258.1" y1="586.6" x2="252.7" y2="606.9"/>
					<line class="st42" x1="266.8" y1="588.9" x2="261.4" y2="609.2"/>
					<line class="st42" x1="275.5" y1="591.2" x2="270.1" y2="611.5"/>
					<line class="st42" x1="284.2" y1="593.5" x2="278.8" y2="613.8"/>
				</g>
			</g>
			<g>
				<rect x="591" y="491" class="st42" width="8" height="36"/>
				<rect x="603" y="508" class="st42" width="9" height="19"/>
				<rect x="616" y="499" class="st42" width="8" height="28"/>
				<line class="st42" x1="584" y1="527" x2="638" y2="527"/>
				<line class="st42" x1="584" y1="527" x2="584" y2="474"/>
			</g>
			<g>
				<path class="st48" d="M185.3,588c-0.5,0-1,0-1.5-0.1c-0.5-0.1-1-0.3-1.4-0.5c-1.4-0.6-2.3-1.6-2.8-2.7c-0.5-1.2-0.4-2.4,0.2-3.8
					c0.6-1.3,1.5-2.2,2.7-2.6c1.2-0.4,2.5-0.3,3.9,0.4c0.5,0.2,0.9,0.5,1.3,0.8c0.4,0.3,0.7,0.7,1,1l-0.8,1.7
					c-0.3-0.5-0.6-0.8-0.9-1.2c-0.3-0.3-0.7-0.6-1.1-0.8c-0.8-0.4-1.5-0.4-2.2-0.1c-0.7,0.3-1.2,0.9-1.6,1.7
					c-0.4,0.9-0.5,1.7-0.3,2.4c0.2,0.7,0.7,1.2,1.5,1.6c0.4,0.2,0.9,0.3,1.3,0.4c0.5,0.1,0.9,0,1.5-0.1L185.3,588z"/>
				<path class="st48" d="M194.7,582.5c1.4,0.6,2.2,1.5,2.6,2.6c0.4,1.1,0.3,2.4-0.3,3.7c-0.6,1.4-1.5,2.2-2.6,2.7
					c-1.1,0.4-2.4,0.3-3.7-0.3c-1.3-0.6-2.2-1.5-2.6-2.6c-0.4-1.1-0.3-2.4,0.3-3.7c0.6-1.4,1.5-2.3,2.6-2.7
					C192.1,581.7,193.3,581.8,194.7,582.5z M193.9,584c-0.7-0.3-1.3-0.3-1.9,0c-0.6,0.3-1.1,0.9-1.5,1.8c-0.4,0.9-0.5,1.7-0.4,2.3
					c0.1,0.7,0.5,1.1,1.2,1.4c0.7,0.3,1.3,0.3,1.9,0c0.6-0.3,1.1-0.9,1.5-1.8c0.4-0.9,0.5-1.7,0.4-2.3
					C195,584.8,194.6,584.3,193.9,584z"/>
				<path class="st48" d="M196.2,597.1l2.2,1l-0.4,0.9l-3.6-1.6l0.4-0.9l2.5-0.8c0.2-0.1,0.4-0.2,0.6-0.3c0.1-0.1,0.2-0.2,0.3-0.4
					c0.1-0.2,0.1-0.5,0-0.7c-0.1-0.2-0.3-0.4-0.5-0.5c-0.2-0.1-0.4-0.1-0.7-0.2c-0.3,0-0.6,0-0.9,0l0.5-1.1c0.3,0,0.6,0.1,0.9,0.2
					c0.3,0.1,0.6,0.2,0.9,0.3c0.6,0.3,1,0.6,1.2,1c0.2,0.4,0.2,0.8,0,1.3c-0.1,0.3-0.3,0.5-0.6,0.7c-0.2,0.2-0.7,0.3-1.3,0.5
					L196.2,597.1z"/>
			</g>
			<g>
				<path class="st48" d="M674.4,531.6c0,0.5-0.1,1-0.2,1.5c-0.1,0.5-0.3,0.9-0.5,1.4c-0.7,1.4-1.6,2.3-2.8,2.7
					c-1.2,0.4-2.4,0.3-3.7-0.4c-1.3-0.7-2.2-1.6-2.5-2.8c-0.4-1.2-0.2-2.5,0.5-3.9c0.2-0.5,0.5-0.9,0.8-1.2c0.3-0.4,0.7-0.7,1.1-1
					l1.7,0.9c-0.5,0.3-0.9,0.5-1.2,0.9c-0.3,0.3-0.6,0.7-0.8,1.1c-0.4,0.8-0.5,1.5-0.2,2.2c0.3,0.7,0.8,1.2,1.7,1.7
					c0.8,0.4,1.6,0.6,2.3,0.4c0.7-0.2,1.3-0.7,1.6-1.4c0.2-0.4,0.4-0.9,0.4-1.3c0.1-0.4,0.1-0.9,0-1.5L674.4,531.6z"/>
				<path class="st48" d="M669.3,522c0.7-1.3,1.6-2.2,2.7-2.5c1.1-0.4,2.4-0.2,3.7,0.5c1.3,0.7,2.2,1.6,2.6,2.7
					c0.4,1.1,0.2,2.4-0.5,3.7c-0.7,1.3-1.6,2.2-2.7,2.5c-1.1,0.4-2.4,0.2-3.7-0.5c-1.3-0.7-2.2-1.6-2.6-2.7
					C668.5,524.6,668.6,523.3,669.3,522z M670.8,522.8c-0.3,0.6-0.4,1.3-0.1,1.9c0.3,0.6,0.9,1.1,1.7,1.6c0.9,0.4,1.6,0.6,2.3,0.5
					c0.7-0.1,1.2-0.5,1.5-1.1c0.3-0.7,0.4-1.3,0.1-1.9c-0.3-0.6-0.9-1.1-1.7-1.6c-0.9-0.4-1.6-0.6-2.3-0.5
					C671.7,521.8,671.2,522.2,670.8,522.8z"/>
				<path class="st48" d="M684,521.1l1.1-2.1l0.9,0.5l-1.8,3.5l-0.9-0.5l-0.6-2.5c-0.1-0.2-0.1-0.4-0.2-0.6
					c-0.1-0.1-0.2-0.3-0.4-0.3c-0.2-0.1-0.4-0.1-0.7-0.1c-0.2,0.1-0.4,0.2-0.5,0.5c-0.1,0.2-0.2,0.4-0.2,0.7c0,0.3,0,0.6,0,0.9
					l-1.1-0.5c0.1-0.3,0.1-0.6,0.2-0.9c0.1-0.3,0.2-0.6,0.3-0.8c0.3-0.6,0.7-1,1.1-1.1c0.4-0.2,0.9-0.2,1.3,0.1
					c0.3,0.1,0.5,0.3,0.6,0.6c0.2,0.3,0.3,0.7,0.5,1.3L684,521.1z"/>
			</g>
			<g>
				<path class="st48" d="M464.2,192.1c0,0.7-0.2,1.4-0.4,2c-0.2,0.7-0.5,1.3-0.9,1.9c-1.1,1.9-2.6,3-4.3,3.5
					c-1.7,0.4-3.4,0.1-5.2-1c-1.8-1.1-2.9-2.5-3.2-4.2c-0.4-1.7,0-3.5,1.2-5.4c0.4-0.6,0.8-1.2,1.3-1.7c0.5-0.5,1-0.9,1.6-1.3
					l2.3,1.4c-0.7,0.3-1.3,0.7-1.8,1.1c-0.5,0.4-0.9,0.9-1.3,1.5c-0.6,1-0.8,2-0.5,3c0.3,1,1,1.8,2.2,2.6c1.2,0.7,2.2,1,3.3,0.8
					c1-0.2,1.8-0.8,2.5-1.8c0.4-0.6,0.6-1.2,0.8-1.8c0.1-0.6,0.2-1.3,0.2-2.1L464.2,192.1z"/>
				<path class="st48" d="M458.1,178.1c1.1-1.8,2.5-2.9,4.1-3.3c1.7-0.4,3.4,0,5.2,1.1c1.8,1.1,2.9,2.5,3.3,4.1
					c0.4,1.6,0.1,3.4-1,5.2c-1.1,1.8-2.5,2.9-4.1,3.3c-1.7,0.4-3.4,0-5.2-1.1c-1.8-1.1-2.9-2.5-3.3-4.1
					C456.6,181.6,457,179.9,458.1,178.1z M460.1,179.3c-0.5,0.9-0.6,1.8-0.3,2.6c0.4,0.9,1.1,1.7,2.3,2.4c1.2,0.7,2.2,1,3.2,0.9
					c0.9-0.1,1.7-0.6,2.2-1.4c0.5-0.9,0.6-1.8,0.3-2.6c-0.4-0.9-1.1-1.7-2.3-2.4c-1.2-0.7-2.2-1-3.2-1
					C461.4,178,460.7,178.5,460.1,179.3z"/>
				<path class="st48" d="M478.9,178.3l1.8-2.9l1.2,0.8l-2.9,4.7l-1.2-0.8l-0.6-3.7c-0.1-0.3-0.2-0.6-0.3-0.8
					c-0.1-0.2-0.3-0.4-0.5-0.5c-0.3-0.2-0.6-0.2-0.9-0.1c-0.3,0.1-0.6,0.3-0.8,0.6c-0.2,0.3-0.3,0.6-0.4,1c-0.1,0.4-0.1,0.8-0.1,1.3
					l-1.4-0.9c0.1-0.5,0.2-0.9,0.4-1.3c0.2-0.4,0.3-0.8,0.6-1.1c0.5-0.8,1-1.3,1.6-1.5c0.6-0.2,1.2-0.1,1.8,0.2
					c0.4,0.2,0.6,0.5,0.8,0.9c0.2,0.4,0.4,1,0.5,1.9L478.9,178.3z"/>
			</g>
			<g>
				<path class="st48" d="M616.9,395.5c1.7,0,3,0.5,3.9,1.5c1,1,1.4,2.3,1.4,4c0,1.7-0.5,3-1.4,4c-1,1-2.3,1.5-3.9,1.5
					c-1.7,0-3-0.5-3.9-1.5c-1-1-1.4-2.3-1.4-4c0-1.7,0.5-3,1.4-4C613.9,396,615.3,395.5,616.9,395.5z M616.9,397.7
					c-0.6,0-1.1,0.3-1.5,0.8c-0.4,0.6-0.5,1.3-0.5,2.4c0,1,0.2,1.8,0.5,2.4c0.3,0.6,0.8,0.8,1.5,0.8c0.6,0,1.1-0.3,1.5-0.8
					c0.3-0.6,0.5-1.4,0.5-2.4c0-1-0.2-1.8-0.5-2.4C618,398,617.5,397.7,616.9,397.7z M619.7,416.3h-3l12.5-20.8h3L619.7,416.3z
					 M632,405.4c1.7,0,3,0.5,3.9,1.4c1,1,1.4,2.3,1.4,4c0,1.7-0.5,3-1.4,4c-1,1-2.3,1.5-3.9,1.5c-1.7,0-3-0.5-3.9-1.5
					c-1-1-1.4-2.3-1.4-4c0-1.7,0.5-3,1.4-4C629,405.9,630.3,405.4,632,405.4z M632,407.6c-0.6,0-1.1,0.3-1.5,0.8
					c-0.3,0.5-0.5,1.3-0.5,2.4c0,1,0.2,1.8,0.5,2.4c0.3,0.6,0.8,0.8,1.5,0.8c0.6,0,1.1-0.3,1.5-0.8c0.3-0.5,0.5-1.3,0.5-2.4
					c0-1-0.2-1.8-0.5-2.4C633.1,407.9,632.6,407.6,632,407.6z"/>
			</g>
			<g>
				<path class="st48" d="M111.2,345.5c1.6,0.5,2.7,1.4,3.3,2.6c0.6,1.2,0.6,2.6,0.1,4.2c-0.5,1.6-1.4,2.7-2.6,3.3
					c-1.2,0.6-2.6,0.7-4.2,0.1c-1.6-0.5-2.7-1.4-3.2-2.6c-0.6-1.2-0.6-2.6-0.1-4.2c0.5-1.6,1.4-2.7,2.6-3.3
					C108.2,345,109.6,344.9,111.2,345.5z M110.5,347.6c-0.6-0.2-1.2-0.1-1.7,0.3c-0.5,0.4-0.9,1.1-1.3,2.1c-0.3,1-0.4,1.8-0.3,2.4
					c0.1,0.6,0.5,1.1,1.1,1.3c0.6,0.2,1.2,0.1,1.7-0.3c0.5-0.4,0.9-1.1,1.3-2.1c0.3-1,0.4-1.8,0.3-2.4
					C111.4,348.2,111.1,347.8,110.5,347.6z M107.1,366l-2.8-0.9l18.5-15.7l2.8,1L107.1,366z M122.3,359.6c1.6,0.5,2.7,1.4,3.3,2.6
					c0.6,1.2,0.6,2.6,0.1,4.2c-0.5,1.6-1.4,2.7-2.6,3.3c-1.2,0.6-2.6,0.7-4.2,0.1c-1.6-0.5-2.7-1.4-3.3-2.7
					c-0.6-1.2-0.6-2.7-0.1-4.3c0.5-1.6,1.4-2.7,2.6-3.3C119.3,359.1,120.7,359.1,122.3,359.6z M121.6,361.8
					c-0.6-0.2-1.2-0.1-1.7,0.3c-0.5,0.4-0.9,1.1-1.2,2.1c-0.3,1-0.4,1.8-0.3,2.4c0.1,0.6,0.5,1.1,1.1,1.3c0.6,0.2,1.2,0.1,1.7-0.3
					c0.5-0.4,0.9-1.1,1.2-2.1c0.3-1,0.4-1.8,0.3-2.4C122.5,362.4,122.2,362,121.6,361.8z"/>
			</g>
			<g>
				<path class="st48" d="M134.2,277.2l-4.2,2l-0.3-0.6c-0.3-0.6-0.4-1.3-0.4-1.9c0-0.6,0.3-1.5,0.7-2.6l0.4-1
					c0.2-0.6,0.4-1.1,0.4-1.6c0-0.5,0-0.9-0.2-1.2c-0.3-0.5-0.6-0.9-1.2-1c-0.5-0.1-1.1,0-1.8,0.3c-0.6,0.3-1.2,0.7-1.8,1.3
					c-0.6,0.6-1.2,1.3-1.7,2.2l-1.7-3.6c0.8-0.8,1.5-1.4,2.2-1.9c0.7-0.5,1.4-0.9,2.1-1.3c1.9-0.9,3.5-1.2,4.9-0.9
					c1.4,0.3,2.4,1.2,3.1,2.7c0.4,0.8,0.5,1.5,0.5,2.2c0,0.7-0.2,1.6-0.6,2.7l-0.4,1c-0.3,0.7-0.5,1.3-0.5,1.6c0,0.4,0,0.7,0.2,1.1
					L134.2,277.2z M130.8,280.8l4.2-2l2,4.1l-4.2,2L130.8,280.8z"/>
			</g>
			<g>
				<path class="st48" d="M569.3,415.5l-2.5,2.4l-0.3-0.3c-0.4-0.4-0.6-0.8-0.7-1.2c-0.1-0.4-0.2-1.1-0.1-2l0-0.8
					c0-0.5,0-0.9-0.1-1.2c-0.1-0.3-0.2-0.6-0.4-0.8c-0.3-0.3-0.7-0.5-1.1-0.4c-0.4,0-0.8,0.2-1.2,0.6c-0.4,0.4-0.7,0.8-1,1.4
					c-0.3,0.6-0.5,1.2-0.7,2l-2.1-2.1c0.4-0.7,0.7-1.4,1.1-1.9c0.4-0.5,0.8-1,1.2-1.4c1.1-1.1,2.2-1.7,3.2-1.8c1-0.1,2,0.3,2.8,1.1
					c0.4,0.4,0.7,0.9,0.9,1.5c0.2,0.5,0.2,1.2,0.2,2l-0.1,0.8c0,0.6,0,1,0.1,1.3c0.1,0.3,0.2,0.5,0.4,0.7L569.3,415.5z M567.9,419
					l2.5-2.4l2.4,2.4l-2.5,2.4L567.9,419z"/>
			</g>
			<g>
				<path class="st42" d="M625.8,575.3l9.2-19.1l-8.1-3.9l-9.2,19.1c-5.4-0.4-11.2,2.5-13.8,7.9c-3.3,6.9-0.4,15.3,6.6,18.6
					c6.9,3.3,14.9,0.2,18.2-6.7C631.3,585.8,630.4,579.7,625.8,575.3z"/>
				<path class="st42" d="M609.2,578.6c-0.5,0.6-1,1.3-1.4,2.1c-2.4,4.9-0.3,10.9,4.6,13.2c4.9,2.4,10.9,0.3,13.2-4.6
					c0.4-0.8,0.6-1.6,0.8-2.4L609.2,578.6z"/>
			</g>
			<g>
				<path class="st42" d="M359.9,102l-0.8-21.2l-9,0.3l0.8,21.2c-4.9,2.1-8.7,7.4-8.5,13.4c0.3,7.7,6.8,13.7,14.5,13.4
					c7.7-0.3,13.3-6.7,13-14.4C369.6,108.8,366,103.8,359.9,102z"/>
				<path class="st42" d="M346.7,112.7c-0.2,0.8-0.3,1.6-0.2,2.5c0.2,5.5,4.8,9.7,10.3,9.5c5.5-0.2,9.7-4.8,9.5-10.3
					c0-0.9-0.2-1.7-0.4-2.5L346.7,112.7z"/>
			</g>
			<g>
				<path class="st42" d="M253.2,138.3c-9.6-3.7-10.8-10.3-7.2-18.5c3.8-8.7,6.4-17.9,6.4-17.9s8.1,11.4,10.3,17.1
					C265.4,125.8,263.3,134.1,253.2,138.3z"/>
				<path class="st42" d="M253.2,138.3c0,0-4.2-4.5-1.3-10.7c1.4-2.9,3-5.9,2.3-10.2"/>
			</g>
			<g>
				<path class="st42" d="M609.5,190.5c5.9-9,12.8-8.8,20.5-3.2c8,5.8,16.8,10.5,16.8,10.5s-13.4,5.7-19.7,6.7
					C619.4,205.7,611.5,201.7,609.5,190.5z"/>
				<path class="st42" d="M609.5,190.5c0,0,5.5-3.3,11.2,1.1c2.6,2,5.4,4.3,9.9,4.6"/>
			</g>
			<g>
				<line class="st42" x1="243" y1="265" x2="297" y2="265"/>
				<line class="st42" x1="243" y1="265" x2="243" y2="212"/>
				<path class="st42" d="M263.3,234c0,2.9-2.4,5.3-5.3,5.3c-2.9,0-5.3-2.4-5.3-5.3c0-2.9,2.4-5.3,5.3-5.3
					C260.9,228.7,263.3,231,263.3,234z"/>
				<path class="st42" d="M276.3,249c0,2.9-2.4,5.3-5.3,5.3c-2.9,0-5.3-2.4-5.3-5.3c0-2.9,2.4-5.3,5.3-5.3
					C273.9,243.7,276.3,246,276.3,249z"/>
				<path class="st42" d="M288.3,225c0,2.9-2.4,5.3-5.3,5.3c-2.9,0-5.3-2.4-5.3-5.3c0-2.9,2.4-5.3,5.3-5.3
					C285.9,219.7,288.3,222,288.3,225z"/>
				<line class="st42" x1="243" y1="240" x2="252.7" y2="236.3"/>
				<line class="st42" x1="261.7" y1="237.7" x2="267.7" y2="244.8"/>
				<line class="st42" x1="275" y1="244.3" x2="280.8" y2="229.8"/>
				<line class="st42" x1="287.2" y1="228.2" x2="297.7" y2="235.7"/>
			</g>
			<g>
				<circle class="st42" cx="194.3" cy="248.9" r="19.3"/>
				
					<ellipse transform="matrix(0.1595 -0.9872 0.9872 0.1595 -82.387 401.0504)" class="st42" cx="194.3" cy="248.9" rx="14.2" ry="14.2"/>
				<line class="st42" x1="195" y1="249" x2="195" y2="241"/>
				<line class="st42" x1="195" y1="249" x2="184" y2="249"/>
				<polyline class="st42" points="181.8,264.8 180.3,271.2 186.9,267.4 				"/>
				<polyline class="st42" points="207.3,264.8 208.8,271.2 202.2,267.4 				"/>
				<path class="st42" d="M179.3,235.4c-1.8-3.1-0.7-7.1,2.4-8.8c3.1-1.8,7.1-0.7,8.8,2.4"/>
				<path class="st42" d="M209,235.4c1.8-3.1,0.7-7.1-2.4-8.8c-3.1-1.8-7.1-0.7-8.8,2.4"/>
				<path class="st42" d="M182,226.3c1.2-5.9,6.4-10.4,12.7-10.4c6.3,0,11.5,4.4,12.7,10.4"/>
			</g>
			<g>
				<path class="st42" d="M531.7,259.4c2.3-0.2,4.6,0.5,6.5,2.1c1.9,1.6,2.9,3.8,3.1,6.1"/>
				<path class="st42" d="M518,249.3c0,0,13.5,14.6,18.9,21.5c5.5,6.9,11.7,16.6,9.3,19.8"/>
				<path class="st42" d="M553.7,279.8c0,0-16.5-11-24.1-15.4c-7.7-4.4-18.2-9-21-6.1"/>
				<path class="st45" d="M529.3,265.7c-3.2,3.8-8.9,4.2-12.6,1c-3.8-3.2-4.2-8.9-1-12.6c3.2-3.8,8.9-4.2,12.6-1
					C532.1,256.3,532.5,262,529.3,265.7z"/>
				<path class="st45" d="M549.8,283.3c-3.2,3.8-8.9,4.2-12.6,1c-3.8-3.2-4.2-8.9-1-12.6c3.2-3.8,8.9-4.2,12.6-1
					C552.6,273.8,553,279.5,549.8,283.3z"/>
			</g>
			<g>
				<path class="st44" d="M246.2,414.8c-4.9,6.6-21-5.2-25.8,1.4c-4.9,6.6,11.3,18.4,6.4,25.1c-4.9,6.6-21-5.2-25.8,1.4
					c-4.9,6.6,11.3,18.4,6.4,25.1c-4.9,6.6-21-5.2-25.8,1.4"/>
				<path class="st44" d="M197.9,480.6c4.9-6.6-11.3-18.4-6.4-25.1c4.9-6.6,21,5.2,25.8-1.4c4.9-6.6-11.3-18.4-6.4-25.1
					c4.9-6.6,21,5.2,25.8-1.4c4.9-6.6-11.3-18.4-6.4-25.1"/>
			</g>
			<g>
				<path class="st44" d="M683.9,470.4c-4.2-1-1.7-11.4-5.9-12.4c-4.2-1-6.8,9.3-11,8.2c-4.2-1-1.7-11.4-5.9-12.4
					c-4.2-1-6.8,9.3-11,8.2c-4.2-1-1.7-11.4-5.9-12.4"/>
				<path class="st44" d="M641.7,459.9c4.2,1,6.8-9.3,11-8.2c4.2,1,1.7,11.4,5.9,12.4c4.2,1,6.8-9.3,11-8.2c4.2,1,1.7,11.4,5.9,12.4
					c4.2,1,6.8-9.3,11-8.2"/>
			</g>
			<path class="st42" d="M553.4,509.1c-1.5-1.7-4-3.1-6.3-3.1l-2.4,0.1c-1.7,0.3-3.2,1.1-4.5,2.2c-1.5,1.3-2.5,3.1-3,5.1
				c-0.1-1.9-0.9-3.8-2.2-5.3c-1.4-1.6-3.8-3-6-3c-0.8,0-1.5,0.1-2.3,0.1c-1.6,0.3-3,1-4.2,2.1c-1.7,1.5-2.8,3.7-3,6
				c-0.1,1.8,0.3,3.5,1.1,5.1c-0.4,0-0.8,0-1.2,0.1c-1.5,0.3-2.8,0.9-4,1.9c-1.6,1.4-2.6,3.5-2.8,5.6c-0.2,2.2,0.6,4.5,2.1,6.2
				c1.3,1.5,3.6,2.8,5.6,2.8c0.7,0,1.4-0.1,2.2-0.1c1.5-0.3,2.8-0.9,4-1.9c0.3-0.3,0.5-0.5,0.8-0.8c0,0,0,0,0,0
				c1.5,1.7,4,3.1,6.3,3.1l2.4-0.1c1.7-0.3,3.2-1,4.4-2.2c1.8-1.6,2.9-3.9,3.1-6.3c0.1-0.8,0-1.6-0.1-2.4c0.7,0.2,1.4,0.4,2.2,0.4
				l2.4-0.1c1.7-0.3,3.2-1.1,4.5-2.2c1.8-1.6,3-3.9,3.1-6.3C555.9,513.5,555,511,553.4,509.1z"/>
			<path class="st42" d="M202.7,157.6c-1-1.2-2.8-2.2-4.4-2.2c-0.6,0-1.1,0.1-1.7,0.1c-1.2,0.2-2.2,0.7-3.1,1.5
				c-0.1,0.1-0.2,0.2-0.2,0.2c0,0,0-0.1,0-0.1c-0.6-2.7-2.8-4.8-5.6-5c-1.1-0.1-2.2,0.1-3.2,0.6c-0.5,0.3-0.9,0.6-1.4,0.9
				c-0.8,0.7-1.4,1.6-1.8,2.6c0,0.2-0.1,0.3-0.1,0.5c-0.3,0.9-0.4,1.8-0.3,2.7c-0.3,0-0.7,0-1,0.1c-1.1,0.2-2.1,0.7-3,1.5
				c-1.2,1.1-2,2.6-2.1,4.3c-0.1,1.7,0.4,3.4,1.6,4.7c1,1.2,2.7,2.1,4.3,2.1c0.5,0,1.1-0.1,1.6-0.1c0.6-0.1,1.1-0.3,1.6-0.5
				c0.2,0.3,0.4,0.7,0.7,1c1.1,1.2,2.8,2.2,4.5,2.2c0.6,0,1.1-0.1,1.7-0.1c1.2-0.2,2.2-0.7,3.2-1.5c1.3-1.1,2.1-2.8,2.2-4.5
				c0-0.1,0-0.2,0-0.3c0.4,0.1,0.9,0.2,1.3,0.2c0.6,0,1.1-0.1,1.7-0.1c1.2-0.2,2.2-0.7,3.1-1.5c1.3-1.1,2.1-2.7,2.2-4.4
				C204.5,160.7,203.9,158.9,202.7,157.6z"/>
			<path class="st42" d="M687.9,245.8c-0.3-1.5-1.4-3.3-2.8-4.1c-0.5-0.2-1-0.5-1.5-0.7c-1.1-0.4-2.3-0.4-3.5-0.2
				c-0.1,0-0.2,0.1-0.3,0.1c0,0,0-0.1,0-0.1c0.8-2.7-0.1-5.6-2.5-7.1c-0.9-0.6-2-0.9-3.1-1c-0.6,0-1.1,0.1-1.7,0.1
				c-1.1,0.2-2,0.7-2.8,1.4c-0.1,0.1-0.2,0.2-0.3,0.3c-0.7,0.6-1.2,1.4-1.6,2.2c-0.3-0.1-0.6-0.3-0.9-0.4c-1.1-0.4-2.2-0.4-3.4-0.2
				c-1.6,0.3-3,1.3-3.9,2.7c-0.9,1.4-1.3,3.2-0.9,4.8c0.3,1.5,1.3,3.2,2.7,3.9c0.5,0.2,1,0.5,1.5,0.7c0.5,0.2,1.1,0.3,1.6,0.3
				c0,0.4,0.1,0.8,0.1,1.2c0.3,1.6,1.4,3.3,2.8,4.1c0.5,0.3,1,0.5,1.5,0.8c1.2,0.4,2.3,0.4,3.5,0.2c1.7-0.4,3.2-1.4,4.1-2.8
				c0.1-0.1,0.1-0.2,0.1-0.2c0.3,0.3,0.7,0.6,1,0.8c0.5,0.2,1,0.5,1.5,0.7c1.1,0.4,2.3,0.4,3.5,0.2c1.7-0.4,3.1-1.4,4.1-2.8
				C687.9,249.3,688.2,247.5,687.9,245.8z"/>
			<g>
				<polyline class="st42" points="140.8,519.6 142.2,511.4 173.5,489.6 202.6,531.5 				"/>
				<polyline class="st42" points="141.9,518.9 143.1,512 173.3,491 201.8,532.2 202.1,537.8 				"/>
				
					<rect x="152.1" y="503.6" transform="matrix(0.8217 -0.5699 0.5699 0.8217 -271.1598 192.502)" class="st42" width="40" height="52"/>
				<g>
					<g>
						<line class="st42" x1="150" y1="520.6" x2="172.2" y2="505.2"/>
						<line class="st42" x1="154.2" y1="521.3" x2="169.8" y2="510.5"/>
					</g>
					<g>
						<line class="st42" x1="172.8" y1="553.4" x2="195" y2="538.1"/>
					</g>
				</g>
				
					<rect x="159.4" y="521.5" transform="matrix(0.8217 -0.57 0.57 0.8217 -271.3588 192.758)" class="st42" width="26" height="17"/>
			</g>
			<g>
				<g>
					<path class="st44" d="M581.8,341.4c-2.8,13-10.6,22.3-17.4,20.8c-6.8-1.5-9.9-13.2-7.1-26.2c2.8-13,10.6-22.3,17.4-20.8
						C581.4,316.7,584.6,328.4,581.8,341.4z"/>
					<path class="st44" d="M573,350.9c-12.7,3.9-24.5,1.7-26.5-5c-2-6.7,6.7-15.2,19.4-19.1c12.7-3.9,24.5-1.7,26.5,5
						C594.3,338.5,585.6,347,573,350.9z"/>
					<path class="st44" d="M561,348.2c-9.8-9-13.9-20.5-9.3-25.6c4.6-5.1,16.3-2,26.1,7c9.8,9,13.9,20.5,9.3,25.6
						C582.5,360.3,570.8,357.2,561,348.2z"/>
				</g>
				<path class="st44" d="M575.2,340c-0.7,3.2-3.9,5.3-7.1,4.6c-3.2-0.7-5.3-3.9-4.6-7.1c0.7-3.2,3.9-5.3,7.1-4.6
					C573.8,333.6,575.9,336.7,575.2,340z"/>
				<path class="st48" d="M596.7,334.3c-0.5,2.1-2.5,3.5-4.7,3c-2.1-0.5-3.5-2.5-3-4.7c0.5-2.1,2.5-3.5,4.7-3
					C595.8,330.1,597.2,332.2,596.7,334.3z"/>
				<path class="st48" d="M550.4,348.2c-0.5,2.1-2.5,3.4-4.7,3c-2.1-0.5-3.5-2.5-3-4.7c0.5-2.1,2.5-3.4,4.7-3
					C549.5,344,550.9,346.1,550.4,348.2z"/>
				<path class="st48" d="M578.5,316.7c-0.5,2.1-2.5,3.5-4.7,3c-2.1-0.5-3.4-2.5-3-4.7c0.5-2.1,2.5-3.4,4.7-3
					C577.6,312.5,579,314.6,578.5,316.7z"/>
			</g>
		</g>
	</g>
</g>
</svg>
